solid entretoise_ecran
facet normal 0.0 0.0 -1.0
  outer loop
    vertex 0.0 4.999999999999999 0.0
    vertex 1.1391491183234945 3.13093967844817 0.0
    vertex 0.0 0.0 0.0
  endloop
endfacet
facet normal 0.0 0.0 -1.0
  outer loop
    vertex 1.1391491183234945 3.13093967844817 0.0
    vertex 0.0 4.999999999999999 0.0
    vertex 1.3488181927536609 3.4616550559660437 0.0
  endloop
endfacet
facet normal 0.0 0.0 -1.0
  outer loop
    vertex 1.3488181927536609 3.4616550559660437 0.0
    vertex 0.0 4.999999999999999 0.0
    vertex 1.6369384049297795 3.7268352306299515 0.0
  endloop
endfacet
facet normal 0.0 0.0 -1.0
  outer loop
    vertex 1.6369384049297795 3.7268352306299515 0.0
    vertex 0.0 4.999999999999999 0.0
    vertex 1.9838748385332117 3.9084086117675088 0.0
  endloop
endfacet
facet normal 0.0 0.0 -1.0
  outer loop
    vertex 1.9838748385332117 3.9084086117675088 0.0
    vertex 0.0 4.999999999999999 0.0
    vertex 4.999999999999999 4.999999999999999 0.0
  endloop
endfacet
facet normal 0.0 0.0 -1.0
  outer loop
    vertex 0.0 0.0 0.0
    vertex 1.1391491183234945 3.13093967844817 0.0
    vertex 1.0222197825671677 2.75722680452117 0.0
  endloop
endfacet
facet normal 0.0 0.0 -1.0
  outer loop
    vertex 0.0 0.0 0.0
    vertex 1.0222197825671677 2.75722680452117 0.0
    vertex 1.0059987264816102 2.365984348953447 0.0
  endloop
endfacet
facet normal 0.0 0.0 -1.0
  outer loop
    vertex 1.3488181927536609 3.4616550559660437 0.0
    vertex 1.6369384049297795 3.7268352306299515 0.0
    vertex 1.4475104927966702 3.552489507203329 0.0
  endloop
endfacet
facet normal 0.0 0.0 -1.0
  outer loop
    vertex 1.9838748385332117 3.9084086117675088 0.0
    vertex 4.999999999999999 4.999999999999999 0.0
    vertex 2.3659843489534467 3.9940012735183883 0.0
  endloop
endfacet
facet normal 0.0 0.0 -1.0
  outer loop
    vertex 2.3659843489534467 3.9940012735183883 0.0
    vertex 4.999999999999999 4.999999999999999 0.0
    vertex 2.75722680452117 3.9777802174328314 0.0
  endloop
endfacet
facet normal 0.0 0.0 -1.0
  outer loop
    vertex 2.75722680452117 3.9777802174328314 0.0
    vertex 4.999999999999999 4.999999999999999 0.0
    vertex 3.13093967844817 3.8608508816765044 0.0
  endloop
endfacet
facet normal 0.0 0.0 -1.0
  outer loop
    vertex 3.13093967844817 3.8608508816765044 0.0
    vertex 4.999999999999999 4.999999999999999 0.0
    vertex 3.4616550559660437 3.651181807246338 0.0
  endloop
endfacet
facet normal 0.0 0.0 -1.0
  outer loop
    vertex 3.4616550559660437 3.651181807246338 0.0
    vertex 4.999999999999999 4.999999999999999 0.0
    vertex 3.552489507203329 3.552489507203329 0.0
  endloop
endfacet
facet normal 0.0 0.0 -1.0
  outer loop
    vertex 3.552489507203329 3.552489507203329 0.0
    vertex 4.999999999999999 4.999999999999999 0.0
    vertex 3.7268352306299524 3.363061595070219 0.0
  endloop
endfacet
facet normal 0.0 0.0 -1.0
  outer loop
    vertex 3.7268352306299524 3.363061595070219 0.0
    vertex 4.999999999999999 4.999999999999999 0.0
    vertex 3.9084086117675088 3.016125161466787 0.0
  endloop
endfacet
facet normal 0.0 0.0 -1.0
  outer loop
    vertex 3.9084086117675088 3.016125161466787 0.0
    vertex 4.999999999999999 4.999999999999999 0.0
    vertex 3.994001273518389 2.6340156510465516 0.0
  endloop
endfacet
facet normal 0.0 0.0 -1.0
  outer loop
    vertex 0.0 0.0 0.0
    vertex 1.86906032155183 1.1391491183234952 0.0
    vertex 4.999999999999999 0.0 0.0
  endloop
endfacet
facet normal 0.0 0.0 -1.0
  outer loop
    vertex 1.86906032155183 1.1391491183234952 0.0
    vertex 0.0 0.0 0.0
    vertex 1.538344944033956 1.3488181927536615 0.0
  endloop
endfacet
facet normal 0.0 0.0 -1.0
  outer loop
    vertex 1.538344944033956 1.3488181927536615 0.0
    vertex 0.0 0.0 0.0
    vertex 1.2731647693700472 1.6369384049297802 0.0
  endloop
endfacet
facet normal 0.0 0.0 -1.0
  outer loop
    vertex 1.2731647693700472 1.6369384049297802 0.0
    vertex 0.0 0.0 0.0
    vertex 1.0915913882324906 1.9838748385332112 0.0
  endloop
endfacet
facet normal 0.0 0.0 -1.0
  outer loop
    vertex 1.0915913882324906 1.9838748385332112 0.0
    vertex 0.0 0.0 0.0
    vertex 1.0059987264816102 2.365984348953447 0.0
  endloop
endfacet
facet normal 0.0 0.0 -1.0
  outer loop
    vertex 1.538344944033956 1.3488181927536615 0.0
    vertex 1.2731647693700472 1.6369384049297802 0.0
    vertex 1.4475104927966704 1.4475104927966704 0.0
  endloop
endfacet
facet normal 0.0 0.0 -1.0
  outer loop
    vertex 4.999999999999999 0.0 0.0
    vertex 1.86906032155183 1.1391491183234952 0.0
    vertex 2.242773195478829 1.022219782567168 0.0
  endloop
endfacet
facet normal 0.0 0.0 -1.0
  outer loop
    vertex 4.999999999999999 0.0 0.0
    vertex 2.242773195478829 1.022219782567168 0.0
    vertex 2.6340156510465524 1.0059987264816104 0.0
  endloop
endfacet
facet normal 0.0 0.0 -1.0
  outer loop
    vertex 4.999999999999999 0.0 0.0
    vertex 2.6340156510465524 1.0059987264816104 0.0
    vertex 3.0161251614667877 1.0915913882324901 0.0
  endloop
endfacet
facet normal 0.0 0.0 -1.0
  outer loop
    vertex 4.999999999999999 0.0 0.0
    vertex 3.0161251614667877 1.0915913882324901 0.0
    vertex 3.3630615950702194 1.2731647693700472 0.0
  endloop
endfacet
facet normal 0.0 0.0 -1.0
  outer loop
    vertex 4.999999999999999 0.0 0.0
    vertex 3.3630615950702194 1.2731647693700472 0.0
    vertex 3.552489507203329 1.4475104927966704 0.0
  endloop
endfacet
facet normal 0.0 0.0 -1.0
  outer loop
    vertex 4.999999999999999 0.0 0.0
    vertex 3.552489507203329 1.4475104927966704 0.0
    vertex 3.651181807246338 1.5383449440339556 0.0
  endloop
endfacet
facet normal 0.0 0.0 -1.0
  outer loop
    vertex 4.999999999999999 0.0 0.0
    vertex 3.651181807246338 1.5383449440339556 0.0
    vertex 3.8608508816765044 1.8690603215518298 0.0
  endloop
endfacet
facet normal 0.0 0.0 -1.0
  outer loop
    vertex 4.999999999999999 0.0 0.0
    vertex 3.8608508816765044 1.8690603215518298 0.0
    vertex 3.9777802174328314 2.2427731954788284 0.0
  endloop
endfacet
facet normal 0.0 0.0 -1.0
  outer loop
    vertex 4.999999999999999 0.0 0.0
    vertex 3.9777802174328314 2.2427731954788284 0.0
    vertex 3.994001273518389 2.6340156510465516 0.0
  endloop
endfacet
facet normal 0.0 0.0 -1.0
  outer loop
    vertex 4.999999999999999 0.0 0.0
    vertex 3.994001273518389 2.6340156510465516 0.0
    vertex 4.999999999999999 4.999999999999999 0.0
  endloop
endfacet
facet normal 0.0 0.0 1.0
  outer loop
    vertex 0.0 4.999999999999999 1.9999999999999998
    vertex 1.9838748385332117 3.9084086117675088 1.9999999999999998
    vertex 4.999999999999999 4.999999999999999 1.9999999999999998
  endloop
endfacet
facet normal 0.0 0.0 1.0
  outer loop
    vertex 1.9838748385332117 3.9084086117675088 1.9999999999999998
    vertex 0.0 4.999999999999999 1.9999999999999998
    vertex 1.6369384049297795 3.7268352306299515 1.9999999999999998
  endloop
endfacet
facet normal 0.0 0.0 1.0
  outer loop
    vertex 1.6369384049297795 3.7268352306299515 1.9999999999999998
    vertex 0.0 4.999999999999999 1.9999999999999998
    vertex 1.4475104927966702 3.552489507203329 1.9999999999999998
  endloop
endfacet
facet normal 0.0 0.0 1.0
  outer loop
    vertex 4.999999999999999 4.999999999999999 1.9999999999999998
    vertex 1.9838748385332117 3.9084086117675088 1.9999999999999998
    vertex 2.3659843489534467 3.9940012735183883 1.9999999999999998
  endloop
endfacet
facet normal 0.0 0.0 1.0
  outer loop
    vertex 4.999999999999999 4.999999999999999 1.9999999999999998
    vertex 2.3659843489534467 3.9940012735183883 1.9999999999999998
    vertex 2.75722680452117 3.9777802174328314 1.9999999999999998
  endloop
endfacet
facet normal 0.0 0.0 1.0
  outer loop
    vertex 4.999999999999999 4.999999999999999 1.9999999999999998
    vertex 2.75722680452117 3.9777802174328314 1.9999999999999998
    vertex 3.13093967844817 3.8608508816765044 1.9999999999999998
  endloop
endfacet
facet normal 0.0 0.0 1.0
  outer loop
    vertex 4.999999999999999 4.999999999999999 1.9999999999999998
    vertex 3.13093967844817 3.8608508816765044 1.9999999999999998
    vertex 3.4616550559660437 3.651181807246338 1.9999999999999998
  endloop
endfacet
facet normal 0.0 0.0 1.0
  outer loop
    vertex 4.999999999999999 4.999999999999999 1.9999999999999998
    vertex 3.4616550559660437 3.651181807246338 1.9999999999999998
    vertex 3.552489507203329 3.552489507203329 1.9999999999999998
  endloop
endfacet
facet normal 1.0 0.0 0.0
  outer loop
    vertex 4.999999999999999 4.999999999999999 0.0
    vertex 4.999999999999999 0.0 1.9999999999999998
    vertex 4.999999999999999 0.0 0.0
  endloop
endfacet
facet normal 1.0 0.0 0.0
  outer loop
    vertex 4.999999999999999 0.0 1.9999999999999998
    vertex 4.999999999999999 4.999999999999999 0.0
    vertex 4.999999999999999 4.999999999999999 1.9999999999999998
  endloop
endfacet
facet normal -0.0 -1.0 -0.0
  outer loop
    vertex 4.999999999999999 0.0 1.9999999999999998
    vertex 0.0 0.0 0.0
    vertex 4.999999999999999 0.0 0.0
  endloop
endfacet
facet normal -0.0 -1.0 -0.0
  outer loop
    vertex 0.0 0.0 0.0
    vertex 4.999999999999999 0.0 1.9999999999999998
    vertex 0.0 0.0 1.9999999999999998
  endloop
endfacet
facet normal -1.0 0.0 0.0
  outer loop
    vertex 0.0 4.999999999999999 1.9999999999999998
    vertex 0.0 0.0 0.0
    vertex 0.0 0.0 1.9999999999999998
  endloop
endfacet
facet normal -1.0 0.0 0.0
  outer loop
    vertex 0.0 0.0 0.0
    vertex 0.0 4.999999999999999 1.9999999999999998
    vertex 0.0 4.999999999999999 0.0
  endloop
endfacet
facet normal 0.0 1.0 0.0
  outer loop
    vertex 0.0 4.999999999999999 1.9999999999999998
    vertex 4.999999999999999 4.999999999999999 0.0
    vertex 0.0 4.999999999999999 0.0
  endloop
endfacet
facet normal 0.0 1.0 0.0
  outer loop
    vertex 4.999999999999999 4.999999999999999 0.0
    vertex 0.0 4.999999999999999 1.9999999999999998
    vertex 4.999999999999999 4.999999999999999 1.9999999999999998
  endloop
endfacet
facet normal 0.0 0.0 1.0
  outer loop
    vertex 4.999999999999999 0.0 1.9999999999999998
    vertex 3.651181807246338 1.5383449440339556 1.9999999999999998
    vertex 3.552489507203329 1.4475104927966704 1.9999999999999998
  endloop
endfacet
facet normal 0.0 0.0 1.0
  outer loop
    vertex 3.651181807246338 1.5383449440339556 1.9999999999999998
    vertex 4.999999999999999 0.0 1.9999999999999998
    vertex 3.8608508816765044 1.8690603215518298 1.9999999999999998
  endloop
endfacet
facet normal 0.0 0.0 1.0
  outer loop
    vertex 3.8608508816765044 1.8690603215518298 1.9999999999999998
    vertex 4.999999999999999 0.0 1.9999999999999998
    vertex 3.9777802174328314 2.2427731954788284 1.9999999999999998
  endloop
endfacet
facet normal 0.0 0.0 1.0
  outer loop
    vertex 3.9777802174328314 2.2427731954788284 1.9999999999999998
    vertex 4.999999999999999 0.0 1.9999999999999998
    vertex 3.994001273518389 2.6340156510465516 1.9999999999999998
  endloop
endfacet
facet normal 0.0 0.0 1.0
  outer loop
    vertex 3.7268352306299524 3.363061595070219 1.9999999999999998
    vertex 4.999999999999999 4.999999999999999 1.9999999999999998
    vertex 3.552489507203329 3.552489507203329 1.9999999999999998
  endloop
endfacet
facet normal 0.0 0.0 1.0
  outer loop
    vertex 4.999999999999999 4.999999999999999 1.9999999999999998
    vertex 3.7268352306299524 3.363061595070219 1.9999999999999998
    vertex 3.9084086117675088 3.016125161466787 1.9999999999999998
  endloop
endfacet
facet normal 0.0 0.0 1.0
  outer loop
    vertex 4.999999999999999 4.999999999999999 1.9999999999999998
    vertex 3.9084086117675088 3.016125161466787 1.9999999999999998
    vertex 3.994001273518389 2.6340156510465516 1.9999999999999998
  endloop
endfacet
facet normal 0.0 0.0 1.0
  outer loop
    vertex 4.999999999999999 4.999999999999999 1.9999999999999998
    vertex 3.994001273518389 2.6340156510465516 1.9999999999999998
    vertex 4.999999999999999 0.0 1.9999999999999998
  endloop
endfacet
facet normal 0.0 0.0 1.0
  outer loop
    vertex 0.0 0.0 1.9999999999999998
    vertex 1.538344944033956 1.3488181927536615 1.9999999999999998
    vertex 1.4475104927966704 1.4475104927966704 1.9999999999999998
  endloop
endfacet
facet normal 0.0 0.0 1.0
  outer loop
    vertex 1.538344944033956 1.3488181927536615 1.9999999999999998
    vertex 0.0 0.0 1.9999999999999998
    vertex 1.86906032155183 1.1391491183234952 1.9999999999999998
  endloop
endfacet
facet normal 0.0 0.0 1.0
  outer loop
    vertex 1.86906032155183 1.1391491183234952 1.9999999999999998
    vertex 0.0 0.0 1.9999999999999998
    vertex 4.999999999999999 0.0 1.9999999999999998
  endloop
endfacet
facet normal 0.0 0.0 1.0
  outer loop
    vertex 1.86906032155183 1.1391491183234952 1.9999999999999998
    vertex 4.999999999999999 0.0 1.9999999999999998
    vertex 2.242773195478829 1.022219782567168 1.9999999999999998
  endloop
endfacet
facet normal 0.0 0.0 1.0
  outer loop
    vertex 2.242773195478829 1.022219782567168 1.9999999999999998
    vertex 4.999999999999999 0.0 1.9999999999999998
    vertex 2.6340156510465524 1.0059987264816104 1.9999999999999998
  endloop
endfacet
facet normal 0.0 0.0 1.0
  outer loop
    vertex 2.6340156510465524 1.0059987264816104 1.9999999999999998
    vertex 4.999999999999999 0.0 1.9999999999999998
    vertex 3.0161251614667877 1.0915913882324901 1.9999999999999998
  endloop
endfacet
facet normal 0.0 0.0 1.0
  outer loop
    vertex 3.0161251614667877 1.0915913882324901 1.9999999999999998
    vertex 4.999999999999999 0.0 1.9999999999999998
    vertex 3.3630615950702194 1.2731647693700472 1.9999999999999998
  endloop
endfacet
facet normal 0.0 0.0 1.0
  outer loop
    vertex 3.3630615950702194 1.2731647693700472 1.9999999999999998
    vertex 4.999999999999999 0.0 1.9999999999999998
    vertex 3.552489507203329 1.4475104927966704 1.9999999999999998
  endloop
endfacet
facet normal 0.0 0.0 1.0
  outer loop
    vertex 0.0 0.0 1.9999999999999998
    vertex 1.0915913882324906 1.9838748385332112 1.9999999999999998
    vertex 0.0 4.999999999999999 1.9999999999999998
  endloop
endfacet
facet normal 0.0 0.0 1.0
  outer loop
    vertex 1.0915913882324906 1.9838748385332112 1.9999999999999998
    vertex 0.0 0.0 1.9999999999999998
    vertex 1.2731647693700472 1.6369384049297802 1.9999999999999998
  endloop
endfacet
facet normal 0.0 0.0 1.0
  outer loop
    vertex 1.2731647693700472 1.6369384049297802 1.9999999999999998
    vertex 0.0 0.0 1.9999999999999998
    vertex 1.4475104927966704 1.4475104927966704 1.9999999999999998
  endloop
endfacet
facet normal 0.0 0.0 1.0
  outer loop
    vertex 0.0 4.999999999999999 1.9999999999999998
    vertex 1.0915913882324906 1.9838748385332112 1.9999999999999998
    vertex 1.0059987264816102 2.365984348953447 1.9999999999999998
  endloop
endfacet
facet normal 0.0 0.0 1.0
  outer loop
    vertex 0.0 4.999999999999999 1.9999999999999998
    vertex 1.3488181927536609 3.4616550559660437 1.9999999999999998
    vertex 1.4475104927966702 3.552489507203329 1.9999999999999998
  endloop
endfacet
facet normal 0.0 0.0 1.0
  outer loop
    vertex 1.3488181927536609 3.4616550559660437 1.9999999999999998
    vertex 0.0 4.999999999999999 1.9999999999999998
    vertex 1.1391491183234945 3.13093967844817 1.9999999999999998
  endloop
endfacet
facet normal 0.0 0.0 1.0
  outer loop
    vertex 1.1391491183234945 3.13093967844817 1.9999999999999998
    vertex 0.0 4.999999999999999 1.9999999999999998
    vertex 1.0222197825671677 2.75722680452117 1.9999999999999998
  endloop
endfacet
facet normal 0.0 0.0 1.0
  outer loop
    vertex 1.0222197825671677 2.75722680452117 1.9999999999999998
    vertex 0.0 4.999999999999999 1.9999999999999998
    vertex 1.0059987264816102 2.365984348953447 1.9999999999999998
  endloop
endfacet
facet normal 0.7357915610030265 0.677208076411327 0.0
  outer loop
    vertex 1.2731647693700472 1.6369384049297802 0.0
    vertex 1.4475104927966704 1.4475104927966704 1.9999999999999998
    vertex 1.4475104927966704 1.4475104927966704 0.0
  endloop
endfacet
facet normal 0.7357915610030265 0.677208076411327 0.0
  outer loop
    vertex 1.4475104927966704 1.4475104927966704 1.9999999999999998
    vertex 1.2731647693700472 1.6369384049297802 0.0
    vertex 1.2731647693700472 1.6369384049297802 1.9999999999999998
  endloop
endfacet
facet normal 0.7357915610030266 0.677208076411327 0.0
  outer loop
    vertex 1.4475104927966704 1.4475104927966704 0.0
    vertex 1.538344944033956 1.3488181927536615 1.9999999999999998
    vertex 1.538344944033956 1.3488181927536615 0.0
  endloop
endfacet
facet normal 0.7357915610030266 0.677208076411327 0.0
  outer loop
    vertex 1.538344944033956 1.3488181927536615 1.9999999999999998
    vertex 1.4475104927966704 1.4475104927966704 0.0
    vertex 1.4475104927966704 1.4475104927966704 1.9999999999999998
  endloop
endfacet
facet normal 0.5354457238658772 0.844569639990538 0.0
  outer loop
    vertex 1.538344944033956 1.3488181927536615 1.9999999999999998
    vertex 1.86906032155183 1.1391491183234952 0.0
    vertex 1.538344944033956 1.3488181927536615 0.0
  endloop
endfacet
facet normal 0.5354457238658772 0.844569639990538 0.0
  outer loop
    vertex 1.86906032155183 1.1391491183234952 0.0
    vertex 1.538344944033956 1.3488181927536615 1.9999999999999998
    vertex 1.86906032155183 1.1391491183234952 1.9999999999999998
  endloop
endfacet
facet normal 0.29861014551316567 0.9543751783217154 0.0
  outer loop
    vertex 1.86906032155183 1.1391491183234952 1.9999999999999998
    vertex 2.242773195478829 1.022219782567168 0.0
    vertex 1.86906032155183 1.1391491183234952 0.0
  endloop
endfacet
facet normal 0.29861014551316567 0.9543751783217154 0.0
  outer loop
    vertex 2.242773195478829 1.022219782567168 0.0
    vertex 1.86906032155183 1.1391491183234952 1.9999999999999998
    vertex 2.242773195478829 1.022219782567168 1.9999999999999998
  endloop
endfacet
facet normal 0.04142477922032918 0.9991416254298223 0.0
  outer loop
    vertex 2.242773195478829 1.022219782567168 1.9999999999999998
    vertex 2.6340156510465524 1.0059987264816104 0.0
    vertex 2.242773195478829 1.022219782567168 0.0
  endloop
endfacet
facet normal 0.04142477922032918 0.9991416254298223 0.0
  outer loop
    vertex 2.6340156510465524 1.0059987264816104 0.0
    vertex 2.242773195478829 1.022219782567168 1.9999999999999998
    vertex 2.6340156510465524 1.0059987264816104 1.9999999999999998
  endloop
endfacet
facet normal -0.2185836173186884 0.9758182219244922 0.0
  outer loop
    vertex 2.6340156510465524 1.0059987264816104 1.9999999999999998
    vertex 3.0161251614667877 1.0915913882324901 0.0
    vertex 2.6340156510465524 1.0059987264816104 0.0
  endloop
endfacet
facet normal -0.2185836173186884 0.9758182219244922 0.0
  outer loop
    vertex 3.0161251614667877 1.0915913882324901 0.0
    vertex 2.6340156510465524 1.0059987264816104 1.9999999999999998
    vertex 3.0161251614667877 1.0915913882324901 1.9999999999999998
  endloop
endfacet
facet normal -0.46369590156394513 0.8859944192108663 0.0
  outer loop
    vertex 3.0161251614667877 1.0915913882324901 1.9999999999999998
    vertex 3.3630615950702194 1.2731647693700472 0.0
    vertex 3.0161251614667877 1.0915913882324901 0.0
  endloop
endfacet
facet normal -0.46369590156394513 0.8859944192108663 0.0
  outer loop
    vertex 3.3630615950702194 1.2731647693700472 0.0
    vertex 3.0161251614667877 1.0915913882324901 1.9999999999999998
    vertex 3.3630615950702194 1.2731647693700472 1.9999999999999998
  endloop
endfacet
facet normal -0.677208076411327 0.7357915610030265 0.0
  outer loop
    vertex 3.3630615950702194 1.2731647693700472 1.9999999999999998
    vertex 3.552489507203329 1.4475104927966704 0.0
    vertex 3.3630615950702194 1.2731647693700472 0.0
  endloop
endfacet
facet normal -0.677208076411327 0.7357915610030265 0.0
  outer loop
    vertex 3.552489507203329 1.4475104927966704 0.0
    vertex 3.3630615950702194 1.2731647693700472 1.9999999999999998
    vertex 3.552489507203329 1.4475104927966704 1.9999999999999998
  endloop
endfacet
facet normal -0.6772080764113262 0.7357915610030272 0.0
  outer loop
    vertex 3.552489507203329 1.4475104927966704 1.9999999999999998
    vertex 3.651181807246338 1.5383449440339556 0.0
    vertex 3.552489507203329 1.4475104927966704 0.0
  endloop
endfacet
facet normal -0.6772080764113262 0.7357915610030272 0.0
  outer loop
    vertex 3.651181807246338 1.5383449440339556 0.0
    vertex 3.552489507203329 1.4475104927966704 1.9999999999999998
    vertex 3.651181807246338 1.5383449440339556 1.9999999999999998
  endloop
endfacet
facet normal -0.844569639990538 0.5354457238658772 0.0
  outer loop
    vertex 3.8608508816765044 1.8690603215518298 1.9999999999999998
    vertex 3.651181807246338 1.5383449440339556 0.0
    vertex 3.651181807246338 1.5383449440339556 1.9999999999999998
  endloop
endfacet
facet normal -0.844569639990538 0.5354457238658772 0.0
  outer loop
    vertex 3.651181807246338 1.5383449440339556 0.0
    vertex 3.8608508816765044 1.8690603215518298 1.9999999999999998
    vertex 3.8608508816765044 1.8690603215518298 0.0
  endloop
endfacet
facet normal -0.9543751783217156 0.2986101455131653 0.0
  outer loop
    vertex 3.9777802174328314 2.2427731954788284 1.9999999999999998
    vertex 3.8608508816765044 1.8690603215518298 0.0
    vertex 3.8608508816765044 1.8690603215518298 1.9999999999999998
  endloop
endfacet
facet normal -0.9543751783217156 0.2986101455131653 0.0
  outer loop
    vertex 3.8608508816765044 1.8690603215518298 0.0
    vertex 3.9777802174328314 2.2427731954788284 1.9999999999999998
    vertex 3.9777802174328314 2.2427731954788284 0.0
  endloop
endfacet
facet normal -0.9991416254298221 0.04142477922032966 0.0
  outer loop
    vertex 3.994001273518389 2.6340156510465516 1.9999999999999998
    vertex 3.9777802174328314 2.2427731954788284 0.0
    vertex 3.9777802174328314 2.2427731954788284 1.9999999999999998
  endloop
endfacet
facet normal -0.9991416254298221 0.04142477922032966 0.0
  outer loop
    vertex 3.9777802174328314 2.2427731954788284 0.0
    vertex 3.994001273518389 2.6340156510465516 1.9999999999999998
    vertex 3.994001273518389 2.6340156510465516 0.0
  endloop
endfacet
facet normal -0.9758182219244919 -0.21858361731868944 -0.0
  outer loop
    vertex 3.9084086117675088 3.016125161466787 1.9999999999999998
    vertex 3.994001273518389 2.6340156510465516 0.0
    vertex 3.994001273518389 2.6340156510465516 1.9999999999999998
  endloop
endfacet
facet normal -0.9758182219244919 -0.21858361731868944 -0.0
  outer loop
    vertex 3.994001273518389 2.6340156510465516 0.0
    vertex 3.9084086117675088 3.016125161466787 1.9999999999999998
    vertex 3.9084086117675088 3.016125161466787 0.0
  endloop
endfacet
facet normal -0.8859944192108667 -0.463695901563944 -0.0
  outer loop
    vertex 3.7268352306299524 3.363061595070219 1.9999999999999998
    vertex 3.9084086117675088 3.016125161466787 0.0
    vertex 3.9084086117675088 3.016125161466787 1.9999999999999998
  endloop
endfacet
facet normal -0.8859944192108667 -0.463695901563944 -0.0
  outer loop
    vertex 3.9084086117675088 3.016125161466787 0.0
    vertex 3.7268352306299524 3.363061595070219 1.9999999999999998
    vertex 3.7268352306299524 3.363061595070219 0.0
  endloop
endfacet
facet normal -0.7357915610030278 -0.6772080764113255 -0.0
  outer loop
    vertex 3.552489507203329 3.552489507203329 1.9999999999999998
    vertex 3.7268352306299524 3.363061595070219 0.0
    vertex 3.7268352306299524 3.363061595070219 1.9999999999999998
  endloop
endfacet
facet normal -0.7357915610030278 -0.6772080764113255 -0.0
  outer loop
    vertex 3.7268352306299524 3.363061595070219 0.0
    vertex 3.552489507203329 3.552489507203329 1.9999999999999998
    vertex 3.552489507203329 3.552489507203329 0.0
  endloop
endfacet
facet normal -0.7357915610030259 -0.6772080764113276 -0.0
  outer loop
    vertex 3.4616550559660437 3.651181807246338 1.9999999999999998
    vertex 3.552489507203329 3.552489507203329 0.0
    vertex 3.552489507203329 3.552489507203329 1.9999999999999998
  endloop
endfacet
facet normal -0.7357915610030259 -0.6772080764113276 -0.0
  outer loop
    vertex 3.552489507203329 3.552489507203329 0.0
    vertex 3.4616550559660437 3.651181807246338 1.9999999999999998
    vertex 3.4616550559660437 3.651181807246338 0.0
  endloop
endfacet
facet normal -0.5354457238658772 -0.844569639990538 -0.0
  outer loop
    vertex 3.4616550559660437 3.651181807246338 1.9999999999999998
    vertex 3.13093967844817 3.8608508816765044 0.0
    vertex 3.4616550559660437 3.651181807246338 0.0
  endloop
endfacet
facet normal -0.5354457238658772 -0.844569639990538 -0.0
  outer loop
    vertex 3.13093967844817 3.8608508816765044 0.0
    vertex 3.4616550559660437 3.651181807246338 1.9999999999999998
    vertex 3.13093967844817 3.8608508816765044 1.9999999999999998
  endloop
endfacet
facet normal -0.2986101455131645 -0.9543751783217158 -0.0
  outer loop
    vertex 3.13093967844817 3.8608508816765044 1.9999999999999998
    vertex 2.75722680452117 3.9777802174328314 0.0
    vertex 3.13093967844817 3.8608508816765044 0.0
  endloop
endfacet
facet normal -0.2986101455131645 -0.9543751783217158 -0.0
  outer loop
    vertex 2.75722680452117 3.9777802174328314 0.0
    vertex 3.13093967844817 3.8608508816765044 1.9999999999999998
    vertex 2.75722680452117 3.9777802174328314 1.9999999999999998
  endloop
endfacet
facet normal -0.04142477922032786 -0.9991416254298223 -0.0
  outer loop
    vertex 2.75722680452117 3.9777802174328314 1.9999999999999998
    vertex 2.3659843489534467 3.9940012735183883 0.0
    vertex 2.75722680452117 3.9777802174328314 0.0
  endloop
endfacet
facet normal -0.04142477922032786 -0.9991416254298223 -0.0
  outer loop
    vertex 2.3659843489534467 3.9940012735183883 0.0
    vertex 2.75722680452117 3.9777802174328314 1.9999999999999998
    vertex 2.3659843489534467 3.9940012735183883 1.9999999999999998
  endloop
endfacet
facet normal 0.21858361731868814 -0.9758182219244922 0.0
  outer loop
    vertex 2.3659843489534467 3.9940012735183883 1.9999999999999998
    vertex 1.9838748385332117 3.9084086117675088 0.0
    vertex 2.3659843489534467 3.9940012735183883 0.0
  endloop
endfacet
facet normal 0.21858361731868814 -0.9758182219244922 0.0
  outer loop
    vertex 1.9838748385332117 3.9084086117675088 0.0
    vertex 2.3659843489534467 3.9940012735183883 1.9999999999999998
    vertex 1.9838748385332117 3.9084086117675088 1.9999999999999998
  endloop
endfacet
facet normal 0.46369590156394475 -0.8859944192108664 0.0
  outer loop
    vertex 1.9838748385332117 3.9084086117675088 1.9999999999999998
    vertex 1.6369384049297795 3.7268352306299515 0.0
    vertex 1.9838748385332117 3.9084086117675088 0.0
  endloop
endfacet
facet normal 0.46369590156394475 -0.8859944192108664 0.0
  outer loop
    vertex 1.6369384049297795 3.7268352306299515 0.0
    vertex 1.9838748385332117 3.9084086117675088 1.9999999999999998
    vertex 1.6369384049297795 3.7268352306299515 1.9999999999999998
  endloop
endfacet
facet normal 0.6772080764113264 -0.7357915610030269 0.0
  outer loop
    vertex 1.6369384049297795 3.7268352306299515 1.9999999999999998
    vertex 1.4475104927966702 3.552489507203329 0.0
    vertex 1.6369384049297795 3.7268352306299515 0.0
  endloop
endfacet
facet normal 0.6772080764113264 -0.7357915610030269 0.0
  outer loop
    vertex 1.4475104927966702 3.552489507203329 0.0
    vertex 1.6369384049297795 3.7268352306299515 1.9999999999999998
    vertex 1.4475104927966702 3.552489507203329 1.9999999999999998
  endloop
endfacet
facet normal 0.6772080764113256 -0.7357915610030278 0.0
  outer loop
    vertex 1.4475104927966702 3.552489507203329 1.9999999999999998
    vertex 1.3488181927536609 3.4616550559660437 0.0
    vertex 1.4475104927966702 3.552489507203329 0.0
  endloop
endfacet
facet normal 0.6772080764113256 -0.7357915610030278 0.0
  outer loop
    vertex 1.3488181927536609 3.4616550559660437 0.0
    vertex 1.4475104927966702 3.552489507203329 1.9999999999999998
    vertex 1.3488181927536609 3.4616550559660437 1.9999999999999998
  endloop
endfacet
facet normal 0.844569639990538 -0.5354457238658772 0.0
  outer loop
    vertex 1.3488181927536609 3.4616550559660437 0.0
    vertex 1.1391491183234945 3.13093967844817 1.9999999999999998
    vertex 1.1391491183234945 3.13093967844817 0.0
  endloop
endfacet
facet normal 0.844569639990538 -0.5354457238658772 0.0
  outer loop
    vertex 1.1391491183234945 3.13093967844817 1.9999999999999998
    vertex 1.3488181927536609 3.4616550559660437 0.0
    vertex 1.3488181927536609 3.4616550559660437 1.9999999999999998
  endloop
endfacet
facet normal 0.9543751783217158 -0.2986101455131648 0.0
  outer loop
    vertex 1.1391491183234945 3.13093967844817 0.0
    vertex 1.0222197825671677 2.75722680452117 1.9999999999999998
    vertex 1.0222197825671677 2.75722680452117 0.0
  endloop
endfacet
facet normal 0.9543751783217158 -0.2986101455131648 0.0
  outer loop
    vertex 1.0222197825671677 2.75722680452117 1.9999999999999998
    vertex 1.1391491183234945 3.13093967844817 0.0
    vertex 1.1391491183234945 3.13093967844817 1.9999999999999998
  endloop
endfacet
facet normal 0.9991416254298223 -0.041424779220328764 0.0
  outer loop
    vertex 1.0222197825671677 2.75722680452117 0.0
    vertex 1.0059987264816102 2.365984348953447 1.9999999999999998
    vertex 1.0059987264816102 2.365984348953447 0.0
  endloop
endfacet
facet normal 0.9991416254298223 -0.041424779220328764 0.0
  outer loop
    vertex 1.0059987264816102 2.365984348953447 1.9999999999999998
    vertex 1.0222197825671677 2.75722680452117 0.0
    vertex 1.0222197825671677 2.75722680452117 1.9999999999999998
  endloop
endfacet
facet normal 0.9758182219244919 0.21858361731868944 0.0
  outer loop
    vertex 1.0059987264816102 2.365984348953447 0.0
    vertex 1.0915913882324906 1.9838748385332112 1.9999999999999998
    vertex 1.0915913882324906 1.9838748385332112 0.0
  endloop
endfacet
facet normal 0.9758182219244919 0.21858361731868944 0.0
  outer loop
    vertex 1.0915913882324906 1.9838748385332112 1.9999999999999998
    vertex 1.0059987264816102 2.365984348953447 0.0
    vertex 1.0059987264816102 2.365984348953447 1.9999999999999998
  endloop
endfacet
facet normal 0.8859944192108663 0.46369590156394513 0.0
  outer loop
    vertex 1.0915913882324906 1.9838748385332112 0.0
    vertex 1.2731647693700472 1.6369384049297802 1.9999999999999998
    vertex 1.2731647693700472 1.6369384049297802 0.0
  endloop
endfacet
facet normal 0.8859944192108663 0.46369590156394513 0.0
  outer loop
    vertex 1.2731647693700472 1.6369384049297802 1.9999999999999998
    vertex 1.0915913882324906 1.9838748385332112 0.0
    vertex 1.0915913882324906 1.9838748385332112 1.9999999999999998
  endloop
endfacet
endsolid entretoise_ecran
