solid entretoise_carte
facet normal 0.0 0.0 -1.0
  outer loop
    vertex 12.763397718114962 10.832280823052637 7.049916206369744e-16
    vertex 12.763397718114962 9.279366552437512 7.049916206369744e-16
    vertex 12.661175196982168 10.055823687745074 7.049916206369744e-16
  endloop
endfacet
facet normal 0.0 0.0 -1.0
  outer loop
    vertex 12.763397718114962 9.279366552437512 7.049916206369744e-16
    vertex 12.763397718114962 10.832280823052637 7.049916206369744e-16
    vertex 13.063098985628853 11.555823687745075 7.049916206369744e-16
  endloop
endfacet
facet normal 0.0 0.0 -1.0
  outer loop
    vertex 12.763397718114962 9.279366552437512 7.049916206369744e-16
    vertex 13.063098985628853 11.555823687745075 7.049916206369744e-16
    vertex 13.063098985628853 8.555823687745075 7.049916206369744e-16
  endloop
endfacet
facet normal 0.0 0.0 -1.0
  outer loop
    vertex 13.063098985628853 8.555823687745075 7.049916206369744e-16
    vertex 13.063098985628853 11.555823687745075 7.049916206369744e-16
    vertex 13.539854853422526 12.177144031304717 7.049916206369744e-16
  endloop
endfacet
facet normal 0.0 0.0 -1.0
  outer loop
    vertex 13.063098985628853 8.555823687745075 7.049916206369744e-16
    vertex 13.539854853422526 12.177144031304717 7.049916206369744e-16
    vertex 13.539854853422522 7.9345033441854325 7.049916206369744e-16
  endloop
endfacet
facet normal 0.0 0.0 -1.0
  outer loop
    vertex 13.539854853422522 7.9345033441854325 7.049916206369744e-16
    vertex 13.539854853422526 12.177144031304717 7.049916206369744e-16
    vertex 14.161175196982168 7.4577474763917575 7.049916206369744e-16
  endloop
endfacet
facet normal 0.0 0.0 -1.0
  outer loop
    vertex 14.161175196982168 7.4577474763917575 7.049916206369744e-16
    vertex 13.539854853422526 12.177144031304717 7.049916206369744e-16
    vertex 14.161175196982168 12.65389989909839 7.049916206369744e-16
  endloop
endfacet
facet normal 0.0 0.0 -1.0
  outer loop
    vertex 14.161175196982168 7.4577474763917575 7.049916206369744e-16
    vertex 14.161175196982168 12.65389989909839 7.049916206369744e-16
    vertex 14.16222499900718 10.111933437261026 0.0
  endloop
endfacet
facet normal 0.0 0.0 -1.0
  outer loop
    vertex 14.16222499900718 10.111933437261026 0.0
    vertex 14.161175196982168 12.65389989909839 7.049916206369744e-16
    vertex 14.227822760227676 10.497978402805263 0.0
  endloop
endfacet
facet normal 0.0 0.0 -1.0
  outer loop
    vertex 14.227822760227676 10.497978402805263 0.0
    vertex 14.161175196982168 12.65389989909839 7.049916206369744e-16
    vertex 14.884718061674604 12.95360116661228 7.049916206369744e-16
  endloop
endfacet
facet normal 0.0 0.0 -1.0
  outer loop
    vertex 14.227822760227676 10.497978402805263 0.0
    vertex 14.884718061674604 12.95360116661228 7.049916206369744e-16
    vertex 14.39110112128609 10.853891255213364 0.0
  endloop
endfacet
facet normal 0.0 0.0 -1.0
  outer loop
    vertex 14.39110112128609 10.853891255213364 0.0
    vertex 14.884718061674604 12.95360116661228 7.049916206369744e-16
    vertex 14.640932931706542 11.155417121767513 0.0
  endloop
endfacet
facet normal 0.0 0.0 -1.0
  outer loop
    vertex 14.640932931706542 11.155417121767513 0.0
    vertex 14.884718061674604 12.95360116661228 7.049916206369744e-16
    vertex 14.96029256647547 11.382007512957104 0.0
  endloop
endfacet
facet normal 0.0 0.0 -1.0
  outer loop
    vertex 14.96029256647547 11.382007512957104 0.0
    vertex 14.884718061674604 12.95360116661228 7.049916206369744e-16
    vertex 15.661175196982168 13.055823687745075 7.049916206369744e-16
  endloop
endfacet
facet normal 0.0 0.0 -1.0
  outer loop
    vertex 14.96029256647547 11.382007512957104 0.0
    vertex 15.661175196982168 13.055823687745075 7.049916206369744e-16
    vertex 15.327416194250114 11.518220668080888 0.0
  endloop
endfacet
facet normal 0.0 0.0 -1.0
  outer loop
    vertex 15.327416194250114 11.518220668080888 0.0
    vertex 15.661175196982168 13.055823687745075 7.049916206369744e-16
    vertex 15.71728494649812 11.554773885720063 0.0
  endloop
endfacet
facet normal 0.0 0.0 -1.0
  outer loop
    vertex 15.71728494649812 11.554773885720063 0.0
    vertex 15.661175196982168 13.055823687745075 7.049916206369744e-16
    vertex 16.43763233228973 12.95360116661228 7.049916206369744e-16
  endloop
endfacet
facet normal 0.0 0.0 -1.0
  outer loop
    vertex 15.71728494649812 11.554773885720063 0.0
    vertex 16.43763233228973 12.95360116661228 7.049916206369744e-16
    vertex 16.10332991204236 11.489176124499567 0.0
  endloop
endfacet
facet normal 0.0 0.0 -1.0
  outer loop
    vertex 16.10332991204236 11.489176124499567 0.0
    vertex 16.43763233228973 12.95360116661228 7.049916206369744e-16
    vertex 16.459242764450458 11.325897763441152 0.0
  endloop
endfacet
facet normal 0.0 0.0 -1.0
  outer loop
    vertex 16.459242764450458 11.325897763441152 0.0
    vertex 16.43763233228973 12.95360116661228 7.049916206369744e-16
    vertex 17.161175196982168 12.65389989909839 7.049916206369744e-16
  endloop
endfacet
facet normal 0.0 0.0 -1.0
  outer loop
    vertex 16.459242764450458 11.325897763441152 0.0
    vertex 17.161175196982168 12.65389989909839 7.049916206369744e-16
    vertex 16.76076863100461 11.076065953020697 0.0
  endloop
endfacet
facet normal 0.0 0.0 -1.0
  outer loop
    vertex 16.76076863100461 11.076065953020697 0.0
    vertex 17.161175196982168 12.65389989909839 7.049916206369744e-16
    vertex 16.987359022194198 10.756706318251771 0.0
  endloop
endfacet
facet normal 0.0 0.0 -1.0
  outer loop
    vertex 16.987359022194198 10.756706318251771 0.0
    vertex 17.161175196982168 12.65389989909839 7.049916206369744e-16
    vertex 17.123572177317982 10.389582690477125 0.0
  endloop
endfacet
facet normal 0.0 0.0 -1.0
  outer loop
    vertex 17.123572177317982 10.389582690477125 0.0
    vertex 17.161175196982168 12.65389989909839 7.049916206369744e-16
    vertex 17.160125394957156 9.999713938229121 0.0
  endloop
endfacet
facet normal 0.0 0.0 -1.0
  outer loop
    vertex 17.160125394957156 9.999713938229121 0.0
    vertex 17.161175196982168 12.65389989909839 7.049916206369744e-16
    vertex 17.161175196982164 7.457747476391756 7.049916206369744e-16
  endloop
endfacet
facet normal 0.0 0.0 -1.0
  outer loop
    vertex 17.161175196982164 7.457747476391756 7.049916206369744e-16
    vertex 17.161175196982168 12.65389989909839 7.049916206369744e-16
    vertex 17.78249554054181 7.93450334418543 7.049916206369744e-16
  endloop
endfacet
facet normal 0.0 0.0 -1.0
  outer loop
    vertex 17.78249554054181 7.93450334418543 7.049916206369744e-16
    vertex 17.161175196982168 12.65389989909839 7.049916206369744e-16
    vertex 17.78249554054181 12.177144031304715 7.049916206369744e-16
  endloop
endfacet
facet normal 0.0 0.0 -1.0
  outer loop
    vertex 17.78249554054181 7.93450334418543 7.049916206369744e-16
    vertex 17.78249554054181 12.177144031304715 7.049916206369744e-16
    vertex 18.259251408335484 11.555823687745074 7.049916206369744e-16
  endloop
endfacet
facet normal 0.0 0.0 -1.0
  outer loop
    vertex 17.78249554054181 7.93450334418543 7.049916206369744e-16
    vertex 18.259251408335484 11.555823687745074 7.049916206369744e-16
    vertex 18.259251408335484 8.555823687745072 7.049916206369744e-16
  endloop
endfacet
facet normal 0.0 0.0 -1.0
  outer loop
    vertex 18.259251408335484 8.555823687745072 7.049916206369744e-16
    vertex 18.259251408335484 11.555823687745074 7.049916206369744e-16
    vertex 18.558952675849373 10.832280823052637 7.049916206369744e-16
  endloop
endfacet
facet normal 0.0 0.0 -1.0
  outer loop
    vertex 18.259251408335484 8.555823687745072 7.049916206369744e-16
    vertex 18.558952675849373 10.832280823052637 7.049916206369744e-16
    vertex 18.558952675849373 9.279366552437509 7.049916206369744e-16
  endloop
endfacet
facet normal 0.0 0.0 -1.0
  outer loop
    vertex 18.558952675849373 9.279366552437509 7.049916206369744e-16
    vertex 18.558952675849373 10.832280823052637 7.049916206369744e-16
    vertex 18.661175196982168 10.055823687745074 7.049916206369744e-16
  endloop
endfacet
facet normal 0.0 0.0 -1.0
  outer loop
    vertex 14.161175196982168 7.4577474763917575 7.049916206369744e-16
    vertex 14.198778216646353 9.722064685013022 0.0
    vertex 14.884718061674603 7.1580462088778685 7.049916206369744e-16
  endloop
endfacet
facet normal 0.0 0.0 -1.0
  outer loop
    vertex 14.198778216646353 9.722064685013022 0.0
    vertex 14.161175196982168 7.4577474763917575 7.049916206369744e-16
    vertex 14.16222499900718 10.111933437261026 0.0
  endloop
endfacet
facet normal 0.0 0.0 -1.0
  outer loop
    vertex 14.884718061674603 7.1580462088778685 7.049916206369744e-16
    vertex 14.198778216646353 9.722064685013022 0.0
    vertex 14.334991371770139 9.354941057238376 0.0
  endloop
endfacet
facet normal 0.0 0.0 -1.0
  outer loop
    vertex 14.884718061674603 7.1580462088778685 7.049916206369744e-16
    vertex 14.334991371770139 9.354941057238376 0.0
    vertex 14.561581762959726 9.03558142246945 0.0
  endloop
endfacet
facet normal 0.0 0.0 -1.0
  outer loop
    vertex 14.884718061674603 7.1580462088778685 7.049916206369744e-16
    vertex 14.561581762959726 9.03558142246945 0.0
    vertex 14.863107629513877 8.785749612048996 0.0
  endloop
endfacet
facet normal 0.0 0.0 -1.0
  outer loop
    vertex 14.884718061674603 7.1580462088778685 7.049916206369744e-16
    vertex 14.863107629513877 8.785749612048996 0.0
    vertex 15.219020481921977 8.62247125099058 0.0
  endloop
endfacet
facet normal 0.0 0.0 -1.0
  outer loop
    vertex 14.884718061674603 7.1580462088778685 7.049916206369744e-16
    vertex 15.219020481921977 8.62247125099058 0.0
    vertex 15.661175196982168 7.0558236877450735 7.049916206369744e-16
  endloop
endfacet
facet normal 0.0 0.0 -1.0
  outer loop
    vertex 15.661175196982168 7.0558236877450735 7.049916206369744e-16
    vertex 15.219020481921977 8.62247125099058 0.0
    vertex 15.605065447466215 8.556873489770084 0.0
  endloop
endfacet
facet normal 0.0 0.0 -1.0
  outer loop
    vertex 15.661175196982168 7.0558236877450735 7.049916206369744e-16
    vertex 15.605065447466215 8.556873489770084 0.0
    vertex 15.994934199714217 8.59342670740926 0.0
  endloop
endfacet
facet normal 0.0 0.0 -1.0
  outer loop
    vertex 15.661175196982168 7.0558236877450735 7.049916206369744e-16
    vertex 15.994934199714217 8.59342670740926 0.0
    vertex 16.437632332289727 7.1580462088778685 7.049916206369744e-16
  endloop
endfacet
facet normal 0.0 0.0 -1.0
  outer loop
    vertex 16.437632332289727 7.1580462088778685 7.049916206369744e-16
    vertex 15.994934199714217 8.59342670740926 0.0
    vertex 16.362057827488865 8.729639862533043 0.0
  endloop
endfacet
facet normal 0.0 0.0 -1.0
  outer loop
    vertex 16.437632332289727 7.1580462088778685 7.049916206369744e-16
    vertex 16.362057827488865 8.729639862533043 0.0
    vertex 16.68141746225779 8.956230253722632 0.0
  endloop
endfacet
facet normal 0.0 0.0 -1.0
  outer loop
    vertex 16.437632332289727 7.1580462088778685 7.049916206369744e-16
    vertex 16.68141746225779 8.956230253722632 0.0
    vertex 17.161175196982164 7.457747476391756 7.049916206369744e-16
  endloop
endfacet
facet normal 0.0 0.0 -1.0
  outer loop
    vertex 17.161175196982164 7.457747476391756 7.049916206369744e-16
    vertex 16.68141746225779 8.956230253722632 0.0
    vertex 16.717373153045983 8.999625731681256 0.0
  endloop
endfacet
facet normal 0.0 0.0 -1.0
  outer loop
    vertex 17.161175196982164 7.457747476391756 7.049916206369744e-16
    vertex 16.717373153045983 8.999625731681256 0.0
    vertex 16.931249272678244 9.257756120276781 0.0
  endloop
endfacet
facet normal 0.0 0.0 -1.0
  outer loop
    vertex 17.161175196982164 7.457747476391756 7.049916206369744e-16
    vertex 16.931249272678244 9.257756120276781 0.0
    vertex 17.09452763373666 9.613668972684884 0.0
  endloop
endfacet
facet normal 0.0 0.0 -1.0
  outer loop
    vertex 17.161175196982164 7.457747476391756 7.049916206369744e-16
    vertex 17.09452763373666 9.613668972684884 0.0
    vertex 17.160125394957156 9.999713938229121 0.0
  endloop
endfacet
facet normal 0.0 0.0 1.0
  outer loop
    vertex 12.763397718114962 9.279366552437512 7.000000000000001
    vertex 12.763397718114962 10.832280823052637 7.000000000000001
    vertex 12.661175196982168 10.055823687745074 7.000000000000001
  endloop
endfacet
facet normal 0.0 0.0 1.0
  outer loop
    vertex 12.763397718114962 10.832280823052637 7.000000000000001
    vertex 12.763397718114962 9.279366552437512 7.000000000000001
    vertex 13.063098985628853 8.555823687745075 7.000000000000001
  endloop
endfacet
facet normal 0.0 0.0 1.0
  outer loop
    vertex 12.763397718114962 10.832280823052637 7.000000000000001
    vertex 13.063098985628853 8.555823687745075 7.000000000000001
    vertex 13.063098985628853 11.555823687745075 7.000000000000001
  endloop
endfacet
facet normal 0.0 0.0 1.0
  outer loop
    vertex 13.063098985628853 11.555823687745075 7.000000000000001
    vertex 13.063098985628853 8.555823687745075 7.000000000000001
    vertex 13.539854853422522 7.9345033441854325 7.000000000000001
  endloop
endfacet
facet normal 0.0 0.0 1.0
  outer loop
    vertex 13.063098985628853 11.555823687745075 7.000000000000001
    vertex 13.539854853422522 7.9345033441854325 7.000000000000001
    vertex 13.539854853422526 12.177144031304717 7.000000000000001
  endloop
endfacet
facet normal 0.0 0.0 1.0
  outer loop
    vertex 13.539854853422526 12.177144031304717 7.000000000000001
    vertex 13.539854853422522 7.9345033441854325 7.000000000000001
    vertex 14.161175196982168 7.4577474763917575 7.000000000000001
  endloop
endfacet
facet normal 0.0 0.0 1.0
  outer loop
    vertex 13.539854853422526 12.177144031304717 7.000000000000001
    vertex 14.161175196982168 7.4577474763917575 7.000000000000001
    vertex 14.161175196982168 12.65389989909839 7.000000000000001
  endloop
endfacet
facet normal 0.0 0.0 1.0
  outer loop
    vertex 14.161175196982168 12.65389989909839 7.000000000000001
    vertex 14.161175196982168 7.4577474763917575 7.000000000000001
    vertex 14.16222499900718 10.111933437261026 7.000000000000001
  endloop
endfacet
facet normal 0.0 0.0 1.0
  outer loop
    vertex 14.16222499900718 10.111933437261026 7.000000000000001
    vertex 14.161175196982168 7.4577474763917575 7.000000000000001
    vertex 14.198778216646353 9.722064685013022 7.000000000000001
  endloop
endfacet
facet normal 0.0 0.0 1.0
  outer loop
    vertex 14.198778216646353 9.722064685013022 7.000000000000001
    vertex 14.161175196982168 7.4577474763917575 7.000000000000001
    vertex 14.884718061674603 7.1580462088778685 7.000000000000001
  endloop
endfacet
facet normal 0.0 0.0 1.0
  outer loop
    vertex 14.198778216646353 9.722064685013022 7.000000000000001
    vertex 14.884718061674603 7.1580462088778685 7.000000000000001
    vertex 14.334991371770139 9.354941057238376 7.000000000000001
  endloop
endfacet
facet normal 0.0 0.0 1.0
  outer loop
    vertex 14.334991371770139 9.354941057238376 7.000000000000001
    vertex 14.884718061674603 7.1580462088778685 7.000000000000001
    vertex 14.561581762959726 9.03558142246945 7.000000000000001
  endloop
endfacet
facet normal 0.0 0.0 1.0
  outer loop
    vertex 14.561581762959726 9.03558142246945 7.000000000000001
    vertex 14.884718061674603 7.1580462088778685 7.000000000000001
    vertex 14.863107629513877 8.785749612048996 7.000000000000001
  endloop
endfacet
facet normal 0.0 0.0 1.0
  outer loop
    vertex 14.863107629513877 8.785749612048996 7.000000000000001
    vertex 14.884718061674603 7.1580462088778685 7.000000000000001
    vertex 15.219020481921977 8.62247125099058 7.000000000000001
  endloop
endfacet
facet normal 0.0 0.0 1.0
  outer loop
    vertex 15.219020481921977 8.62247125099058 7.000000000000001
    vertex 14.884718061674603 7.1580462088778685 7.000000000000001
    vertex 15.661175196982168 7.0558236877450735 7.000000000000001
  endloop
endfacet
facet normal 0.0 0.0 1.0
  outer loop
    vertex 15.219020481921977 8.62247125099058 7.000000000000001
    vertex 15.661175196982168 7.0558236877450735 7.000000000000001
    vertex 15.605065447466215 8.556873489770084 7.000000000000001
  endloop
endfacet
facet normal 0.0 0.0 1.0
  outer loop
    vertex 15.605065447466215 8.556873489770084 7.000000000000001
    vertex 15.661175196982168 7.0558236877450735 7.000000000000001
    vertex 15.994934199714217 8.59342670740926 7.000000000000001
  endloop
endfacet
facet normal 0.0 0.0 1.0
  outer loop
    vertex 15.994934199714217 8.59342670740926 7.000000000000001
    vertex 15.661175196982168 7.0558236877450735 7.000000000000001
    vertex 16.437632332289727 7.1580462088778685 7.000000000000001
  endloop
endfacet
facet normal 0.0 0.0 1.0
  outer loop
    vertex 15.994934199714217 8.59342670740926 7.000000000000001
    vertex 16.437632332289727 7.1580462088778685 7.000000000000001
    vertex 16.362057827488865 8.729639862533043 7.000000000000001
  endloop
endfacet
facet normal 0.0 0.0 1.0
  outer loop
    vertex 16.362057827488865 8.729639862533043 7.000000000000001
    vertex 16.437632332289727 7.1580462088778685 7.000000000000001
    vertex 16.68141746225779 8.956230253722632 7.000000000000001
  endloop
endfacet
facet normal 0.0 0.0 1.0
  outer loop
    vertex 16.68141746225779 8.956230253722632 7.000000000000001
    vertex 16.437632332289727 7.1580462088778685 7.000000000000001
    vertex 17.161175196982164 7.457747476391756 7.000000000000001
  endloop
endfacet
facet normal 0.0 0.0 1.0
  outer loop
    vertex 16.68141746225779 8.956230253722632 7.000000000000001
    vertex 17.161175196982164 7.457747476391756 7.000000000000001
    vertex 16.717373153045983 8.999625731681256 7.000000000000001
  endloop
endfacet
facet normal 0.0 0.0 1.0
  outer loop
    vertex 16.717373153045983 8.999625731681256 7.000000000000001
    vertex 17.161175196982164 7.457747476391756 7.000000000000001
    vertex 16.931249272678244 9.257756120276781 7.000000000000001
  endloop
endfacet
facet normal 0.0 0.0 1.0
  outer loop
    vertex 16.931249272678244 9.257756120276781 7.000000000000001
    vertex 17.161175196982164 7.457747476391756 7.000000000000001
    vertex 17.09452763373666 9.613668972684884 7.000000000000001
  endloop
endfacet
facet normal 0.0 0.0 1.0
  outer loop
    vertex 17.09452763373666 9.613668972684884 7.000000000000001
    vertex 17.161175196982164 7.457747476391756 7.000000000000001
    vertex 17.160125394957156 9.999713938229121 7.000000000000001
  endloop
endfacet
facet normal 0.0 0.0 1.0
  outer loop
    vertex 14.161175196982168 12.65389989909839 7.000000000000001
    vertex 14.227822760227676 10.497978402805263 7.000000000000001
    vertex 14.884718061674604 12.95360116661228 7.000000000000001
  endloop
endfacet
facet normal 0.0 0.0 1.0
  outer loop
    vertex 14.227822760227676 10.497978402805263 7.000000000000001
    vertex 14.161175196982168 12.65389989909839 7.000000000000001
    vertex 14.16222499900718 10.111933437261026 7.000000000000001
  endloop
endfacet
facet normal 0.0 0.0 1.0
  outer loop
    vertex 14.884718061674604 12.95360116661228 7.000000000000001
    vertex 14.227822760227676 10.497978402805263 7.000000000000001
    vertex 14.39110112128609 10.853891255213364 7.000000000000001
  endloop
endfacet
facet normal 0.0 0.0 1.0
  outer loop
    vertex 14.884718061674604 12.95360116661228 7.000000000000001
    vertex 14.39110112128609 10.853891255213364 7.000000000000001
    vertex 14.640932931706542 11.155417121767513 7.000000000000001
  endloop
endfacet
facet normal 0.0 0.0 1.0
  outer loop
    vertex 14.884718061674604 12.95360116661228 7.000000000000001
    vertex 14.640932931706542 11.155417121767513 7.000000000000001
    vertex 14.96029256647547 11.382007512957104 7.000000000000001
  endloop
endfacet
facet normal 0.0 0.0 1.0
  outer loop
    vertex 14.884718061674604 12.95360116661228 7.000000000000001
    vertex 14.96029256647547 11.382007512957104 7.000000000000001
    vertex 15.661175196982168 13.055823687745075 7.000000000000001
  endloop
endfacet
facet normal 0.0 0.0 1.0
  outer loop
    vertex 15.661175196982168 13.055823687745075 7.000000000000001
    vertex 14.96029256647547 11.382007512957104 7.000000000000001
    vertex 15.327416194250114 11.518220668080888 7.000000000000001
  endloop
endfacet
facet normal 0.0 0.0 1.0
  outer loop
    vertex 15.661175196982168 13.055823687745075 7.000000000000001
    vertex 15.327416194250114 11.518220668080888 7.000000000000001
    vertex 15.71728494649812 11.554773885720063 7.000000000000001
  endloop
endfacet
facet normal 0.0 0.0 1.0
  outer loop
    vertex 15.661175196982168 13.055823687745075 7.000000000000001
    vertex 15.71728494649812 11.554773885720063 7.000000000000001
    vertex 16.43763233228973 12.95360116661228 7.000000000000001
  endloop
endfacet
facet normal 0.0 0.0 1.0
  outer loop
    vertex 16.43763233228973 12.95360116661228 7.000000000000001
    vertex 15.71728494649812 11.554773885720063 7.000000000000001
    vertex 16.10332991204236 11.489176124499567 7.000000000000001
  endloop
endfacet
facet normal 0.0 0.0 1.0
  outer loop
    vertex 16.43763233228973 12.95360116661228 7.000000000000001
    vertex 16.10332991204236 11.489176124499567 7.000000000000001
    vertex 16.459242764450458 11.325897763441152 7.000000000000001
  endloop
endfacet
facet normal 0.0 0.0 1.0
  outer loop
    vertex 16.43763233228973 12.95360116661228 7.000000000000001
    vertex 16.459242764450458 11.325897763441152 7.000000000000001
    vertex 17.161175196982168 12.65389989909839 7.000000000000001
  endloop
endfacet
facet normal 0.0 0.0 1.0
  outer loop
    vertex 17.161175196982168 12.65389989909839 7.000000000000001
    vertex 16.459242764450458 11.325897763441152 7.000000000000001
    vertex 16.76076863100461 11.076065953020697 7.000000000000001
  endloop
endfacet
facet normal 0.0 0.0 1.0
  outer loop
    vertex 17.161175196982168 12.65389989909839 7.000000000000001
    vertex 16.76076863100461 11.076065953020697 7.000000000000001
    vertex 16.987359022194198 10.756706318251771 7.000000000000001
  endloop
endfacet
facet normal 0.0 0.0 1.0
  outer loop
    vertex 17.161175196982168 12.65389989909839 7.000000000000001
    vertex 16.987359022194198 10.756706318251771 7.000000000000001
    vertex 17.123572177317982 10.389582690477125 7.000000000000001
  endloop
endfacet
facet normal 0.0 0.0 1.0
  outer loop
    vertex 17.161175196982168 12.65389989909839 7.000000000000001
    vertex 17.123572177317982 10.389582690477125 7.000000000000001
    vertex 17.160125394957156 9.999713938229121 7.000000000000001
  endloop
endfacet
facet normal 0.0 0.0 1.0
  outer loop
    vertex 17.161175196982168 12.65389989909839 7.000000000000001
    vertex 17.160125394957156 9.999713938229121 7.000000000000001
    vertex 17.161175196982164 7.457747476391756 7.000000000000001
  endloop
endfacet
facet normal 0.0 0.0 1.0
  outer loop
    vertex 17.161175196982168 12.65389989909839 7.000000000000001
    vertex 17.161175196982164 7.457747476391756 7.000000000000001
    vertex 17.78249554054181 7.93450334418543 7.000000000000001
  endloop
endfacet
facet normal 0.0 0.0 1.0
  outer loop
    vertex 17.161175196982168 12.65389989909839 7.000000000000001
    vertex 17.78249554054181 7.93450334418543 7.000000000000001
    vertex 17.78249554054181 12.177144031304715 7.000000000000001
  endloop
endfacet
facet normal 0.0 0.0 1.0
  outer loop
    vertex 17.78249554054181 12.177144031304715 7.000000000000001
    vertex 17.78249554054181 7.93450334418543 7.000000000000001
    vertex 18.259251408335484 8.555823687745072 7.000000000000001
  endloop
endfacet
facet normal 0.0 0.0 1.0
  outer loop
    vertex 17.78249554054181 12.177144031304715 7.000000000000001
    vertex 18.259251408335484 8.555823687745072 7.000000000000001
    vertex 18.259251408335484 11.555823687745074 7.000000000000001
  endloop
endfacet
facet normal 0.0 0.0 1.0
  outer loop
    vertex 18.259251408335484 11.555823687745074 7.000000000000001
    vertex 18.259251408335484 8.555823687745072 7.000000000000001
    vertex 18.558952675849373 9.279366552437509 7.000000000000001
  endloop
endfacet
facet normal 0.0 0.0 1.0
  outer loop
    vertex 18.259251408335484 11.555823687745074 7.000000000000001
    vertex 18.558952675849373 9.279366552437509 7.000000000000001
    vertex 18.558952675849373 10.832280823052637 7.000000000000001
  endloop
endfacet
facet normal 0.0 0.0 1.0
  outer loop
    vertex 18.558952675849373 10.832280823052637 7.000000000000001
    vertex 18.558952675849373 9.279366552437509 7.000000000000001
    vertex 18.661175196982168 10.055823687745074 7.000000000000001
  endloop
endfacet
facet normal 0.13052619222005168 0.9914448613738105 0.0
  outer loop
    vertex 15.661175196982168 13.055823687745075 7.000000000000001
    vertex 16.43763233228973 12.95360116661228 7.049916206369744e-16
    vertex 15.661175196982168 13.055823687745075 7.049916206369744e-16
  endloop
endfacet
facet normal 0.13052619222005168 0.9914448613738105 0.0
  outer loop
    vertex 16.43763233228973 12.95360116661228 7.049916206369744e-16
    vertex 15.661175196982168 13.055823687745075 7.000000000000001
    vertex 16.43763233228973 12.95360116661228 7.000000000000001
  endloop
endfacet
facet normal 0.38268343236509134 0.9238795325112862 0.0
  outer loop
    vertex 16.43763233228973 12.95360116661228 7.000000000000001
    vertex 17.161175196982168 12.65389989909839 7.049916206369744e-16
    vertex 16.43763233228973 12.95360116661228 7.049916206369744e-16
  endloop
endfacet
facet normal 0.38268343236509134 0.9238795325112862 0.0
  outer loop
    vertex 17.161175196982168 12.65389989909839 7.049916206369744e-16
    vertex 16.43763233228973 12.95360116661228 7.000000000000001
    vertex 17.161175196982168 12.65389989909839 7.000000000000001
  endloop
endfacet
facet normal 0.6087614290087213 0.7933533402912346 0.0
  outer loop
    vertex 17.161175196982168 12.65389989909839 7.000000000000001
    vertex 17.78249554054181 12.177144031304715 7.049916206369744e-16
    vertex 17.161175196982168 12.65389989909839 7.049916206369744e-16
  endloop
endfacet
facet normal 0.6087614290087213 0.7933533402912346 0.0
  outer loop
    vertex 17.78249554054181 12.177144031304715 7.049916206369744e-16
    vertex 17.161175196982168 12.65389989909839 7.000000000000001
    vertex 17.78249554054181 12.177144031304715 7.000000000000001
  endloop
endfacet
facet normal 0.7933533402912355 0.6087614290087202 0.0
  outer loop
    vertex 17.78249554054181 12.177144031304715 7.049916206369744e-16
    vertex 18.259251408335484 11.555823687745074 7.000000000000001
    vertex 18.259251408335484 11.555823687745074 7.049916206369744e-16
  endloop
endfacet
facet normal 0.7933533402912355 0.6087614290087202 0.0
  outer loop
    vertex 18.259251408335484 11.555823687745074 7.000000000000001
    vertex 17.78249554054181 12.177144031304715 7.049916206369744e-16
    vertex 17.78249554054181 12.177144031304715 7.000000000000001
  endloop
endfacet
facet normal 0.9238795325112862 0.38268343236509134 0.0
  outer loop
    vertex 18.259251408335484 11.555823687745074 7.049916206369744e-16
    vertex 18.558952675849373 10.832280823052637 7.000000000000001
    vertex 18.558952675849373 10.832280823052637 7.049916206369744e-16
  endloop
endfacet
facet normal 0.9238795325112862 0.38268343236509134 0.0
  outer loop
    vertex 18.558952675849373 10.832280823052637 7.000000000000001
    vertex 18.259251408335484 11.555823687745074 7.049916206369744e-16
    vertex 18.259251408335484 11.555823687745074 7.000000000000001
  endloop
endfacet
facet normal 0.9914448613738105 0.13052619222005168 0.0
  outer loop
    vertex 18.558952675849373 10.832280823052637 7.049916206369744e-16
    vertex 18.661175196982168 10.055823687745074 7.000000000000001
    vertex 18.661175196982168 10.055823687745074 7.049916206369744e-16
  endloop
endfacet
facet normal 0.9914448613738105 0.13052619222005168 0.0
  outer loop
    vertex 18.661175196982168 10.055823687745074 7.000000000000001
    vertex 18.558952675849373 10.832280823052637 7.049916206369744e-16
    vertex 18.558952675849373 10.832280823052637 7.000000000000001
  endloop
endfacet
facet normal 0.9914448613738105 -0.13052619222005146 0.0
  outer loop
    vertex 18.661175196982168 10.055823687745074 7.049916206369744e-16
    vertex 18.558952675849373 9.279366552437509 7.000000000000001
    vertex 18.558952675849373 9.279366552437509 7.049916206369744e-16
  endloop
endfacet
facet normal 0.9914448613738105 -0.13052619222005146 0.0
  outer loop
    vertex 18.558952675849373 9.279366552437509 7.000000000000001
    vertex 18.661175196982168 10.055823687745074 7.049916206369744e-16
    vertex 18.661175196982168 10.055823687745074 7.000000000000001
  endloop
endfacet
facet normal 0.9238795325112862 -0.38268343236509134 0.0
  outer loop
    vertex 18.558952675849373 9.279366552437509 7.049916206369744e-16
    vertex 18.259251408335484 8.555823687745072 7.000000000000001
    vertex 18.259251408335484 8.555823687745072 7.049916206369744e-16
  endloop
endfacet
facet normal 0.9238795325112862 -0.38268343236509134 0.0
  outer loop
    vertex 18.259251408335484 8.555823687745072 7.000000000000001
    vertex 18.558952675849373 9.279366552437509 7.049916206369744e-16
    vertex 18.558952675849373 9.279366552437509 7.000000000000001
  endloop
endfacet
facet normal 0.7933533402912355 -0.6087614290087202 0.0
  outer loop
    vertex 18.259251408335484 8.555823687745072 7.049916206369744e-16
    vertex 17.78249554054181 7.93450334418543 7.000000000000001
    vertex 17.78249554054181 7.93450334418543 7.049916206369744e-16
  endloop
endfacet
facet normal 0.7933533402912355 -0.6087614290087202 0.0
  outer loop
    vertex 17.78249554054181 7.93450334418543 7.000000000000001
    vertex 18.259251408335484 8.555823687745072 7.049916206369744e-16
    vertex 18.259251408335484 8.555823687745072 7.000000000000001
  endloop
endfacet
facet normal 0.6087614290087197 -0.7933533402912362 0.0
  outer loop
    vertex 17.78249554054181 7.93450334418543 7.000000000000001
    vertex 17.161175196982164 7.457747476391756 7.049916206369744e-16
    vertex 17.78249554054181 7.93450334418543 7.049916206369744e-16
  endloop
endfacet
facet normal 0.6087614290087197 -0.7933533402912362 0.0
  outer loop
    vertex 17.161175196982164 7.457747476391756 7.049916206369744e-16
    vertex 17.78249554054181 7.93450334418543 7.000000000000001
    vertex 17.161175196982164 7.457747476391756 7.000000000000001
  endloop
endfacet
facet normal 0.3826834323650882 -0.9238795325112874 0.0
  outer loop
    vertex 17.161175196982164 7.457747476391756 7.000000000000001
    vertex 16.437632332289727 7.1580462088778685 7.049916206369744e-16
    vertex 17.161175196982164 7.457747476391756 7.049916206369744e-16
  endloop
endfacet
facet normal 0.3826834323650882 -0.9238795325112874 0.0
  outer loop
    vertex 16.437632332289727 7.1580462088778685 7.049916206369744e-16
    vertex 17.161175196982164 7.457747476391756 7.000000000000001
    vertex 16.437632332289727 7.1580462088778685 7.000000000000001
  endloop
endfacet
facet normal 0.13052619222005216 -0.9914448613738104 0.0
  outer loop
    vertex 16.437632332289727 7.1580462088778685 7.000000000000001
    vertex 15.661175196982168 7.0558236877450735 7.049916206369744e-16
    vertex 16.437632332289727 7.1580462088778685 7.049916206369744e-16
  endloop
endfacet
facet normal 0.13052619222005216 -0.9914448613738104 0.0
  outer loop
    vertex 15.661175196982168 7.0558236877450735 7.049916206369744e-16
    vertex 16.437632332289727 7.1580462088778685 7.000000000000001
    vertex 15.661175196982168 7.0558236877450735 7.000000000000001
  endloop
endfacet
facet normal -0.13052619222005124 -0.9914448613738106 -0.0
  outer loop
    vertex 15.661175196982168 7.0558236877450735 7.000000000000001
    vertex 14.884718061674603 7.1580462088778685 7.049916206369744e-16
    vertex 15.661175196982168 7.0558236877450735 7.049916206369744e-16
  endloop
endfacet
facet normal -0.13052619222005124 -0.9914448613738106 -0.0
  outer loop
    vertex 14.884718061674603 7.1580462088778685 7.049916206369744e-16
    vertex 15.661175196982168 7.0558236877450735 7.000000000000001
    vertex 14.884718061674603 7.1580462088778685 7.000000000000001
  endloop
endfacet
facet normal -0.3826834323650911 -0.9238795325112864 -0.0
  outer loop
    vertex 14.884718061674603 7.1580462088778685 7.000000000000001
    vertex 14.161175196982168 7.4577474763917575 7.049916206369744e-16
    vertex 14.884718061674603 7.1580462088778685 7.049916206369744e-16
  endloop
endfacet
facet normal -0.3826834323650911 -0.9238795325112864 -0.0
  outer loop
    vertex 14.161175196982168 7.4577474763917575 7.049916206369744e-16
    vertex 14.884718061674603 7.1580462088778685 7.000000000000001
    vertex 14.161175196982168 7.4577474763917575 7.000000000000001
  endloop
endfacet
facet normal -0.6087614290087208 -0.7933533402912353 -0.0
  outer loop
    vertex 14.161175196982168 7.4577474763917575 7.000000000000001
    vertex 13.539854853422522 7.9345033441854325 7.049916206369744e-16
    vertex 14.161175196982168 7.4577474763917575 7.049916206369744e-16
  endloop
endfacet
facet normal -0.6087614290087208 -0.7933533402912353 -0.0
  outer loop
    vertex 13.539854853422522 7.9345033441854325 7.049916206369744e-16
    vertex 14.161175196982168 7.4577474763917575 7.000000000000001
    vertex 13.539854853422522 7.9345033441854325 7.000000000000001
  endloop
endfacet
facet normal -0.7933533402912373 -0.6087614290087179 -0.0
  outer loop
    vertex 13.063098985628853 8.555823687745075 7.000000000000001
    vertex 13.539854853422522 7.9345033441854325 7.049916206369744e-16
    vertex 13.539854853422522 7.9345033441854325 7.000000000000001
  endloop
endfacet
facet normal -0.7933533402912373 -0.6087614290087179 -0.0
  outer loop
    vertex 13.539854853422522 7.9345033441854325 7.049916206369744e-16
    vertex 13.063098985628853 8.555823687745075 7.000000000000001
    vertex 13.063098985628853 8.555823687745075 7.049916206369744e-16
  endloop
endfacet
facet normal -0.9238795325112862 -0.38268343236509134 -0.0
  outer loop
    vertex 12.763397718114962 9.279366552437512 7.000000000000001
    vertex 13.063098985628853 8.555823687745075 7.049916206369744e-16
    vertex 13.063098985628853 8.555823687745075 7.000000000000001
  endloop
endfacet
facet normal -0.9238795325112862 -0.38268343236509134 -0.0
  outer loop
    vertex 13.063098985628853 8.555823687745075 7.049916206369744e-16
    vertex 12.763397718114962 9.279366552437512 7.000000000000001
    vertex 12.763397718114962 9.279366552437512 7.049916206369744e-16
  endloop
endfacet
facet normal -0.9914448613738104 -0.1305261922200519 -0.0
  outer loop
    vertex 12.661175196982168 10.055823687745074 7.000000000000001
    vertex 12.763397718114962 9.279366552437512 7.049916206369744e-16
    vertex 12.763397718114962 9.279366552437512 7.000000000000001
  endloop
endfacet
facet normal -0.9914448613738104 -0.1305261922200519 -0.0
  outer loop
    vertex 12.763397718114962 9.279366552437512 7.049916206369744e-16
    vertex 12.661175196982168 10.055823687745074 7.000000000000001
    vertex 12.661175196982168 10.055823687745074 7.049916206369744e-16
  endloop
endfacet
facet normal -0.9914448613738105 0.13052619222005168 0.0
  outer loop
    vertex 12.763397718114962 10.832280823052637 7.000000000000001
    vertex 12.661175196982168 10.055823687745074 7.049916206369744e-16
    vertex 12.661175196982168 10.055823687745074 7.000000000000001
  endloop
endfacet
facet normal -0.9914448613738105 0.13052619222005168 0.0
  outer loop
    vertex 12.661175196982168 10.055823687745074 7.049916206369744e-16
    vertex 12.763397718114962 10.832280823052637 7.000000000000001
    vertex 12.763397718114962 10.832280823052637 7.049916206369744e-16
  endloop
endfacet
facet normal -0.9238795325112865 0.3826834323650908 0.0
  outer loop
    vertex 13.063098985628853 11.555823687745075 7.000000000000001
    vertex 12.763397718114962 10.832280823052637 7.049916206369744e-16
    vertex 12.763397718114962 10.832280823052637 7.000000000000001
  endloop
endfacet
facet normal -0.9238795325112865 0.3826834323650908 0.0
  outer loop
    vertex 12.763397718114962 10.832280823052637 7.049916206369744e-16
    vertex 13.063098985628853 11.555823687745075 7.000000000000001
    vertex 13.063098985628853 11.555823687745075 7.049916206369744e-16
  endloop
endfacet
facet normal -0.7933533402912355 0.6087614290087202 0.0
  outer loop
    vertex 13.539854853422526 12.177144031304717 7.000000000000001
    vertex 13.063098985628853 11.555823687745075 7.049916206369744e-16
    vertex 13.063098985628853 11.555823687745075 7.000000000000001
  endloop
endfacet
facet normal -0.7933533402912355 0.6087614290087202 0.0
  outer loop
    vertex 13.063098985628853 11.555823687745075 7.049916206369744e-16
    vertex 13.539854853422526 12.177144031304717 7.000000000000001
    vertex 13.539854853422526 12.177144031304717 7.049916206369744e-16
  endloop
endfacet
facet normal -0.6087614290087202 0.7933533402912355 0.0
  outer loop
    vertex 13.539854853422526 12.177144031304717 7.000000000000001
    vertex 14.161175196982168 12.65389989909839 7.049916206369744e-16
    vertex 13.539854853422526 12.177144031304717 7.049916206369744e-16
  endloop
endfacet
facet normal -0.6087614290087202 0.7933533402912355 0.0
  outer loop
    vertex 14.161175196982168 12.65389989909839 7.049916206369744e-16
    vertex 13.539854853422526 12.177144031304717 7.000000000000001
    vertex 14.161175196982168 12.65389989909839 7.000000000000001
  endloop
endfacet
facet normal -0.38268343236509134 0.9238795325112862 0.0
  outer loop
    vertex 14.161175196982168 12.65389989909839 7.000000000000001
    vertex 14.884718061674604 12.95360116661228 7.049916206369744e-16
    vertex 14.161175196982168 12.65389989909839 7.049916206369744e-16
  endloop
endfacet
facet normal -0.38268343236509134 0.9238795325112862 0.0
  outer loop
    vertex 14.884718061674604 12.95360116661228 7.049916206369744e-16
    vertex 14.161175196982168 12.65389989909839 7.000000000000001
    vertex 14.884718061674604 12.95360116661228 7.000000000000001
  endloop
endfacet
facet normal -0.13052619222005168 0.9914448613738105 0.0
  outer loop
    vertex 14.884718061674604 12.95360116661228 7.000000000000001
    vertex 15.661175196982168 13.055823687745075 7.049916206369744e-16
    vertex 14.884718061674604 12.95360116661228 7.049916206369744e-16
  endloop
endfacet
facet normal -0.13052619222005168 0.9914448613738105 0.0
  outer loop
    vertex 15.661175196982168 13.055823687745075 7.049916206369744e-16
    vertex 14.884718061674604 12.95360116661228 7.000000000000001
    vertex 15.661175196982168 13.055823687745075 7.000000000000001
  endloop
endfacet
facet normal -0.770026463464688 0.6380119478223474 0.0
  outer loop
    vertex 16.717373153045983 8.999625731681256 7.000000000000001
    vertex 16.68141746225779 8.956230253722632 0.0
    vertex 16.68141746225779 8.956230253722632 7.000000000000001
  endloop
endfacet
facet normal -0.770026463464688 0.6380119478223474 0.0
  outer loop
    vertex 16.68141746225779 8.956230253722632 0.0
    vertex 16.717373153045983 8.999625731681256 7.000000000000001
    vertex 16.717373153045983 8.999625731681256 0.0
  endloop
endfacet
facet normal -0.7700264634646707 0.638011947822368 0.0
  outer loop
    vertex 16.931249272678244 9.257756120276781 7.000000000000001
    vertex 16.717373153045983 8.999625731681256 0.0
    vertex 16.717373153045983 8.999625731681256 7.000000000000001
  endloop
endfacet
facet normal -0.7700264634646707 0.638011947822368 0.0
  outer loop
    vertex 16.717373153045983 8.999625731681256 0.0
    vertex 16.931249272678244 9.257756120276781 7.000000000000001
    vertex 16.931249272678244 9.257756120276781 0.0
  endloop
endfacet
facet normal -0.9089180910859502 0.416974703905012 0.0
  outer loop
    vertex 17.09452763373666 9.613668972684884 7.000000000000001
    vertex 16.931249272678244 9.257756120276781 0.0
    vertex 16.931249272678244 9.257756120276781 7.000000000000001
  endloop
endfacet
facet normal -0.9089180910859502 0.416974703905012 0.0
  outer loop
    vertex 16.931249272678244 9.257756120276781 0.0
    vertex 17.09452763373666 9.613668972684884 7.000000000000001
    vertex 17.09452763373666 9.613668972684884 0.0
  endloop
endfacet
facet normal -0.9858684528578798 0.1675213229998219 0.0
  outer loop
    vertex 17.160125394957156 9.999713938229121 7.000000000000001
    vertex 17.09452763373666 9.613668972684884 0.0
    vertex 17.09452763373666 9.613668972684884 7.000000000000001
  endloop
endfacet
facet normal -0.9858684528578798 0.1675213229998219 0.0
  outer loop
    vertex 17.09452763373666 9.613668972684884 0.0
    vertex 17.160125394957156 9.999713938229121 7.000000000000001
    vertex 17.160125394957156 9.999713938229121 0.0
  endloop
endfacet
facet normal -0.9956335087921978 -0.09334835922573465 -0.0
  outer loop
    vertex 17.123572177317982 10.389582690477125 7.000000000000001
    vertex 17.160125394957156 9.999713938229121 0.0
    vertex 17.160125394957156 9.999713938229121 7.000000000000001
  endloop
endfacet
facet normal -0.9956335087921978 -0.09334835922573465 -0.0
  outer loop
    vertex 17.160125394957156 9.999713938229121 0.0
    vertex 17.123572177317982 10.389582690477125 7.000000000000001
    vertex 17.123572177317982 10.389582690477125 0.0
  endloop
endfacet
facet normal -0.9375477864644949 -0.3478565050355188 -0.0
  outer loop
    vertex 16.987359022194198 10.756706318251771 7.000000000000001
    vertex 17.123572177317982 10.389582690477125 0.0
    vertex 17.123572177317982 10.389582690477125 7.000000000000001
  endloop
endfacet
facet normal -0.9375477864644949 -0.3478565050355188 -0.0
  outer loop
    vertex 17.123572177317982 10.389582690477125 0.0
    vertex 16.987359022194198 10.756706318251771 7.000000000000001
    vertex 16.987359022194198 10.756706318251771 0.0
  endloop
endfacet
facet normal -0.8155697318602135 -0.5786588048871799 -0.0
  outer loop
    vertex 16.76076863100461 11.076065953020697 7.000000000000001
    vertex 16.987359022194198 10.756706318251771 0.0
    vertex 16.987359022194198 10.756706318251771 7.000000000000001
  endloop
endfacet
facet normal -0.8155697318602135 -0.5786588048871799 -0.0
  outer loop
    vertex 16.987359022194198 10.756706318251771 0.0
    vertex 16.76076863100461 11.076065953020697 7.000000000000001
    vertex 16.76076863100461 11.076065953020697 0.0
  endloop
endfacet
facet normal -0.6380119478223611 -0.7700264634646766 -0.0
  outer loop
    vertex 16.76076863100461 11.076065953020697 7.000000000000001
    vertex 16.459242764450458 11.325897763441152 0.0
    vertex 16.76076863100461 11.076065953020697 0.0
  endloop
endfacet
facet normal -0.6380119478223611 -0.7700264634646766 -0.0
  outer loop
    vertex 16.459242764450458 11.325897763441152 0.0
    vertex 16.76076863100461 11.076065953020697 7.000000000000001
    vertex 16.459242764450458 11.325897763441152 7.000000000000001
  endloop
endfacet
facet normal -0.41697470390501773 -0.9089180910859476 -0.0
  outer loop
    vertex 16.459242764450458 11.325897763441152 7.000000000000001
    vertex 16.10332991204236 11.489176124499567 0.0
    vertex 16.459242764450458 11.325897763441152 0.0
  endloop
endfacet
facet normal -0.41697470390501773 -0.9089180910859476 -0.0
  outer loop
    vertex 16.10332991204236 11.489176124499567 0.0
    vertex 16.459242764450458 11.325897763441152 7.000000000000001
    vertex 16.10332991204236 11.489176124499567 7.000000000000001
  endloop
endfacet
facet normal -0.16752132299982067 -0.9858684528578799 -0.0
  outer loop
    vertex 16.10332991204236 11.489176124499567 7.000000000000001
    vertex 15.71728494649812 11.554773885720063 0.0
    vertex 16.10332991204236 11.489176124499567 0.0
  endloop
endfacet
facet normal -0.16752132299982067 -0.9858684528578799 -0.0
  outer loop
    vertex 15.71728494649812 11.554773885720063 0.0
    vertex 16.10332991204236 11.489176124499567 7.000000000000001
    vertex 15.71728494649812 11.554773885720063 7.000000000000001
  endloop
endfacet
facet normal 0.09334835922573821 -0.9956335087921974 0.0
  outer loop
    vertex 15.71728494649812 11.554773885720063 7.000000000000001
    vertex 15.327416194250114 11.518220668080888 0.0
    vertex 15.71728494649812 11.554773885720063 0.0
  endloop
endfacet
facet normal 0.09334835922573821 -0.9956335087921974 0.0
  outer loop
    vertex 15.327416194250114 11.518220668080888 0.0
    vertex 15.71728494649812 11.554773885720063 7.000000000000001
    vertex 15.327416194250114 11.518220668080888 7.000000000000001
  endloop
endfacet
facet normal 0.34785650503551685 -0.9375477864644958 0.0
  outer loop
    vertex 15.327416194250114 11.518220668080888 7.000000000000001
    vertex 14.96029256647547 11.382007512957104 0.0
    vertex 15.327416194250114 11.518220668080888 0.0
  endloop
endfacet
facet normal 0.34785650503551685 -0.9375477864644958 0.0
  outer loop
    vertex 14.96029256647547 11.382007512957104 0.0
    vertex 15.327416194250114 11.518220668080888 7.000000000000001
    vertex 14.96029256647547 11.382007512957104 7.000000000000001
  endloop
endfacet
facet normal 0.578658804887183 -0.8155697318602115 0.0
  outer loop
    vertex 14.96029256647547 11.382007512957104 7.000000000000001
    vertex 14.640932931706542 11.155417121767513 0.0
    vertex 14.96029256647547 11.382007512957104 0.0
  endloop
endfacet
facet normal 0.578658804887183 -0.8155697318602115 0.0
  outer loop
    vertex 14.640932931706542 11.155417121767513 0.0
    vertex 14.96029256647547 11.382007512957104 7.000000000000001
    vertex 14.640932931706542 11.155417121767513 7.000000000000001
  endloop
endfacet
facet normal 0.7700264634646768 -0.6380119478223608 0.0
  outer loop
    vertex 14.640932931706542 11.155417121767513 0.0
    vertex 14.39110112128609 10.853891255213364 7.000000000000001
    vertex 14.39110112128609 10.853891255213364 0.0
  endloop
endfacet
facet normal 0.7700264634646768 -0.6380119478223608 0.0
  outer loop
    vertex 14.39110112128609 10.853891255213364 7.000000000000001
    vertex 14.640932931706542 11.155417121767513 0.0
    vertex 14.640932931706542 11.155417121767513 7.000000000000001
  endloop
endfacet
facet normal 0.9089180910859497 -0.4169747039050134 0.0
  outer loop
    vertex 14.39110112128609 10.853891255213364 0.0
    vertex 14.227822760227676 10.497978402805263 7.000000000000001
    vertex 14.227822760227676 10.497978402805263 0.0
  endloop
endfacet
facet normal 0.9089180910859497 -0.4169747039050134 0.0
  outer loop
    vertex 14.227822760227676 10.497978402805263 7.000000000000001
    vertex 14.39110112128609 10.853891255213364 0.0
    vertex 14.39110112128609 10.853891255213364 7.000000000000001
  endloop
endfacet
facet normal 0.9858684528578798 -0.1675213229998219 0.0
  outer loop
    vertex 14.227822760227676 10.497978402805263 0.0
    vertex 14.16222499900718 10.111933437261026 7.000000000000001
    vertex 14.16222499900718 10.111933437261026 0.0
  endloop
endfacet
facet normal 0.9858684528578798 -0.1675213229998219 0.0
  outer loop
    vertex 14.16222499900718 10.111933437261026 7.000000000000001
    vertex 14.227822760227676 10.497978402805263 0.0
    vertex 14.227822760227676 10.497978402805263 7.000000000000001
  endloop
endfacet
facet normal 0.9956335087921978 0.09334835922573465 0.0
  outer loop
    vertex 14.16222499900718 10.111933437261026 0.0
    vertex 14.198778216646353 9.722064685013022 7.000000000000001
    vertex 14.198778216646353 9.722064685013022 0.0
  endloop
endfacet
facet normal 0.9956335087921978 0.09334835922573465 0.0
  outer loop
    vertex 14.198778216646353 9.722064685013022 7.000000000000001
    vertex 14.16222499900718 10.111933437261026 0.0
    vertex 14.16222499900718 10.111933437261026 7.000000000000001
  endloop
endfacet
facet normal 0.9375477864644949 0.3478565050355188 0.0
  outer loop
    vertex 14.198778216646353 9.722064685013022 0.0
    vertex 14.334991371770139 9.354941057238376 7.000000000000001
    vertex 14.334991371770139 9.354941057238376 0.0
  endloop
endfacet
facet normal 0.9375477864644949 0.3478565050355188 0.0
  outer loop
    vertex 14.334991371770139 9.354941057238376 7.000000000000001
    vertex 14.198778216646353 9.722064685013022 0.0
    vertex 14.198778216646353 9.722064685013022 7.000000000000001
  endloop
endfacet
facet normal 0.8155697318602135 0.5786588048871799 0.0
  outer loop
    vertex 14.334991371770139 9.354941057238376 0.0
    vertex 14.561581762959726 9.03558142246945 7.000000000000001
    vertex 14.561581762959726 9.03558142246945 0.0
  endloop
endfacet
facet normal 0.8155697318602135 0.5786588048871799 0.0
  outer loop
    vertex 14.561581762959726 9.03558142246945 7.000000000000001
    vertex 14.334991371770139 9.354941057238376 0.0
    vertex 14.334991371770139 9.354941057238376 7.000000000000001
  endloop
endfacet
facet normal 0.6380119478223611 0.7700264634646766 0.0
  outer loop
    vertex 14.561581762959726 9.03558142246945 7.000000000000001
    vertex 14.863107629513877 8.785749612048996 0.0
    vertex 14.561581762959726 9.03558142246945 0.0
  endloop
endfacet
facet normal 0.6380119478223611 0.7700264634646766 0.0
  outer loop
    vertex 14.863107629513877 8.785749612048996 0.0
    vertex 14.561581762959726 9.03558142246945 7.000000000000001
    vertex 14.863107629513877 8.785749612048996 7.000000000000001
  endloop
endfacet
facet normal 0.41697470390501773 0.9089180910859476 0.0
  outer loop
    vertex 14.863107629513877 8.785749612048996 7.000000000000001
    vertex 15.219020481921977 8.62247125099058 0.0
    vertex 14.863107629513877 8.785749612048996 0.0
  endloop
endfacet
facet normal 0.41697470390501773 0.9089180910859476 0.0
  outer loop
    vertex 15.219020481921977 8.62247125099058 0.0
    vertex 14.863107629513877 8.785749612048996 7.000000000000001
    vertex 15.219020481921977 8.62247125099058 7.000000000000001
  endloop
endfacet
facet normal 0.16752132299982067 0.9858684528578799 0.0
  outer loop
    vertex 15.219020481921977 8.62247125099058 7.000000000000001
    vertex 15.605065447466215 8.556873489770084 0.0
    vertex 15.219020481921977 8.62247125099058 0.0
  endloop
endfacet
facet normal 0.16752132299982067 0.9858684528578799 0.0
  outer loop
    vertex 15.605065447466215 8.556873489770084 0.0
    vertex 15.219020481921977 8.62247125099058 7.000000000000001
    vertex 15.605065447466215 8.556873489770084 7.000000000000001
  endloop
endfacet
facet normal -0.09334835922573888 0.9956335087921974 0.0
  outer loop
    vertex 15.605065447466215 8.556873489770084 7.000000000000001
    vertex 15.994934199714217 8.59342670740926 0.0
    vertex 15.605065447466215 8.556873489770084 0.0
  endloop
endfacet
facet normal -0.09334835922573888 0.9956335087921974 0.0
  outer loop
    vertex 15.994934199714217 8.59342670740926 0.0
    vertex 15.605065447466215 8.556873489770084 7.000000000000001
    vertex 15.994934199714217 8.59342670740926 7.000000000000001
  endloop
endfacet
facet normal -0.34785650503551446 0.9375477864644967 0.0
  outer loop
    vertex 15.994934199714217 8.59342670740926 7.000000000000001
    vertex 16.362057827488865 8.729639862533043 0.0
    vertex 15.994934199714217 8.59342670740926 0.0
  endloop
endfacet
facet normal -0.34785650503551446 0.9375477864644967 0.0
  outer loop
    vertex 16.362057827488865 8.729639862533043 0.0
    vertex 15.994934199714217 8.59342670740926 7.000000000000001
    vertex 16.362057827488865 8.729639862533043 7.000000000000001
  endloop
endfacet
facet normal -0.578658804887184 0.8155697318602106 0.0
  outer loop
    vertex 16.362057827488865 8.729639862533043 7.000000000000001
    vertex 16.68141746225779 8.956230253722632 0.0
    vertex 16.362057827488865 8.729639862533043 0.0
  endloop
endfacet
facet normal -0.578658804887184 0.8155697318602106 0.0
  outer loop
    vertex 16.68141746225779 8.956230253722632 0.0
    vertex 16.362057827488865 8.729639862533043 7.000000000000001
    vertex 16.68141746225779 8.956230253722632 7.000000000000001
  endloop
endfacet
endsolid entretoise_carte
