solid support_gaine_cote_imprimante
facet normal -1.0 0.0 0.0
  outer loop
    vertex 0.0 19.0 18.999999999999996
    vertex 0.0 0.0 0.0
    vertex 0.0 0.0 18.999999999999996
  endloop
endfacet
facet normal -1.0 0.0 0.0
  outer loop
    vertex 0.0 0.0 0.0
    vertex 0.0 19.0 18.999999999999996
    vertex 0.0 19.0 0.0
  endloop
endfacet
facet normal 1.0 0.0 0.0
  outer loop
    vertex 3.0 13.999999999999996 0.0
    vertex 3.0 0.0 18.999999999999996
    vertex 3.0 0.0 0.0
  endloop
endfacet
facet normal 1.0 0.0 0.0
  outer loop
    vertex 3.0 0.0 18.999999999999996
    vertex 3.0 13.999999999999996 0.0
    vertex 3.0 13.999999999999996 18.999999999999996
  endloop
endfacet
facet normal -0.0 -1.0 -0.0
  outer loop
    vertex 3.0 0.0 18.999999999999996
    vertex 0.0 0.0 0.0
    vertex 3.0 0.0 0.0
  endloop
endfacet
facet normal -0.0 -1.0 -0.0
  outer loop
    vertex 0.0 0.0 0.0
    vertex 3.0 0.0 18.999999999999996
    vertex 0.0 0.0 18.999999999999996
  endloop
endfacet
facet normal 0.0 -1.0 0.0
  outer loop
    vertex 22.0 15.999999999999996 18.999999999999996
    vertex 3.9999999999999996 15.999999999999996 0.0
    vertex 22.0 15.999999999999996 0.0
  endloop
endfacet
facet normal 0.0 -1.0 0.0
  outer loop
    vertex 3.9999999999999996 15.999999999999996 0.0
    vertex 22.0 15.999999999999996 18.999999999999996
    vertex 3.9999999999999996 15.999999999999996 18.999999999999996
  endloop
endfacet
facet normal 0.0 0.0 1.0
  outer loop
    vertex 3.0 0.0 18.999999999999996
    vertex 0.0 19.0 18.999999999999996
    vertex 0.0 0.0 18.999999999999996
  endloop
endfacet
facet normal 0.0 0.0 1.0
  outer loop
    vertex 0.0 19.0 18.999999999999996
    vertex 3.0 0.0 18.999999999999996
    vertex 3.0 13.999999999999996 18.999999999999996
  endloop
endfacet
facet normal 0.0 0.0 1.0
  outer loop
    vertex 0.0 19.0 18.999999999999996
    vertex 3.0 13.999999999999996 18.999999999999996
    vertex 3.9999999999999996 15.999999999999996 18.999999999999996
  endloop
endfacet
facet normal 0.0 0.0 1.0
  outer loop
    vertex 0.0 19.0 18.999999999999996
    vertex 3.9999999999999996 15.999999999999996 18.999999999999996
    vertex 22.0 19.0 18.999999999999996
  endloop
endfacet
facet normal 0.0 0.0 1.0
  outer loop
    vertex 22.0 19.0 18.999999999999996
    vertex 3.9999999999999996 15.999999999999996 18.999999999999996
    vertex 22.0 15.999999999999996 18.999999999999996
  endloop
endfacet
facet normal 0.0 0.0 -1.0
  outer loop
    vertex 0.0 19.0 0.0
    vertex 3.0 13.999999999999996 0.0
    vertex 0.0 0.0 0.0
  endloop
endfacet
facet normal 0.0 0.0 -1.0
  outer loop
    vertex 3.0 13.999999999999996 0.0
    vertex 0.0 19.0 0.0
    vertex 3.9999999999999996 15.999999999999996 0.0
  endloop
endfacet
facet normal 0.0 0.0 -1.0
  outer loop
    vertex 3.9999999999999996 15.999999999999996 0.0
    vertex 0.0 19.0 0.0
    vertex 22.0 19.0 0.0
  endloop
endfacet
facet normal 0.0 0.0 -1.0
  outer loop
    vertex 3.9999999999999996 15.999999999999996 0.0
    vertex 22.0 19.0 0.0
    vertex 22.0 15.999999999999996 0.0
  endloop
endfacet
facet normal 0.0 0.0 -1.0
  outer loop
    vertex 3.0 0.0 0.0
    vertex 0.0 0.0 0.0
    vertex 3.0 13.999999999999996 0.0
  endloop
endfacet
facet normal 1.0 0.0 0.0
  outer loop
    vertex 22.0 19.0 0.0
    vertex 22.0 15.999999999999996 18.999999999999996
    vertex 22.0 15.999999999999996 0.0
  endloop
endfacet
facet normal 1.0 0.0 0.0
  outer loop
    vertex 22.0 15.999999999999996 18.999999999999996
    vertex 22.0 19.0 0.0
    vertex 22.0 19.0 18.999999999999996
  endloop
endfacet
facet normal 0.8944271909999159 -0.4472135954999581 0.0
  outer loop
    vertex 3.9999999999999996 15.999999999999996 0.0
    vertex 3.0 13.999999999999996 18.999999999999996
    vertex 3.0 13.999999999999996 0.0
  endloop
endfacet
facet normal 0.8944271909999159 -0.4472135954999581 0.0
  outer loop
    vertex 3.0 13.999999999999996 18.999999999999996
    vertex 3.9999999999999996 15.999999999999996 0.0
    vertex 3.9999999999999996 15.999999999999996 18.999999999999996
  endloop
endfacet
facet normal 0.0 1.0 0.0
  outer loop
    vertex 0.0 19.0 18.999999999999996
    vertex 22.0 19.0 0.0
    vertex 0.0 19.0 0.0
  endloop
endfacet
facet normal 0.0 1.0 0.0
  outer loop
    vertex 22.0 19.0 0.0
    vertex 0.0 19.0 18.999999999999996
    vertex 22.0 19.0 18.999999999999996
  endloop
endfacet
endsolid support_gaine_cote_imprimante
