solid SupportVentilateurReacteur
facet normal -3.833989702316481e-17 -1.0 8.418176694609994e-17
  outer loop
    vertex 80.0 0.0 0.0
    vertex 46.203379331113354 1.2450486245918195e-15 12.110617906681973
    vertex 0.0 0.0 0.0
  endloop
endfacet
facet normal -3.833989702316481e-17 -1.0 8.418176694609994e-17
  outer loop
    vertex 46.203379331113354 1.2450486245918195e-15 12.110617906681973
    vertex 80.0 0.0 0.0
    vertex 50.63369719023626 1.016685811384526e-15 14.340828005849598
  endloop
endfacet
facet normal -3.833989702316481e-17 -1.0 8.418176694609994e-17
  outer loop
    vertex 50.63369719023626 1.016685811384526e-15 14.340828005849598
    vertex 80.0 0.0 0.0
    vertex 54.33583478078821 9.389237935415186e-16 17.641696176485166
  endloop
endfacet
facet normal -3.833989702316481e-17 -1.0 8.418176694609994e-17
  outer loop
    vertex 54.33583478078821 9.389237935415186e-16 17.641696176485166
    vertex 80.0 0.0 0.0
    vertex 57.05749754404473 1.0170619240709858e-15 21.7882737077024
  endloop
endfacet
facet normal -3.833989702316481e-17 -1.0 8.418176694609994e-17
  outer loop
    vertex 57.05749754404473 1.0170619240709858e-15 21.7882737077024
    vertex 80.0 0.0 0.0
    vertex 80.0 -9.218077444499307e-31 60.0
  endloop
endfacet
facet normal -3.833989702316481e-17 -1.0 8.418176694609994e-17
  outer loop
    vertex 0.0 0.0 0.0
    vertex 46.203379331113354 1.2450486245918195e-15 12.110617906681973
    vertex 41.34680004407227 1.6084496848307144e-15 11.103051011644093
  endloop
endfacet
facet normal -3.833989702316481e-17 -1.0 8.418176694609994e-17
  outer loop
    vertex 57.05749754404473 1.0170619240709858e-15 21.7882737077024
    vertex 80.0 -9.218077444499307e-31 60.0
    vertex 58.61320866045024 1.245775218506712e-15 26.497978193292226
  endloop
endfacet
facet normal -3.833989702316481e-17 -1.0 8.418176694609994e-17
  outer loop
    vertex 58.61320866045024 1.245775218506712e-15 26.497978193292226
    vertex 80.0 -9.218077444499307e-31 60.0
    vertex 58.8969489883559 1.6094772437994923e-15 31.44985105571637
  endloop
endfacet
facet normal -3.833989702316481e-17 -1.0 8.418176694609994e-17
  outer loop
    vertex 58.8969489883559 1.6094772437994923e-15 31.44985105571637
    vertex 80.0 -9.218077444499307e-31 60.0
    vertex 57.889382093318034 2.0833823079716358e-15 36.306430342757444
  endloop
endfacet
facet normal -3.833989702316481e-17 -1.0 8.418176694609994e-17
  outer loop
    vertex 57.889382093318034 2.0833823079716358e-15 36.306430342757444
    vertex 80.0 -9.218077444499307e-31 60.0
    vertex 55.659171994150405 2.6351945640649617e-15 40.73674820188035
  endloop
endfacet
facet normal -3.833989702316481e-17 -1.0 8.418176694609994e-17
  outer loop
    vertex 55.659171994150405 2.6351945640649617e-15 40.73674820188035
    vertex 80.0 -9.218077444499307e-31 60.0
    vertex 52.35830382351484 3.2273089187395803e-15 44.4388857924323
  endloop
endfacet
facet normal -3.833989702316481e-17 -1.0 8.418176694609994e-17
  outer loop
    vertex 52.35830382351484 3.2273089187395803e-15 44.4388857924323
    vertex 80.0 -9.218077444499307e-31 60.0
    vertex 48.2117262922976 3.819373757239654e-15 47.16054855568881
  endloop
endfacet
facet normal -3.833989702316481e-17 -1.0 8.418176694609994e-17
  outer loop
    vertex 48.2117262922976 3.819373757239654e-15 47.16054855568881
    vertex 80.0 -9.218077444499307e-31 60.0
    vertex 43.50202180670779 4.371040839254808e-15 48.71625967209434
  endloop
endfacet
facet normal -3.833989702316481e-17 -1.0 8.418176694609994e-17
  outer loop
    vertex 43.50202180670779 4.371040839254808e-15 48.71625967209434
    vertex 80.0 -9.218077444499307e-31 60.0
    vertex 38.550148944283634 1.127986593019159e-14 49.0
  endloop
endfacet
facet normal -3.833989702316481e-17 -1.0 8.418176694609994e-17
  outer loop
    vertex 0.0 0.0 0.0
    vertex 24.237776994205493 3.817970085584418e-15 19.36630280976374
    vertex 3.864631443117888e-32 -9.218077444499307e-31 60.0
  endloop
endfacet
facet normal -3.833989702316481e-17 -1.0 8.418176694609994e-17
  outer loop
    vertex 24.237776994205493 3.817970085584418e-15 19.36630280976374
    vertex 0.0 0.0 0.0
    vertex 27.538645164841057 3.2258557309097987e-15 15.664165219211792
  endloop
endfacet
facet normal -3.833989702316481e-17 -1.0 8.418176694609994e-17
  outer loop
    vertex 27.538645164841057 3.2258557309097987e-15 15.664165219211792
    vertex 0.0 0.0 0.0
    vertex 31.685222696058318 2.633790892409725e-15 12.942502455955282
  endloop
endfacet
facet normal -3.833989702316481e-17 -1.0 8.418176694609994e-17
  outer loop
    vertex 31.685222696058318 2.633790892409725e-15 12.942502455955282
    vertex 0.0 0.0 0.0
    vertex 36.39492718164813 2.0821238103945733e-15 11.386791339549761
  endloop
endfacet
facet normal -3.833989702316481e-17 -1.0 8.418176694609994e-17
  outer loop
    vertex 36.39492718164813 2.0821238103945733e-15 11.386791339549761
    vertex 0.0 0.0 0.0
    vertex 41.34680004407227 1.6084496848307144e-15 11.103051011644093
  endloop
endfacet
facet normal -3.833989702316481e-17 -1.0 8.418176694609994e-17
  outer loop
    vertex 3.864631443117888e-32 -9.218077444499307e-31 60.0
    vertex 24.237776994205493 3.817970085584418e-15 19.36630280976374
    vertex 22.00756689503788 4.369782341677744e-15 23.796620668886646
  endloop
endfacet
facet normal -3.833989702316481e-17 -1.0 8.418176694609994e-17
  outer loop
    vertex 3.864631443117888e-32 -9.218077444499307e-31 60.0
    vertex 22.00756689503788 4.369782341677744e-15 23.796620668886646
    vertex 21.0 1.127986593019159e-14 28.65319995592773
  endloop
endfacet
facet normal -3.833989702316481e-17 -1.0 8.418176694609994e-17
  outer loop
    vertex 3.864631443117888e-32 -9.218077444499307e-31 60.0
    vertex 21.0 1.127986593019159e-14 28.65319995592773
    vertex 21.28374032790566 5.20738943114267e-15 33.60507281835188
  endloop
endfacet
facet normal -3.833989702316481e-17 -1.0 8.418176694609994e-17
  outer loop
    vertex 3.864631443117888e-32 -9.218077444499307e-31 60.0
    vertex 21.28374032790566 5.20738943114267e-15 33.60507281835188
    vertex 22.839451444311198 5.436102725578394e-15 38.3147773039417
  endloop
endfacet
facet normal -3.833989702316481e-17 -1.0 8.418176694609994e-17
  outer loop
    vertex 3.864631443117888e-32 -9.218077444499307e-31 60.0
    vertex 22.839451444311198 5.436102725578394e-15 38.3147773039417
    vertex 25.561114207567705 5.514240856107863e-15 42.46135483515894
  endloop
endfacet
facet normal -3.833989702316481e-17 -1.0 8.418176694609994e-17
  outer loop
    vertex 3.864631443117888e-32 -9.218077444499307e-31 60.0
    vertex 25.561114207567705 5.514240856107863e-15 42.46135483515894
    vertex 29.263251798119644 5.436478838264856e-15 45.76222300579451
  endloop
endfacet
facet normal -3.833989702316481e-17 -1.0 8.418176694609994e-17
  outer loop
    vertex 3.864631443117888e-32 -9.218077444499307e-31 60.0
    vertex 29.263251798119644 5.436478838264856e-15 45.76222300579451
    vertex 33.69356965724257 5.208116025057561e-15 47.992433104962124
  endloop
endfacet
facet normal -3.833989702316481e-17 -1.0 8.418176694609994e-17
  outer loop
    vertex 3.864631443117888e-32 -9.218077444499307e-31 60.0
    vertex 33.69356965724257 5.208116025057561e-15 47.992433104962124
    vertex 38.550148944283634 1.127986593019159e-14 49.0
  endloop
endfacet
facet normal -3.833989702316481e-17 -1.0 8.418176694609994e-17
  outer loop
    vertex 3.864631443117888e-32 -9.218077444499307e-31 60.0
    vertex 38.550148944283634 1.127986593019159e-14 49.0
    vertex 80.0 -9.218077444499307e-31 60.0
  endloop
endfacet
facet normal 1.0 1.204335725309322e-65 -6.441052405196479e-34
  outer loop
    vertex 80.0 0.0 0.0
    vertex 80.0 30.697700926801687 60.0
    vertex 80.0 -9.218077444499307e-31 60.0
  endloop
endfacet
facet normal 1.0 1.204335725309322e-65 -6.441052405196479e-34
  outer loop
    vertex 80.0 30.697700926801687 60.0
    vertex 80.0 0.0 0.0
    vertex 80.0 30.697700926801687 5.739797720195788e-31
  endloop
endfacet
facet normal -0.7933533402912345 0.6087614290087218 9.863686373776124e-33
  outer loop
    vertex 80.0 30.697700926801687 60.0
    vertex 75.35533905932736 24.64466094067263 8.59539755685182e-31
    vertex 75.35533905932736 24.64466094067263 60.0
  endloop
endfacet
facet normal -0.7933533402912345 0.6087614290087218 9.863686373776124e-33
  outer loop
    vertex 75.35533905932736 24.64466094067263 8.59539755685182e-31
    vertex 80.0 30.697700926801687 60.0
    vertex 80.0 30.697700926801687 5.739797720195788e-31
  endloop
endfacet
facet normal -0.3826834323650898 0.923879532511287 -3.281662615615916e-18
  outer loop
    vertex 52.94095225512604 11.703708685546589 16.398002980833958
    vertex 65.0 16.698729810778065 8.59539755685182e-31
    vertex 52.94095225512604 11.703708685546585 8.59539755685182e-31
  endloop
endfacet
facet normal -0.3826834323650898 0.923879532511287 -3.281662615615916e-18
  outer loop
    vertex 65.0 16.698729810778065 8.59539755685182e-31
    vertex 52.94095225512604 11.703708685546589 16.398002980833958
    vertex 54.3358347807882 12.281487945593094 17.641696176485155
  endloop
endfacet
facet normal -0.3826834323650898 0.923879532511287 -3.281662615615916e-18
  outer loop
    vertex 65.0 16.698729810778065 8.59539755685182e-31
    vertex 54.3358347807882 12.281487945593094 17.641696176485155
    vertex 57.057497544044715 13.408837574339774 21.78827370770239
  endloop
endfacet
facet normal -0.3826834323650898 0.923879532511287 -3.281662615615916e-18
  outer loop
    vertex 65.0 16.698729810778065 8.59539755685182e-31
    vertex 57.057497544044715 13.408837574339774 21.78827370770239
    vertex 58.61320866045024 14.053234217889528 26.49797819329222
  endloop
endfacet
facet normal -0.3826834323650898 0.923879532511287 -3.281662615615916e-18
  outer loop
    vertex 65.0 16.698729810778065 8.59539755685182e-31
    vertex 58.61320866045024 14.053234217889528 26.49797819329222
    vertex 65.0 16.698729810778065 60.0
  endloop
endfacet
facet normal -0.3826834323650898 0.923879532511287 -3.281662615615916e-18
  outer loop
    vertex 65.0 16.698729810778065 60.0
    vertex 58.61320866045024 14.053234217889528 26.49797819329222
    vertex 58.8969489883559 14.170763309900241 31.44985105571637
  endloop
endfacet
facet normal -0.3826834323650898 0.923879532511287 -3.281662615615916e-18
  outer loop
    vertex 65.0 16.698729810778065 60.0
    vertex 58.8969489883559 14.170763309900241 31.44985105571637
    vertex 57.889382093318034 13.753415436977411 36.30643034275744
  endloop
endfacet
facet normal -0.3826834323650898 0.923879532511287 -3.281662615615916e-18
  outer loop
    vertex 65.0 16.698729810778065 60.0
    vertex 57.889382093318034 13.753415436977411 36.30643034275744
    vertex 55.65917199415042 12.829632166960744 40.73674820188036
  endloop
endfacet
facet normal -0.3826834323650898 0.923879532511287 -3.281662615615916e-18
  outer loop
    vertex 65.0 16.698729810778065 60.0
    vertex 55.65917199415042 12.829632166960744 40.73674820188036
    vertex 52.94095225512604 11.703708685546593 43.78540781353786
  endloop
endfacet
facet normal -0.3826834323650898 0.923879532511287 -3.281662615615916e-18
  outer loop
    vertex 65.0 16.698729810778065 60.0
    vertex 52.94095225512604 11.703708685546593 43.78540781353786
    vertex 52.94095225512604 11.703708685546585 60.0
  endloop
endfacet
facet normal -0.608761429008721 0.7933533402912348 1.258076064607877e-32
  outer loop
    vertex 65.0 16.698729810778065 60.0
    vertex 75.35533905932736 24.64466094067263 8.59539755685182e-31
    vertex 65.0 16.698729810778065 8.59539755685182e-31
  endloop
endfacet
facet normal -0.608761429008721 0.7933533402912348 1.258076064607877e-32
  outer loop
    vertex 75.35533905932736 24.64466094067263 8.59539755685182e-31
    vertex 65.0 16.698729810778065 60.0
    vertex 75.35533905932736 24.64466094067263 60.0
  endloop
endfacet
facet normal 0.6087614290087209 0.7933533402912349 1.179654779277728e-32
  outer loop
    vertex 4.6446609406726145 24.644660940672633 60.0
    vertex 14.999999999999975 16.698729810778083 8.59539755685182e-31
    vertex 4.6446609406726145 24.644660940672633 8.59539755685182e-31
  endloop
endfacet
facet normal 0.6087614290087209 0.7933533402912349 1.179654779277728e-32
  outer loop
    vertex 14.999999999999975 16.698729810778083 8.59539755685182e-31
    vertex 4.6446609406726145 24.644660940672633 60.0
    vertex 14.999999999999975 16.698729810778083 60.0
  endloop
endfacet
facet normal -1.0 -1.1583918610591883e-65 6.44105240519648e-34
  outer loop
    vertex 3.864631443117888e-32 30.697700926801694 60.0
    vertex 0.0 0.0 0.0
    vertex 3.864631443117888e-32 -9.218077444499307e-31 60.0
  endloop
endfacet
facet normal -1.0 -1.1583918610591883e-65 6.44105240519648e-34
  outer loop
    vertex 0.0 0.0 0.0
    vertex 3.864631443117888e-32 30.697700926801694 60.0
    vertex 0.0 30.697700926801694 5.520831794218487e-31
  endloop
endfacet
facet normal 0.38268343236509045 0.9238795325112865 1.8197272642548512e-18
  outer loop
    vertex 14.999999999999975 16.698729810778083 8.59539755685182e-31
    vertex 22.007566895037883 13.796100563616656 23.796620668886643
    vertex 27.059047744873922 11.703708685546598 8.59539755685182e-31
  endloop
endfacet
facet normal 0.38268343236509045 0.9238795325112865 1.8197272642548512e-18
  outer loop
    vertex 22.007566895037883 13.796100563616656 23.796620668886643
    vertex 14.999999999999975 16.698729810778083 8.59539755685182e-31
    vertex 20.999999999999996 14.213448436539498 28.653199955927718
  endloop
endfacet
facet normal 0.38268343236509045 0.9238795325112865 1.8197272642548512e-18
  outer loop
    vertex 20.999999999999996 14.213448436539498 28.653199955927718
    vertex 14.999999999999975 16.698729810778083 8.59539755685182e-31
    vertex 14.999999999999975 16.698729810778083 60.0
  endloop
endfacet
facet normal 0.38268343236509045 0.9238795325112865 1.8197272642548512e-18
  outer loop
    vertex 27.059047744873922 11.703708685546598 8.59539755685182e-31
    vertex 22.007566895037883 13.796100563616656 23.796620668886643
    vertex 24.237776994205497 12.872317293599986 19.366302809763745
  endloop
endfacet
facet normal 0.38268343236509045 0.9238795325112865 1.8197272642548512e-18
  outer loop
    vertex 27.059047744873922 11.703708685546598 8.59539755685182e-31
    vertex 24.237776994205497 12.872317293599986 19.366302809763745
    vertex 27.059047744873922 11.703708685546598 16.20206480956417
  endloop
endfacet
facet normal 0.38268343236509045 0.9238795325112865 1.8197272642548512e-18
  outer loop
    vertex 20.999999999999996 14.213448436539498 28.653199955927718
    vertex 14.999999999999975 16.698729810778083 60.0
    vertex 21.28374032790566 14.095919344528783 33.60507281835186
  endloop
endfacet
facet normal 0.38268343236509045 0.9238795325112865 1.8197272642548512e-18
  outer loop
    vertex 21.28374032790566 14.095919344528783 33.60507281835186
    vertex 14.999999999999975 16.698729810778083 60.0
    vertex 22.839451444311194 13.451522700979025 38.31477730394169
  endloop
endfacet
facet normal 0.38268343236509045 0.9238795325112865 1.8197272642548512e-18
  outer loop
    vertex 22.839451444311194 13.451522700979025 38.31477730394169
    vertex 14.999999999999975 16.698729810778083 60.0
    vertex 25.5611142075677 12.32417307223234 42.461354835158936
  endloop
endfacet
facet normal 0.38268343236509045 0.9238795325112865 1.8197272642548512e-18
  outer loop
    vertex 25.5611142075677 12.32417307223234 42.461354835158936
    vertex 14.999999999999975 16.698729810778083 60.0
    vertex 27.059047744873922 11.703708685546596 43.79692949009349
  endloop
endfacet
facet normal 0.38268343236509045 0.9238795325112865 1.8197272642548512e-18
  outer loop
    vertex 27.059047744873922 11.703708685546596 43.79692949009349
    vertex 14.999999999999975 16.698729810778083 60.0
    vertex 27.059047744873922 11.703708685546598 60.0
  endloop
endfacet
facet normal 0.13052619222005216 0.9914448613738105 -8.534972300061251e-17
  outer loop
    vertex 27.059047744873922 11.703708685546598 60.0
    vertex 29.263251798119633 11.413519716744537 45.762223005794496
    vertex 27.059047744873922 11.703708685546596 43.79692949009349
  endloop
endfacet
facet normal 0.13052619222005216 0.9914448613738105 -8.534972300061251e-17
  outer loop
    vertex 29.263251798119633 11.413519716744537 45.762223005794496
    vertex 27.059047744873922 11.703708685546598 60.0
    vertex 33.69356965724257 10.830257305484954 47.992433104962124
  endloop
endfacet
facet normal 0.13052619222005216 0.9914448613738105 -8.534972300061251e-17
  outer loop
    vertex 33.69356965724257 10.830257305484954 47.992433104962124
    vertex 27.059047744873922 11.703708685546598 60.0
    vertex 38.55014894428364 10.190876512614782 49.000000000000014
  endloop
endfacet
facet normal 0.13052619222005216 0.9914448613738105 -8.534972300061251e-17
  outer loop
    vertex 38.55014894428364 10.190876512614782 49.000000000000014
    vertex 40.0 10.0 60.0
    vertex 40.0 9.999999999999996 48.91692411631063
  endloop
endfacet
facet normal 0.13052619222005216 0.9914448613738105 -8.534972300061251e-17
  outer loop
    vertex 40.0 10.0 60.0
    vertex 38.55014894428364 10.190876512614782 49.000000000000014
    vertex 27.059047744873922 11.703708685546598 60.0
  endloop
endfacet
facet normal 0.7933533402912355 0.6087614290087203 8.841680285645399e-33
  outer loop
    vertex 0.0 30.697700926801694 5.520831794218487e-31
    vertex 4.6446609406726145 24.644660940672633 60.0
    vertex 4.6446609406726145 24.644660940672633 8.59539755685182e-31
  endloop
endfacet
facet normal 0.7933533402912355 0.6087614290087203 8.841680285645399e-33
  outer loop
    vertex 4.6446609406726145 24.644660940672633 60.0
    vertex 0.0 30.697700926801694 5.520831794218487e-31
    vertex 3.864631443117888e-32 30.697700926801694 60.0
  endloop
endfacet
facet normal 6.441052405196479e-34 -1.5363462407498844e-32 1.0
  outer loop
    vertex 3.864631443117888e-32 -9.218077444499307e-31 60.0
    vertex 4.6446609406726145 24.644660940672633 60.0
    vertex 3.864631443117888e-32 30.697700926801694 60.0
  endloop
endfacet
facet normal 6.441052405196479e-34 -1.5363462407498844e-32 1.0
  outer loop
    vertex 4.6446609406726145 24.644660940672633 60.0
    vertex 3.864631443117888e-32 -9.218077444499307e-31 60.0
    vertex 14.999999999999975 16.698729810778083 60.0
  endloop
endfacet
facet normal 6.441052405196479e-34 -1.5363462407498844e-32 1.0
  outer loop
    vertex 14.999999999999975 16.698729810778083 60.0
    vertex 3.864631443117888e-32 -9.218077444499307e-31 60.0
    vertex 27.059047744873922 11.703708685546598 60.0
  endloop
endfacet
facet normal 6.441052405196479e-34 -1.5363462407498844e-32 1.0
  outer loop
    vertex 27.059047744873922 11.703708685546598 60.0
    vertex 3.864631443117888e-32 -9.218077444499307e-31 60.0
    vertex 80.0 -9.218077444499307e-31 60.0
  endloop
endfacet
facet normal 6.441052405196479e-34 -1.5363462407498844e-32 1.0
  outer loop
    vertex 27.059047744873922 11.703708685546598 60.0
    vertex 80.0 -9.218077444499307e-31 60.0
    vertex 40.0 10.0 60.0
  endloop
endfacet
facet normal 6.441052405196479e-34 -1.5363462407498844e-32 1.0
  outer loop
    vertex 40.0 10.0 60.0
    vertex 80.0 -9.218077444499307e-31 60.0
    vertex 52.94095225512604 11.703708685546585 60.0
  endloop
endfacet
facet normal 6.441052405196479e-34 -1.5363462407498844e-32 1.0
  outer loop
    vertex 52.94095225512604 11.703708685546585 60.0
    vertex 80.0 -9.218077444499307e-31 60.0
    vertex 65.0 16.698729810778065 60.0
  endloop
endfacet
facet normal 6.441052405196479e-34 -1.5363462407498844e-32 1.0
  outer loop
    vertex 65.0 16.698729810778065 60.0
    vertex 80.0 -9.218077444499307e-31 60.0
    vertex 75.35533905932736 24.64466094067263 60.0
  endloop
endfacet
facet normal 6.441052405196479e-34 -1.5363462407498844e-32 1.0
  outer loop
    vertex 75.35533905932736 24.64466094067263 60.0
    vertex 80.0 -9.218077444499307e-31 60.0
    vertex 80.0 30.697700926801687 60.0
  endloop
endfacet
facet normal -6.441052405196479e-34 1.5363462407498844e-32 -1.0
  outer loop
    vertex 4.6446609406726145 24.644660940672633 8.59539755685182e-31
    vertex 0.0 0.0 0.0
    vertex 0.0 30.697700926801694 5.520831794218487e-31
  endloop
endfacet
facet normal -6.441052405196479e-34 1.5363462407498844e-32 -1.0
  outer loop
    vertex 0.0 0.0 0.0
    vertex 4.6446609406726145 24.644660940672633 8.59539755685182e-31
    vertex 14.999999999999975 16.698729810778083 8.59539755685182e-31
  endloop
endfacet
facet normal -6.441052405196479e-34 1.5363462407498844e-32 -1.0
  outer loop
    vertex 0.0 0.0 0.0
    vertex 14.999999999999975 16.698729810778083 8.59539755685182e-31
    vertex 27.059047744873922 11.703708685546598 8.59539755685182e-31
  endloop
endfacet
facet normal -6.441052405196479e-34 1.5363462407498844e-32 -1.0
  outer loop
    vertex 0.0 0.0 0.0
    vertex 27.059047744873922 11.703708685546598 8.59539755685182e-31
    vertex 80.0 0.0 0.0
  endloop
endfacet
facet normal -6.441052405196479e-34 1.5363462407498844e-32 -1.0
  outer loop
    vertex 80.0 0.0 0.0
    vertex 27.059047744873922 11.703708685546598 8.59539755685182e-31
    vertex 40.0 10.0 8.59539755685182e-31
  endloop
endfacet
facet normal -6.441052405196479e-34 1.5363462407498844e-32 -1.0
  outer loop
    vertex 80.0 0.0 0.0
    vertex 40.0 10.0 8.59539755685182e-31
    vertex 52.94095225512604 11.703708685546585 8.59539755685182e-31
  endloop
endfacet
facet normal -6.441052405196479e-34 1.5363462407498844e-32 -1.0
  outer loop
    vertex 80.0 0.0 0.0
    vertex 52.94095225512604 11.703708685546585 8.59539755685182e-31
    vertex 65.0 16.698729810778065 8.59539755685182e-31
  endloop
endfacet
facet normal -6.441052405196479e-34 1.5363462407498844e-32 -1.0
  outer loop
    vertex 80.0 0.0 0.0
    vertex 65.0 16.698729810778065 8.59539755685182e-31
    vertex 75.35533905932736 24.64466094067263 8.59539755685182e-31
  endloop
endfacet
facet normal -6.441052405196479e-34 1.5363462407498844e-32 -1.0
  outer loop
    vertex 80.0 0.0 0.0
    vertex 75.35533905932736 24.64466094067263 8.59539755685182e-31
    vertex 80.0 30.697700926801687 5.739797720195788e-31
  endloop
endfacet
facet normal 0.8360043259659168 3.7163567409940755e-16 -0.5487228507783081
  outer loop
    vertex 54.3358347807882 12.281487945593094 17.641696176485155
    vertex 57.05749754404473 1.0170619240709858e-15 21.7882737077024
    vertex 54.33583478078821 9.389237935415186e-16 17.641696176485166
  endloop
endfacet
facet normal 0.8360043259659168 3.7163567409940755e-16 -0.5487228507783081
  outer loop
    vertex 57.05749754404473 1.0170619240709858e-15 21.7882737077024
    vertex 54.3358347807882 12.281487945593094 17.641696176485155
    vertex 57.057497544044715 13.408837574339774 21.78827370770239
  endloop
endfacet
facet normal 0.9495380936042388 2.534543538696474e-16 -0.313651731693654
  outer loop
    vertex 57.057497544044715 13.408837574339774 21.78827370770239
    vertex 58.61320866045024 1.245775218506712e-15 26.497978193292226
    vertex 57.05749754404473 1.0170619240709858e-15 21.7882737077024
  endloop
endfacet
facet normal 0.9495380936042388 2.534543538696474e-16 -0.313651731693654
  outer loop
    vertex 58.61320866045024 1.245775218506712e-15 26.497978193292226
    vertex 57.057497544044715 13.408837574339774 21.78827370770239
    vertex 58.61320866045024 14.053234217889528 26.49797819329222
  endloop
endfacet
facet normal -0.9983624093493246 -3.1612679044369895e-17 0.057205765428070876
  outer loop
    vertex 21.28374032790566 14.095919344528783 33.60507281835186
    vertex 21.0 1.127986593019159e-14 28.65319995592773
    vertex 21.28374032790566 5.20738943114267e-15 33.60507281835188
  endloop
endfacet
facet normal -0.9983624093493246 -3.1612679044369895e-17 0.057205765428070876
  outer loop
    vertex 21.0 1.127986593019159e-14 28.65319995592773
    vertex 21.28374032790566 14.095919344528783 33.60507281835186
    vertex 20.999999999999996 14.213448436539498 28.653199955927718
  endloop
endfacet
facet normal -0.9791499767691442 -1.2638285940967265e-16 -0.20313867921443354
  outer loop
    vertex 21.0 1.127986593019159e-14 28.65319995592773
    vertex 22.007566895037883 13.796100563616656 23.796620668886643
    vertex 22.00756689503788 4.369782341677744e-15 23.796620668886646
  endloop
endfacet
facet normal -0.9791499767691442 -1.2638285940967265e-16 -0.20313867921443354
  outer loop
    vertex 22.007566895037883 13.796100563616656 23.796620668886643
    vertex 21.0 1.127986593019159e-14 28.65319995592773
    vertex 20.999999999999996 14.213448436539498 28.653199955927718
  endloop
endfacet
facet normal -0.5487228507783045 -1.007601219504425e-16 -0.8360043259659191
  outer loop
    vertex 31.68522269605832 11.094661198946918 12.942502455955278
    vertex 27.538645164841057 3.2258557309097987e-15 15.664165219211792
    vertex 27.53864516484105 11.64056848737145 15.664165219211792
  endloop
endfacet
facet normal -0.5487228507783045 -1.007601219504425e-16 -0.8360043259659191
  outer loop
    vertex 27.538645164841057 3.2258557309097987e-15 15.664165219211792
    vertex 31.68522269605832 11.094661198946918 12.942502455955278
    vertex 31.685222696058318 2.633790892409725e-15 12.942502455955282
  endloop
endfacet
facet normal -0.7463994143898045 1.196176346628208e-16 -0.6654982450754899
  outer loop
    vertex 24.237776994205493 3.817970085584418e-15 19.36630280976374
    vertex 27.53864516484105 11.64056848737145 15.664165219211792
    vertex 27.538645164841057 3.2258557309097987e-15 15.664165219211792
  endloop
endfacet
facet normal -0.7463994143898045 1.196176346628208e-16 -0.6654982450754899
  outer loop
    vertex 27.53864516484105 11.64056848737145 15.664165219211792
    vertex 24.237776994205493 3.817970085584418e-15 19.36630280976374
    vertex 27.059047744873922 11.703708685546598 16.20206480956417
  endloop
endfacet
facet normal -0.7463994143898045 1.196176346628208e-16 -0.6654982450754899
  outer loop
    vertex 27.059047744873922 11.703708685546598 16.20206480956417
    vertex 24.237776994205493 3.817970085584418e-15 19.36630280976374
    vertex 24.237776994205497 12.872317293599986 19.366302809763745
  endloop
endfacet
facet normal 0.5487228507783072 -9.685456900797772e-16 0.8360043259659172
  outer loop
    vertex 52.35830382351484 3.2273089187395803e-15 44.4388857924323
    vertex 48.211726292297605 11.081094275885066 47.16054855568883
    vertex 48.2117262922976 3.819373757239654e-15 47.16054855568881
  endloop
endfacet
facet normal 0.5487228507783072 -9.685456900797772e-16 0.8360043259659172
  outer loop
    vertex 48.211726292297605 11.081094275885066 47.16054855568883
    vertex 52.35830382351484 3.2273089187395803e-15 44.4388857924323
    vertex 52.35830382351484 11.627001564309591 44.43888579243231
  endloop
endfacet
facet normal 0.7463994143898025 -9.887895337093412e-16 0.6654982450754922
  outer loop
    vertex 55.65917199415042 12.829632166960744 40.73674820188036
    vertex 52.35830382351484 3.2273089187395803e-15 44.4388857924323
    vertex 55.659171994150405 2.6351945640649617e-15 40.73674820188035
  endloop
endfacet
facet normal 0.7463994143898025 -9.887895337093412e-16 0.6654982450754922
  outer loop
    vertex 52.35830382351484 3.2273089187395803e-15 44.4388857924323
    vertex 55.65917199415042 12.829632166960744 40.73674820188036
    vertex 52.94095225512604 11.703708685546593 43.78540781353786
  endloop
endfacet
facet normal 0.7463994143898025 -9.887895337093412e-16 0.6654982450754922
  outer loop
    vertex 52.35830382351484 3.2273089187395803e-15 44.4388857924323
    vertex 52.94095225512604 11.703708685546593 43.78540781353786
    vertex 52.35830382351484 11.627001564309591 44.43888579243231
  endloop
endfacet
facet normal -0.6654982450754918 2.3907041630234273e-16 0.7463994143898028
  outer loop
    vertex 25.561114207567705 5.514240856107863e-15 42.46135483515894
    vertex 27.059047744873922 11.703708685546596 43.79692949009349
    vertex 25.5611142075677 12.32417307223234 42.461354835158936
  endloop
endfacet
facet normal -0.6654982450754918 2.3907041630234273e-16 0.7463994143898028
  outer loop
    vertex 27.059047744873922 11.703708685546596 43.79692949009349
    vertex 25.561114207567705 5.514240856107863e-15 42.46135483515894
    vertex 29.263251798119644 5.436478838264856e-15 45.76222300579451
  endloop
endfacet
facet normal -0.6654982450754918 2.3907041630234273e-16 0.7463994143898028
  outer loop
    vertex 27.059047744873922 11.703708685546596 43.79692949009349
    vertex 29.263251798119644 5.436478838264856e-15 45.76222300579451
    vertex 29.263251798119633 11.413519716744537 45.762223005794496
  endloop
endfacet
facet normal 0.44963955857101695 3.9188102623561944e-16 -0.8932100913939907
  outer loop
    vertex 50.63369719023626 11.399952793682676 14.340828005849604
    vertex 46.203379331113354 1.2450486245918195e-15 12.110617906681973
    vertex 46.203379331113354 10.8166903824231 12.110617906681975
  endloop
endfacet
facet normal 0.44963955857101695 3.9188102623561944e-16 -0.8932100913939907
  outer loop
    vertex 46.203379331113354 1.2450486245918195e-15 12.110617906681973
    vertex 50.63369719023626 11.399952793682676 14.340828005849604
    vertex 50.63369719023626 1.016685811384526e-15 14.340828005849598
  endloop
endfacet
facet normal -0.05720576542807202 2.6266564715648907e-17 -0.9983624093493246
  outer loop
    vertex 36.394927181648136 10.474616840520454 11.386791339549761
    vertex 41.34680004407227 1.6084496848307144e-15 11.103051011644093
    vertex 36.39492718164813 2.0821238103945733e-15 11.386791339549761
  endloop
endfacet
facet normal -0.05720576542807202 2.6266564715648907e-17 -0.9983624093493246
  outer loop
    vertex 41.34680004407227 1.6084496848307144e-15 11.103051011644093
    vertex 36.394927181648136 10.474616840520454 11.386791339549761
    vertex 39.999999999999986 9.999999999999998 11.180222113719067
  endloop
endfacet
facet normal -0.05720576542807202 2.6266564715648907e-17 -0.9983624093493246
  outer loop
    vertex 41.34680004407227 1.6084496848307144e-15 11.103051011644093
    vertex 39.999999999999986 9.999999999999998 11.180222113719067
    vertex 41.346800044072275 10.177309589552928 11.103051011644093
  endloop
endfacet
facet normal -0.8360043259659181 2.0931340315167765e-16 0.5487228507783058
  outer loop
    vertex 25.561114207567705 5.514240856107863e-15 42.46135483515894
    vertex 22.839451444311194 13.451522700979025 38.31477730394169
    vertex 22.839451444311198 5.436102725578394e-15 38.3147773039417
  endloop
endfacet
facet normal -0.8360043259659181 2.0931340315167765e-16 0.5487228507783058
  outer loop
    vertex 22.839451444311194 13.451522700979025 38.31477730394169
    vertex 25.561114207567705 5.514240856107863e-15 42.46135483515894
    vertex 25.5611142075677 12.32417307223234 42.461354835158936
  endloop
endfacet
facet normal 0.3136517316936545 -4.3413940278053023e-16 0.9495380936042386
  outer loop
    vertex 43.50202180670779 4.371040839254808e-15 48.71625967209434
    vertex 48.211726292297605 11.081094275885066 47.16054855568883
    vertex 43.50202180670777 10.4610499174586 48.71625967209434
  endloop
endfacet
facet normal 0.3136517316936545 -4.3413940278053023e-16 0.9495380936042386
  outer loop
    vertex 48.211726292297605 11.081094275885066 47.16054855568883
    vertex 43.50202180670779 4.371040839254808e-15 48.71625967209434
    vertex 48.2117262922976 3.819373757239654e-15 47.16054855568881
  endloop
endfacet
facet normal -0.13052619222005188 0.9914448613738105 3.3088035097222325e-17
  outer loop
    vertex 52.35830382351484 11.627001564309591 44.43888579243231
    vertex 52.94095225512604 11.703708685546585 60.0
    vertex 52.94095225512604 11.703708685546593 43.78540781353786
  endloop
endfacet
facet normal -0.13052619222005188 0.9914448613738105 3.3088035097222325e-17
  outer loop
    vertex 52.94095225512604 11.703708685546585 60.0
    vertex 52.35830382351484 11.627001564309591 44.43888579243231
    vertex 48.211726292297605 11.081094275885066 47.16054855568883
  endloop
endfacet
facet normal -0.13052619222005188 0.9914448613738105 3.3088035097222325e-17
  outer loop
    vertex 52.94095225512604 11.703708685546585 60.0
    vertex 48.211726292297605 11.081094275885066 47.16054855568883
    vertex 43.50202180670777 10.4610499174586 48.71625967209434
  endloop
endfacet
facet normal -0.13052619222005188 0.9914448613738105 3.3088035097222325e-17
  outer loop
    vertex 52.94095225512604 11.703708685546585 60.0
    vertex 43.50202180670777 10.4610499174586 48.71625967209434
    vertex 40.0 9.999999999999996 48.91692411631063
  endloop
endfacet
facet normal -0.13052619222005188 0.9914448613738105 3.3088035097222325e-17
  outer loop
    vertex 52.94095225512604 11.703708685546585 60.0
    vertex 40.0 9.999999999999996 48.91692411631063
    vertex 40.0 10.0 60.0
  endloop
endfacet
facet normal 0.13052619222005224 0.9914448613738105 1.5059856065041509e-16
  outer loop
    vertex 27.059047744873922 11.703708685546598 16.20206480956417
    vertex 40.0 10.0 8.59539755685182e-31
    vertex 27.059047744873922 11.703708685546598 8.59539755685182e-31
  endloop
endfacet
facet normal 0.13052619222005224 0.9914448613738105 1.5059856065041509e-16
  outer loop
    vertex 40.0 10.0 8.59539755685182e-31
    vertex 27.059047744873922 11.703708685546598 16.20206480956417
    vertex 27.53864516484105 11.64056848737145 15.664165219211792
  endloop
endfacet
facet normal 0.13052619222005224 0.9914448613738105 1.5059856065041509e-16
  outer loop
    vertex 40.0 10.0 8.59539755685182e-31
    vertex 27.53864516484105 11.64056848737145 15.664165219211792
    vertex 31.68522269605832 11.094661198946918 12.942502455955278
  endloop
endfacet
facet normal 0.13052619222005224 0.9914448613738105 1.5059856065041509e-16
  outer loop
    vertex 40.0 10.0 8.59539755685182e-31
    vertex 31.68522269605832 11.094661198946918 12.942502455955278
    vertex 36.394927181648136 10.474616840520454 11.386791339549761
  endloop
endfacet
facet normal 0.13052619222005224 0.9914448613738105 1.5059856065041509e-16
  outer loop
    vertex 40.0 10.0 8.59539755685182e-31
    vertex 36.394927181648136 10.474616840520454 11.386791339549761
    vertex 39.999999999999986 9.999999999999998 11.180222113719067
  endloop
endfacet
facet normal -0.20313867921443363 -4.0503352201388237e-16 0.9791499767691442
  outer loop
    vertex 38.550148944283634 1.127986593019159e-14 49.0
    vertex 33.69356965724257 10.830257305484954 47.992433104962124
    vertex 33.69356965724257 5.208116025057561e-15 47.992433104962124
  endloop
endfacet
facet normal -0.20313867921443363 -4.0503352201388237e-16 0.9791499767691442
  outer loop
    vertex 33.69356965724257 10.830257305484954 47.992433104962124
    vertex 38.550148944283634 1.127986593019159e-14 49.0
    vertex 38.55014894428364 10.190876512614782 49.000000000000014
  endloop
endfacet
facet normal 0.8932100913939913 -4.513627310448457e-16 0.44963955857101545
  outer loop
    vertex 57.889382093318034 13.753415436977411 36.30643034275744
    vertex 55.659171994150405 2.6351945640649617e-15 40.73674820188035
    vertex 57.889382093318034 2.0833823079716358e-15 36.306430342757444
  endloop
endfacet
facet normal 0.8932100913939913 -4.513627310448457e-16 0.44963955857101545
  outer loop
    vertex 55.659171994150405 2.6351945640649617e-15 40.73674820188035
    vertex 57.889382093318034 13.753415436977411 36.30643034275744
    vertex 55.65917199415042 12.829632166960744 40.73674820188036
  endloop
endfacet
facet normal 0.20313867921443335 7.856192196295475e-17 -0.9791499767691442
  outer loop
    vertex 41.346800044072275 10.177309589552928 11.103051011644093
    vertex 46.203379331113354 1.2450486245918195e-15 12.110617906681973
    vertex 41.34680004407227 1.6084496848307144e-15 11.103051011644093
  endloop
endfacet
facet normal 0.20313867921443335 7.856192196295475e-17 -0.9791499767691442
  outer loop
    vertex 46.203379331113354 1.2450486245918195e-15 12.110617906681973
    vertex 41.346800044072275 10.177309589552928 11.103051011644093
    vertex 46.203379331113354 10.8166903824231 12.110617906681975
  endloop
endfacet
facet normal -0.8932100913939914 1.3843787502023948e-16 -0.4496395585710157
  outer loop
    vertex 22.00756689503788 4.369782341677744e-15 23.796620668886646
    vertex 24.237776994205497 12.872317293599986 19.366302809763745
    vertex 24.237776994205493 3.817970085584418e-15 19.36630280976374
  endloop
endfacet
facet normal -0.8932100913939914 1.3843787502023948e-16 -0.4496395585710157
  outer loop
    vertex 24.237776994205497 12.872317293599986 19.366302809763745
    vertex 22.00756689503788 4.369782341677744e-15 23.796620668886646
    vertex 22.007566895037883 13.796100563616656 23.796620668886643
  endloop
endfacet
facet normal 0.9983624093493249 -1.0487279000630063e-17 -0.057205765428070564
  outer loop
    vertex 58.61320866045024 14.053234217889528 26.49797819329222
    vertex 58.8969489883559 1.6094772437994923e-15 31.44985105571637
    vertex 58.61320866045024 1.245775218506712e-15 26.497978193292226
  endloop
endfacet
facet normal 0.9983624093493249 -1.0487279000630063e-17 -0.057205765428070564
  outer loop
    vertex 58.8969489883559 1.6094772437994923e-15 31.44985105571637
    vertex 58.61320866045024 14.053234217889528 26.49797819329222
    vertex 58.8969489883559 14.170763309900241 31.44985105571637
  endloop
endfacet
facet normal 0.057205765428071806 -5.959816527096093e-16 0.9983624093493246
  outer loop
    vertex 43.50202180670779 4.371040839254808e-15 48.71625967209434
    vertex 38.55014894428364 10.190876512614782 49.000000000000014
    vertex 38.550148944283634 1.127986593019159e-14 49.0
  endloop
endfacet
facet normal 0.057205765428071806 -5.959816527096093e-16 0.9983624093493246
  outer loop
    vertex 38.55014894428364 10.190876512614782 49.000000000000014
    vertex 43.50202180670779 4.371040839254808e-15 48.71625967209434
    vertex 40.0 9.999999999999996 48.91692411631063
  endloop
endfacet
facet normal 0.057205765428071806 -5.959816527096093e-16 0.9983624093493246
  outer loop
    vertex 40.0 9.999999999999996 48.91692411631063
    vertex 43.50202180670779 4.371040839254808e-15 48.71625967209434
    vertex 43.50202180670777 10.4610499174586 48.71625967209434
  endloop
endfacet
facet normal -0.9495380936042381 2.9768430819055853e-16 0.3136517316936564
  outer loop
    vertex 22.839451444311198 5.436102725578394e-15 38.3147773039417
    vertex 21.28374032790566 14.095919344528783 33.60507281835186
    vertex 21.28374032790566 5.20738943114267e-15 33.60507281835188
  endloop
endfacet
facet normal -0.9495380936042381 2.9768430819055853e-16 0.3136517316936564
  outer loop
    vertex 21.28374032790566 14.095919344528783 33.60507281835186
    vertex 22.839451444311198 5.436102725578394e-15 38.3147773039417
    vertex 22.839451444311194 13.451522700979025 38.31477730394169
  endloop
endfacet
facet normal -0.4496395585710146 2.312375145072988e-16 0.8932100913939918
  outer loop
    vertex 29.263251798119644 5.436478838264856e-15 45.76222300579451
    vertex 33.69356965724257 10.830257305484954 47.992433104962124
    vertex 29.263251798119633 11.413519716744537 45.762223005794496
  endloop
endfacet
facet normal -0.4496395585710146 2.312375145072988e-16 0.8932100913939918
  outer loop
    vertex 33.69356965724257 10.830257305484954 47.992433104962124
    vertex 29.263251798119644 5.436478838264856e-15 45.76222300579451
    vertex 33.69356965724257 5.208116025057561e-15 47.992433104962124
  endloop
endfacet
facet normal 0.9791499767691448 4.323625579313633e-17 0.20313867921443104
  outer loop
    vertex 58.8969489883559 14.170763309900241 31.44985105571637
    vertex 57.889382093318034 2.0833823079716358e-15 36.306430342757444
    vertex 58.8969489883559 1.6094772437994923e-15 31.44985105571637
  endloop
endfacet
facet normal 0.9791499767691448 4.323625579313633e-17 0.20313867921443104
  outer loop
    vertex 57.889382093318034 2.0833823079716358e-15 36.306430342757444
    vertex 58.8969489883559 14.170763309900241 31.44985105571637
    vertex 57.889382093318034 13.753415436977411 36.30643034275744
  endloop
endfacet
facet normal -0.31365173169365473 3.88965906019277e-17 -0.9495380936042386
  outer loop
    vertex 31.68522269605832 11.094661198946918 12.942502455955278
    vertex 36.39492718164813 2.0821238103945733e-15 11.386791339549761
    vertex 31.685222696058318 2.633790892409725e-15 12.942502455955282
  endloop
endfacet
facet normal -0.31365173169365473 3.88965906019277e-17 -0.9495380936042386
  outer loop
    vertex 36.39492718164813 2.0821238103945733e-15 11.386791339549761
    vertex 31.68522269605832 11.094661198946918 12.942502455955278
    vertex 36.394927181648136 10.474616840520454 11.386791339549761
  endloop
endfacet
facet normal 0.6654982450754909 1.277264721264122e-16 -0.7463994143898037
  outer loop
    vertex 52.94095225512604 11.703708685546589 16.398002980833958
    vertex 50.63369719023626 1.016685811384526e-15 14.340828005849598
    vertex 50.63369719023626 11.399952793682676 14.340828005849604
  endloop
endfacet
facet normal 0.6654982450754909 1.277264721264122e-16 -0.7463994143898037
  outer loop
    vertex 50.63369719023626 1.016685811384526e-15 14.340828005849598
    vertex 52.94095225512604 11.703708685546589 16.398002980833958
    vertex 54.33583478078821 9.389237935415186e-16 17.641696176485166
  endloop
endfacet
facet normal 0.6654982450754909 1.277264721264122e-16 -0.7463994143898037
  outer loop
    vertex 54.33583478078821 9.389237935415186e-16 17.641696176485166
    vertex 52.94095225512604 11.703708685546589 16.398002980833958
    vertex 54.3358347807882 12.281487945593094 17.641696176485155
  endloop
endfacet
facet normal -0.13052619222005166 0.9914448613738105 -2.3389354205564623e-17
  outer loop
    vertex 39.999999999999986 9.999999999999998 11.180222113719067
    vertex 52.94095225512604 11.703708685546585 8.59539755685182e-31
    vertex 40.0 10.0 8.59539755685182e-31
  endloop
endfacet
facet normal -0.13052619222005166 0.9914448613738105 -2.3389354205564623e-17
  outer loop
    vertex 52.94095225512604 11.703708685546585 8.59539755685182e-31
    vertex 39.999999999999986 9.999999999999998 11.180222113719067
    vertex 41.346800044072275 10.177309589552928 11.103051011644093
  endloop
endfacet
facet normal -0.13052619222005166 0.9914448613738105 -2.3389354205564623e-17
  outer loop
    vertex 52.94095225512604 11.703708685546585 8.59539755685182e-31
    vertex 50.63369719023626 11.399952793682676 14.340828005849604
    vertex 52.94095225512604 11.703708685546589 16.398002980833958
  endloop
endfacet
facet normal -0.13052619222005166 0.9914448613738105 -2.3389354205564623e-17
  outer loop
    vertex 50.63369719023626 11.399952793682676 14.340828005849604
    vertex 52.94095225512604 11.703708685546585 8.59539755685182e-31
    vertex 46.203379331113354 10.8166903824231 12.110617906681975
  endloop
endfacet
facet normal -0.13052619222005166 0.9914448613738105 -2.3389354205564623e-17
  outer loop
    vertex 46.203379331113354 10.8166903824231 12.110617906681975
    vertex 52.94095225512604 11.703708685546585 8.59539755685182e-31
    vertex 41.346800044072275 10.177309589552928 11.103051011644093
  endloop
endfacet
endsolid SupportVentilateurReacteur
