solid outil_coupe
facet normal 0.0 0.0 1.0
  outer loop
    vertex 13.499999999999998 10.999999999999996 22.999999999999993
    vertex 16.499999999999996 13.999999999999996 22.999999999999993
    vertex 13.499999999999998 21.0 22.999999999999993
  endloop
endfacet
facet normal 0.0 0.0 1.0
  outer loop
    vertex 16.499999999999996 13.999999999999996 22.999999999999993
    vertex 13.499999999999998 10.999999999999996 22.999999999999993
    vertex 36.49999999999999 10.999999999999996 22.999999999999993
  endloop
endfacet
facet normal 0.0 0.0 1.0
  outer loop
    vertex 13.499999999999998 21.0 22.999999999999993
    vertex 16.499999999999996 13.999999999999996 22.999999999999993
    vertex 13.499999999999998 23.999999999999996 22.999999999999993
  endloop
endfacet
facet normal 0.0 0.0 1.0
  outer loop
    vertex 16.499999999999996 13.999999999999996 22.999999999999993
    vertex 36.49999999999999 10.999999999999996 22.999999999999993
    vertex 33.49999999999999 13.999999999999996 22.999999999999993
  endloop
endfacet
facet normal 0.0 0.0 1.0
  outer loop
    vertex 33.49999999999999 13.999999999999996 22.999999999999993
    vertex 36.49999999999999 10.999999999999996 22.999999999999993
    vertex 33.49999999999999 23.999999999999996 22.999999999999993
  endloop
endfacet
facet normal 0.0 0.0 1.0
  outer loop
    vertex 33.49999999999999 23.999999999999996 22.999999999999993
    vertex 36.49999999999999 10.999999999999996 22.999999999999993
    vertex 36.49999999999999 23.999999999999996 22.999999999999993
  endloop
endfacet
facet normal 0.0 0.0 1.0
  outer loop
    vertex 36.49999999999999 23.999999999999996 22.999999999999993
    vertex 36.49999999999999 10.999999999999996 22.999999999999993
    vertex 36.49999999999999 21.0 22.999999999999993
  endloop
endfacet
facet normal 0.0 0.0 1.0
  outer loop
    vertex 16.499999999999996 23.999999999999996 22.999999999999993
    vertex 13.499999999999998 23.999999999999996 22.999999999999993
    vertex 16.499999999999996 13.999999999999996 22.999999999999993
  endloop
endfacet
facet normal 0.7999999999999999 4.9741075456054004e-17 0.6000000000000003
  outer loop
    vertex 50.0 25.999999999999996 4.999999999999999
    vertex 36.49999999999999 28.999999999999996 22.999999999999993
    vertex 36.49999999999999 25.999999999999993 22.999999999999993
  endloop
endfacet
facet normal 0.7999999999999999 4.9741075456054004e-17 0.6000000000000003
  outer loop
    vertex 36.49999999999999 28.999999999999996 22.999999999999993
    vertex 50.0 25.999999999999996 4.999999999999999
    vertex 50.0 28.999999999999996 4.999999999999999
  endloop
endfacet
facet normal 0.0 1.0 0.0
  outer loop
    vertex 0.0 49.99999999999999 4.999999999999999
    vertex 50.0 49.99999999999999 0.0
    vertex 0.0 49.99999999999999 0.0
  endloop
endfacet
facet normal 0.0 1.0 0.0
  outer loop
    vertex 50.0 49.99999999999999 0.0
    vertex 0.0 49.99999999999999 4.999999999999999
    vertex 50.0 49.99999999999999 4.999999999999999
  endloop
endfacet
facet normal -1.0 0.0 0.0
  outer loop
    vertex 0.0 21.0 4.999999999999999
    vertex 0.0 0.0 0.0
    vertex 0.0 0.0 4.999999999999999
  endloop
endfacet
facet normal -1.0 0.0 0.0
  outer loop
    vertex 0.0 0.0 0.0
    vertex 0.0 21.0 4.999999999999999
    vertex 0.0 49.99999999999999 0.0
  endloop
endfacet
facet normal -1.0 0.0 0.0
  outer loop
    vertex 0.0 49.99999999999999 0.0
    vertex 0.0 21.0 4.999999999999999
    vertex 0.0 23.999999999999996 4.999999999999999
  endloop
endfacet
facet normal -1.0 0.0 0.0
  outer loop
    vertex 0.0 49.99999999999999 0.0
    vertex 0.0 23.999999999999996 4.999999999999999
    vertex 0.0 25.999999999999993 4.999999999999999
  endloop
endfacet
facet normal -1.0 0.0 0.0
  outer loop
    vertex 0.0 49.99999999999999 0.0
    vertex 0.0 25.999999999999993 4.999999999999999
    vertex 0.0 28.999999999999993 4.999999999999999
  endloop
endfacet
facet normal -1.0 0.0 0.0
  outer loop
    vertex 0.0 49.99999999999999 0.0
    vertex 0.0 28.999999999999993 4.999999999999999
    vertex 0.0 49.99999999999999 4.999999999999999
  endloop
endfacet
facet normal -0.0 -1.0 -0.0
  outer loop
    vertex 50.0 0.0 4.999999999999999
    vertex 0.0 0.0 0.0
    vertex 50.0 0.0 0.0
  endloop
endfacet
facet normal -0.0 -1.0 -0.0
  outer loop
    vertex 0.0 0.0 0.0
    vertex 50.0 0.0 4.999999999999999
    vertex 0.0 0.0 4.999999999999999
  endloop
endfacet
facet normal 0.0 0.0 -1.0
  outer loop
    vertex 50.0 49.99999999999999 0.0
    vertex 0.0 0.0 0.0
    vertex 0.0 49.99999999999999 0.0
  endloop
endfacet
facet normal 0.0 0.0 -1.0
  outer loop
    vertex 0.0 0.0 0.0
    vertex 50.0 49.99999999999999 0.0
    vertex 50.0 0.0 0.0
  endloop
endfacet
facet normal 0.0 1.0 0.0
  outer loop
    vertex 13.499999999999998 28.999999999999993 22.999999999999993
    vertex 13.499999999999998 28.999999999999993 4.999999999999999
    vertex 0.0 28.999999999999993 4.999999999999999
  endloop
endfacet
facet normal -3.5471276510036435e-16 1.0 5.9118794183394095e-18
  outer loop
    vertex 33.49999999999999 23.999999999999996 22.999999999999993
    vertex 36.49999999999999 23.999999999999996 4.999999999999999
    vertex 33.49999999999999 23.999999999999996 4.999999999999999
  endloop
endfacet
facet normal -3.5471276510036435e-16 1.0 5.9118794183394095e-18
  outer loop
    vertex 36.49999999999999 23.999999999999996 4.999999999999999
    vertex 33.49999999999999 23.999999999999996 22.999999999999993
    vertex 50.0 24.0 4.999999999999999
  endloop
endfacet
facet normal -3.5471276510036435e-16 1.0 5.9118794183394095e-18
  outer loop
    vertex 50.0 24.0 4.999999999999999
    vertex 33.49999999999999 23.999999999999996 22.999999999999993
    vertex 36.49999999999999 23.999999999999996 22.999999999999993
  endloop
endfacet
facet normal 0.0 0.0 1.0
  outer loop
    vertex 50.0 25.999999999999996 4.999999999999999
    vertex 36.49999999999999 28.999999999999996 4.999999999999999
    vertex 36.49999999999999 25.999999999999993 4.999999999999999
  endloop
endfacet
facet normal 0.0 0.0 1.0
  outer loop
    vertex 36.49999999999999 28.999999999999996 4.999999999999999
    vertex 50.0 25.999999999999996 4.999999999999999
    vertex 50.0 28.999999999999996 4.999999999999999
  endloop
endfacet
facet normal 0.0 0.0 1.0
  outer loop
    vertex 33.49999999999999 13.999999999999996 4.999999999999999
    vertex 16.499999999999996 21.5 4.999999999999999
    vertex 16.499999999999996 13.999999999999996 4.999999999999999
  endloop
endfacet
facet normal 0.0 0.0 1.0
  outer loop
    vertex 16.499999999999996 21.5 4.999999999999999
    vertex 33.49999999999999 13.999999999999996 4.999999999999999
    vertex 16.499999999999996 23.999999999999996 4.999999999999999
  endloop
endfacet
facet normal 0.0 0.0 1.0
  outer loop
    vertex 16.499999999999996 23.999999999999996 4.999999999999999
    vertex 33.49999999999999 13.999999999999996 4.999999999999999
    vertex 16.499999999999996 25.999999999999993 4.999999999999999
  endloop
endfacet
facet normal 0.0 0.0 1.0
  outer loop
    vertex 16.499999999999996 25.999999999999993 4.999999999999999
    vertex 33.49999999999999 13.999999999999996 4.999999999999999
    vertex 16.499999999999996 35.99999999999999 4.999999999999999
  endloop
endfacet
facet normal 0.0 0.0 1.0
  outer loop
    vertex 16.499999999999996 35.99999999999999 4.999999999999999
    vertex 33.49999999999999 13.999999999999996 4.999999999999999
    vertex 33.49999999999999 36.0 4.999999999999999
  endloop
endfacet
facet normal 0.0 0.0 1.0
  outer loop
    vertex 33.49999999999999 36.0 4.999999999999999
    vertex 33.49999999999999 13.999999999999996 4.999999999999999
    vertex 33.49999999999999 21.5 4.999999999999999
  endloop
endfacet
facet normal 0.0 0.0 1.0
  outer loop
    vertex 33.49999999999999 36.0 4.999999999999999
    vertex 33.49999999999999 21.5 4.999999999999999
    vertex 33.49999999999999 23.999999999999996 4.999999999999999
  endloop
endfacet
facet normal 0.0 0.0 1.0
  outer loop
    vertex 33.49999999999999 36.0 4.999999999999999
    vertex 33.49999999999999 23.999999999999996 4.999999999999999
    vertex 33.49999999999999 25.999999999999993 4.999999999999999
  endloop
endfacet
facet normal 0.0 0.0 1.0
  outer loop
    vertex 50.0 28.999999999999996 4.999999999999999
    vertex 36.49999999999999 38.99999999999999 4.999999999999999
    vertex 36.49999999999999 28.999999999999996 4.999999999999999
  endloop
endfacet
facet normal 0.0 0.0 1.0
  outer loop
    vertex 13.499999999999998 28.999999999999993 4.999999999999999
    vertex 0.0 49.99999999999999 4.999999999999999
    vertex 0.0 28.999999999999993 4.999999999999999
  endloop
endfacet
facet normal 0.0 0.0 1.0
  outer loop
    vertex 0.0 49.99999999999999 4.999999999999999
    vertex 13.499999999999998 28.999999999999993 4.999999999999999
    vertex 13.499999999999998 38.99999999999999 4.999999999999999
  endloop
endfacet
facet normal 0.0 0.0 1.0
  outer loop
    vertex 0.0 49.99999999999999 4.999999999999999
    vertex 13.499999999999998 38.99999999999999 4.999999999999999
    vertex 50.0 49.99999999999999 4.999999999999999
  endloop
endfacet
facet normal 0.0 0.0 1.0
  outer loop
    vertex 50.0 49.99999999999999 4.999999999999999
    vertex 13.499999999999998 38.99999999999999 4.999999999999999
    vertex 36.49999999999999 38.99999999999999 4.999999999999999
  endloop
endfacet
facet normal 0.0 0.0 1.0
  outer loop
    vertex 50.0 49.99999999999999 4.999999999999999
    vertex 36.49999999999999 38.99999999999999 4.999999999999999
    vertex 50.0 28.999999999999996 4.999999999999999
  endloop
endfacet
facet normal 0.0 0.0 1.0
  outer loop
    vertex 13.499999999999998 25.999999999999993 4.999999999999999
    vertex 0.0 28.999999999999993 4.999999999999999
    vertex 0.0 25.999999999999993 4.999999999999999
  endloop
endfacet
facet normal 0.0 0.0 1.0
  outer loop
    vertex 0.0 28.999999999999993 4.999999999999999
    vertex 13.499999999999998 25.999999999999993 4.999999999999999
    vertex 13.499999999999998 28.999999999999993 4.999999999999999
  endloop
endfacet
facet normal 6.635215253053878e-16 -1.0 0.0
  outer loop
    vertex 33.49999999999999 36.0 22.999999999999993
    vertex 16.499999999999996 35.99999999999999 4.999999999999999
    vertex 33.49999999999999 36.0 4.999999999999999
  endloop
endfacet
facet normal 6.635215253053878e-16 -1.0 0.0
  outer loop
    vertex 16.499999999999996 35.99999999999999 4.999999999999999
    vertex 33.49999999999999 36.0 22.999999999999993
    vertex 16.499999999999996 35.99999999999999 22.999999999999993
  endloop
endfacet
facet normal 1.0 0.0 0.0
  outer loop
    vertex 16.499999999999996 21.5 4.999999999999999
    vertex 16.499999999999996 13.999999999999996 22.999999999999993
    vertex 16.499999999999996 13.999999999999996 4.999999999999999
  endloop
endfacet
facet normal 1.0 0.0 0.0
  outer loop
    vertex 16.499999999999996 13.999999999999996 22.999999999999993
    vertex 16.499999999999996 21.5 4.999999999999999
    vertex 16.499999999999996 23.999999999999996 22.999999999999993
  endloop
endfacet
facet normal 1.0 0.0 0.0
  outer loop
    vertex 16.499999999999996 23.999999999999996 22.999999999999993
    vertex 16.499999999999996 21.5 4.999999999999999
    vertex 16.499999999999996 23.999999999999996 4.999999999999999
  endloop
endfacet
facet normal -2.4521447674329546e-16 1.0 0.0
  outer loop
    vertex 13.499999999999998 38.99999999999999 22.999999999999993
    vertex 36.49999999999999 38.99999999999999 4.999999999999999
    vertex 13.499999999999998 38.99999999999999 4.999999999999999
  endloop
endfacet
facet normal -2.4521447674329546e-16 1.0 0.0
  outer loop
    vertex 36.49999999999999 38.99999999999999 4.999999999999999
    vertex 13.499999999999998 38.99999999999999 22.999999999999993
    vertex 36.49999999999999 38.99999999999999 22.999999999999993
  endloop
endfacet
facet normal 0.0 1.0 0.0
  outer loop
    vertex 16.499999999999996 13.999999999999996 22.999999999999993
    vertex 33.49999999999999 13.999999999999996 4.999999999999999
    vertex 16.499999999999996 13.999999999999996 4.999999999999999
  endloop
endfacet
facet normal 0.0 1.0 0.0
  outer loop
    vertex 33.49999999999999 13.999999999999996 4.999999999999999
    vertex 16.499999999999996 13.999999999999996 22.999999999999993
    vertex 33.49999999999999 13.999999999999996 22.999999999999993
  endloop
endfacet
facet normal -0.8 0.0 0.6000000000000001
  outer loop
    vertex 13.499999999999998 23.999999999999996 22.999999999999993
    vertex 0.0 21.0 4.999999999999999
    vertex 13.499999999999998 21.0 22.999999999999993
  endloop
endfacet
facet normal -0.8 0.0 0.6000000000000001
  outer loop
    vertex 0.0 21.0 4.999999999999999
    vertex 13.499999999999998 23.999999999999996 22.999999999999993
    vertex 0.0 23.999999999999996 4.999999999999999
  endloop
endfacet
facet normal 0.7999999999999998 4.9741075456054177e-17 0.6000000000000002
  outer loop
    vertex 50.0 24.0 4.999999999999999
    vertex 36.49999999999999 21.0 22.999999999999993
    vertex 50.0 21.0 4.999999999999999
  endloop
endfacet
facet normal 0.7999999999999998 4.9741075456054177e-17 0.6000000000000002
  outer loop
    vertex 36.49999999999999 21.0 22.999999999999993
    vertex 50.0 24.0 4.999999999999999
    vertex 36.49999999999999 23.999999999999996 22.999999999999993
  endloop
endfacet
facet normal 0.0 0.0 1.0
  outer loop
    vertex 36.49999999999999 25.999999999999993 22.999999999999993
    vertex 33.49999999999999 36.0 22.999999999999993
    vertex 33.49999999999999 25.999999999999993 22.999999999999993
  endloop
endfacet
facet normal 0.0 0.0 1.0
  outer loop
    vertex 16.499999999999996 25.999999999999993 22.999999999999993
    vertex 13.499999999999998 28.999999999999993 22.999999999999993
    vertex 13.499999999999998 25.999999999999993 22.999999999999993
  endloop
endfacet
facet normal 0.0 0.0 1.0
  outer loop
    vertex 13.499999999999998 28.999999999999993 22.999999999999993
    vertex 16.499999999999996 25.999999999999993 22.999999999999993
    vertex 13.499999999999998 38.99999999999999 22.999999999999993
  endloop
endfacet
facet normal 0.0 0.0 1.0
  outer loop
    vertex 13.499999999999998 38.99999999999999 22.999999999999993
    vertex 16.499999999999996 25.999999999999993 22.999999999999993
    vertex 16.499999999999996 35.99999999999999 22.999999999999993
  endloop
endfacet
facet normal 0.0 0.0 1.0
  outer loop
    vertex 13.499999999999998 38.99999999999999 22.999999999999993
    vertex 16.499999999999996 35.99999999999999 22.999999999999993
    vertex 36.49999999999999 38.99999999999999 22.999999999999993
  endloop
endfacet
facet normal 0.0 0.0 1.0
  outer loop
    vertex 36.49999999999999 38.99999999999999 22.999999999999993
    vertex 16.499999999999996 35.99999999999999 22.999999999999993
    vertex 33.49999999999999 36.0 22.999999999999993
  endloop
endfacet
facet normal 0.0 0.0 1.0
  outer loop
    vertex 36.49999999999999 38.99999999999999 22.999999999999993
    vertex 33.49999999999999 36.0 22.999999999999993
    vertex 36.49999999999999 25.999999999999993 22.999999999999993
  endloop
endfacet
facet normal 0.0 0.0 1.0
  outer loop
    vertex 36.49999999999999 38.99999999999999 22.999999999999993
    vertex 36.49999999999999 25.999999999999993 22.999999999999993
    vertex 36.49999999999999 28.999999999999996 22.999999999999993
  endloop
endfacet
facet normal 0.0 -1.0 0.0
  outer loop
    vertex 36.49999999999999 10.999999999999996 22.999999999999993
    vertex 13.499999999999998 10.999999999999996 4.999999999999999
    vertex 36.49999999999999 10.999999999999996 4.999999999999999
  endloop
endfacet
facet normal 0.0 -1.0 0.0
  outer loop
    vertex 13.499999999999998 10.999999999999996 4.999999999999999
    vertex 36.49999999999999 10.999999999999996 22.999999999999993
    vertex 13.499999999999998 10.999999999999996 22.999999999999993
  endloop
endfacet
facet normal -1.0 0.0 0.0
  outer loop
    vertex 33.49999999999999 36.0 22.999999999999993
    vertex 33.49999999999999 25.999999999999993 4.999999999999999
    vertex 33.49999999999999 25.999999999999993 22.999999999999993
  endloop
endfacet
facet normal -1.0 0.0 0.0
  outer loop
    vertex 33.49999999999999 25.999999999999993 4.999999999999999
    vertex 33.49999999999999 36.0 22.999999999999993
    vertex 33.49999999999999 36.0 4.999999999999999
  endloop
endfacet
facet normal 3.5471276510036435e-16 -1.0 -5.9118794183394095e-18
  outer loop
    vertex 36.49999999999999 25.999999999999993 22.999999999999993
    vertex 36.49999999999999 25.999999999999993 4.999999999999999
    vertex 50.0 25.999999999999996 4.999999999999999
  endloop
endfacet
facet normal 3.5471276510036435e-16 -1.0 -5.9118794183394095e-18
  outer loop
    vertex 36.49999999999999 25.999999999999993 4.999999999999999
    vertex 36.49999999999999 25.999999999999993 22.999999999999993
    vertex 33.49999999999999 25.999999999999993 4.999999999999999
  endloop
endfacet
facet normal 3.5471276510036435e-16 -1.0 -5.9118794183394095e-18
  outer loop
    vertex 33.49999999999999 25.999999999999993 4.999999999999999
    vertex 36.49999999999999 25.999999999999993 22.999999999999993
    vertex 33.49999999999999 25.999999999999993 22.999999999999993
  endloop
endfacet
facet normal 0.0 0.0 1.0
  outer loop
    vertex 13.499999999999998 21.0 4.999999999999999
    vertex 0.0 21.0 4.999999999999999
    vertex 13.499999999999998 10.999999999999996 4.999999999999999
  endloop
endfacet
facet normal 0.0 0.0 1.0
  outer loop
    vertex 0.0 0.0 4.999999999999999
    vertex 13.499999999999998 10.999999999999996 4.999999999999999
    vertex 0.0 21.0 4.999999999999999
  endloop
endfacet
facet normal 0.0 0.0 1.0
  outer loop
    vertex 13.499999999999998 10.999999999999996 4.999999999999999
    vertex 0.0 0.0 4.999999999999999
    vertex 50.0 0.0 4.999999999999999
  endloop
endfacet
facet normal 0.0 0.0 1.0
  outer loop
    vertex 13.499999999999998 10.999999999999996 4.999999999999999
    vertex 50.0 0.0 4.999999999999999
    vertex 36.49999999999999 10.999999999999996 4.999999999999999
  endloop
endfacet
facet normal 0.0 0.0 1.0
  outer loop
    vertex 36.49999999999999 10.999999999999996 4.999999999999999
    vertex 50.0 0.0 4.999999999999999
    vertex 36.49999999999999 21.0 4.999999999999999
  endloop
endfacet
facet normal 0.0 0.0 1.0
  outer loop
    vertex 36.49999999999999 21.0 4.999999999999999
    vertex 50.0 0.0 4.999999999999999
    vertex 50.0 21.0 4.999999999999999
  endloop
endfacet
facet normal 0.0 0.0 1.0
  outer loop
    vertex 50.0 21.0 4.999999999999999
    vertex 36.49999999999999 21.5 4.999999999999999
    vertex 36.49999999999999 21.0 4.999999999999999
  endloop
endfacet
facet normal 0.0 0.0 1.0
  outer loop
    vertex 36.49999999999999 21.5 4.999999999999999
    vertex 50.0 21.0 4.999999999999999
    vertex 36.49999999999999 23.999999999999996 4.999999999999999
  endloop
endfacet
facet normal 0.0 0.0 1.0
  outer loop
    vertex 36.49999999999999 23.999999999999996 4.999999999999999
    vertex 50.0 21.0 4.999999999999999
    vertex 50.0 24.0 4.999999999999999
  endloop
endfacet
facet normal -1.0 0.0 0.0
  outer loop
    vertex 13.499999999999998 38.99999999999999 22.999999999999993
    vertex 13.499999999999998 28.999999999999993 4.999999999999999
    vertex 13.499999999999998 28.999999999999993 22.999999999999993
  endloop
endfacet
facet normal -1.0 0.0 0.0
  outer loop
    vertex 13.499999999999998 28.999999999999993 4.999999999999999
    vertex 13.499999999999998 38.99999999999999 22.999999999999993
    vertex 13.499999999999998 38.99999999999999 4.999999999999999
  endloop
endfacet
facet normal 0.0 0.0 1.0
  outer loop
    vertex 13.499999999999998 21.0 4.999999999999999
    vertex 0.0 23.999999999999996 4.999999999999999
    vertex 0.0 21.0 4.999999999999999
  endloop
endfacet
facet normal 0.0 0.0 1.0
  outer loop
    vertex 0.0 23.999999999999996 4.999999999999999
    vertex 13.499999999999998 21.0 4.999999999999999
    vertex 13.499999999999998 23.999999999999996 4.999999999999999
  endloop
endfacet
facet normal 0.0 0.0 1.0
  outer loop
    vertex 13.499999999999998 23.999999999999996 4.999999999999999
    vertex 13.499999999999998 21.0 4.999999999999999
    vertex 13.499999999999998 21.5 4.999999999999999
  endloop
endfacet
facet normal 0.0 -1.0 0.0
  outer loop
    vertex 13.499999999999998 21.0 22.999999999999993
    vertex 0.0 21.0 4.999999999999999
    vertex 13.499999999999998 21.0 4.999999999999999
  endloop
endfacet
facet normal 0.0 0.0 1.0
  outer loop
    vertex 13.499999999999998 23.999999999999996 4.999999999999999
    vertex 0.0 25.999999999999993 4.999999999999999
    vertex 0.0 23.999999999999996 4.999999999999999
  endloop
endfacet
facet normal 0.0 0.0 1.0
  outer loop
    vertex 0.0 25.999999999999993 4.999999999999999
    vertex 13.499999999999998 23.999999999999996 4.999999999999999
    vertex 13.499999999999998 25.999999999999993 4.999999999999999
  endloop
endfacet
facet normal 0.0 1.0 0.0
  outer loop
    vertex 36.49999999999999 28.999999999999996 22.999999999999993
    vertex 50.0 28.999999999999996 4.999999999999999
    vertex 36.49999999999999 28.999999999999996 4.999999999999999
  endloop
endfacet
facet normal 1.0 0.0 0.0
  outer loop
    vertex 36.49999999999999 38.99999999999999 4.999999999999999
    vertex 36.49999999999999 28.999999999999996 22.999999999999993
    vertex 36.49999999999999 28.999999999999996 4.999999999999999
  endloop
endfacet
facet normal 1.0 0.0 0.0
  outer loop
    vertex 36.49999999999999 28.999999999999996 22.999999999999993
    vertex 36.49999999999999 38.99999999999999 4.999999999999999
    vertex 36.49999999999999 38.99999999999999 22.999999999999993
  endloop
endfacet
facet normal 0.0 0.0 1.0
  outer loop
    vertex 36.49999999999999 23.999999999999996 4.999999999999999
    vertex 33.49999999999999 25.999999999999993 4.999999999999999
    vertex 33.49999999999999 23.999999999999996 4.999999999999999
  endloop
endfacet
facet normal 0.0 0.0 1.0
  outer loop
    vertex 33.49999999999999 25.999999999999993 4.999999999999999
    vertex 36.49999999999999 23.999999999999996 4.999999999999999
    vertex 36.49999999999999 25.999999999999993 4.999999999999999
  endloop
endfacet
facet normal -1.0 0.0 0.0
  outer loop
    vertex 13.499999999999998 21.0 22.999999999999993
    vertex 13.499999999999998 10.999999999999996 4.999999999999999
    vertex 13.499999999999998 10.999999999999996 22.999999999999993
  endloop
endfacet
facet normal -1.0 0.0 0.0
  outer loop
    vertex 13.499999999999998 10.999999999999996 4.999999999999999
    vertex 13.499999999999998 21.0 22.999999999999993
    vertex 13.499999999999998 21.0 4.999999999999999
  endloop
endfacet
facet normal 1.0 0.0 0.0
  outer loop
    vertex 50.0 49.99999999999999 0.0
    vertex 50.0 0.0 4.999999999999999
    vertex 50.0 0.0 0.0
  endloop
endfacet
facet normal 1.0 0.0 0.0
  outer loop
    vertex 50.0 0.0 4.999999999999999
    vertex 50.0 49.99999999999999 0.0
    vertex 50.0 21.0 4.999999999999999
  endloop
endfacet
facet normal 1.0 0.0 0.0
  outer loop
    vertex 50.0 21.0 4.999999999999999
    vertex 50.0 49.99999999999999 0.0
    vertex 50.0 24.0 4.999999999999999
  endloop
endfacet
facet normal 1.0 0.0 0.0
  outer loop
    vertex 50.0 24.0 4.999999999999999
    vertex 50.0 49.99999999999999 0.0
    vertex 50.0 25.999999999999996 4.999999999999999
  endloop
endfacet
facet normal 1.0 0.0 0.0
  outer loop
    vertex 50.0 25.999999999999996 4.999999999999999
    vertex 50.0 49.99999999999999 0.0
    vertex 50.0 28.999999999999996 4.999999999999999
  endloop
endfacet
facet normal 1.0 0.0 0.0
  outer loop
    vertex 50.0 28.999999999999996 4.999999999999999
    vertex 50.0 49.99999999999999 0.0
    vertex 50.0 49.99999999999999 4.999999999999999
  endloop
endfacet
facet normal 0.0 0.0 1.0
  outer loop
    vertex 50.0 24.0 4.999999999999999
    vertex 36.49999999999999 25.999999999999993 4.999999999999999
    vertex 36.49999999999999 23.999999999999996 4.999999999999999
  endloop
endfacet
facet normal 0.0 0.0 1.0
  outer loop
    vertex 36.49999999999999 25.999999999999993 4.999999999999999
    vertex 50.0 24.0 4.999999999999999
    vertex 50.0 25.999999999999996 4.999999999999999
  endloop
endfacet
facet normal -0.8 0.0 0.6000000000000002
  outer loop
    vertex 13.499999999999998 28.999999999999993 22.999999999999993
    vertex 0.0 25.999999999999993 4.999999999999999
    vertex 13.499999999999998 25.999999999999993 22.999999999999993
  endloop
endfacet
facet normal -0.8 0.0 0.6000000000000002
  outer loop
    vertex 0.0 25.999999999999993 4.999999999999999
    vertex 13.499999999999998 28.999999999999993 22.999999999999993
    vertex 0.0 28.999999999999993 4.999999999999999
  endloop
endfacet
facet normal 0.0 -1.0 0.0
  outer loop
    vertex 36.49999999999999 21.0 22.999999999999993
    vertex 36.49999999999999 21.0 4.999999999999999
    vertex 50.0 21.0 4.999999999999999
  endloop
endfacet
facet normal 0.0 -1.0 0.0
  outer loop
    vertex 16.499999999999996 25.999999999999993 22.999999999999993
    vertex 13.499999999999998 25.999999999999993 4.999999999999999
    vertex 16.499999999999996 25.999999999999993 4.999999999999999
  endloop
endfacet
facet normal 0.0 -1.0 0.0
  outer loop
    vertex 13.499999999999998 25.999999999999993 4.999999999999999
    vertex 16.499999999999996 25.999999999999993 22.999999999999993
    vertex 0.0 25.999999999999993 4.999999999999999
  endloop
endfacet
facet normal 0.0 -1.0 0.0
  outer loop
    vertex 0.0 25.999999999999993 4.999999999999999
    vertex 16.499999999999996 25.999999999999993 22.999999999999993
    vertex 13.499999999999998 25.999999999999993 22.999999999999993
  endloop
endfacet
facet normal 1.0 0.0 0.0
  outer loop
    vertex 16.499999999999996 35.99999999999999 4.999999999999999
    vertex 16.499999999999996 25.999999999999993 22.999999999999993
    vertex 16.499999999999996 25.999999999999993 4.999999999999999
  endloop
endfacet
facet normal 1.0 0.0 0.0
  outer loop
    vertex 16.499999999999996 25.999999999999993 22.999999999999993
    vertex 16.499999999999996 35.99999999999999 4.999999999999999
    vertex 16.499999999999996 35.99999999999999 22.999999999999993
  endloop
endfacet
facet normal -1.0 0.0 0.0
  outer loop
    vertex 33.49999999999999 23.999999999999996 22.999999999999993
    vertex 33.49999999999999 13.999999999999996 4.999999999999999
    vertex 33.49999999999999 13.999999999999996 22.999999999999993
  endloop
endfacet
facet normal -1.0 0.0 0.0
  outer loop
    vertex 33.49999999999999 13.999999999999996 4.999999999999999
    vertex 33.49999999999999 23.999999999999996 22.999999999999993
    vertex 33.49999999999999 21.5 4.999999999999999
  endloop
endfacet
facet normal -1.0 0.0 0.0
  outer loop
    vertex 33.49999999999999 21.5 4.999999999999999
    vertex 33.49999999999999 23.999999999999996 22.999999999999993
    vertex 33.49999999999999 23.999999999999996 4.999999999999999
  endloop
endfacet
facet normal 0.0 0.0 1.0
  outer loop
    vertex 16.499999999999996 23.999999999999996 4.999999999999999
    vertex 13.499999999999998 25.999999999999993 4.999999999999999
    vertex 13.499999999999998 23.999999999999996 4.999999999999999
  endloop
endfacet
facet normal 0.0 0.0 1.0
  outer loop
    vertex 13.499999999999998 25.999999999999993 4.999999999999999
    vertex 16.499999999999996 23.999999999999996 4.999999999999999
    vertex 16.499999999999996 25.999999999999993 4.999999999999999
  endloop
endfacet
facet normal 0.0 0.0 1.0
  outer loop
    vertex 13.499999999999998 10.999999999999996 4.999999999999999
    vertex 16.499999999999996 13.999999999999996 4.999999999999999
    vertex 13.499999999999998 21.0 4.999999999999999
  endloop
endfacet
facet normal 0.0 0.0 1.0
  outer loop
    vertex 16.499999999999996 13.999999999999996 4.999999999999999
    vertex 13.499999999999998 10.999999999999996 4.999999999999999
    vertex 36.49999999999999 10.999999999999996 4.999999999999999
  endloop
endfacet
facet normal 0.0 0.0 1.0
  outer loop
    vertex 13.499999999999998 21.0 4.999999999999999
    vertex 16.499999999999996 13.999999999999996 4.999999999999999
    vertex 13.499999999999998 21.5 4.999999999999999
  endloop
endfacet
facet normal 0.0 0.0 1.0
  outer loop
    vertex 16.499999999999996 13.999999999999996 4.999999999999999
    vertex 36.49999999999999 10.999999999999996 4.999999999999999
    vertex 33.49999999999999 13.999999999999996 4.999999999999999
  endloop
endfacet
facet normal 0.0 0.0 1.0
  outer loop
    vertex 33.49999999999999 13.999999999999996 4.999999999999999
    vertex 36.49999999999999 10.999999999999996 4.999999999999999
    vertex 33.49999999999999 21.5 4.999999999999999
  endloop
endfacet
facet normal 0.0 0.0 1.0
  outer loop
    vertex 33.49999999999999 21.5 4.999999999999999
    vertex 36.49999999999999 10.999999999999996 4.999999999999999
    vertex 36.49999999999999 21.5 4.999999999999999
  endloop
endfacet
facet normal 0.0 0.0 1.0
  outer loop
    vertex 36.49999999999999 21.5 4.999999999999999
    vertex 36.49999999999999 10.999999999999996 4.999999999999999
    vertex 36.49999999999999 21.0 4.999999999999999
  endloop
endfacet
facet normal 0.0 0.0 1.0
  outer loop
    vertex 16.499999999999996 21.5 4.999999999999999
    vertex 13.499999999999998 21.5 4.999999999999999
    vertex 16.499999999999996 13.999999999999996 4.999999999999999
  endloop
endfacet
facet normal 0.0 0.0 1.0
  outer loop
    vertex 36.49999999999999 21.5 4.999999999999999
    vertex 33.49999999999999 23.999999999999996 4.999999999999999
    vertex 33.49999999999999 21.5 4.999999999999999
  endloop
endfacet
facet normal 0.0 0.0 1.0
  outer loop
    vertex 33.49999999999999 23.999999999999996 4.999999999999999
    vertex 36.49999999999999 21.5 4.999999999999999
    vertex 36.49999999999999 23.999999999999996 4.999999999999999
  endloop
endfacet
facet normal 0.0 1.0 0.0
  outer loop
    vertex 13.499999999999998 23.999999999999996 22.999999999999993
    vertex 13.499999999999998 23.999999999999996 4.999999999999999
    vertex 0.0 23.999999999999996 4.999999999999999
  endloop
endfacet
facet normal 0.0 1.0 0.0
  outer loop
    vertex 13.499999999999998 23.999999999999996 4.999999999999999
    vertex 13.499999999999998 23.999999999999996 22.999999999999993
    vertex 16.499999999999996 23.999999999999996 4.999999999999999
  endloop
endfacet
facet normal 0.0 1.0 0.0
  outer loop
    vertex 16.499999999999996 23.999999999999996 4.999999999999999
    vertex 13.499999999999998 23.999999999999996 22.999999999999993
    vertex 16.499999999999996 23.999999999999996 22.999999999999993
  endloop
endfacet
facet normal 1.0 0.0 0.0
  outer loop
    vertex 36.49999999999999 21.0 4.999999999999999
    vertex 36.49999999999999 10.999999999999996 22.999999999999993
    vertex 36.49999999999999 10.999999999999996 4.999999999999999
  endloop
endfacet
facet normal 1.0 0.0 0.0
  outer loop
    vertex 36.49999999999999 10.999999999999996 22.999999999999993
    vertex 36.49999999999999 21.0 4.999999999999999
    vertex 36.49999999999999 21.0 22.999999999999993
  endloop
endfacet
facet normal 0.0 0.0 1.0
  outer loop
    vertex 16.499999999999996 21.5 4.999999999999999
    vertex 13.499999999999998 23.999999999999996 4.999999999999999
    vertex 13.499999999999998 21.5 4.999999999999999
  endloop
endfacet
facet normal 0.0 0.0 1.0
  outer loop
    vertex 13.499999999999998 23.999999999999996 4.999999999999999
    vertex 16.499999999999996 21.5 4.999999999999999
    vertex 16.499999999999996 23.999999999999996 4.999999999999999
  endloop
endfacet
facet normal 0.0 0.0 1.0
  outer loop
    vertex 36.49999999999999 25.999999999999993 4.999999999999999
    vertex 33.49999999999999 36.0 4.999999999999999
    vertex 33.49999999999999 25.999999999999993 4.999999999999999
  endloop
endfacet
facet normal 0.0 0.0 1.0
  outer loop
    vertex 16.499999999999996 25.999999999999993 4.999999999999999
    vertex 13.499999999999998 28.999999999999993 4.999999999999999
    vertex 13.499999999999998 25.999999999999993 4.999999999999999
  endloop
endfacet
facet normal 0.0 0.0 1.0
  outer loop
    vertex 13.499999999999998 28.999999999999993 4.999999999999999
    vertex 16.499999999999996 25.999999999999993 4.999999999999999
    vertex 13.499999999999998 38.99999999999999 4.999999999999999
  endloop
endfacet
facet normal 0.0 0.0 1.0
  outer loop
    vertex 13.499999999999998 38.99999999999999 4.999999999999999
    vertex 16.499999999999996 25.999999999999993 4.999999999999999
    vertex 16.499999999999996 35.99999999999999 4.999999999999999
  endloop
endfacet
facet normal 0.0 0.0 1.0
  outer loop
    vertex 13.499999999999998 38.99999999999999 4.999999999999999
    vertex 16.499999999999996 35.99999999999999 4.999999999999999
    vertex 36.49999999999999 38.99999999999999 4.999999999999999
  endloop
endfacet
facet normal 0.0 0.0 1.0
  outer loop
    vertex 36.49999999999999 38.99999999999999 4.999999999999999
    vertex 16.499999999999996 35.99999999999999 4.999999999999999
    vertex 33.49999999999999 36.0 4.999999999999999
  endloop
endfacet
facet normal 0.0 0.0 1.0
  outer loop
    vertex 36.49999999999999 38.99999999999999 4.999999999999999
    vertex 33.49999999999999 36.0 4.999999999999999
    vertex 36.49999999999999 25.999999999999993 4.999999999999999
  endloop
endfacet
facet normal 0.0 0.0 1.0
  outer loop
    vertex 36.49999999999999 38.99999999999999 4.999999999999999
    vertex 36.49999999999999 25.999999999999993 4.999999999999999
    vertex 36.49999999999999 28.999999999999996 4.999999999999999
  endloop
endfacet
endsolid outil_coupe
