solid pieds
facet normal 0.0 0.0 -1.0
  outer loop
    vertex 32.99999999999999 32.99999999999999 0.0
    vertex 0.0 0.0 0.0
    vertex 0.0 32.99999999999999 0.0
  endloop
endfacet
facet normal 0.0 0.0 -1.0
  outer loop
    vertex 0.0 0.0 0.0
    vertex 32.99999999999999 32.99999999999999 0.0
    vertex 32.99999999999999 0.0 0.0
  endloop
endfacet
facet normal 1.4099832412739485e-17 1.0 -2.349972068789915e-17
  outer loop
    vertex 3.999999999999999 3.999999999999999 18.999999999999996
    vertex 28.999999999999996 3.9999999999999982 3.9999999999999996
    vertex 3.9999999999999982 3.9999999999999982 3.9999999999999996
  endloop
endfacet
facet normal 1.4099832412739485e-17 1.0 -2.349972068789915e-17
  outer loop
    vertex 28.999999999999996 3.9999999999999982 3.9999999999999996
    vertex 3.999999999999999 3.999999999999999 18.999999999999996
    vertex 28.999999999999996 3.9999999999999982 18.999999999999996
  endloop
endfacet
facet normal 1.0 -8.459899447643693e-17 0.0
  outer loop
    vertex 4.000000000000001 28.999999999999993 3.9999999999999996
    vertex 3.999999999999999 3.999999999999999 18.999999999999996
    vertex 3.9999999999999982 3.9999999999999982 3.9999999999999996
  endloop
endfacet
facet normal 1.0 -8.459899447643693e-17 0.0
  outer loop
    vertex 3.999999999999999 3.999999999999999 18.999999999999996
    vertex 4.000000000000001 28.999999999999993 3.9999999999999996
    vertex 4.0 28.999999999999993 18.999999999999996
  endloop
endfacet
facet normal -1.0 0.0 0.0
  outer loop
    vertex 28.999999999999996 28.999999999999996 18.999999999999996
    vertex 28.999999999999996 3.9999999999999982 3.9999999999999996
    vertex 28.999999999999996 3.9999999999999982 18.999999999999996
  endloop
endfacet
facet normal -1.0 0.0 0.0
  outer loop
    vertex 28.999999999999996 3.9999999999999982 3.9999999999999996
    vertex 28.999999999999996 28.999999999999996 18.999999999999996
    vertex 28.999999999999996 28.999999999999996 3.9999999999999996
  endloop
endfacet
facet normal 0.0 0.0 -1.0
  outer loop
    vertex 26.749999999999996 26.749999999999996 1.9999999999999998
    vertex 6.250000000000001 6.249999999999997 1.9999999999999998
    vertex 6.250000000000001 26.749999999999996 1.9999999999999998
  endloop
endfacet
facet normal 0.0 0.0 -1.0
  outer loop
    vertex 6.250000000000001 6.249999999999997 1.9999999999999998
    vertex 26.749999999999996 26.749999999999996 1.9999999999999998
    vertex 26.749999999999996 6.249999999999997 1.9999999999999998
  endloop
endfacet
facet normal 0.0 0.0 -1.0
  outer loop
    vertex 28.999999999999996 28.999999999999996 18.999999999999996
    vertex 6.250000000000001 26.749999999999996 18.999999999999996
    vertex 4.0 28.999999999999993 18.999999999999996
  endloop
endfacet
facet normal 0.0 0.0 -1.0
  outer loop
    vertex 6.250000000000001 26.749999999999996 18.999999999999996
    vertex 28.999999999999996 28.999999999999996 18.999999999999996
    vertex 26.749999999999996 26.749999999999996 18.999999999999996
  endloop
endfacet
facet normal 0.0 0.0 -1.0
  outer loop
    vertex 26.749999999999996 26.749999999999996 18.999999999999996
    vertex 28.999999999999996 28.999999999999996 18.999999999999996
    vertex 26.749999999999996 6.249999999999997 18.999999999999996
  endloop
endfacet
facet normal 0.0 0.0 -1.0
  outer loop
    vertex 3.999999999999999 3.999999999999999 18.999999999999996
    vertex 6.250000000000001 6.249999999999997 18.999999999999996
    vertex 28.999999999999996 3.9999999999999982 18.999999999999996
  endloop
endfacet
facet normal 0.0 0.0 -1.0
  outer loop
    vertex 6.250000000000001 6.249999999999997 18.999999999999996
    vertex 3.999999999999999 3.999999999999999 18.999999999999996
    vertex 4.0 28.999999999999993 18.999999999999996
  endloop
endfacet
facet normal 0.0 0.0 -1.0
  outer loop
    vertex 6.250000000000001 6.249999999999997 18.999999999999996
    vertex 4.0 28.999999999999993 18.999999999999996
    vertex 6.250000000000001 26.749999999999996 18.999999999999996
  endloop
endfacet
facet normal 0.0 0.0 -1.0
  outer loop
    vertex 28.999999999999996 3.9999999999999982 18.999999999999996
    vertex 6.250000000000001 6.249999999999997 18.999999999999996
    vertex 26.749999999999996 6.249999999999997 18.999999999999996
  endloop
endfacet
facet normal 0.0 0.0 -1.0
  outer loop
    vertex 28.999999999999996 3.9999999999999982 18.999999999999996
    vertex 26.749999999999996 6.249999999999997 18.999999999999996
    vertex 28.999999999999996 28.999999999999996 18.999999999999996
  endloop
endfacet
facet normal 0.0 1.0 0.0
  outer loop
    vertex 6.250000000000001 26.749999999999996 3.9999999999999996
    vertex 26.749999999999996 26.749999999999996 1.9999999999999998
    vertex 6.250000000000001 26.749999999999996 1.9999999999999998
  endloop
endfacet
facet normal 0.0 1.0 0.0
  outer loop
    vertex 26.749999999999996 26.749999999999996 1.9999999999999998
    vertex 6.250000000000001 26.749999999999996 3.9999999999999996
    vertex 26.749999999999996 26.749999999999996 3.9999999999999996
  endloop
endfacet
facet normal -1.0 0.0 0.0
  outer loop
    vertex 6.250000000000001 26.749999999999996 3.9999999999999996
    vertex 6.250000000000001 6.249999999999997 1.9999999999999998
    vertex 6.250000000000001 6.249999999999997 3.9999999999999996
  endloop
endfacet
facet normal -1.0 0.0 0.0
  outer loop
    vertex 6.250000000000001 6.249999999999997 1.9999999999999998
    vertex 6.250000000000001 26.749999999999996 3.9999999999999996
    vertex 6.250000000000001 26.749999999999996 1.9999999999999998
  endloop
endfacet
facet normal 3.438983515302315e-17 -1.0 0.0
  outer loop
    vertex 26.749999999999996 6.249999999999997 18.999999999999996
    vertex 6.250000000000001 6.249999999999997 3.9999999999999996
    vertex 26.749999999999996 6.249999999999997 3.9999999999999996
  endloop
endfacet
facet normal 3.438983515302315e-17 -1.0 0.0
  outer loop
    vertex 6.250000000000001 6.249999999999997 3.9999999999999996
    vertex 26.749999999999996 6.249999999999997 18.999999999999996
    vertex 6.250000000000001 6.249999999999997 18.999999999999996
  endloop
endfacet
facet normal 1.0 0.0 0.0
  outer loop
    vertex 26.749999999999996 26.749999999999996 1.9999999999999998
    vertex 26.749999999999996 6.249999999999997 3.9999999999999996
    vertex 26.749999999999996 6.249999999999997 1.9999999999999998
  endloop
endfacet
facet normal 1.0 0.0 0.0
  outer loop
    vertex 26.749999999999996 6.249999999999997 3.9999999999999996
    vertex 26.749999999999996 26.749999999999996 1.9999999999999998
    vertex 26.749999999999996 26.749999999999996 3.9999999999999996
  endloop
endfacet
facet normal 2.255973186038318e-16 -1.0 -3.986661044790365e-48
  outer loop
    vertex 28.999999999999996 28.999999999999996 3.9999999999999996
    vertex 17.050058474936925 28.999999999999993 9.577128274130056
    vertex 4.000000000000001 28.999999999999993 3.9999999999999996
  endloop
endfacet
facet normal 2.255973186038318e-16 -1.0 -3.986661044790365e-48
  outer loop
    vertex 17.050058474936925 28.999999999999993 9.577128274130056
    vertex 28.999999999999996 28.999999999999996 3.9999999999999996
    vertex 17.52899151085505 28.999999999999993 9.785014148574913
  endloop
endfacet
facet normal 2.255973186038318e-16 -1.0 -3.986661044790365e-48
  outer loop
    vertex 17.52899151085505 28.999999999999993 9.785014148574913
    vertex 28.999999999999996 28.999999999999996 3.9999999999999996
    vertex 17.937800475797278 28.999999999999993 10.109773474646266
  endloop
endfacet
facet normal 2.255973186038318e-16 -1.0 -3.986661044790365e-48
  outer loop
    vertex 17.937800475797278 28.999999999999993 10.109773474646266
    vertex 28.999999999999996 28.999999999999996 3.9999999999999996
    vertex 28.999999999999996 28.999999999999996 18.999999999999996
  endloop
endfacet
facet normal 2.255973186038318e-16 -1.0 -3.986661044790365e-48
  outer loop
    vertex 4.000000000000001 28.999999999999993 3.9999999999999996
    vertex 17.050058474936925 28.999999999999993 9.577128274130056
    vertex 16.533639862966464 28.999999999999993 9.500282930107463
  endloop
endfacet
facet normal 2.255973186038318e-16 -1.0 -3.986661044790365e-48
  outer loop
    vertex 17.937800475797278 28.999999999999993 10.109773474646266
    vertex 28.999999999999996 28.999999999999996 18.999999999999996
    vertex 18.2083875031982 28.999999999999993 10.47496749808108
  endloop
endfacet
facet normal 2.255973186038318e-16 -1.0 -3.986661044790365e-48
  outer loop
    vertex 18.2083875031982 28.999999999999993 10.47496749808108
    vertex 28.999999999999996 28.999999999999996 18.999999999999996
    vertex 18.248625714391547 28.999999999999993 10.529274440962517
  endloop
endfacet
facet normal 2.255973186038318e-16 -1.0 -3.986661044790365e-48
  outer loop
    vertex 18.248625714391547 28.999999999999993 10.529274440962517
    vertex 28.999999999999996 28.999999999999996 18.999999999999996
    vertex 18.44028500029066 28.999999999999993 11.014928749927336
  endloop
endfacet
facet normal 2.255973186038318e-16 -1.0 -3.986661044790365e-48
  outer loop
    vertex 18.44028500029066 28.999999999999993 11.014928749927336
    vertex 28.999999999999996 28.999999999999996 18.999999999999996
    vertex 18.499717069892537 28.999999999999993 11.533639862966464
  endloop
endfacet
facet normal 2.255973186038318e-16 -1.0 -3.986661044790365e-48
  outer loop
    vertex 18.499717069892537 28.999999999999993 11.533639862966464
    vertex 28.999999999999996 28.999999999999996 18.999999999999996
    vertex 18.422871725869943 28.999999999999993 12.050058474936929
  endloop
endfacet
facet normal 2.255973186038318e-16 -1.0 -3.986661044790365e-48
  outer loop
    vertex 18.422871725869943 28.999999999999993 12.050058474936929
    vertex 28.999999999999996 28.999999999999996 18.999999999999996
    vertex 18.214985851425087 28.999999999999993 12.528991510855052
  endloop
endfacet
facet normal 2.255973186038318e-16 -1.0 -3.986661044790365e-48
  outer loop
    vertex 18.214985851425087 28.999999999999993 12.528991510855052
    vertex 28.999999999999996 28.999999999999996 18.999999999999996
    vertex 17.890226525353732 28.999999999999993 12.937800475797278
  endloop
endfacet
facet normal 2.255973186038318e-16 -1.0 -3.986661044790365e-48
  outer loop
    vertex 17.890226525353732 28.999999999999993 12.937800475797278
    vertex 28.999999999999996 28.999999999999996 18.999999999999996
    vertex 17.470725559037483 28.999999999999993 13.248625714391553
  endloop
endfacet
facet normal 2.255973186038318e-16 -1.0 -3.986661044790365e-48
  outer loop
    vertex 17.470725559037483 28.999999999999993 13.248625714391553
    vertex 28.999999999999996 28.999999999999996 18.999999999999996
    vertex 16.985071250072664 28.999999999999993 13.440285000290665
  endloop
endfacet
facet normal 2.255973186038318e-16 -1.0 -3.986661044790365e-48
  outer loop
    vertex 16.985071250072664 28.999999999999993 13.440285000290665
    vertex 28.999999999999996 28.999999999999996 18.999999999999996
    vertex 16.466360137033536 28.999999999999993 13.499717069892538
  endloop
endfacet
facet normal 2.255973186038318e-16 -1.0 -3.986661044790365e-48
  outer loop
    vertex 4.000000000000001 28.999999999999993 3.9999999999999996
    vertex 15.109773474646266 28.999999999999993 10.06219952420272
    vertex 4.0 28.999999999999993 18.999999999999996
  endloop
endfacet
facet normal 2.255973186038318e-16 -1.0 -3.986661044790365e-48
  outer loop
    vertex 15.109773474646266 28.999999999999993 10.06219952420272
    vertex 4.000000000000001 28.999999999999993 3.9999999999999996
    vertex 15.529274440962515 28.999999999999993 9.751374285608449
  endloop
endfacet
facet normal 2.255973186038318e-16 -1.0 -3.986661044790365e-48
  outer loop
    vertex 15.529274440962515 28.999999999999993 9.751374285608449
    vertex 4.000000000000001 28.999999999999993 3.9999999999999996
    vertex 16.014928749927332 28.999999999999993 9.559714999709337
  endloop
endfacet
facet normal 2.255973186038318e-16 -1.0 -3.986661044790365e-48
  outer loop
    vertex 16.014928749927332 28.999999999999993 9.559714999709337
    vertex 4.000000000000001 28.999999999999993 3.9999999999999996
    vertex 16.533639862966464 28.999999999999993 9.500282930107463
  endloop
endfacet
facet normal 2.255973186038318e-16 -1.0 -3.986661044790365e-48
  outer loop
    vertex 4.0 28.999999999999993 18.999999999999996
    vertex 15.109773474646266 28.999999999999993 10.06219952420272
    vertex 14.785014148574911 28.999999999999993 10.471008489144948
  endloop
endfacet
facet normal 2.255973186038318e-16 -1.0 -3.986661044790365e-48
  outer loop
    vertex 4.0 28.999999999999993 18.999999999999996
    vertex 14.785014148574911 28.999999999999993 10.471008489144948
    vertex 14.577128274130054 28.999999999999993 10.949941525063071
  endloop
endfacet
facet normal 2.255973186038318e-16 -1.0 -3.986661044790365e-48
  outer loop
    vertex 4.0 28.999999999999993 18.999999999999996
    vertex 14.577128274130054 28.999999999999993 10.949941525063071
    vertex 14.500282930107462 28.999999999999993 11.466360137033538
  endloop
endfacet
facet normal 2.255973186038318e-16 -1.0 -3.986661044790365e-48
  outer loop
    vertex 4.0 28.999999999999993 18.999999999999996
    vertex 14.500282930107462 28.999999999999993 11.466360137033538
    vertex 14.559714999709335 28.999999999999993 11.985071250072666
  endloop
endfacet
facet normal 2.255973186038318e-16 -1.0 -3.986661044790365e-48
  outer loop
    vertex 4.0 28.999999999999993 18.999999999999996
    vertex 14.559714999709335 28.999999999999993 11.985071250072666
    vertex 14.751374285608447 28.999999999999993 12.470725559037485
  endloop
endfacet
facet normal 2.255973186038318e-16 -1.0 -3.986661044790365e-48
  outer loop
    vertex 4.0 28.999999999999993 18.999999999999996
    vertex 14.751374285608447 28.999999999999993 12.470725559037485
    vertex 14.791612496801799 28.999999999999993 12.52503250191892
  endloop
endfacet
facet normal 2.255973186038318e-16 -1.0 -3.986661044790365e-48
  outer loop
    vertex 4.0 28.999999999999993 18.999999999999996
    vertex 14.791612496801799 28.999999999999993 12.52503250191892
    vertex 15.062199524202718 28.999999999999993 12.890226525353734
  endloop
endfacet
facet normal 2.255973186038318e-16 -1.0 -3.986661044790365e-48
  outer loop
    vertex 4.0 28.999999999999993 18.999999999999996
    vertex 15.062199524202718 28.999999999999993 12.890226525353734
    vertex 15.471008489144944 28.999999999999993 13.214985851425087
  endloop
endfacet
facet normal 2.255973186038318e-16 -1.0 -3.986661044790365e-48
  outer loop
    vertex 4.0 28.999999999999993 18.999999999999996
    vertex 15.471008489144944 28.999999999999993 13.214985851425087
    vertex 15.94994152506307 28.999999999999993 13.422871725869944
  endloop
endfacet
facet normal 2.255973186038318e-16 -1.0 -3.986661044790365e-48
  outer loop
    vertex 4.0 28.999999999999993 18.999999999999996
    vertex 15.94994152506307 28.999999999999993 13.422871725869944
    vertex 16.466360137033536 28.999999999999993 13.499717069892538
  endloop
endfacet
facet normal 2.255973186038318e-16 -1.0 -3.986661044790365e-48
  outer loop
    vertex 4.0 28.999999999999993 18.999999999999996
    vertex 16.466360137033536 28.999999999999993 13.499717069892538
    vertex 28.999999999999996 28.999999999999996 18.999999999999996
  endloop
endfacet
facet normal 0.7071067811865477 0.0 0.7071067811865474
  outer loop
    vertex 32.99999999999999 32.99999999999999 0.0
    vertex 28.999999999999996 3.9999999999999982 3.9999999999999996
    vertex 32.99999999999999 0.0 0.0
  endloop
endfacet
facet normal 0.7071067811865477 0.0 0.7071067811865474
  outer loop
    vertex 28.999999999999996 3.9999999999999982 3.9999999999999996
    vertex 32.99999999999999 32.99999999999999 0.0
    vertex 28.999999999999996 28.999999999999996 3.9999999999999996
  endloop
endfacet
facet normal 0.0 -0.7071067811865477 0.7071067811865474
  outer loop
    vertex 28.999999999999996 3.9999999999999982 3.9999999999999996
    vertex 0.0 0.0 0.0
    vertex 32.99999999999999 0.0 0.0
  endloop
endfacet
facet normal 0.0 -0.7071067811865477 0.7071067811865474
  outer loop
    vertex 0.0 0.0 0.0
    vertex 28.999999999999996 3.9999999999999982 3.9999999999999996
    vertex 3.9999999999999982 3.9999999999999982 3.9999999999999996
  endloop
endfacet
facet normal 0.0 0.0 1.0
  outer loop
    vertex 3.9999999999999982 3.9999999999999982 3.9999999999999996
    vertex 6.250000000000001 6.249999999999997 3.9999999999999996
    vertex 4.000000000000001 28.999999999999993 3.9999999999999996
  endloop
endfacet
facet normal 0.0 0.0 1.0
  outer loop
    vertex 6.250000000000001 6.249999999999997 3.9999999999999996
    vertex 3.9999999999999982 3.9999999999999982 3.9999999999999996
    vertex 28.999999999999996 3.9999999999999982 3.9999999999999996
  endloop
endfacet
facet normal 0.0 0.0 1.0
  outer loop
    vertex 6.250000000000001 6.249999999999997 3.9999999999999996
    vertex 28.999999999999996 3.9999999999999982 3.9999999999999996
    vertex 26.749999999999996 6.249999999999997 3.9999999999999996
  endloop
endfacet
facet normal 0.0 0.0 1.0
  outer loop
    vertex 26.749999999999996 6.249999999999997 3.9999999999999996
    vertex 28.999999999999996 3.9999999999999982 3.9999999999999996
    vertex 26.749999999999996 26.749999999999996 3.9999999999999996
  endloop
endfacet
facet normal 0.0 0.0 1.0
  outer loop
    vertex 4.000000000000001 28.999999999999993 3.9999999999999996
    vertex 6.250000000000001 26.749999999999996 3.9999999999999996
    vertex 28.999999999999996 28.999999999999996 3.9999999999999996
  endloop
endfacet
facet normal 0.0 0.0 1.0
  outer loop
    vertex 6.250000000000001 26.749999999999996 3.9999999999999996
    vertex 4.000000000000001 28.999999999999993 3.9999999999999996
    vertex 6.250000000000001 6.249999999999997 3.9999999999999996
  endloop
endfacet
facet normal 0.0 0.0 1.0
  outer loop
    vertex 28.999999999999996 28.999999999999996 3.9999999999999996
    vertex 6.250000000000001 26.749999999999996 3.9999999999999996
    vertex 26.749999999999996 26.749999999999996 3.9999999999999996
  endloop
endfacet
facet normal 0.0 0.0 1.0
  outer loop
    vertex 28.999999999999996 28.999999999999996 3.9999999999999996
    vertex 26.749999999999996 26.749999999999996 3.9999999999999996
    vertex 28.999999999999996 3.9999999999999982 3.9999999999999996
  endloop
endfacet
facet normal -5.5405530774746114e-17 0.7071067811865474 0.7071067811865477
  outer loop
    vertex 4.000000000000001 28.999999999999993 3.9999999999999996
    vertex 32.99999999999999 32.99999999999999 0.0
    vertex 0.0 32.99999999999999 0.0
  endloop
endfacet
facet normal -5.5405530774746114e-17 0.7071067811865474 0.7071067811865477
  outer loop
    vertex 32.99999999999999 32.99999999999999 0.0
    vertex 4.000000000000001 28.999999999999993 3.9999999999999996
    vertex 28.999999999999996 28.999999999999996 3.9999999999999996
  endloop
endfacet
facet normal -0.7071067811865476 2.954961641319792e-17 0.7071067811865476
  outer loop
    vertex 3.9999999999999982 3.9999999999999982 3.9999999999999996
    vertex 0.0 32.99999999999999 0.0
    vertex 0.0 0.0 0.0
  endloop
endfacet
facet normal -0.7071067811865476 2.954961641319792e-17 0.7071067811865476
  outer loop
    vertex 0.0 32.99999999999999 0.0
    vertex 3.9999999999999982 3.9999999999999982 3.9999999999999996
    vertex 4.000000000000001 28.999999999999993 3.9999999999999996
  endloop
endfacet
facet normal -0.9173121267314301 -0.0 -0.3981688864683692
  outer loop
    vertex 14.577128274130054 28.999999999999993 10.949941525063071
    vertex 14.785014148574911 26.74999999999999 10.471008489144948
    vertex 14.577128274130054 26.74999999999999 10.949941525063071
  endloop
endfacet
facet normal -0.9173121267314301 -0.0 -0.3981688864683692
  outer loop
    vertex 14.785014148574911 26.74999999999999 10.471008489144948
    vertex 14.577128274130054 28.999999999999993 10.949941525063071
    vertex 14.785014148574911 28.999999999999993 10.471008489144948
  endloop
endfacet
facet normal -0.7830017829927612 -0.0 -0.6220194593661494
  outer loop
    vertex 14.785014148574911 28.999999999999993 10.471008489144948
    vertex 15.109773474646266 26.74999999999999 10.06219952420272
    vertex 14.785014148574911 26.74999999999999 10.471008489144948
  endloop
endfacet
facet normal -0.7830017829927612 -0.0 -0.6220194593661494
  outer loop
    vertex 15.109773474646266 26.74999999999999 10.06219952420272
    vertex 14.785014148574911 28.999999999999993 10.471008489144948
    vertex 15.109773474646266 28.999999999999993 10.06219952420272
  endloop
endfacet
facet normal -0.5953311617147642 -0.0 -0.8034804340438847
  outer loop
    vertex 15.529274440962515 28.999999999999993 9.751374285608449
    vertex 15.109773474646266 26.74999999999999 10.06219952420272
    vertex 15.109773474646266 28.999999999999993 10.06219952420272
  endloop
endfacet
facet normal -0.5953311617147642 -0.0 -0.8034804340438847
  outer loop
    vertex 15.109773474646266 26.74999999999999 10.06219952420272
    vertex 15.529274440962515 28.999999999999993 9.751374285608449
    vertex 15.529274440962515 26.74999999999999 9.751374285608449
  endloop
endfacet
facet normal -0.3670897055971699 -0.0 -0.9301855449557274
  outer loop
    vertex 16.014928749927332 28.999999999999993 9.559714999709337
    vertex 15.529274440962515 26.74999999999999 9.751374285608449
    vertex 15.529274440962515 28.999999999999993 9.751374285608449
  endloop
endfacet
facet normal -0.3670897055971699 -0.0 -0.9301855449557274
  outer loop
    vertex 15.529274440962515 26.74999999999999 9.751374285608449
    vertex 16.014928749927332 28.999999999999993 9.559714999709337
    vertex 16.014928749927332 26.74999999999999 9.559714999709337
  endloop
endfacet
facet normal -0.11383169268754656 -0.0 -0.9935000481831333
  outer loop
    vertex 16.533639862966464 28.999999999999993 9.500282930107463
    vertex 16.014928749927332 26.74999999999999 9.559714999709337
    vertex 16.014928749927332 28.999999999999993 9.559714999709337
  endloop
endfacet
facet normal -0.11383169268754656 -0.0 -0.9935000481831333
  outer loop
    vertex 16.014928749927332 26.74999999999999 9.559714999709337
    vertex 16.533639862966464 28.999999999999993 9.500282930107463
    vertex 16.533639862966464 26.74999999999999 9.500282930107463
  endloop
endfacet
facet normal 0.14718376196296748 0.0 -0.9891091649633161
  outer loop
    vertex 17.050058474936925 28.999999999999993 9.577128274130056
    vertex 16.533639862966464 26.74999999999999 9.500282930107463
    vertex 16.533639862966464 28.999999999999993 9.500282930107463
  endloop
endfacet
facet normal 0.14718376196296748 0.0 -0.9891091649633161
  outer loop
    vertex 16.533639862966464 26.74999999999999 9.500282930107463
    vertex 17.050058474936925 28.999999999999993 9.577128274130056
    vertex 17.050058474936925 26.74999999999999 9.577128274130056
  endloop
endfacet
facet normal 0.39816888646836585 0.0 -0.9173121267314315
  outer loop
    vertex 17.52899151085505 28.999999999999993 9.785014148574913
    vertex 17.050058474936925 26.74999999999999 9.577128274130056
    vertex 17.050058474936925 28.999999999999993 9.577128274130056
  endloop
endfacet
facet normal 0.39816888646836585 0.0 -0.9173121267314315
  outer loop
    vertex 17.050058474936925 26.74999999999999 9.577128274130056
    vertex 17.52899151085505 28.999999999999993 9.785014148574913
    vertex 17.52899151085505 26.74999999999999 9.785014148574913
  endloop
endfacet
facet normal 0.6220194593661491 0.0 -0.7830017829927617
  outer loop
    vertex 17.937800475797278 28.999999999999993 10.109773474646266
    vertex 17.52899151085505 26.74999999999999 9.785014148574913
    vertex 17.52899151085505 28.999999999999993 9.785014148574913
  endloop
endfacet
facet normal 0.6220194593661491 0.0 -0.7830017829927617
  outer loop
    vertex 17.52899151085505 26.74999999999999 9.785014148574913
    vertex 17.937800475797278 28.999999999999993 10.109773474646266
    vertex 17.937800475797278 26.74999999999999 10.109773474646266
  endloop
endfacet
facet normal 0.8034804340438849 0.0 -0.5953311617147639
  outer loop
    vertex 17.937800475797278 28.999999999999993 10.109773474646266
    vertex 18.2083875031982 26.74999999999999 10.47496749808108
    vertex 17.937800475797278 26.74999999999999 10.109773474646266
  endloop
endfacet
facet normal 0.8034804340438849 0.0 -0.5953311617147639
  outer loop
    vertex 18.2083875031982 26.74999999999999 10.47496749808108
    vertex 17.937800475797278 28.999999999999993 10.109773474646266
    vertex 18.2083875031982 28.999999999999993 10.47496749808108
  endloop
endfacet
facet normal 0.8034804340438831 0.0 -0.5953311617147665
  outer loop
    vertex 18.2083875031982 28.999999999999993 10.47496749808108
    vertex 18.248625714391547 26.74999999999999 10.529274440962517
    vertex 18.2083875031982 26.74999999999999 10.47496749808108
  endloop
endfacet
facet normal 0.8034804340438831 0.0 -0.5953311617147665
  outer loop
    vertex 18.248625714391547 26.74999999999999 10.529274440962517
    vertex 18.2083875031982 28.999999999999993 10.47496749808108
    vertex 18.248625714391547 28.999999999999993 10.529274440962517
  endloop
endfacet
facet normal 0.930185544955728 0.0 -0.367089705597168
  outer loop
    vertex 18.248625714391547 28.999999999999993 10.529274440962517
    vertex 18.44028500029066 26.74999999999999 11.014928749927336
    vertex 18.248625714391547 26.74999999999999 10.529274440962517
  endloop
endfacet
facet normal 0.930185544955728 0.0 -0.367089705597168
  outer loop
    vertex 18.44028500029066 26.74999999999999 11.014928749927336
    vertex 18.248625714391547 28.999999999999993 10.529274440962517
    vertex 18.44028500029066 28.999999999999993 11.014928749927336
  endloop
endfacet
facet normal 0.9935000481831328 0.0 -0.11383169268755011
  outer loop
    vertex 18.44028500029066 28.999999999999993 11.014928749927336
    vertex 18.499717069892537 26.74999999999999 11.533639862966464
    vertex 18.44028500029066 26.74999999999999 11.014928749927336
  endloop
endfacet
facet normal 0.9935000481831328 0.0 -0.11383169268755011
  outer loop
    vertex 18.499717069892537 26.74999999999999 11.533639862966464
    vertex 18.44028500029066 28.999999999999993 11.014928749927336
    vertex 18.499717069892537 28.999999999999993 11.533639862966464
  endloop
endfacet
facet normal 0.9891091649633164 0.0 0.14718376196296631
  outer loop
    vertex 18.499717069892537 28.999999999999993 11.533639862966464
    vertex 18.422871725869943 26.74999999999999 12.050058474936929
    vertex 18.499717069892537 26.74999999999999 11.533639862966464
  endloop
endfacet
facet normal 0.9891091649633164 0.0 0.14718376196296631
  outer loop
    vertex 18.422871725869943 26.74999999999999 12.050058474936929
    vertex 18.499717069892537 28.999999999999993 11.533639862966464
    vertex 18.422871725869943 28.999999999999993 12.050058474936929
  endloop
endfacet
facet normal 0.9173121267314296 0.0 0.39816888646837006
  outer loop
    vertex 18.422871725869943 28.999999999999993 12.050058474936929
    vertex 18.214985851425087 26.74999999999999 12.528991510855052
    vertex 18.422871725869943 26.74999999999999 12.050058474936929
  endloop
endfacet
facet normal 0.9173121267314296 0.0 0.39816888646837006
  outer loop
    vertex 18.214985851425087 26.74999999999999 12.528991510855052
    vertex 18.422871725869943 28.999999999999993 12.050058474936929
    vertex 18.214985851425087 28.999999999999993 12.528991510855052
  endloop
endfacet
facet normal 0.783001782992763 0.0 0.6220194593661476
  outer loop
    vertex 18.214985851425087 28.999999999999993 12.528991510855052
    vertex 17.890226525353732 26.74999999999999 12.937800475797278
    vertex 18.214985851425087 26.74999999999999 12.528991510855052
  endloop
endfacet
facet normal 0.783001782992763 0.0 0.6220194593661476
  outer loop
    vertex 17.890226525353732 26.74999999999999 12.937800475797278
    vertex 18.214985851425087 28.999999999999993 12.528991510855052
    vertex 17.890226525353732 28.999999999999993 12.937800475797278
  endloop
endfacet
facet normal 0.5953311617147676 0.0 0.8034804340438821
  outer loop
    vertex 17.890226525353732 26.74999999999999 12.937800475797278
    vertex 17.470725559037483 28.999999999999993 13.248625714391553
    vertex 17.470725559037483 26.74999999999999 13.248625714391553
  endloop
endfacet
facet normal 0.5953311617147676 0.0 0.8034804340438821
  outer loop
    vertex 17.470725559037483 28.999999999999993 13.248625714391553
    vertex 17.890226525353732 26.74999999999999 12.937800475797278
    vertex 17.890226525353732 28.999999999999993 12.937800475797278
  endloop
endfacet
facet normal 0.367089705597168 0.0 0.930185544955728
  outer loop
    vertex 17.470725559037483 26.74999999999999 13.248625714391553
    vertex 16.985071250072664 28.999999999999993 13.440285000290665
    vertex 16.985071250072664 26.74999999999999 13.440285000290665
  endloop
endfacet
facet normal 0.367089705597168 0.0 0.930185544955728
  outer loop
    vertex 16.985071250072664 28.999999999999993 13.440285000290665
    vertex 17.470725559037483 26.74999999999999 13.248625714391553
    vertex 17.470725559037483 28.999999999999993 13.248625714391553
  endloop
endfacet
facet normal 0.11383169268754448 0.0 0.9935000481831334
  outer loop
    vertex 16.985071250072664 26.74999999999999 13.440285000290665
    vertex 16.466360137033536 28.999999999999993 13.499717069892538
    vertex 16.466360137033536 26.74999999999999 13.499717069892538
  endloop
endfacet
facet normal 0.11383169268754448 0.0 0.9935000481831334
  outer loop
    vertex 16.466360137033536 28.999999999999993 13.499717069892538
    vertex 16.985071250072664 26.74999999999999 13.440285000290665
    vertex 16.985071250072664 28.999999999999993 13.440285000290665
  endloop
endfacet
facet normal -0.1471837619629667 0.0 0.9891091649633162
  outer loop
    vertex 16.466360137033536 26.74999999999999 13.499717069892538
    vertex 15.94994152506307 28.999999999999993 13.422871725869944
    vertex 15.94994152506307 26.74999999999999 13.422871725869944
  endloop
endfacet
facet normal -0.1471837619629667 0.0 0.9891091649633162
  outer loop
    vertex 15.94994152506307 28.999999999999993 13.422871725869944
    vertex 16.466360137033536 26.74999999999999 13.499717069892538
    vertex 16.466360137033536 28.999999999999993 13.499717069892538
  endloop
endfacet
facet normal -0.3981688864683681 0.0 0.9173121267314304
  outer loop
    vertex 15.94994152506307 26.74999999999999 13.422871725869944
    vertex 15.471008489144944 28.999999999999993 13.214985851425087
    vertex 15.471008489144944 26.74999999999999 13.214985851425087
  endloop
endfacet
facet normal -0.3981688864683681 0.0 0.9173121267314304
  outer loop
    vertex 15.471008489144944 28.999999999999993 13.214985851425087
    vertex 15.94994152506307 26.74999999999999 13.422871725869944
    vertex 15.94994152506307 28.999999999999993 13.422871725869944
  endloop
endfacet
facet normal -0.6220194593661476 0.0 0.783001782992763
  outer loop
    vertex 15.471008489144944 26.74999999999999 13.214985851425087
    vertex 15.062199524202718 28.999999999999993 12.890226525353734
    vertex 15.062199524202718 26.74999999999999 12.890226525353734
  endloop
endfacet
facet normal -0.6220194593661476 0.0 0.783001782992763
  outer loop
    vertex 15.062199524202718 28.999999999999993 12.890226525353734
    vertex 15.471008489144944 26.74999999999999 13.214985851425087
    vertex 15.471008489144944 28.999999999999993 13.214985851425087
  endloop
endfacet
facet normal -0.8034804340438849 0.0 0.5953311617147639
  outer loop
    vertex 15.062199524202718 28.999999999999993 12.890226525353734
    vertex 14.791612496801799 26.74999999999999 12.52503250191892
    vertex 15.062199524202718 26.74999999999999 12.890226525353734
  endloop
endfacet
facet normal -0.8034804340438849 0.0 0.5953311617147639
  outer loop
    vertex 14.791612496801799 26.74999999999999 12.52503250191892
    vertex 15.062199524202718 28.999999999999993 12.890226525353734
    vertex 14.791612496801799 28.999999999999993 12.52503250191892
  endloop
endfacet
facet normal -0.8034804340438756 0.0 0.5953311617147764
  outer loop
    vertex 14.791612496801799 28.999999999999993 12.52503250191892
    vertex 14.751374285608447 26.74999999999999 12.470725559037485
    vertex 14.791612496801799 26.74999999999999 12.52503250191892
  endloop
endfacet
facet normal -0.8034804340438756 0.0 0.5953311617147764
  outer loop
    vertex 14.751374285608447 26.74999999999999 12.470725559037485
    vertex 14.791612496801799 28.999999999999993 12.52503250191892
    vertex 14.751374285608447 28.999999999999993 12.470725559037485
  endloop
endfacet
facet normal -0.930185544955728 0.0 0.367089705597168
  outer loop
    vertex 14.751374285608447 28.999999999999993 12.470725559037485
    vertex 14.559714999709335 26.74999999999999 11.985071250072666
    vertex 14.751374285608447 26.74999999999999 12.470725559037485
  endloop
endfacet
facet normal -0.930185544955728 0.0 0.367089705597168
  outer loop
    vertex 14.559714999709335 26.74999999999999 11.985071250072666
    vertex 14.751374285608447 28.999999999999993 12.470725559037485
    vertex 14.559714999709335 28.999999999999993 11.985071250072666
  endloop
endfacet
facet normal -0.9935000481831334 0.0 0.11383169268754448
  outer loop
    vertex 14.559714999709335 28.999999999999993 11.985071250072666
    vertex 14.500282930107462 26.74999999999999 11.466360137033538
    vertex 14.559714999709335 26.74999999999999 11.985071250072666
  endloop
endfacet
facet normal -0.9935000481831334 0.0 0.11383169268754448
  outer loop
    vertex 14.500282930107462 26.74999999999999 11.466360137033538
    vertex 14.559714999709335 28.999999999999993 11.985071250072666
    vertex 14.500282930107462 28.999999999999993 11.466360137033538
  endloop
endfacet
facet normal -0.9891091649633171 -0.0 -0.14718376196296143
  outer loop
    vertex 14.500282930107462 28.999999999999993 11.466360137033538
    vertex 14.577128274130054 26.74999999999999 10.949941525063071
    vertex 14.500282930107462 26.74999999999999 11.466360137033538
  endloop
endfacet
facet normal -0.9891091649633171 -0.0 -0.14718376196296143
  outer loop
    vertex 14.577128274130054 26.74999999999999 10.949941525063071
    vertex 14.500282930107462 28.999999999999993 11.466360137033538
    vertex 14.577128274130054 28.999999999999993 10.949941525063071
  endloop
endfacet
facet normal 3.438983515302315e-17 -1.0 0.0
  outer loop
    vertex 26.749999999999996 6.249999999999997 3.9999999999999996
    vertex 6.250000000000001 6.249999999999997 1.9999999999999998
    vertex 26.749999999999996 6.249999999999997 1.9999999999999998
  endloop
endfacet
facet normal 3.438983515302315e-17 -1.0 0.0
  outer loop
    vertex 6.250000000000001 6.249999999999997 1.9999999999999998
    vertex 26.749999999999996 6.249999999999997 3.9999999999999996
    vertex 6.250000000000001 6.249999999999997 3.9999999999999996
  endloop
endfacet
facet normal 0.0 0.0 1.0
  outer loop
    vertex 26.749999999999996 6.249999999999997 3.9999999999999996
    vertex 6.250000000000001 26.749999999999996 3.9999999999999996
    vertex 6.250000000000001 6.249999999999997 3.9999999999999996
  endloop
endfacet
facet normal 0.0 0.0 1.0
  outer loop
    vertex 6.250000000000001 26.749999999999996 3.9999999999999996
    vertex 26.749999999999996 6.249999999999997 3.9999999999999996
    vertex 26.749999999999996 26.749999999999996 3.9999999999999996
  endloop
endfacet
facet normal -1.0 0.0 0.0
  outer loop
    vertex 6.250000000000001 26.749999999999996 18.999999999999996
    vertex 6.250000000000001 6.249999999999997 3.9999999999999996
    vertex 6.250000000000001 6.249999999999997 18.999999999999996
  endloop
endfacet
facet normal -1.0 0.0 0.0
  outer loop
    vertex 6.250000000000001 6.249999999999997 3.9999999999999996
    vertex 6.250000000000001 26.749999999999996 18.999999999999996
    vertex 6.250000000000001 26.749999999999996 3.9999999999999996
  endloop
endfacet
facet normal 1.0 0.0 0.0
  outer loop
    vertex 26.749999999999996 26.749999999999996 3.9999999999999996
    vertex 26.749999999999996 6.249999999999997 18.999999999999996
    vertex 26.749999999999996 6.249999999999997 3.9999999999999996
  endloop
endfacet
facet normal 1.0 0.0 0.0
  outer loop
    vertex 26.749999999999996 6.249999999999997 18.999999999999996
    vertex 26.749999999999996 26.749999999999996 3.9999999999999996
    vertex 26.749999999999996 26.749999999999996 18.999999999999996
  endloop
endfacet
facet normal 0.0 1.0 0.0
  outer loop
    vertex 6.250000000000001 26.749999999999996 3.9999999999999996
    vertex 15.529274440962515 26.74999999999999 9.751374285608449
    vertex 26.749999999999996 26.749999999999996 3.9999999999999996
  endloop
endfacet
facet normal 0.0 1.0 0.0
  outer loop
    vertex 15.529274440962515 26.74999999999999 9.751374285608449
    vertex 6.250000000000001 26.749999999999996 3.9999999999999996
    vertex 15.109773474646266 26.74999999999999 10.06219952420272
  endloop
endfacet
facet normal 0.0 1.0 0.0
  outer loop
    vertex 15.109773474646266 26.74999999999999 10.06219952420272
    vertex 6.250000000000001 26.749999999999996 3.9999999999999996
    vertex 6.250000000000001 26.749999999999996 18.999999999999996
  endloop
endfacet
facet normal 0.0 1.0 0.0
  outer loop
    vertex 26.749999999999996 26.749999999999996 3.9999999999999996
    vertex 15.529274440962515 26.74999999999999 9.751374285608449
    vertex 16.014928749927332 26.74999999999999 9.559714999709337
  endloop
endfacet
facet normal 0.0 1.0 0.0
  outer loop
    vertex 26.749999999999996 26.749999999999996 3.9999999999999996
    vertex 16.014928749927332 26.74999999999999 9.559714999709337
    vertex 16.533639862966464 26.74999999999999 9.500282930107463
  endloop
endfacet
facet normal 0.0 1.0 0.0
  outer loop
    vertex 15.109773474646266 26.74999999999999 10.06219952420272
    vertex 6.250000000000001 26.749999999999996 18.999999999999996
    vertex 14.785014148574911 26.74999999999999 10.471008489144948
  endloop
endfacet
facet normal 0.0 1.0 0.0
  outer loop
    vertex 14.785014148574911 26.74999999999999 10.471008489144948
    vertex 6.250000000000001 26.749999999999996 18.999999999999996
    vertex 14.577128274130054 26.74999999999999 10.949941525063071
  endloop
endfacet
facet normal 0.0 1.0 0.0
  outer loop
    vertex 14.577128274130054 26.74999999999999 10.949941525063071
    vertex 6.250000000000001 26.749999999999996 18.999999999999996
    vertex 14.500282930107462 26.74999999999999 11.466360137033538
  endloop
endfacet
facet normal 0.0 1.0 0.0
  outer loop
    vertex 14.500282930107462 26.74999999999999 11.466360137033538
    vertex 6.250000000000001 26.749999999999996 18.999999999999996
    vertex 14.559714999709335 26.74999999999999 11.985071250072666
  endloop
endfacet
facet normal 0.0 1.0 0.0
  outer loop
    vertex 14.559714999709335 26.74999999999999 11.985071250072666
    vertex 6.250000000000001 26.749999999999996 18.999999999999996
    vertex 14.751374285608447 26.74999999999999 12.470725559037485
  endloop
endfacet
facet normal 0.0 1.0 0.0
  outer loop
    vertex 14.751374285608447 26.74999999999999 12.470725559037485
    vertex 6.250000000000001 26.749999999999996 18.999999999999996
    vertex 14.791612496801799 26.74999999999999 12.52503250191892
  endloop
endfacet
facet normal 0.0 1.0 0.0
  outer loop
    vertex 14.791612496801799 26.74999999999999 12.52503250191892
    vertex 6.250000000000001 26.749999999999996 18.999999999999996
    vertex 15.062199524202718 26.74999999999999 12.890226525353734
  endloop
endfacet
facet normal 0.0 1.0 0.0
  outer loop
    vertex 15.062199524202718 26.74999999999999 12.890226525353734
    vertex 6.250000000000001 26.749999999999996 18.999999999999996
    vertex 15.471008489144944 26.74999999999999 13.214985851425087
  endloop
endfacet
facet normal 0.0 1.0 0.0
  outer loop
    vertex 15.471008489144944 26.74999999999999 13.214985851425087
    vertex 6.250000000000001 26.749999999999996 18.999999999999996
    vertex 15.94994152506307 26.74999999999999 13.422871725869944
  endloop
endfacet
facet normal 0.0 1.0 0.0
  outer loop
    vertex 15.94994152506307 26.74999999999999 13.422871725869944
    vertex 6.250000000000001 26.749999999999996 18.999999999999996
    vertex 16.466360137033536 26.74999999999999 13.499717069892538
  endloop
endfacet
facet normal 0.0 1.0 0.0
  outer loop
    vertex 26.749999999999996 26.749999999999996 3.9999999999999996
    vertex 17.937800475797278 26.74999999999999 10.109773474646266
    vertex 26.749999999999996 26.749999999999996 18.999999999999996
  endloop
endfacet
facet normal 0.0 1.0 0.0
  outer loop
    vertex 17.937800475797278 26.74999999999999 10.109773474646266
    vertex 26.749999999999996 26.749999999999996 3.9999999999999996
    vertex 17.52899151085505 26.74999999999999 9.785014148574913
  endloop
endfacet
facet normal 0.0 1.0 0.0
  outer loop
    vertex 17.52899151085505 26.74999999999999 9.785014148574913
    vertex 26.749999999999996 26.749999999999996 3.9999999999999996
    vertex 17.050058474936925 26.74999999999999 9.577128274130056
  endloop
endfacet
facet normal 0.0 1.0 0.0
  outer loop
    vertex 17.050058474936925 26.74999999999999 9.577128274130056
    vertex 26.749999999999996 26.749999999999996 3.9999999999999996
    vertex 16.533639862966464 26.74999999999999 9.500282930107463
  endloop
endfacet
facet normal 0.0 1.0 0.0
  outer loop
    vertex 26.749999999999996 26.749999999999996 18.999999999999996
    vertex 17.937800475797278 26.74999999999999 10.109773474646266
    vertex 18.2083875031982 26.74999999999999 10.47496749808108
  endloop
endfacet
facet normal 0.0 1.0 0.0
  outer loop
    vertex 26.749999999999996 26.749999999999996 18.999999999999996
    vertex 18.2083875031982 26.74999999999999 10.47496749808108
    vertex 18.248625714391547 26.74999999999999 10.529274440962517
  endloop
endfacet
facet normal 0.0 1.0 0.0
  outer loop
    vertex 26.749999999999996 26.749999999999996 18.999999999999996
    vertex 18.248625714391547 26.74999999999999 10.529274440962517
    vertex 18.44028500029066 26.74999999999999 11.014928749927336
  endloop
endfacet
facet normal 0.0 1.0 0.0
  outer loop
    vertex 26.749999999999996 26.749999999999996 18.999999999999996
    vertex 18.44028500029066 26.74999999999999 11.014928749927336
    vertex 18.499717069892537 26.74999999999999 11.533639862966464
  endloop
endfacet
facet normal 0.0 1.0 0.0
  outer loop
    vertex 26.749999999999996 26.749999999999996 18.999999999999996
    vertex 18.499717069892537 26.74999999999999 11.533639862966464
    vertex 18.422871725869943 26.74999999999999 12.050058474936929
  endloop
endfacet
facet normal 0.0 1.0 0.0
  outer loop
    vertex 26.749999999999996 26.749999999999996 18.999999999999996
    vertex 18.422871725869943 26.74999999999999 12.050058474936929
    vertex 18.214985851425087 26.74999999999999 12.528991510855052
  endloop
endfacet
facet normal 0.0 1.0 0.0
  outer loop
    vertex 26.749999999999996 26.749999999999996 18.999999999999996
    vertex 18.214985851425087 26.74999999999999 12.528991510855052
    vertex 17.890226525353732 26.74999999999999 12.937800475797278
  endloop
endfacet
facet normal 0.0 1.0 0.0
  outer loop
    vertex 26.749999999999996 26.749999999999996 18.999999999999996
    vertex 17.890226525353732 26.74999999999999 12.937800475797278
    vertex 17.470725559037483 26.74999999999999 13.248625714391553
  endloop
endfacet
facet normal 0.0 1.0 0.0
  outer loop
    vertex 26.749999999999996 26.749999999999996 18.999999999999996
    vertex 17.470725559037483 26.74999999999999 13.248625714391553
    vertex 16.985071250072664 26.74999999999999 13.440285000290665
  endloop
endfacet
facet normal 0.0 1.0 0.0
  outer loop
    vertex 26.749999999999996 26.749999999999996 18.999999999999996
    vertex 16.985071250072664 26.74999999999999 13.440285000290665
    vertex 16.466360137033536 26.74999999999999 13.499717069892538
  endloop
endfacet
facet normal 0.0 1.0 0.0
  outer loop
    vertex 26.749999999999996 26.749999999999996 18.999999999999996
    vertex 16.466360137033536 26.74999999999999 13.499717069892538
    vertex 6.250000000000001 26.749999999999996 18.999999999999996
  endloop
endfacet
endsolid pieds
