solid support_ventilateur
facet normal 0.0 -1.0 0.0
  outer loop
    vertex 29.999999999999996 19.999999999999996 3.0
    vertex 0.0 19.999999999999996 0.0
    vertex 29.999999999999996 19.999999999999996 0.0
  endloop
endfacet
facet normal 0.0 -1.0 0.0
  outer loop
    vertex 0.0 19.999999999999996 0.0
    vertex 29.999999999999996 19.999999999999996 3.0
    vertex 0.0 19.999999999999996 3.0
  endloop
endfacet
facet normal 0.0 1.0 0.0
  outer loop
    vertex 0.0 0.0 3.0
    vertex 29.999999999999996 0.0 0.0
    vertex 0.0 0.0 0.0
  endloop
endfacet
facet normal 0.0 1.0 0.0
  outer loop
    vertex 29.999999999999996 0.0 0.0
    vertex 0.0 0.0 3.0
    vertex 29.999999999999996 0.0 3.0
  endloop
endfacet
facet normal 1.0 0.0 0.0
  outer loop
    vertex 0.0 19.999999999999996 0.0
    vertex 0.0 0.0 3.0
    vertex 0.0 0.0 0.0
  endloop
endfacet
facet normal 1.0 0.0 0.0
  outer loop
    vertex 0.0 0.0 3.0
    vertex 0.0 19.999999999999996 0.0
    vertex 0.0 19.999999999999996 3.0
  endloop
endfacet
facet normal -1.0 0.0 0.0
  outer loop
    vertex 29.999999999999996 25.000000000000004 2.9999999999999996
    vertex 29.999999999999996 19.999999999999996 0.0
    vertex 29.999999999999996 19.999999999999996 3.0
  endloop
endfacet
facet normal -1.0 0.0 0.0
  outer loop
    vertex 29.999999999999996 19.999999999999996 0.0
    vertex 29.999999999999996 25.000000000000004 2.9999999999999996
    vertex 29.999999999999996 35.0 0.0
  endloop
endfacet
facet normal -1.0 0.0 0.0
  outer loop
    vertex 29.999999999999996 35.0 0.0
    vertex 29.999999999999996 25.000000000000004 2.9999999999999996
    vertex 29.999999999999996 35.0 3.0
  endloop
endfacet
facet normal -1.0 0.0 0.0
  outer loop
    vertex 29.999999999999996 -4.999999999999999 3.0
    vertex 29.999999999999996 -14.999999999999998 0.0
    vertex 29.999999999999996 -14.999999999999998 3.0
  endloop
endfacet
facet normal -1.0 0.0 0.0
  outer loop
    vertex 29.999999999999996 -14.999999999999998 0.0
    vertex 29.999999999999996 -4.999999999999999 3.0
    vertex 29.999999999999996 0.0 0.0
  endloop
endfacet
facet normal -1.0 0.0 0.0
  outer loop
    vertex 29.999999999999996 0.0 0.0
    vertex 29.999999999999996 -4.999999999999999 3.0
    vertex 29.999999999999996 0.0 3.0
  endloop
endfacet
facet normal -0.630592625094467 -2.424079666994478e-15 -0.7761140001162645
  outer loop
    vertex 36.59561538421518 -9.716567740794034 2.626621484314123
    vertex 36.638787185387606 -10.491029796946073 2.5915443958615296
    vertex 36.57763504585934 -10.107460392967058 2.6412305092282504
  endloop
endfacet
facet normal -0.630592625094467 -2.424079666994478e-15 -0.7761140001162645
  outer loop
    vertex 36.638787185387606 -10.491029796946073 2.5915443958615296
    vertex 36.59561538421518 -9.716567740794034 2.626621484314123
    vertex 36.69150287011011 -9.344990528691943 2.5487129020244943
  endloop
endfacet
facet normal -0.630592625094467 -2.424079666994478e-15 -0.7761140001162645
  outer loop
    vertex 36.638787185387606 -10.491029796946073 2.5915443958615296
    vertex 36.69150287011011 -9.344990528691943 2.5487129020244943
    vertex 36.77490438554984 -10.84113633172832 2.4809491707297195
  endloop
endfacet
facet normal -0.630592625094467 -2.424079666994478e-15 -0.7761140001162645
  outer loop
    vertex 36.77490438554984 -10.84113633172832 2.4809491707297195
    vertex 36.69150287011011 -9.344990528691943 2.5487129020244943
    vertex 36.858762929841944 -9.018051129605164 2.4128141034923782
  endloop
endfacet
facet normal -0.630592625094467 -2.424079666994478e-15 -0.7761140001162645
  outer loop
    vertex 36.77490438554984 -10.84113633172832 2.4809491707297195
    vertex 36.858762929841944 -9.018051129605164 2.4128141034923782
    vertex 36.90958626618969 -11.036535604526717 2.371520142709835
  endloop
endfacet
facet normal -0.630592625094467 -2.424079666994478e-15 -0.7761140001162645
  outer loop
    vertex 36.90958626618969 -11.036535604526717 2.371520142709835
    vertex 36.858762929841944 -9.018051129605164 2.4128141034923782
    vertex 36.908095309258535 -8.961600699309356 2.372731545216393
  endloop
endfacet
facet normal -0.630592625094467 -2.424079666994478e-15 -0.7761140001162645
  outer loop
    vertex 36.90958626618969 -11.036535604526717 2.371520142709835
    vertex 36.908095309258535 -8.961600699309356 2.372731545216393
    vertex 37.08599706675027 -8.758029923288559 2.228186367254357
  endloop
endfacet
facet normal -0.630592625094467 -2.424079666994478e-15 -0.7761140001162645
  outer loop
    vertex 36.90958626618969 -11.036535604526717 2.371520142709835
    vertex 37.08599706675027 -8.758029923288559 2.228186367254357
    vertex 36.97671048409927 -11.133920815546794 2.316981715658302
  endloop
endfacet
facet normal -0.630592625094467 -2.424079666994478e-15 -0.7761140001162645
  outer loop
    vertex 36.97671048409927 -11.133920815546794 2.316981715658302
    vertex 37.08599706675027 -8.758029923288559 2.228186367254357
    vertex 37.23045272892012 -11.349430469678504 2.110816141741363
  endloop
endfacet
facet normal -0.630592625094467 -2.424079666994478e-15 -0.7761140001162645
  outer loop
    vertex 37.23045272892012 -11.349430469678504 2.110816141741363
    vertex 37.08599706675027 -8.758029923288559 2.228186367254357
    vertex 37.35771964992696 -8.582646925247243 2.007411768423293
  endloop
endfacet
facet normal -0.630592625094467 -2.424079666994478e-15 -0.7761140001162645
  outer loop
    vertex 37.23045272892012 -11.349430469678504 2.110816141741363
    vertex 37.35771964992696 -8.582646925247243 2.007411768423293
    vertex 37.518839005356725 -11.472978667340913 1.876502292136622
  endloop
endfacet
facet normal -0.630592625094467 -2.424079666994478e-15 -0.7761140001162645
  outer loop
    vertex 37.518839005356725 -11.472978667340913 1.876502292136622
    vertex 37.35771964992696 -8.582646925247243 2.007411768423293
    vertex 37.65541323437133 -8.503854196963626 1.7655357310622453
  endloop
endfacet
facet normal -0.630592625094467 -2.424079666994478e-15 -0.7761140001162645
  outer loop
    vertex 37.518839005356725 -11.472978667340913 1.876502292136622
    vertex 37.65541323437133 -8.503854196963626 1.7655357310622453
    vertex 37.82221626525079 -11.496145803036383 1.6300082684726964
  endloop
endfacet
facet normal -0.630592625094467 -2.424079666994478e-15 -0.7761140001162645
  outer loop
    vertex 37.82221626525079 -11.496145803036383 1.6300082684726964
    vertex 37.65541323437133 -8.503854196963626 1.7655357310622453
    vertex 37.95879049426539 -8.527021332659094 1.5190417073983196
  endloop
endfacet
facet normal -0.630592625094467 -2.424079666994478e-15 -0.7761140001162645
  outer loop
    vertex 37.82221626525079 -11.496145803036383 1.6300082684726964
    vertex 37.95879049426539 -8.527021332659094 1.5190417073983196
    vertex 38.11990984969515 -11.417353074752766 1.3881322311116495
  endloop
endfacet
facet normal -0.630592625094467 -2.424079666994478e-15 -0.7761140001162645
  outer loop
    vertex 38.11990984969515 -11.417353074752766 1.3881322311116495
    vertex 37.95879049426539 -8.527021332659094 1.5190417073983196
    vertex 38.24717677070199 -8.650569530321505 1.2847278577935788
  endloop
endfacet
facet normal -0.630592625094467 -2.424079666994478e-15 -0.7761140001162645
  outer loop
    vertex 38.11990984969515 -11.417353074752766 1.3881322311116495
    vertex 38.24717677070199 -8.650569530321505 1.2847278577935788
    vertex 38.391632432871845 -11.24197007671145 1.1673576322805845
  endloop
endfacet
facet normal -0.630592625094467 -2.424079666994478e-15 -0.7761140001162645
  outer loop
    vertex 38.391632432871845 -11.24197007671145 1.1673576322805845
    vertex 38.24717677070199 -8.650569530321505 1.2847278577935788
    vertex 38.50091901552285 -8.866079184453216 1.078562283876639
  endloop
endfacet
facet normal -0.630592625094467 -2.424079666994478e-15 -0.7761140001162645
  outer loop
    vertex 38.391632432871845 -11.24197007671145 1.1673576322805845
    vertex 38.50091901552285 -8.866079184453216 1.078562283876639
    vertex 38.569534190363576 -11.038399300690655 1.022812454318549
  endloop
endfacet
facet normal -0.630592625094467 -2.424079666994478e-15 -0.7761140001162645
  outer loop
    vertex 38.569534190363576 -11.038399300690655 1.022812454318549
    vertex 38.50091901552285 -8.866079184453216 1.078562283876639
    vertex 38.56804323343243 -8.963464395473292 1.0240238568251065
  endloop
endfacet
facet normal -0.630592625094467 -2.424079666994478e-15 -0.7761140001162645
  outer loop
    vertex 38.569534190363576 -11.038399300690655 1.022812454318549
    vertex 38.56804323343243 -8.963464395473292 1.0240238568251065
    vertex 38.70272511407228 -9.158863668271689 0.9145948288052222
  endloop
endfacet
facet normal -0.630592625094467 -2.424079666994478e-15 -0.7761140001162645
  outer loop
    vertex 38.569534190363576 -11.038399300690655 1.022812454318549
    vertex 38.70272511407228 -9.158863668271689 0.9145948288052222
    vertex 38.618866569780174 -10.981948870394845 0.982729896042564
  endloop
endfacet
facet normal -0.630592625094467 -2.424079666994478e-15 -0.7761140001162645
  outer loop
    vertex 38.618866569780174 -10.981948870394845 0.982729896042564
    vertex 38.70272511407228 -9.158863668271689 0.9145948288052222
    vertex 38.786126629512005 -10.655009471308066 0.8468310975104479
  endloop
endfacet
facet normal -0.630592625094467 -2.424079666994478e-15 -0.7761140001162645
  outer loop
    vertex 38.786126629512005 -10.655009471308066 0.8468310975104479
    vertex 38.70272511407228 -9.158863668271689 0.9145948288052222
    vertex 38.838842314234505 -9.508970203053936 0.8039996036734125
  endloop
endfacet
facet normal -0.630592625094467 -2.424079666994478e-15 -0.7761140001162645
  outer loop
    vertex 38.786126629512005 -10.655009471308066 0.8468310975104479
    vertex 38.838842314234505 -9.508970203053936 0.8039996036734125
    vertex 38.88201411540694 -10.283432259205975 0.7689225152208182
  endloop
endfacet
facet normal -0.630592625094467 -2.424079666994478e-15 -0.7761140001162645
  outer loop
    vertex 38.88201411540694 -10.283432259205975 0.7689225152208182
    vertex 38.838842314234505 -9.508970203053936 0.8039996036734125
    vertex 38.89999445376278 -9.892539607032951 0.754313490306692
  endloop
endfacet
facet normal 1.4329097980426311e-18 4.067259349828699e-18 1.0
  outer loop
    vertex 34.99999999999999 -4.999999999999999 3.0
    vertex 29.999999999999996 0.0 3.0
    vertex 29.999999999999996 -4.999999999999999 3.0
  endloop
endfacet
facet normal 1.4329097980426311e-18 4.067259349828699e-18 1.0
  outer loop
    vertex 29.999999999999996 0.0 3.0
    vertex 34.99999999999999 -4.999999999999999 3.0
    vertex 29.999999999999996 19.999999999999996 3.0
  endloop
endfacet
facet normal 1.4329097980426311e-18 4.067259349828699e-18 1.0
  outer loop
    vertex 29.999999999999996 19.999999999999996 3.0
    vertex 34.99999999999999 -4.999999999999999 3.0
    vertex 29.999999999999996 25.000000000000004 2.9999999999999996
  endloop
endfacet
facet normal 1.4329097980426311e-18 4.067259349828699e-18 1.0
  outer loop
    vertex 29.999999999999996 25.000000000000004 2.9999999999999996
    vertex 34.99999999999999 -4.999999999999999 3.0
    vertex 34.99999999999999 25.000000000000004 3.0
  endloop
endfacet
facet normal 1.4329097980426311e-18 4.067259349828699e-18 1.0
  outer loop
    vertex 29.999999999999996 0.0 3.0
    vertex 0.0 19.999999999999996 3.0
    vertex 0.0 0.0 3.0
  endloop
endfacet
facet normal 1.4329097980426311e-18 4.067259349828699e-18 1.0
  outer loop
    vertex 0.0 19.999999999999996 3.0
    vertex 29.999999999999996 0.0 3.0
    vertex 29.999999999999996 19.999999999999996 3.0
  endloop
endfacet
facet normal 1.0 0.0 0.0
  outer loop
    vertex 34.99999999999999 24.0 0.0
    vertex 34.99999999999999 -4.999999999999999 3.0
    vertex 34.99999999999999 -4.999999999999999 0.0
  endloop
endfacet
facet normal 1.0 0.0 0.0
  outer loop
    vertex 34.99999999999999 -4.999999999999999 3.0
    vertex 34.99999999999999 24.0 0.0
    vertex 34.99999999999999 25.000000000000004 3.0
  endloop
endfacet
facet normal 1.0 0.0 0.0
  outer loop
    vertex 34.99999999999999 25.000000000000004 3.0
    vertex 34.99999999999999 24.0 0.0
    vertex 34.99999999999999 25.000000000000004 0.0
  endloop
endfacet
facet normal 0.6804510993672779 0.0 0.7327934916262991
  outer loop
    vertex 42.999999999999986 -14.999999999999998 0.0
    vertex 35.99999999999999 -4.999999999999999 6.499999999999999
    vertex 35.99999999999999 -14.999999999999998 6.499999999999999
  endloop
endfacet
facet normal 0.6804510993672779 0.0 0.7327934916262991
  outer loop
    vertex 35.99999999999999 -4.999999999999999 6.499999999999999
    vertex 42.999999999999986 -14.999999999999998 0.0
    vertex 42.999999999999986 -4.999999999999999 0.0
  endloop
endfacet
facet normal 0.0 -1.0 0.0
  outer loop
    vertex 35.99999999999999 -14.999999999999998 6.499999999999999
    vertex 29.999999999999996 -14.999999999999998 0.0
    vertex 42.999999999999986 -14.999999999999998 0.0
  endloop
endfacet
facet normal 0.0 -1.0 0.0
  outer loop
    vertex 29.999999999999996 -14.999999999999998 0.0
    vertex 35.99999999999999 -14.999999999999998 6.499999999999999
    vertex 29.999999999999996 -14.999999999999998 3.0
  endloop
endfacet
facet normal -0.5038710255240865 0.0 0.8637789008984332
  outer loop
    vertex 35.99999999999999 -14.999999999999998 6.499999999999999
    vertex 29.999999999999996 -4.999999999999999 3.0
    vertex 29.999999999999996 -14.999999999999998 3.0
  endloop
endfacet
facet normal -0.5038710255240865 0.0 0.8637789008984332
  outer loop
    vertex 29.999999999999996 -4.999999999999999 3.0
    vertex 35.99999999999999 -14.999999999999998 6.499999999999999
    vertex 35.99999999999999 -4.999999999999999 6.499999999999999
  endloop
endfacet
facet normal 0.0 1.0 0.0
  outer loop
    vertex 35.99999999999999 -4.999999999999999 6.499999999999999
    vertex 34.99999999999999 -4.999999999999999 3.0
    vertex 29.999999999999996 -4.999999999999999 3.0
  endloop
endfacet
facet normal 0.0 1.0 0.0
  outer loop
    vertex 34.99999999999999 -4.999999999999999 3.0
    vertex 42.999999999999986 -4.999999999999999 0.0
    vertex 34.99999999999999 -4.999999999999999 0.0
  endloop
endfacet
facet normal 0.0 1.0 0.0
  outer loop
    vertex 42.999999999999986 -4.999999999999999 0.0
    vertex 34.99999999999999 -4.999999999999999 3.0
    vertex 35.99999999999999 -4.999999999999999 6.499999999999999
  endloop
endfacet
facet normal 0.6507913734559686 1.4566978265950237e-17 0.7592566023652965
  outer loop
    vertex 42.999999999999986 25.000000000000004 0.0
    vertex 35.99999999999999 35.0 6.0
    vertex 35.99999999999999 25.000000000000004 6.0
  endloop
endfacet
facet normal 0.6507913734559686 1.4566978265950237e-17 0.7592566023652965
  outer loop
    vertex 35.99999999999999 35.0 6.0
    vertex 42.999999999999986 25.000000000000004 0.0
    vertex 42.999999999999986 35.0 0.0
  endloop
endfacet
facet normal 0.0 0.0 -1.0
  outer loop
    vertex 29.999999999999996 19.999999999999996 0.0
    vertex 0.0 0.0 0.0
    vertex 0.0 19.999999999999996 0.0
  endloop
endfacet
facet normal 0.0 0.0 -1.0
  outer loop
    vertex 0.0 0.0 0.0
    vertex 29.999999999999996 19.999999999999996 0.0
    vertex 29.999999999999996 0.0 0.0
  endloop
endfacet
facet normal 0.0 0.0 -1.0
  outer loop
    vertex 42.999999999999986 35.0 0.0
    vertex 29.999999999999996 19.999999999999996 0.0
    vertex 29.999999999999996 35.0 0.0
  endloop
endfacet
facet normal 0.0 0.0 -1.0
  outer loop
    vertex 29.999999999999996 19.999999999999996 0.0
    vertex 42.999999999999986 35.0 0.0
    vertex 34.99999999999999 25.000000000000004 0.0
  endloop
endfacet
facet normal 0.0 0.0 -1.0
  outer loop
    vertex 29.999999999999996 19.999999999999996 0.0
    vertex 34.99999999999999 25.000000000000004 0.0
    vertex 29.999999999999996 0.0 0.0
  endloop
endfacet
facet normal 0.0 0.0 -1.0
  outer loop
    vertex 29.999999999999996 0.0 0.0
    vertex 34.99999999999999 25.000000000000004 0.0
    vertex 29.999999999999996 -14.999999999999998 0.0
  endloop
endfacet
facet normal 0.0 0.0 -1.0
  outer loop
    vertex 34.99999999999999 25.000000000000004 0.0
    vertex 42.999999999999986 35.0 0.0
    vertex 42.999999999999986 25.000000000000004 0.0
  endloop
endfacet
facet normal 0.0 0.0 -1.0
  outer loop
    vertex 29.999999999999996 -14.999999999999998 0.0
    vertex 34.99999999999999 -4.999999999999999 0.0
    vertex 42.999999999999986 -14.999999999999998 0.0
  endloop
endfacet
facet normal 0.0 0.0 -1.0
  outer loop
    vertex 34.99999999999999 -4.999999999999999 0.0
    vertex 29.999999999999996 -14.999999999999998 0.0
    vertex 34.99999999999999 25.000000000000004 0.0
  endloop
endfacet
facet normal 0.0 0.0 -1.0
  outer loop
    vertex 34.99999999999999 -4.999999999999999 0.0
    vertex 34.99999999999999 25.000000000000004 0.0
    vertex 34.99999999999999 24.0 0.0
  endloop
endfacet
facet normal 0.0 0.0 -1.0
  outer loop
    vertex 42.999999999999986 -14.999999999999998 0.0
    vertex 34.99999999999999 -4.999999999999999 0.0
    vertex 42.999999999999986 -4.999999999999999 0.0
  endloop
endfacet
facet normal 0.0 1.0 0.0
  outer loop
    vertex 29.999999999999996 35.0 3.0
    vertex 42.999999999999986 35.0 0.0
    vertex 29.999999999999996 35.0 0.0
  endloop
endfacet
facet normal 0.0 1.0 0.0
  outer loop
    vertex 42.999999999999986 35.0 0.0
    vertex 29.999999999999996 35.0 3.0
    vertex 35.99999999999999 35.0 6.0
  endloop
endfacet
facet normal -0.4472135954999583 1.5933376989814794e-31 0.8944271909999156
  outer loop
    vertex 35.99999999999999 25.000000000000004 6.0
    vertex 29.999999999999996 35.0 3.0
    vertex 29.999999999999996 25.000000000000004 2.9999999999999996
  endloop
endfacet
facet normal -0.4472135954999583 1.5933376989814794e-31 0.8944271909999156
  outer loop
    vertex 29.999999999999996 35.0 3.0
    vertex 35.99999999999999 25.000000000000004 6.0
    vertex 35.99999999999999 35.0 6.0
  endloop
endfacet
facet normal 0.0 -1.0 0.0
  outer loop
    vertex 35.99999999999999 25.000000000000004 6.0
    vertex 34.99999999999999 25.000000000000004 0.0
    vertex 42.999999999999986 25.000000000000004 0.0
  endloop
endfacet
facet normal 0.0 -1.0 0.0
  outer loop
    vertex 34.99999999999999 25.000000000000004 0.0
    vertex 35.99999999999999 25.000000000000004 6.0
    vertex 34.99999999999999 25.000000000000004 3.0
  endloop
endfacet
facet normal 0.0 -1.0 0.0
  outer loop
    vertex 35.99999999999999 25.000000000000004 6.0
    vertex 29.999999999999996 25.000000000000004 2.9999999999999996
    vertex 34.99999999999999 25.000000000000004 3.0
  endloop
endfacet
endsolid support_ventilateur
