solid support_moteur_X
facet normal 9.35929264345191e-16 -0.130526899736452 -0.9914447682272524
  outer loop
    vertex 48.99999999999999 25.0 15.999999999999998
    vertex 46.0 25.0 15.999999999999996
    vertex 48.99999999999999 25.517637252807617 15.931851387023926
  endloop
endfacet
facet normal -1.0 0.0 0.0
  outer loop
    vertex 46.0 23.068148347421864 14.51763809020504
    vertex 46.0 23.0 13.999999999999996
    vertex 46.0 23.06814834742186 28.482361909794953
  endloop
endfacet
facet normal -1.0 0.0 0.0
  outer loop
    vertex 46.0 23.585786437626904 27.585786437626894
    vertex 46.0 23.267949192431125 14.999999999999998
    vertex 46.0 23.26794919243112 27.999999999999993
  endloop
endfacet
facet normal -1.0 0.0 0.0
  outer loop
    vertex 46.0 23.26794919243112 27.999999999999993
    vertex 46.0 23.068148347421864 14.51763809020504
    vertex 46.0 23.06814834742186 28.482361909794953
  endloop
endfacet
facet normal -1.0 0.0 0.0
  outer loop
    vertex 46.0 23.267949192431125 14.999999999999998
    vertex 46.0 23.068148347421864 14.51763809020504
    vertex 46.0 23.26794919243112 27.999999999999993
  endloop
endfacet
facet normal -1.0 0.0 0.0
  outer loop
    vertex 46.0 23.585786437626908 15.414213562373092
    vertex 46.0 23.267949192431125 14.999999999999998
    vertex 46.0 23.585786437626904 27.585786437626894
  endloop
endfacet
facet normal -1.0 0.0 0.0
  outer loop
    vertex 46.0 25.0 26.99999999999999
    vertex 46.0 24.48236190979496 15.931851652578132
    vertex 46.0 24.482361909794957 27.068148347421854
  endloop
endfacet
facet normal 2.713805077072774e-08 -0.382683432365095 -0.9238795325112843
  outer loop
    vertex 48.99999999999999 25.999999999999996 15.732050895690916
    vertex 46.0 25.517638090205043 15.931851652578132
    vertex 46.0 25.999999999999996 15.732050807568873
  endloop
endfacet
facet normal -1.2419488408010744e-07 -0.13052619222004974 -0.9914448613738028
  outer loop
    vertex 48.99999999999999 25.517637252807617 15.931851387023926
    vertex 46.0 25.0 15.999999999999996
    vertex 46.0 25.517638090205043 15.931851652578132
  endloop
endfacet
facet normal -1.0 0.0 0.0
  outer loop
    vertex 46.0 23.06814834742186 28.482361909794953
    vertex 46.0 23.0 13.999999999999996
    vertex 46.0 22.999999999999996 28.999999999999993
  endloop
endfacet
facet normal -4.101340267959448e-18 0.3826834323650913 0.9238795325112862
  outer loop
    vertex 49.99999999999999 24.482361909794957 27.068148347421854
    vertex 46.0 24.482361909794957 27.068148347421854
    vertex 49.99999999999999 24.0 27.267949192431114
  endloop
endfacet
facet normal -1.8859912871305083e-07 -0.3826822871051302 -0.9238800068926436
  outer loop
    vertex 48.99999999999999 25.517637252807617 15.931851387023926
    vertex 46.0 25.517638090205043 15.931851652578132
    vertex 48.99999999999999 25.999999999999996 15.732050895690916
  endloop
endfacet
facet normal -1.784570088952985e-07 -0.7933533402912195 -0.6087614290087149
  outer loop
    vertex 46.0 26.414213562373092 15.41421356237309
    vertex 46.0 26.73205080756888 14.999999999999995
    vertex 48.99999999999999 26.41421318054199 15.414213180541992
  endloop
endfacet
facet normal -4.101340267959448e-18 0.3826834323650913 0.9238795325112862
  outer loop
    vertex 49.99999999999999 24.0 27.267949192431114
    vertex 46.0 24.482361909794957 27.068148347421854
    vertex 46.0 24.0 27.267949192431114
  endloop
endfacet
facet normal -1.0 0.0 0.0
  outer loop
    vertex 46.0 23.068148347421864 14.51763809020504
    vertex 46.0 23.068148347421864 13.482361909794957
    vertex 46.0 23.0 13.999999999999996
  endloop
endfacet
facet normal -1.0 0.0 0.0
  outer loop
    vertex 46.0 23.068148347421864 13.482361909794957
    vertex 46.0 23.068148347421864 14.51763809020504
    vertex 46.0 23.267949192431125 14.999999999999998
  endloop
endfacet
facet normal -1.0 0.0 0.0
  outer loop
    vertex 46.0 23.068148347421864 13.482361909794957
    vertex 46.0 23.267949192431125 14.999999999999998
    vertex 46.0 23.267949192431125 12.999999999999998
  endloop
endfacet
facet normal -1.0 0.0 0.0
  outer loop
    vertex 46.0 23.267949192431125 12.999999999999998
    vertex 46.0 23.267949192431125 14.999999999999998
    vertex 46.0 23.585786437626908 15.414213562373092
  endloop
endfacet
facet normal -1.0 0.0 0.0
  outer loop
    vertex 46.0 23.267949192431125 12.999999999999998
    vertex 46.0 23.585786437626908 15.414213562373092
    vertex 46.0 23.585786437626904 12.585786437626902
  endloop
endfacet
facet normal -1.0 0.0 0.0
  outer loop
    vertex 46.0 23.585786437626904 12.585786437626902
    vertex 46.0 23.585786437626908 15.414213562373092
    vertex 46.0 24.0 12.26794919243112
  endloop
endfacet
facet normal -1.0 0.0 0.0
  outer loop
    vertex 46.0 24.0 12.26794919243112
    vertex 46.0 23.585786437626908 15.414213562373092
    vertex 46.0 24.0 15.732050807568875
  endloop
endfacet
facet normal -1.0 0.0 0.0
  outer loop
    vertex 46.0 24.0 12.26794919243112
    vertex 46.0 24.0 15.732050807568875
    vertex 46.0 24.482361909794957 12.068148347421861
  endloop
endfacet
facet normal -1.0 0.0 0.0
  outer loop
    vertex 46.0 24.482361909794957 12.068148347421861
    vertex 46.0 24.0 15.732050807568875
    vertex 46.0 24.48236190979496 15.931851652578132
  endloop
endfacet
facet normal -1.0 0.0 0.0
  outer loop
    vertex 46.0 24.482361909794957 12.068148347421861
    vertex 46.0 24.48236190979496 15.931851652578132
    vertex 46.0 25.0 11.999999999999998
  endloop
endfacet
facet normal -1.0 0.0 0.0
  outer loop
    vertex 46.0 25.0 11.999999999999998
    vertex 46.0 24.48236190979496 15.931851652578132
    vertex 46.0 25.0 15.999999999999996
  endloop
endfacet
facet normal -1.0 0.0 0.0
  outer loop
    vertex 46.0 25.0 11.999999999999998
    vertex 46.0 25.0 15.999999999999996
    vertex 46.0 25.517638090205043 15.931851652578132
  endloop
endfacet
facet normal -1.0 0.0 0.0
  outer loop
    vertex 46.0 25.0 11.999999999999998
    vertex 46.0 25.517638090205043 15.931851652578132
    vertex 46.0 25.51763809020504 12.068148347421861
  endloop
endfacet
facet normal -1.0 0.0 0.0
  outer loop
    vertex 46.0 25.51763809020504 12.068148347421861
    vertex 46.0 25.517638090205043 15.931851652578132
    vertex 46.0 25.999999999999996 12.26794919243112
  endloop
endfacet
facet normal -1.0 0.0 0.0
  outer loop
    vertex 46.0 25.999999999999996 12.26794919243112
    vertex 46.0 25.517638090205043 15.931851652578132
    vertex 46.0 25.999999999999996 15.732050807568873
  endloop
endfacet
facet normal -1.0 0.0 0.0
  outer loop
    vertex 46.0 25.999999999999996 12.26794919243112
    vertex 46.0 25.999999999999996 15.732050807568873
    vertex 46.0 26.414213562373092 15.41421356237309
  endloop
endfacet
facet normal -1.0 0.0 0.0
  outer loop
    vertex 46.0 25.999999999999996 12.26794919243112
    vertex 46.0 26.414213562373092 15.41421356237309
    vertex 46.0 26.414213562373092 12.585786437626902
  endloop
endfacet
facet normal -1.0 0.0 0.0
  outer loop
    vertex 46.0 26.414213562373092 12.585786437626902
    vertex 46.0 26.414213562373092 15.41421356237309
    vertex 46.0 26.73205080756888 14.999999999999995
  endloop
endfacet
facet normal -1.0 0.0 0.0
  outer loop
    vertex 46.0 26.414213562373092 12.585786437626902
    vertex 46.0 26.73205080756888 14.999999999999995
    vertex 46.0 26.73205080756888 12.999999999999996
  endloop
endfacet
facet normal -1.0 0.0 0.0
  outer loop
    vertex 46.0 26.73205080756888 12.999999999999996
    vertex 46.0 26.73205080756888 14.999999999999995
    vertex 46.0 26.93185165257814 14.517638090205036
  endloop
endfacet
facet normal -1.0 0.0 0.0
  outer loop
    vertex 46.0 26.73205080756888 12.999999999999996
    vertex 46.0 26.93185165257814 14.517638090205036
    vertex 46.0 26.931851652578132 13.482361909794955
  endloop
endfacet
facet normal -1.0 0.0 0.0
  outer loop
    vertex 46.0 26.931851652578132 13.482361909794955
    vertex 46.0 26.93185165257814 14.517638090205036
    vertex 46.0 26.999999999999996 13.999999999999996
  endloop
endfacet
facet normal -9.552223799905185e-18 -0.7933533402912372 0.6087614290087179
  outer loop
    vertex 46.0 26.73205080756888 27.99999999999999
    vertex 46.0 26.4142135623731 27.585786437626894
    vertex 49.99999999999999 26.73205080756888 27.99999999999999
  endloop
endfacet
facet normal -1.7845700190620233e-07 0.7933535167242091 -0.6087611990766973
  outer loop
    vertex 46.0 23.585786437626908 15.414213562373092
    vertex 48.99999999999999 23.585786819458008 15.414213180541992
    vertex 48.99999999999999 23.267950057983395 14.999999999999998
  endloop
endfacet
facet normal 0.0 -0.9914448613738105 0.13052619222005216
  outer loop
    vertex 46.0 27.0 28.999999999999993
    vertex 46.0 26.93185165257814 28.482361909794953
    vertex 49.99999999999999 27.0 28.999999999999993
  endloop
endfacet
facet normal 2.7138064194603975e-08 0.382682287105135 -0.9238800068926604
  outer loop
    vertex 48.99999999999999 24.0 15.732050895690916
    vertex 46.0 24.0 15.732050807568875
    vertex 48.99999999999999 24.482362747192383 15.931851387023926
  endloop
endfacet
facet normal 0.0 -0.3826834323650913 0.9238795325112862
  outer loop
    vertex 49.99999999999999 25.51763809020504 27.068148347421854
    vertex 46.0 25.999999999999996 27.267949192431114
    vertex 46.0 25.51763809020504 27.068148347421854
  endloop
endfacet
facet normal 0.0 -0.9238795325112878 0.38268343236508756
  outer loop
    vertex 49.99999999999999 26.93185165257814 28.482361909794953
    vertex 46.0 26.73205080756888 27.99999999999999
    vertex 49.99999999999999 26.73205080756888 27.99999999999999
  endloop
endfacet
facet normal 4.10134026795936e-18 -0.9238795325112878 0.38268343236508745
  outer loop
    vertex 46.0 26.93185165257814 28.482361909794953
    vertex 46.0 26.73205080756888 27.99999999999999
    vertex 49.99999999999999 26.93185165257814 28.482361909794953
  endloop
endfacet
facet normal -1.7845701003307508e-07 0.6087614290087117 0.7933533402912222
  outer loop
    vertex 48.99999999999999 23.585786819458008 12.585786819458006
    vertex 46.0 24.0 12.26794919243112
    vertex 46.0 23.585786437626904 12.585786437626902
  endloop
endfacet
facet normal 0.0 0.0 -1.0
  outer loop
    vertex 50.0 0.0 0.0
    vertex 0.0 0.0 0.0
    vertex 50.0 50.0 0.0
  endloop
endfacet
facet normal 0.0 0.0 -1.0
  outer loop
    vertex 50.0 50.0 0.0
    vertex 0.0 0.0 0.0
    vertex 0.0 50.0 0.0
  endloop
endfacet
facet normal 0.0 -1.0 0.0
  outer loop
    vertex 50.0 0.0 3.9999999999999996
    vertex 0.0 0.0 0.0
    vertex 50.0 0.0 0.0
  endloop
endfacet
facet normal -1.0 0.0 0.0
  outer loop
    vertex 0.0 50.0 0.0
    vertex 0.0 0.0 0.0
    vertex 0.0 50.0 3.9999999999999996
  endloop
endfacet
facet normal -1.0 0.0 0.0
  outer loop
    vertex 0.0 50.0 3.9999999999999996
    vertex 0.0 0.0 0.0
    vertex 0.0 0.0 3.9999999999999996
  endloop
endfacet
facet normal 0.0 0.554700196225229 0.8320502943378438
  outer loop
    vertex 45.99999999999999 44.0 7.999999999999999
    vertex 50.0 50.0 3.9999999999999996
    vertex 41.99999999999999 50.0 3.9999999999999996
  endloop
endfacet
facet normal 0.0 0.554700196225229 0.8320502943378438
  outer loop
    vertex 50.0 50.0 3.9999999999999996
    vertex 45.99999999999999 44.0 7.999999999999999
    vertex 46.0 35.0 13.999999999999996
  endloop
endfacet
facet normal 0.0 0.554700196225229 0.8320502943378438
  outer loop
    vertex 50.0 50.0 3.9999999999999996
    vertex 46.0 35.0 13.999999999999996
    vertex 50.0 35.0 13.999999999999996
  endloop
endfacet
facet normal -4.101340267959448e-18 0.9238795325112862 0.3826834323650913
  outer loop
    vertex 49.99999999999999 23.06814834742186 28.482361909794953
    vertex 49.99999999999999 23.26794919243112 27.999999999999993
    vertex 46.0 23.06814834742186 28.482361909794953
  endloop
endfacet
facet normal 2.3303972344258872e-08 0.608761429008721 -0.7933533402912345
  outer loop
    vertex 48.99999999999999 24.0 15.732050895690916
    vertex 46.0 23.585786437626908 15.414213562373092
    vertex 46.0 24.0 15.732050807568875
  endloop
endfacet
facet normal 4.10134026795945e-18 0.9238795325112862 0.3826834323650914
  outer loop
    vertex 46.0 23.06814834742186 28.482361909794953
    vertex 49.99999999999999 23.26794919243112 27.999999999999993
    vertex 46.0 23.26794919243112 27.999999999999993
  endloop
endfacet
facet normal -2.6655534287969016e-07 0.9238795325112533 0.3826834323650778
  outer loop
    vertex 46.0 23.068148347421864 13.482361909794957
    vertex 48.99999999999999 23.267950057983395 12.999999999999998
    vertex 46.0 23.267949192431125 12.999999999999998
  endloop
endfacet
facet normal -4.1013402679593606e-18 -0.38268343236508756 -0.9238795325112878
  outer loop
    vertex 49.99999999999999 25.51763809020504 30.931851652578132
    vertex 46.0 25.51763809020504 30.931851652578132
    vertex 49.99999999999999 26.000000000000004 30.73205080756887
  endloop
endfacet
facet normal 4.101340267959404e-18 0.38268343236508934 -0.9238795325112868
  outer loop
    vertex 49.99999999999999 24.48236190979496 30.931851652578132
    vertex 46.0 24.0 30.73205080756887
    vertex 46.0 24.48236190979496 30.931851652578132
  endloop
endfacet
facet normal -1.0 0.0 0.0
  outer loop
    vertex 46.0 35.0 13.999999999999996
    vertex 46.0 26.999999999999996 13.999999999999996
    vertex 46.0 27.0 28.999999999999993
  endloop
endfacet
facet normal -1.0 0.0 9.399888275159659e-16
  outer loop
    vertex 46.0 35.0 13.999999999999996
    vertex 45.99999999999999 40.79999999999999 7.999999999999999
    vertex 46.0 26.999999999999996 13.999999999999996
  endloop
endfacet
facet normal -1.0 0.0 9.399888275159659e-16
  outer loop
    vertex 45.99999999999999 40.79999999999999 7.999999999999999
    vertex 46.0 35.0 13.999999999999996
    vertex 45.99999999999999 44.0 7.999999999999999
  endloop
endfacet
facet normal -1.0 -3.3660426333486605e-16 1.8626407061922024e-16
  outer loop
    vertex 46.0 26.999999999999996 13.999999999999996
    vertex 45.99999999999999 40.26902868225481 7.999999999999999
    vertex 46.0 26.931851652578132 13.482361909794955
  endloop
endfacet
facet normal -1.0 -3.3660426333486605e-16 1.8626407061922024e-16
  outer loop
    vertex 45.99999999999999 40.26902868225481 7.999999999999999
    vertex 46.0 26.999999999999996 13.999999999999996
    vertex 45.99999999999999 40.79999999999999 7.999999999999999
  endloop
endfacet
facet normal -8.20268053591881e-18 0.38268343236508945 -0.9238795325112868
  outer loop
    vertex 49.99999999999999 24.0 30.73205080756887
    vertex 46.0 24.0 30.73205080756887
    vertex 49.99999999999999 24.48236190979496 30.931851652578132
  endloop
endfacet
facet normal -1.0 -3.100734935056772e-16 2.9846374384379525e-16
  outer loop
    vertex 46.0 26.931851652578132 13.482361909794955
    vertex 45.99999999999999 39.65868886311849 7.999999999999999
    vertex 46.0 26.73205080756888 12.999999999999996
  endloop
endfacet
facet normal -1.0 -3.100734935056772e-16 2.9846374384379525e-16
  outer loop
    vertex 45.99999999999999 39.65868886311849 7.999999999999999
    vertex 46.0 26.931851652578132 13.482361909794955
    vertex 45.99999999999999 40.26902868225481 7.999999999999999
  endloop
endfacet
facet normal -1.0 -2.839619033127095e-16 4.198669578687053e-16
  outer loop
    vertex 46.0 26.73205080756888 12.999999999999996
    vertex 45.99999999999999 39.011706293007215 7.999999999999999
    vertex 46.0 26.414213562373092 12.585786437626902
  endloop
endfacet
facet normal -1.0 -2.839619033127095e-16 4.198669578687053e-16
  outer loop
    vertex 45.99999999999999 39.011706293007215 7.999999999999999
    vertex 46.0 26.73205080756888 12.999999999999996
    vertex 45.99999999999999 39.65868886311849 7.999999999999999
  endloop
endfacet
facet normal -1.0 -2.518572216637808e-16 5.62645393545855e-16
  outer loop
    vertex 46.0 26.414213562373092 12.585786437626902
    vertex 45.99999999999999 38.38889804607447 7.999999999999999
    vertex 46.0 25.999999999999996 12.26794919243112
  endloop
endfacet
facet normal -1.0 -2.518572216637808e-16 5.62645393545855e-16
  outer loop
    vertex 45.99999999999999 38.38889804607447 7.999999999999999
    vertex 46.0 26.414213562373092 12.585786437626902
    vertex 45.99999999999999 39.011706293007215 7.999999999999999
  endloop
endfacet
facet normal -1.0 -2.0274690904895632e-16 7.512775337597783e-16
  outer loop
    vertex 46.0 25.999999999999996 12.26794919243112
    vertex 45.99999999999999 37.86221527560006 7.999999999999999
    vertex 46.0 25.51763809020504 12.068148347421861
  endloop
endfacet
facet normal -1.0 -2.0274690904895632e-16 7.512775337597783e-16
  outer loop
    vertex 45.99999999999999 37.86221527560006 7.999999999999999
    vertex 46.0 25.999999999999996 12.26794919243112
    vertex 45.99999999999999 38.38889804607447 7.999999999999999
  endloop
endfacet
facet normal -1.0 -1.0494594448386597e-16 1.0748697481260125e-15
  outer loop
    vertex 46.0 25.51763809020504 12.068148347421861
    vertex 45.99999999999999 37.5 7.999999999999999
    vertex 46.0 25.0 11.999999999999998
  endloop
endfacet
facet normal -1.0 -1.0494594448386597e-16 1.0748697481260125e-15
  outer loop
    vertex 45.99999999999999 37.5 7.999999999999999
    vertex 46.0 25.51763809020504 12.068148347421861
    vertex 45.99999999999999 37.86221527560006 7.999999999999999
  endloop
endfacet
facet normal -1.0 0.0 0.0
  outer loop
    vertex 46.0 35.0 13.999999999999996
    vertex 46.0 27.0 28.999999999999993
    vertex 46.0 35.0 33.999999999999986
  endloop
endfacet
facet normal -1.0 2.5165824265337916e-16 2.189257869475432e-15
  outer loop
    vertex 46.0 25.0 11.999999999999998
    vertex 45.99999999999999 37.348950309731585 7.999999999999999
    vertex 46.0 24.482361909794957 12.068148347421861
  endloop
endfacet
facet normal -1.0 2.5165824265337916e-16 2.189257869475432e-15
  outer loop
    vertex 45.99999999999999 37.348950309731585 7.999999999999999
    vertex 46.0 25.0 11.999999999999998
    vertex 45.99999999999999 37.5 7.999999999999999
  endloop
endfacet
facet normal 0.7071067811865472 3.9575596810606866e-17 -0.7071067811865479
  outer loop
    vertex 45.99999999999999 44.0 7.999999999999999
    vertex 41.99999999999999 4.347826086956521 3.9999999999999996
    vertex 41.99999999999999 50.0 3.9999999999999996
  endloop
endfacet
facet normal 0.7071067811865472 3.9575596810606866e-17 -0.7071067811865479
  outer loop
    vertex 41.99999999999999 4.347826086956521 3.9999999999999996
    vertex 45.99999999999999 44.0 7.999999999999999
    vertex 41.99999999999999 0.0 3.9999999999999996
  endloop
endfacet
facet normal 0.7071067811865472 3.9575596810606866e-17 -0.7071067811865479
  outer loop
    vertex 41.99999999999999 0.0 3.9999999999999996
    vertex 45.99999999999999 44.0 7.999999999999999
    vertex 45.99999999999999 6.0 7.999999999999999
  endloop
endfacet
facet normal 0.7071067811865472 3.9575596810606866e-17 -0.7071067811865479
  outer loop
    vertex 45.99999999999999 6.0 7.999999999999999
    vertex 45.99999999999999 44.0 7.999999999999999
    vertex 45.99999999999999 40.79999999999999 7.999999999999999
  endloop
endfacet
facet normal 0.7071067811865472 3.9575596810606866e-17 -0.7071067811865479
  outer loop
    vertex 45.99999999999999 6.0 7.999999999999999
    vertex 45.99999999999999 40.79999999999999 7.999999999999999
    vertex 45.99999999999999 40.26902868225481 7.999999999999999
  endloop
endfacet
facet normal 0.7071067811865472 3.9575596810606866e-17 -0.7071067811865479
  outer loop
    vertex 45.99999999999999 6.0 7.999999999999999
    vertex 45.99999999999999 40.26902868225481 7.999999999999999
    vertex 45.99999999999999 39.65868886311849 7.999999999999999
  endloop
endfacet
facet normal 0.7071067811865472 3.9575596810606866e-17 -0.7071067811865479
  outer loop
    vertex 45.99999999999999 6.0 7.999999999999999
    vertex 45.99999999999999 39.65868886311849 7.999999999999999
    vertex 45.99999999999999 39.011706293007215 7.999999999999999
  endloop
endfacet
facet normal 0.7071067811865472 3.9575596810606866e-17 -0.7071067811865479
  outer loop
    vertex 45.99999999999999 6.0 7.999999999999999
    vertex 45.99999999999999 39.011706293007215 7.999999999999999
    vertex 45.99999999999999 38.38889804607447 7.999999999999999
  endloop
endfacet
facet normal 0.7071067811865472 3.9575596810606866e-17 -0.7071067811865479
  outer loop
    vertex 45.99999999999999 6.0 7.999999999999999
    vertex 45.99999999999999 38.38889804607447 7.999999999999999
    vertex 45.99999999999999 37.86221527560006 7.999999999999999
  endloop
endfacet
facet normal 0.7071067811865472 3.9575596810606866e-17 -0.7071067811865479
  outer loop
    vertex 45.99999999999999 6.0 7.999999999999999
    vertex 45.99999999999999 37.86221527560006 7.999999999999999
    vertex 45.99999999999999 37.5 7.999999999999999
  endloop
endfacet
facet normal 0.7071067811865472 3.9575596810606866e-17 -0.7071067811865479
  outer loop
    vertex 45.99999999999999 6.0 7.999999999999999
    vertex 45.99999999999999 37.5 7.999999999999999
    vertex 45.99999999999999 37.348950309731585 7.999999999999999
  endloop
endfacet
facet normal 0.7071067811865472 3.9575596810606866e-17 -0.7071067811865479
  outer loop
    vertex 45.99999999999999 6.0 7.999999999999999
    vertex 45.99999999999999 37.348950309731585 7.999999999999999
    vertex 45.99999999999999 36.0 7.999999999999999
  endloop
endfacet
facet normal 0.7071067811865472 3.9575596810606866e-17 -0.7071067811865479
  outer loop
    vertex 45.99999999999999 6.0 7.999999999999999
    vertex 45.99999999999999 36.0 7.999999999999999
    vertex 45.99999999999999 25.0 7.999999999999999
  endloop
endfacet
facet normal -1.0 0.0 0.0
  outer loop
    vertex 46.0 23.0 13.999999999999996
    vertex 46.0 15.0 13.999999999999996
    vertex 46.0 22.999999999999996 28.999999999999993
  endloop
endfacet
facet normal -1.0 0.0 0.0
  outer loop
    vertex 46.0 23.068148347421864 13.482361909794957
    vertex 46.0 15.0 13.999999999999996
    vertex 46.0 23.0 13.999999999999996
  endloop
endfacet
facet normal -1.0 0.0 0.0
  outer loop
    vertex 46.0 23.267949192431125 12.999999999999998
    vertex 46.0 15.0 13.999999999999996
    vertex 46.0 23.068148347421864 13.482361909794957
  endloop
endfacet
facet normal -1.0 0.0 0.0
  outer loop
    vertex 46.0 23.585786437626904 12.585786437626902
    vertex 46.0 15.0 13.999999999999996
    vertex 46.0 23.267949192431125 12.999999999999998
  endloop
endfacet
facet normal -1.0 0.0 0.0
  outer loop
    vertex 46.0 24.0 12.26794919243112
    vertex 46.0 15.0 13.999999999999996
    vertex 46.0 23.585786437626904 12.585786437626902
  endloop
endfacet
facet normal -1.0 0.0 0.0
  outer loop
    vertex 46.0 24.482361909794957 12.068148347421861
    vertex 46.0 15.0 13.999999999999996
    vertex 46.0 24.0 12.26794919243112
  endloop
endfacet
facet normal -1.0 5.947973939585022e-16 3.10726823833466e-15
  outer loop
    vertex 46.0 24.482361909794957 12.068148347421861
    vertex 45.99999999999999 36.0 7.999999999999999
    vertex 46.0 15.0 13.999999999999996
  endloop
endfacet
facet normal -1.0 5.947973939585022e-16 3.10726823833466e-15
  outer loop
    vertex 45.99999999999999 36.0 7.999999999999999
    vertex 46.0 24.482361909794957 12.068148347421861
    vertex 45.99999999999999 37.348950309731585 7.999999999999999
  endloop
endfacet
facet normal -4.6541673036403325e-16 0.130526899736452 0.9914447682272524
  outer loop
    vertex 48.99999999999999 25.0 12.0
    vertex 46.0 25.0 11.999999999999998
    vertex 48.99999999999999 24.482362747192383 12.068148612976072
  endloop
endfacet
facet normal 2.3303950654626715e-08 0.6087623487533321 0.7933526345455254
  outer loop
    vertex 48.99999999999999 24.0 12.26794910430908
    vertex 46.0 24.0 12.26794919243112
    vertex 48.99999999999999 23.585786819458008 12.585786819458006
  endloop
endfacet
facet normal -2.6655502990694363e-07 0.9238784477942811 -0.38268605109300574
  outer loop
    vertex 48.99999999999999 23.267950057983395 14.999999999999998
    vertex 48.99999999999999 23.068147659301754 14.517638206481934
    vertex 46.0 23.267949192431125 14.999999999999998
  endloop
endfacet
facet normal -1.0 0.0 0.0
  outer loop
    vertex 46.0 35.0 33.999999999999986
    vertex 46.0 27.0 28.999999999999993
    vertex 46.0 26.93185165257814 29.517638090205033
  endloop
endfacet
facet normal -1.0 0.0 0.0
  outer loop
    vertex 46.0 35.0 33.999999999999986
    vertex 46.0 26.93185165257814 29.517638090205033
    vertex 46.0 26.73205080756888 29.99999999999999
  endloop
endfacet
facet normal -1.0 0.0 0.0
  outer loop
    vertex 46.0 35.0 33.999999999999986
    vertex 46.0 26.73205080756888 29.99999999999999
    vertex 46.0 26.4142135623731 30.414213562373092
  endloop
endfacet
facet normal -1.0 0.0 0.0
  outer loop
    vertex 46.0 35.0 33.999999999999986
    vertex 46.0 26.4142135623731 30.414213562373092
    vertex 46.0 26.000000000000004 30.73205080756887
  endloop
endfacet
facet normal -1.0 0.0 0.0
  outer loop
    vertex 46.0 35.0 33.999999999999986
    vertex 46.0 26.000000000000004 30.73205080756887
    vertex 46.0 25.51763809020504 30.931851652578132
  endloop
endfacet
facet normal 9.325291323819236e-16 0.13052619222005213 -0.9914448613738105
  outer loop
    vertex 48.99999999999999 25.0 15.999999999999998
    vertex 46.0 24.48236190979496 15.931851652578132
    vertex 46.0 25.0 15.999999999999996
  endloop
endfacet
facet normal -1.0 0.0 0.0
  outer loop
    vertex 46.0 35.0 33.999999999999986
    vertex 46.0 25.51763809020504 30.931851652578132
    vertex 46.0 25.0 30.999999999999993
  endloop
endfacet
facet normal 0.0 -1.0 0.0
  outer loop
    vertex 50.0 0.0 3.9999999999999996
    vertex 0.0 0.0 3.9999999999999996
    vertex 0.0 0.0 0.0
  endloop
endfacet
facet normal 0.0 -1.0 0.0
  outer loop
    vertex 0.0 0.0 3.9999999999999996
    vertex 50.0 0.0 3.9999999999999996
    vertex 41.99999999999999 0.0 3.9999999999999996
  endloop
endfacet
facet normal -1.0 0.0 0.0
  outer loop
    vertex 46.0 35.0 33.999999999999986
    vertex 46.0 25.0 30.999999999999993
    vertex 46.0 24.48236190979496 30.931851652578132
  endloop
endfacet
facet normal -1.7845703724808568e-07 -0.6087623487533226 0.7933526345455129
  outer loop
    vertex 48.99999999999999 26.41421318054199 12.585786819458006
    vertex 46.0 26.414213562373092 12.585786437626902
    vertex 48.99999999999999 25.999999999999996 12.26794910430908
  endloop
endfacet
facet normal -1.0 0.0 0.0
  outer loop
    vertex 46.0 23.06814834742186 29.517638090205036
    vertex 46.0 22.999999999999996 28.999999999999993
    vertex 46.0 15.0 13.999999999999996
  endloop
endfacet
facet normal -1.0 0.0 0.0
  outer loop
    vertex 46.0 35.0 33.999999999999986
    vertex 46.0 24.48236190979496 30.931851652578132
    vertex 46.0 15.0 33.999999999999986
  endloop
endfacet
facet normal 2.324700977680649e-07 -0.9914450357254727 0.1305248678806549
  outer loop
    vertex 48.99999999999999 26.999999999999996 14.0
    vertex 46.0 26.931851652578132 13.482361909794955
    vertex 48.99999999999999 26.931852340698242 13.482361793518066
  endloop
endfacet
facet normal -1.241948853557543e-07 0.13052619222005044 0.9914448613738028
  outer loop
    vertex 48.99999999999999 24.482362747192383 12.068148612976072
    vertex 46.0 25.0 11.999999999999998
    vertex 46.0 24.482361909794957 12.068148347421861
  endloop
endfacet
facet normal -1.0 0.0 0.0
  outer loop
    vertex 46.0 24.48236190979496 30.931851652578132
    vertex 46.0 24.0 30.73205080756887
    vertex 46.0 15.0 33.999999999999986
  endloop
endfacet
facet normal -1.0 0.0 0.0
  outer loop
    vertex 46.0 24.0 30.73205080756887
    vertex 46.0 23.585786437626904 30.414213562373092
    vertex 46.0 15.0 33.999999999999986
  endloop
endfacet
facet normal -1.0 0.0 0.0
  outer loop
    vertex 46.0 23.26794919243112 29.999999999999996
    vertex 46.0 15.0 13.999999999999996
    vertex 46.0 15.0 33.999999999999986
  endloop
endfacet
facet normal -1.0 0.0 0.0
  outer loop
    vertex 46.0 27.0 28.999999999999993
    vertex 46.0 26.93185165257814 14.517638090205036
    vertex 46.0 26.93185165257814 28.482361909794953
  endloop
endfacet
facet normal -1.0 0.0 0.0
  outer loop
    vertex 46.0 26.93185165257814 14.517638090205036
    vertex 46.0 26.73205080756888 14.999999999999995
    vertex 46.0 26.93185165257814 28.482361909794953
  endloop
endfacet
facet normal -1.0 0.0 0.0
  outer loop
    vertex 46.0 26.93185165257814 28.482361909794953
    vertex 46.0 26.73205080756888 14.999999999999995
    vertex 46.0 26.73205080756888 27.99999999999999
  endloop
endfacet
facet normal -1.2419507308473178e-07 0.13052689973645104 -0.9914447682272447
  outer loop
    vertex 48.99999999999999 24.482362747192383 15.931851387023926
    vertex 46.0 24.48236190979496 15.931851652578132
    vertex 48.99999999999999 25.0 15.999999999999998
  endloop
endfacet
facet normal 2.2674577494296193e-07 -0.9238795325112662 0.3826834323650724
  outer loop
    vertex 46.0 26.931851652578132 13.482361909794955
    vertex 46.0 26.73205080756888 12.999999999999996
    vertex 48.99999999999999 26.931852340698242 13.482361793518066
  endloop
endfacet
facet normal -1.0 0.0 0.0
  outer loop
    vertex 46.0 26.73205080756888 14.999999999999995
    vertex 46.0 26.4142135623731 27.585786437626894
    vertex 46.0 26.73205080756888 27.99999999999999
  endloop
endfacet
facet normal 0.0 -0.9914448613738105 -0.13052619222005216
  outer loop
    vertex 46.0 26.93185165257814 29.517638090205033
    vertex 46.0 27.0 28.999999999999993
    vertex 49.99999999999999 26.93185165257814 29.517638090205033
  endloop
endfacet
facet normal -2.2889631302850704e-07 0.7933535167242002 0.6087611990766922
  outer loop
    vertex 48.99999999999999 23.267950057983395 12.999999999999998
    vertex 48.99999999999999 23.585786819458008 12.585786819458006
    vertex 46.0 23.267949192431125 12.999999999999998
  endloop
endfacet
facet normal -1.0 0.0 0.0
  outer loop
    vertex 46.0 26.73205080756888 14.999999999999995
    vertex 46.0 26.414213562373092 15.41421356237309
    vertex 46.0 26.4142135623731 27.585786437626894
  endloop
endfacet
facet normal -1.3079188195520468e-16 -0.9914448613738105 0.1305261922200515
  outer loop
    vertex 48.99999999999999 26.999999999999996 14.0
    vertex 46.0 26.999999999999996 13.999999999999996
    vertex 46.0 26.931851652578132 13.482361909794955
  endloop
endfacet
facet normal 2.3303951775422084e-08 -0.6087623487533304 -0.7933526345455266
  outer loop
    vertex 48.99999999999999 25.999999999999996 15.732050895690916
    vertex 46.0 25.999999999999996 15.732050807568873
    vertex 48.99999999999999 26.41421318054199 15.414213180541992
  endloop
endfacet
facet normal 1.2399746457570289e-16 -0.9914450357254994 -0.1305248678806584
  outer loop
    vertex 48.99999999999999 26.931852340698242 14.517638206481934
    vertex 46.0 26.999999999999996 13.999999999999996
    vertex 48.99999999999999 26.999999999999996 14.0
  endloop
endfacet
facet normal 2.3303971393281923e-08 -0.6087614290087212 0.7933533402912344
  outer loop
    vertex 48.99999999999999 25.999999999999996 12.26794910430908
    vertex 46.0 26.414213562373092 12.585786437626902
    vertex 46.0 25.999999999999996 12.26794919243112
  endloop
endfacet
facet normal -1.0 0.0 0.0
  outer loop
    vertex 46.0 26.4142135623731 27.585786437626894
    vertex 46.0 26.414213562373092 15.41421356237309
    vertex 46.0 25.999999999999996 15.732050807568873
  endloop
endfacet
facet normal 0.0 -0.9914448613738105 -0.13052619222005216
  outer loop
    vertex 49.99999999999999 26.93185165257814 29.517638090205033
    vertex 46.0 27.0 28.999999999999993
    vertex 49.99999999999999 27.0 28.999999999999993
  endloop
endfacet
facet normal -1.0 0.0 0.0
  outer loop
    vertex 46.0 23.26794919243112 29.999999999999996
    vertex 46.0 23.06814834742186 29.517638090205036
    vertex 46.0 15.0 13.999999999999996
  endloop
endfacet
facet normal 2.32470107606354e-07 -0.991444861373785 -0.13052619222003803
  outer loop
    vertex 48.99999999999999 26.931852340698242 14.517638206481934
    vertex 46.0 26.93185165257814 14.517638090205036
    vertex 46.0 26.999999999999996 13.999999999999996
  endloop
endfacet
facet normal -1.7845701004156555e-07 0.7933533402912257 0.6087614290087068
  outer loop
    vertex 46.0 23.267949192431125 12.999999999999998
    vertex 48.99999999999999 23.585786819458008 12.585786819458006
    vertex 46.0 23.585786437626904 12.585786437626902
  endloop
endfacet
facet normal -1.0 0.0 0.0
  outer loop
    vertex 46.0 26.4142135623731 27.585786437626894
    vertex 46.0 25.999999999999996 15.732050807568873
    vertex 46.0 25.999999999999996 27.267949192431114
  endloop
endfacet
facet normal -1.0 0.0 0.0
  outer loop
    vertex 46.0 27.0 28.999999999999993
    vertex 46.0 26.999999999999996 13.999999999999996
    vertex 46.0 26.93185165257814 14.517638090205036
  endloop
endfacet
facet normal -1.0 0.0 0.0
  outer loop
    vertex 46.0 25.999999999999996 15.732050807568873
    vertex 46.0 25.517638090205043 15.931851652578132
    vertex 46.0 25.999999999999996 27.267949192431114
  endloop
endfacet
facet normal -1.7845700854717357e-07 -0.6087614290087116 -0.7933533402912221
  outer loop
    vertex 48.99999999999999 26.41421318054199 15.414213180541992
    vertex 46.0 25.999999999999996 15.732050807568873
    vertex 46.0 26.414213562373092 15.41421356237309
  endloop
endfacet
facet normal 2.267457747971355e-07 0.9238795325112624 -0.38268343236508146
  outer loop
    vertex 46.0 23.267949192431125 14.999999999999998
    vertex 48.99999999999999 23.068147659301754 14.517638206481934
    vertex 46.0 23.068148347421864 14.51763809020504
  endloop
endfacet
facet normal -2.665550320068251e-07 -0.9238784477942802 0.38268605109300846
  outer loop
    vertex 48.99999999999999 26.931852340698242 13.482361793518066
    vertex 46.0 26.73205080756888 12.999999999999996
    vertex 48.99999999999999 26.7320499420166 12.999999999999998
  endloop
endfacet
facet normal -1.0 0.0 0.0
  outer loop
    vertex 46.0 25.999999999999996 27.267949192431114
    vertex 46.0 25.517638090205043 15.931851652578132
    vertex 46.0 25.51763809020504 27.068148347421854
  endloop
endfacet
facet normal -1.0 0.0 0.0
  outer loop
    vertex 46.0 23.585786437626904 30.414213562373092
    vertex 46.0 23.26794919243112 29.999999999999996
    vertex 46.0 15.0 33.999999999999986
  endloop
endfacet
facet normal -1.0 0.0 0.0
  outer loop
    vertex 46.0 25.517638090205043 15.931851652578132
    vertex 46.0 25.0 15.999999999999996
    vertex 46.0 25.51763809020504 27.068148347421854
  endloop
endfacet
facet normal 0.0 1.0 0.0
  outer loop
    vertex 0.0 50.0 3.9999999999999996
    vertex 50.0 50.0 3.9999999999999996
    vertex 50.0 50.0 0.0
  endloop
endfacet
facet normal 0.0 1.0 0.0
  outer loop
    vertex 50.0 50.0 3.9999999999999996
    vertex 0.0 50.0 3.9999999999999996
    vertex 41.99999999999999 50.0 3.9999999999999996
  endloop
endfacet
facet normal -1.0 0.0 0.0
  outer loop
    vertex 46.0 25.51763809020504 27.068148347421854
    vertex 46.0 25.0 15.999999999999996
    vertex 46.0 25.0 26.99999999999999
  endloop
endfacet
facet normal -1.0 0.0 0.0
  outer loop
    vertex 46.0 25.0 15.999999999999996
    vertex 46.0 24.48236190979496 15.931851652578132
    vertex 46.0 25.0 26.99999999999999
  endloop
endfacet
facet normal -1.0 0.0 0.0
  outer loop
    vertex 46.0 24.48236190979496 15.931851652578132
    vertex 46.0 24.0 15.732050807568875
    vertex 46.0 24.482361909794957 27.068148347421854
  endloop
endfacet
facet normal -1.0 0.0 0.0
  outer loop
    vertex 46.0 24.482361909794957 27.068148347421854
    vertex 46.0 24.0 15.732050807568875
    vertex 46.0 24.0 27.267949192431114
  endloop
endfacet
facet normal -1.0 0.0 0.0
  outer loop
    vertex 46.0 24.0 15.732050807568875
    vertex 46.0 23.585786437626908 15.414213562373092
    vertex 46.0 24.0 27.267949192431114
  endloop
endfacet
facet normal -1.0 0.0 0.0
  outer loop
    vertex 46.0 24.0 27.267949192431114
    vertex 46.0 23.585786437626908 15.414213562373092
    vertex 46.0 23.585786437626904 27.585786437626894
  endloop
endfacet
facet normal -2.2889631391155757e-07 -0.793353516724201 -0.608761199076691
  outer loop
    vertex 48.99999999999999 26.41421318054199 15.414213180541992
    vertex 46.0 26.73205080756888 14.999999999999995
    vertex 48.99999999999999 26.7320499420166 14.999999999999998
  endloop
endfacet
facet normal -1.241950744707903e-07 -0.13052689973645099 0.9914447682272447
  outer loop
    vertex 48.99999999999999 25.517637252807617 12.068148612976072
    vertex 46.0 25.51763809020504 12.068148347421861
    vertex 48.99999999999999 25.0 12.0
  endloop
endfacet
facet normal -4.654152682561878e-16 -0.13052619222005213 0.9914448613738105
  outer loop
    vertex 48.99999999999999 25.0 12.0
    vertex 46.0 25.51763809020504 12.068148347421861
    vertex 46.0 25.0 11.999999999999998
  endloop
endfacet
facet normal -1.8859912966091148e-07 0.382682287105126 0.9238800068926455
  outer loop
    vertex 48.99999999999999 24.482362747192383 12.068148612976072
    vertex 46.0 24.482361909794957 12.068148347421861
    vertex 48.99999999999999 24.0 12.26794910430908
  endloop
endfacet
facet normal 2.7138049472880833e-08 0.38268343236508884 0.9238795325112867
  outer loop
    vertex 48.99999999999999 24.0 12.26794910430908
    vertex 46.0 24.482361909794957 12.068148347421861
    vertex 46.0 24.0 12.26794919243112
  endloop
endfacet
facet normal 0.0 0.13052619222005143 0.9914448613738105
  outer loop
    vertex 49.99999999999999 25.0 26.99999999999999
    vertex 46.0 25.0 26.99999999999999
    vertex 49.99999999999999 24.482361909794957 27.068148347421854
  endloop
endfacet
facet normal -1.910920353241626e-18 0.13052619222005143 0.9914448613738105
  outer loop
    vertex 49.99999999999999 24.482361909794957 27.068148347421854
    vertex 46.0 25.0 26.99999999999999
    vertex 46.0 24.482361909794957 27.068148347421854
  endloop
endfacet
facet normal 0.0 -0.13052619222005216 0.9914448613738105
  outer loop
    vertex 49.99999999999999 25.51763809020504 27.068148347421854
    vertex 46.0 25.51763809020504 27.068148347421854
    vertex 49.99999999999999 25.0 26.99999999999999
  endloop
endfacet
facet normal 0.0 -0.13052619222005216 0.9914448613738105
  outer loop
    vertex 49.99999999999999 25.0 26.99999999999999
    vertex 46.0 25.51763809020504 27.068148347421854
    vertex 46.0 25.0 26.99999999999999
  endloop
endfacet
facet normal 0.0 -0.6087614290087127 0.7933533402912413
  outer loop
    vertex 49.99999999999999 26.4142135623731 27.585786437626894
    vertex 46.0 26.4142135623731 27.585786437626894
    vertex 49.99999999999999 25.999999999999996 27.267949192431114
  endloop
endfacet
facet normal -4.776111899952485e-18 -0.6087614290087127 0.7933533402912413
  outer loop
    vertex 49.99999999999999 25.999999999999996 27.267949192431114
    vertex 46.0 26.4142135623731 27.585786437626894
    vertex 46.0 25.999999999999996 27.267949192431114
  endloop
endfacet
facet normal 2.3247009707333902e-07 0.9914450357254712 -0.1305248678806655
  outer loop
    vertex 48.99999999999999 23.068147659301754 14.517638206481934
    vertex 48.99999999999999 22.999999999999996 14.0
    vertex 46.0 23.068148347421864 14.51763809020504
  endloop
endfacet
facet normal 1.0599238225980219e-15 0.9914448613738105 -0.13052619222005143
  outer loop
    vertex 46.0 23.068148347421864 14.51763809020504
    vertex 48.99999999999999 22.999999999999996 14.0
    vertex 46.0 23.0 13.999999999999996
  endloop
endfacet
facet normal 8.051342220394945e-16 0.991445035725498 0.13052486788066905
  outer loop
    vertex 48.99999999999999 22.999999999999996 14.0
    vertex 48.99999999999999 23.068147659301754 13.482361793518066
    vertex 46.0 23.0 13.999999999999996
  endloop
endfacet
facet normal 2.3247010829088788e-07 0.9914448613737836 0.13052619222004863
  outer loop
    vertex 46.0 23.0 13.999999999999996
    vertex 48.99999999999999 23.068147659301754 13.482361793518066
    vertex 46.0 23.068148347421864 13.482361909794957
  endloop
endfacet
facet normal 1.0 6.355226159571886e-17 4.827273523886959e-16
  outer loop
    vertex 50.0 35.0 13.999999999999996
    vertex 49.99999999999999 25.0 26.99999999999999
    vertex 49.99999999999999 24.482361909794957 27.068148347421854
  endloop
endfacet
facet normal 2.2674562713279622e-07 0.9238784477942912 0.38268605109300763
  outer loop
    vertex 46.0 23.068148347421864 13.482361909794957
    vertex 48.99999999999999 23.068147659301754 13.482361793518066
    vertex 48.99999999999999 23.267950057983395 12.999999999999998
  endloop
endfacet
facet normal 1.0 -5.186393083042455e-17 3.939456659070504e-16
  outer loop
    vertex 50.0 35.0 13.999999999999996
    vertex 49.99999999999999 25.51763809020504 27.068148347421854
    vertex 49.99999999999999 25.0 26.99999999999999
  endloop
endfacet
facet normal 1.0 -1.3745319025623697e-16 3.3184135610808815e-16
  outer loop
    vertex 50.0 35.0 13.999999999999996
    vertex 49.99999999999999 25.999999999999996 27.267949192431114
    vertex 49.99999999999999 25.51763809020504 27.068148347421854
  endloop
endfacet
facet normal 1.0 -2.1451848539876806e-16 2.7956593311518447e-16
  outer loop
    vertex 50.0 35.0 13.999999999999996
    vertex 49.99999999999999 26.4142135623731 27.585786437626894
    vertex 49.99999999999999 25.999999999999996 27.267949192431114
  endloop
endfacet
facet normal 1.0 -2.966742036101944e-16 2.276461230672716e-16
  outer loop
    vertex 50.0 35.0 13.999999999999996
    vertex 49.99999999999999 26.73205080756888 27.99999999999999
    vertex 49.99999999999999 26.4142135623731 27.585786437626894
  endloop
endfacet
facet normal 1.0 -4.009353377286531e-16 1.6607285452179536e-16
  outer loop
    vertex 50.0 35.0 13.999999999999996
    vertex 49.99999999999999 26.93185165257814 28.482361909794953
    vertex 49.99999999999999 26.73205080756888 27.99999999999999
  endloop
endfacet
facet normal 1.0 -5.654188608587413e-16 7.443880521508459e-17
  outer loop
    vertex 50.0 35.0 13.999999999999996
    vertex 49.99999999999999 27.0 28.999999999999993
    vertex 49.99999999999999 26.93185165257814 28.482361909794953
  endloop
endfacet
facet normal 1.0 0.0 0.0
  outer loop
    vertex 50.0 50.0 3.9999999999999996
    vertex 50.0 35.0 13.999999999999996
    vertex 50.0 50.0 0.0
  endloop
endfacet
facet normal 1.0 5.9876331391386904e-33 -1.8382204269343718e-15
  outer loop
    vertex 50.0 35.0 33.999999999999986
    vertex 50.0 15.0 33.999999999999986
    vertex 49.99999999999999 24.48236190979496 30.931851652578132
  endloop
endfacet
facet normal 1.0 3.3393077720698496e-16 -8.061802112268773e-16
  outer loop
    vertex 49.99999999999999 24.48236190979496 30.931851652578132
    vertex 50.0 15.0 33.999999999999986
    vertex 49.99999999999999 24.0 30.73205080756887
  endloop
endfacet
facet normal 1.0 4.2537042251639975e-16 -5.543535274795802e-16
  outer loop
    vertex 49.99999999999999 24.0 30.73205080756887
    vertex 50.0 15.0 33.999999999999986
    vertex 49.99999999999999 23.585786437626904 30.414213562373092
  endloop
endfacet
facet normal 1.0 4.974689109797619e-16 -3.817213210752734e-16
  outer loop
    vertex 49.99999999999999 23.585786437626904 30.414213562373092
    vertex 50.0 15.0 33.999999999999986
    vertex 49.99999999999999 23.26794919243112 29.999999999999996
  endloop
endfacet
facet normal 1.0 5.682664647313866e-16 -2.3538367673355055e-16
  outer loop
    vertex 49.99999999999999 23.26794919243112 29.999999999999996
    vertex 50.0 15.0 33.999999999999986
    vertex 49.99999999999999 23.06814834742186 29.517638090205036
  endloop
endfacet
facet normal 1.0 6.513931603429224e-16 -8.575753647048623e-17
  outer loop
    vertex 49.99999999999999 23.06814834742186 29.517638090205036
    vertex 50.0 15.0 33.999999999999986
    vertex 49.99999999999999 22.999999999999996 28.999999999999993
  endloop
endfacet
facet normal 1.0 4.4105867354091957e-16 -3.3501732335020068e-15
  outer loop
    vertex 50.0 35.0 33.999999999999986
    vertex 49.99999999999999 24.48236190979496 30.931851652578132
    vertex 49.99999999999999 25.0 30.999999999999993
  endloop
endfacet
facet normal 1.0 -1.720159770255875e-16 -1.3065910649465795e-15
  outer loop
    vertex 50.0 35.0 33.999999999999986
    vertex 49.99999999999999 25.0 30.999999999999993
    vertex 49.99999999999999 25.51763809020504 30.931851652578132
  endloop
endfacet
facet normal 1.0 -3.339307772070021e-16 -8.061802112268677e-16
  outer loop
    vertex 50.0 35.0 33.999999999999986
    vertex 49.99999999999999 25.51763809020504 30.931851652578132
    vertex 49.99999999999999 26.000000000000004 30.73205080756887
  endloop
endfacet
facet normal 1.0 -4.2537042251640655e-16 -5.543535274795666e-16
  outer loop
    vertex 50.0 35.0 33.999999999999986
    vertex 49.99999999999999 26.000000000000004 30.73205080756887
    vertex 49.99999999999999 26.4142135623731 30.414213562373092
  endloop
endfacet
facet normal 1.0 -4.974689109797599e-16 -3.8172132107527025e-16
  outer loop
    vertex 50.0 35.0 33.999999999999986
    vertex 49.99999999999999 26.4142135623731 30.414213562373092
    vertex 49.99999999999999 26.73205080756888 29.99999999999999
  endloop
endfacet
facet normal 1.0 -5.682664647313866e-16 -2.3538367673356106e-16
  outer loop
    vertex 50.0 35.0 33.999999999999986
    vertex 49.99999999999999 26.73205080756888 29.99999999999999
    vertex 49.99999999999999 26.93185165257814 29.517638090205033
  endloop
endfacet
facet normal 1.0 -6.513931603429224e-16 -8.575753647051018e-17
  outer loop
    vertex 50.0 35.0 33.999999999999986
    vertex 49.99999999999999 26.93185165257814 29.517638090205033
    vertex 49.99999999999999 27.0 28.999999999999993
  endloop
endfacet
facet normal 1.0 -7.049916206369746e-16 1.8788263274016307e-32
  outer loop
    vertex 50.0 35.0 33.999999999999986
    vertex 49.99999999999999 27.0 28.999999999999993
    vertex 50.0 35.0 13.999999999999996
  endloop
endfacet
facet normal 0.0 0.0 1.0
  outer loop
    vertex 41.99999999999999 0.0 3.9999999999999996
    vertex 0.0 50.0 3.9999999999999996
    vertex 0.0 0.0 3.9999999999999996
  endloop
endfacet
facet normal 0.0 0.0 1.0
  outer loop
    vertex 0.0 50.0 3.9999999999999996
    vertex 41.99999999999999 0.0 3.9999999999999996
    vertex 41.99999999999999 4.347826086956521 3.9999999999999996
  endloop
endfacet
facet normal 0.0 0.0 1.0
  outer loop
    vertex 41.99999999999999 50.0 3.9999999999999996
    vertex 0.0 50.0 3.9999999999999996
    vertex 41.99999999999999 4.347826086956521 3.9999999999999996
  endloop
endfacet
facet normal 0.0 -1.0 0.0
  outer loop
    vertex 50.0 15.0 33.999999999999986
    vertex 46.0 15.0 13.999999999999996
    vertex 50.0 15.0 13.999999999999996
  endloop
endfacet
facet normal 0.0 -1.0 0.0
  outer loop
    vertex 46.0 15.0 33.999999999999986
    vertex 46.0 15.0 13.999999999999996
    vertex 50.0 15.0 33.999999999999986
  endloop
endfacet
facet normal 0.0 -0.13052619222005216 -0.9914448613738105
  outer loop
    vertex 49.99999999999999 25.51763809020504 30.931851652578132
    vertex 46.0 25.0 30.999999999999993
    vertex 46.0 25.51763809020504 30.931851652578132
  endloop
endfacet
facet normal 0.0 -0.13052619222005216 -0.9914448613738105
  outer loop
    vertex 49.99999999999999 25.0 30.999999999999993
    vertex 46.0 25.0 30.999999999999993
    vertex 49.99999999999999 25.51763809020504 30.931851652578132
  endloop
endfacet
facet normal -4.7761118999525915e-18 0.6087614290087179 0.7933533402912374
  outer loop
    vertex 49.99999999999999 23.585786437626904 27.585786437626894
    vertex 46.0 24.0 27.267949192431114
    vertex 46.0 23.585786437626904 27.585786437626894
  endloop
endfacet
facet normal 0.0 0.6087614290087179 0.7933533402912372
  outer loop
    vertex 49.99999999999999 24.0 27.267949192431114
    vertex 46.0 24.0 27.267949192431114
    vertex 49.99999999999999 23.585786437626904 27.585786437626894
  endloop
endfacet
facet normal 0.0 0.7933533402912386 0.6087614290087162
  outer loop
    vertex 46.0 23.26794919243112 27.999999999999993
    vertex 49.99999999999999 23.585786437626904 27.585786437626894
    vertex 46.0 23.585786437626904 27.585786437626894
  endloop
endfacet
facet normal 0.0 0.7933533402912386 0.6087614290087162
  outer loop
    vertex 49.99999999999999 23.26794919243112 27.999999999999993
    vertex 49.99999999999999 23.585786437626904 27.585786437626894
    vertex 46.0 23.26794919243112 27.999999999999993
  endloop
endfacet
facet normal -4.101340267959448e-18 -0.9238795325112862 -0.3826834323650913
  outer loop
    vertex 49.99999999999999 26.73205080756888 29.99999999999999
    vertex 46.0 26.93185165257814 29.517638090205033
    vertex 49.99999999999999 26.93185165257814 29.517638090205033
  endloop
endfacet
facet normal 0.0 -0.9238795325112862 -0.3826834323650913
  outer loop
    vertex 46.0 26.73205080756888 29.99999999999999
    vertex 46.0 26.93185165257814 29.517638090205033
    vertex 49.99999999999999 26.73205080756888 29.99999999999999
  endloop
endfacet
facet normal 9.552223799904974e-18 -0.7933533402912413 -0.6087614290087128
  outer loop
    vertex 49.99999999999999 26.4142135623731 30.414213562373092
    vertex 46.0 26.73205080756888 29.99999999999999
    vertex 49.99999999999999 26.73205080756888 29.99999999999999
  endloop
endfacet
facet normal 1.9104447599809944e-17 -0.7933533402912412 -0.6087614290087128
  outer loop
    vertex 46.0 26.4142135623731 30.414213562373092
    vertex 46.0 26.73205080756888 29.99999999999999
    vertex 49.99999999999999 26.4142135623731 30.414213562373092
  endloop
endfacet
facet normal -1.0 0.0 0.0
  outer loop
    vertex 48.99999999999999 23.068147659301754 13.482361793518066
    vertex 48.99999999999999 22.999999999999996 14.0
    vertex 48.99999999999999 23.068147659301754 14.517638206481934
  endloop
endfacet
facet normal -1.0 0.0 0.0
  outer loop
    vertex 48.99999999999999 23.267950057983395 14.999999999999998
    vertex 48.99999999999999 23.068147659301754 13.482361793518066
    vertex 48.99999999999999 23.068147659301754 14.517638206481934
  endloop
endfacet
facet normal -1.0 0.0 0.0
  outer loop
    vertex 48.99999999999999 23.267950057983395 12.999999999999998
    vertex 48.99999999999999 23.068147659301754 13.482361793518066
    vertex 48.99999999999999 23.267950057983395 14.999999999999998
  endloop
endfacet
facet normal -1.0 0.0 0.0
  outer loop
    vertex 48.99999999999999 23.585786819458008 15.414213180541992
    vertex 48.99999999999999 23.267950057983395 12.999999999999998
    vertex 48.99999999999999 23.267950057983395 14.999999999999998
  endloop
endfacet
facet normal -1.0 0.0 0.0
  outer loop
    vertex 48.99999999999999 23.585786819458008 12.585786819458006
    vertex 48.99999999999999 23.267950057983395 12.999999999999998
    vertex 48.99999999999999 23.585786819458008 15.414213180541992
  endloop
endfacet
facet normal -1.0 0.0 0.0
  outer loop
    vertex 48.99999999999999 24.0 12.26794910430908
    vertex 48.99999999999999 23.585786819458008 12.585786819458006
    vertex 48.99999999999999 23.585786819458008 15.414213180541992
  endloop
endfacet
facet normal -1.0 0.0 0.0
  outer loop
    vertex 48.99999999999999 24.0 12.26794910430908
    vertex 48.99999999999999 23.585786819458008 15.414213180541992
    vertex 48.99999999999999 24.0 15.732050895690916
  endloop
endfacet
facet normal -1.0 0.0 0.0
  outer loop
    vertex 48.99999999999999 24.482362747192383 12.068148612976072
    vertex 48.99999999999999 24.0 12.26794910430908
    vertex 48.99999999999999 24.0 15.732050895690916
  endloop
endfacet
facet normal -1.0 0.0 0.0
  outer loop
    vertex 48.99999999999999 24.482362747192383 12.068148612976072
    vertex 48.99999999999999 24.0 15.732050895690916
    vertex 48.99999999999999 24.482362747192383 15.931851387023926
  endloop
endfacet
facet normal -1.0 0.0 0.0
  outer loop
    vertex 48.99999999999999 25.0 12.0
    vertex 48.99999999999999 24.482362747192383 12.068148612976072
    vertex 48.99999999999999 24.482362747192383 15.931851387023926
  endloop
endfacet
facet normal -1.0 0.0 0.0
  outer loop
    vertex 48.99999999999999 25.0 12.0
    vertex 48.99999999999999 24.482362747192383 15.931851387023926
    vertex 48.99999999999999 25.0 15.999999999999998
  endloop
endfacet
facet normal -1.0 0.0 0.0
  outer loop
    vertex 48.99999999999999 25.517637252807617 15.931851387023926
    vertex 48.99999999999999 25.0 12.0
    vertex 48.99999999999999 25.0 15.999999999999998
  endloop
endfacet
facet normal -1.0 0.0 0.0
  outer loop
    vertex 48.99999999999999 25.517637252807617 12.068148612976072
    vertex 48.99999999999999 25.0 12.0
    vertex 48.99999999999999 25.517637252807617 15.931851387023926
  endloop
endfacet
facet normal -1.0 0.0 0.0
  outer loop
    vertex 48.99999999999999 25.999999999999996 12.26794910430908
    vertex 48.99999999999999 25.517637252807617 12.068148612976072
    vertex 48.99999999999999 25.517637252807617 15.931851387023926
  endloop
endfacet
facet normal -1.0 0.0 0.0
  outer loop
    vertex 48.99999999999999 25.999999999999996 12.26794910430908
    vertex 48.99999999999999 25.517637252807617 15.931851387023926
    vertex 48.99999999999999 25.999999999999996 15.732050895690916
  endloop
endfacet
facet normal -1.0 0.0 0.0
  outer loop
    vertex 48.99999999999999 26.41421318054199 15.414213180541992
    vertex 48.99999999999999 25.999999999999996 12.26794910430908
    vertex 48.99999999999999 25.999999999999996 15.732050895690916
  endloop
endfacet
facet normal -1.0 0.0 0.0
  outer loop
    vertex 48.99999999999999 26.41421318054199 12.585786819458006
    vertex 48.99999999999999 25.999999999999996 12.26794910430908
    vertex 48.99999999999999 26.41421318054199 15.414213180541992
  endloop
endfacet
facet normal -1.0 0.0 0.0
  outer loop
    vertex 48.99999999999999 26.7320499420166 14.999999999999998
    vertex 48.99999999999999 26.41421318054199 12.585786819458006
    vertex 48.99999999999999 26.41421318054199 15.414213180541992
  endloop
endfacet
facet normal -1.0 0.0 0.0
  outer loop
    vertex 48.99999999999999 26.7320499420166 12.999999999999998
    vertex 48.99999999999999 26.41421318054199 12.585786819458006
    vertex 48.99999999999999 26.7320499420166 14.999999999999998
  endloop
endfacet
facet normal -1.0 0.0 0.0
  outer loop
    vertex 48.99999999999999 26.931852340698242 14.517638206481934
    vertex 48.99999999999999 26.7320499420166 12.999999999999998
    vertex 48.99999999999999 26.7320499420166 14.999999999999998
  endloop
endfacet
facet normal -1.0 0.0 0.0
  outer loop
    vertex 48.99999999999999 26.931852340698242 13.482361793518066
    vertex 48.99999999999999 26.7320499420166 12.999999999999998
    vertex 48.99999999999999 26.931852340698242 14.517638206481934
  endloop
endfacet
facet normal -1.0 0.0 0.0
  outer loop
    vertex 48.99999999999999 26.999999999999996 14.0
    vertex 48.99999999999999 26.931852340698242 13.482361793518066
    vertex 48.99999999999999 26.931852340698242 14.517638206481934
  endloop
endfacet
facet normal 0.0 0.13052619222005216 -0.9914448613738105
  outer loop
    vertex 49.99999999999999 25.0 30.999999999999993
    vertex 46.0 24.48236190979496 30.931851652578132
    vertex 46.0 25.0 30.999999999999993
  endloop
endfacet
facet normal 0.0 0.13052619222005216 -0.9914448613738105
  outer loop
    vertex 49.99999999999999 24.48236190979496 30.931851652578132
    vertex 46.0 24.48236190979496 30.931851652578132
    vertex 49.99999999999999 25.0 30.999999999999993
  endloop
endfacet
facet normal 4.776111899952592e-18 -0.6087614290087179 -0.7933533402912372
  outer loop
    vertex 49.99999999999999 26.4142135623731 30.414213562373092
    vertex 46.0 26.000000000000004 30.73205080756887
    vertex 46.0 26.4142135623731 30.414213562373092
  endloop
endfacet
facet normal 1.910444759981037e-17 -0.6087614290087179 -0.7933533402912372
  outer loop
    vertex 49.99999999999999 26.000000000000004 30.73205080756887
    vertex 46.0 26.000000000000004 30.73205080756887
    vertex 49.99999999999999 26.4142135623731 30.414213562373092
  endloop
endfacet
facet normal -1.7845700319681756e-07 -0.7933535167242081 0.6087611990766985
  outer loop
    vertex 48.99999999999999 26.7320499420166 12.999999999999998
    vertex 46.0 26.414213562373092 12.585786437626902
    vertex 48.99999999999999 26.41421318054199 12.585786819458006
  endloop
endfacet
facet normal -2.2889626418087125e-07 -0.7933533402912102 0.6087614290087101
  outer loop
    vertex 48.99999999999999 26.7320499420166 12.999999999999998
    vertex 46.0 26.73205080756888 12.999999999999996
    vertex 46.0 26.414213562373092 12.585786437626902
  endloop
endfacet
facet normal -1.097914730998965e-16 -0.554700196225229 0.8320502943378438
  outer loop
    vertex 50.0 0.0 3.9999999999999996
    vertex 45.99999999999999 6.0 7.999999999999999
    vertex 41.99999999999999 0.0 3.9999999999999996
  endloop
endfacet
facet normal -1.097914730998965e-16 -0.554700196225229 0.8320502943378438
  outer loop
    vertex 45.99999999999999 6.0 7.999999999999999
    vertex 50.0 0.0 3.9999999999999996
    vertex 46.0 15.0 13.999999999999996
  endloop
endfacet
facet normal -1.097914730998965e-16 -0.554700196225229 0.8320502943378438
  outer loop
    vertex 46.0 15.0 13.999999999999996
    vertex 50.0 0.0 3.9999999999999996
    vertex 50.0 15.0 13.999999999999996
  endloop
endfacet
facet normal 0.0 1.0 0.0
  outer loop
    vertex 46.0 35.0 33.999999999999986
    vertex 50.0 35.0 13.999999999999996
    vertex 46.0 35.0 13.999999999999996
  endloop
endfacet
facet normal 0.0 1.0 0.0
  outer loop
    vertex 50.0 35.0 33.999999999999986
    vertex 50.0 35.0 13.999999999999996
    vertex 46.0 35.0 33.999999999999986
  endloop
endfacet
facet normal 0.0 0.0 1.0
  outer loop
    vertex 50.0 15.0 33.999999999999986
    vertex 46.0 35.0 33.999999999999986
    vertex 46.0 15.0 33.999999999999986
  endloop
endfacet
facet normal 0.0 0.0 1.0
  outer loop
    vertex 50.0 35.0 33.999999999999986
    vertex 46.0 35.0 33.999999999999986
    vertex 50.0 15.0 33.999999999999986
  endloop
endfacet
facet normal -9.552223799905185e-18 0.6087614290087179 -0.7933533402912372
  outer loop
    vertex 49.99999999999999 24.0 30.73205080756887
    vertex 46.0 23.585786437626904 30.414213562373092
    vertex 46.0 24.0 30.73205080756887
  endloop
endfacet
facet normal 0.0 0.6087614290087179 -0.7933533402912372
  outer loop
    vertex 49.99999999999999 23.585786437626904 30.414213562373092
    vertex 46.0 23.585786437626904 30.414213562373092
    vertex 49.99999999999999 24.0 30.73205080756887
  endloop
endfacet
facet normal -9.552223799905152e-18 0.7933533402912345 -0.6087614290087214
  outer loop
    vertex 46.0 23.585786437626904 30.414213562373092
    vertex 49.99999999999999 23.26794919243112 29.999999999999996
    vertex 46.0 23.26794919243112 29.999999999999996
  endloop
endfacet
facet normal 0.0 0.7933533402912347 -0.6087614290087214
  outer loop
    vertex 49.99999999999999 23.585786437626904 30.414213562373092
    vertex 49.99999999999999 23.26794919243112 29.999999999999996
    vertex 46.0 23.585786437626904 30.414213562373092
  endloop
endfacet
facet normal -4.10134026795945e-18 0.9238795325112862 -0.3826834323650914
  outer loop
    vertex 46.0 23.26794919243112 29.999999999999996
    vertex 49.99999999999999 23.06814834742186 29.517638090205036
    vertex 46.0 23.06814834742186 29.517638090205036
  endloop
endfacet
facet normal 4.101340267959448e-18 0.9238795325112862 -0.3826834323650913
  outer loop
    vertex 49.99999999999999 23.26794919243112 29.999999999999996
    vertex 49.99999999999999 23.06814834742186 29.517638090205036
    vertex 46.0 23.26794919243112 29.999999999999996
  endloop
endfacet
facet normal 0.0 0.9914448613738105 -0.13052619222005077
  outer loop
    vertex 46.0 23.06814834742186 29.517638090205036
    vertex 49.99999999999999 22.999999999999996 28.999999999999993
    vertex 46.0 22.999999999999996 28.999999999999993
  endloop
endfacet
facet normal 0.0 0.9914448613738105 -0.13052619222005077
  outer loop
    vertex 49.99999999999999 23.06814834742186 29.517638090205036
    vertex 49.99999999999999 22.999999999999996 28.999999999999993
    vertex 46.0 23.06814834742186 29.517638090205036
  endloop
endfacet
facet normal 0.0 0.9914448613738105 0.13052619222005216
  outer loop
    vertex 46.0 22.999999999999996 28.999999999999993
    vertex 49.99999999999999 23.06814834742186 28.482361909794953
    vertex 46.0 23.06814834742186 28.482361909794953
  endloop
endfacet
facet normal 0.0 0.9914448613738105 0.13052619222005216
  outer loop
    vertex 49.99999999999999 22.999999999999996 28.999999999999993
    vertex 49.99999999999999 23.06814834742186 28.482361909794953
    vertex 46.0 22.999999999999996 28.999999999999993
  endloop
endfacet
facet normal -1.8859940697390982e-07 -0.3826834323650821 0.9238795325112706
  outer loop
    vertex 48.99999999999999 25.517637252807617 12.068148612976072
    vertex 46.0 25.999999999999996 12.26794919243112
    vertex 46.0 25.51763809020504 12.068148347421861
  endloop
endfacet
facet normal 2.7138063399858047e-08 -0.38268228710513463 0.9238800068926606
  outer loop
    vertex 48.99999999999999 25.999999999999996 12.26794910430908
    vertex 46.0 25.999999999999996 12.26794919243112
    vertex 48.99999999999999 25.517637252807617 12.068148612976072
  endloop
endfacet
facet normal -4.10134026795936e-18 -0.38268343236508745 -0.9238795325112878
  outer loop
    vertex 49.99999999999999 26.000000000000004 30.73205080756887
    vertex 46.0 25.51763809020504 30.931851652578132
    vertex 46.0 26.000000000000004 30.73205080756887
  endloop
endfacet
facet normal 1.0 0.0 0.0
  outer loop
    vertex 50.0 50.0 0.0
    vertex 50.0 35.0 13.999999999999996
    vertex 50.0 15.0 13.999999999999996
  endloop
endfacet
facet normal -2.665553442577404e-07 -0.9238795325112533 -0.38268343236507774
  outer loop
    vertex 48.99999999999999 26.7320499420166 14.999999999999998
    vertex 46.0 26.73205080756888 14.999999999999995
    vertex 46.0 26.93185165257814 14.517638090205036
  endloop
endfacet
facet normal 1.0 0.0 0.0
  outer loop
    vertex 50.0 50.0 0.0
    vertex 50.0 0.0 3.9999999999999996
    vertex 50.0 0.0 0.0
  endloop
endfacet
facet normal 0.0 1.0 0.0
  outer loop
    vertex 0.0 50.0 3.9999999999999996
    vertex 50.0 50.0 0.0
    vertex 0.0 50.0 0.0
  endloop
endfacet
facet normal -1.8859940566877237e-07 0.3826834323650798 -0.9238795325112715
  outer loop
    vertex 48.99999999999999 24.482362747192383 15.931851387023926
    vertex 46.0 24.0 15.732050807568875
    vertex 46.0 24.48236190979496 15.931851652578132
  endloop
endfacet
facet normal 2.2674562697239028e-07 -0.9238784477942883 -0.382686051093014
  outer loop
    vertex 48.99999999999999 26.7320499420166 14.999999999999998
    vertex 46.0 26.93185165257814 14.517638090205036
    vertex 48.99999999999999 26.931852340698242 14.517638206481934
  endloop
endfacet
facet normal 4.101340267959448e-18 -0.3826834323650913 0.9238795325112862
  outer loop
    vertex 49.99999999999999 25.999999999999996 27.267949192431114
    vertex 46.0 25.999999999999996 27.267949192431114
    vertex 49.99999999999999 25.51763809020504 27.068148347421854
  endloop
endfacet
facet normal -1.7845703595747314e-07 0.6087623487533209 -0.7933526345455142
  outer loop
    vertex 48.99999999999999 23.585786819458008 15.414213180541992
    vertex 46.0 23.585786437626908 15.414213562373092
    vertex 48.99999999999999 24.0 15.732050895690916
  endloop
endfacet
facet normal -1.9109203532416472e-18 -0.9914448613738103 0.13052619222005216
  outer loop
    vertex 49.99999999999999 27.0 28.999999999999993
    vertex 46.0 26.93185165257814 28.482361909794953
    vertex 49.99999999999999 26.93185165257814 28.482361909794953
  endloop
endfacet
facet normal -2.2889626211759042e-07 0.793353340291214 -0.6087614290087054
  outer loop
    vertex 46.0 23.585786437626908 15.414213562373092
    vertex 48.99999999999999 23.267950057983395 14.999999999999998
    vertex 46.0 23.267949192431125 14.999999999999998
  endloop
endfacet
facet normal 1.0 0.0 0.0
  outer loop
    vertex 50.0 35.0 13.999999999999996
    vertex 50.0 15.0 33.999999999999986
    vertex 50.0 15.0 13.999999999999996
  endloop
endfacet
facet normal 0.0 -0.7933533402912372 0.6087614290087179
  outer loop
    vertex 49.99999999999999 26.73205080756888 27.99999999999999
    vertex 46.0 26.4142135623731 27.585786437626894
    vertex 49.99999999999999 26.4142135623731 27.585786437626894
  endloop
endfacet
facet normal 1.0 0.0 0.0
  outer loop
    vertex 50.0 50.0 0.0
    vertex 50.0 15.0 13.999999999999996
    vertex 50.0 0.0 3.9999999999999996
  endloop
endfacet
facet normal 1.0 2.681639105699781e-16 6.474049498369685e-16
  outer loop
    vertex 50.0 35.0 13.999999999999996
    vertex 49.99999999999999 24.482361909794957 27.068148347421854
    vertex 49.99999999999999 24.0 27.267949192431114
  endloop
endfacet
facet normal 1.0 8.964899355690666e-16 1.1683284305309005e-15
  outer loop
    vertex 50.0 35.0 13.999999999999996
    vertex 49.99999999999999 24.0 27.267949192431114
    vertex 49.99999999999999 23.585786437626904 27.585786437626894
  endloop
endfacet
facet normal 1.0 7.682013904514122e-16 1.0113563170309789e-16
  outer loop
    vertex 49.99999999999999 23.06814834742186 28.482361909794953
    vertex 49.99999999999999 22.999999999999996 28.999999999999993
    vertex 50.0 15.0 33.999999999999986
  endloop
endfacet
facet normal 1.0 9.753167815298023e-16 4.039894385197139e-16
  outer loop
    vertex 49.99999999999999 23.26794919243112 27.999999999999993
    vertex 49.99999999999999 23.06814834742186 28.482361909794953
    vertex 50.0 15.0 33.999999999999986
  endloop
endfacet
facet normal 1.0 1.5392883647963194e-15 1.1811375045901013e-15
  outer loop
    vertex 49.99999999999999 23.585786437626904 27.585786437626894
    vertex 49.99999999999999 23.26794919243112 27.999999999999993
    vertex 50.0 15.0 33.999999999999986
  endloop
endfacet
facet normal 1.0 2.5971649532768103e-15 2.5971649532768107e-15
  outer loop
    vertex 50.0 35.0 13.999999999999996
    vertex 49.99999999999999 23.585786437626904 27.585786437626894
    vertex 50.0 15.0 33.999999999999986
  endloop
endfacet
facet normal -1.0 0.0 0.0
  outer loop
    vertex 46.0 15.0 13.999999999999996
    vertex 46.0 23.06814834742186 29.517638090205036
    vertex 46.0 22.999999999999996 28.999999999999993
  endloop
endfacet
facet normal -1.0 0.0 0.0
  outer loop
    vertex 46.0 23.06814834742186 29.517638090205036
    vertex 46.0 15.0 13.999999999999996
    vertex 46.0 23.26794919243112 29.999999999999996
  endloop
endfacet
facet normal -1.0 -1.2890055738189873e-32 9.399888275159663e-16
  outer loop
    vertex 46.0 15.0 13.999999999999996
    vertex 45.99999999999999 25.0 7.999999999999999
    vertex 45.99999999999999 6.0 7.999999999999999
  endloop
endfacet
facet normal -1.0 -1.2890055738189873e-32 9.399888275159663e-16
  outer loop
    vertex 45.99999999999999 25.0 7.999999999999999
    vertex 46.0 15.0 13.999999999999996
    vertex 45.99999999999999 36.0 7.999999999999999
  endloop
endfacet
endsolid support_moteur_X
