solid support_cable_sup
facet normal 1.0 0.0 0.0
  outer loop
    vertex 12.500000000000002 16.999999999999996 3.0
    vertex 12.500000000000002 3.0 13.000000000000002
    vertex 12.500000000000002 3.0 3.0
  endloop
endfacet
facet normal 1.0 0.0 0.0
  outer loop
    vertex 12.500000000000002 3.0 13.000000000000002
    vertex 12.500000000000002 0.0 23.000000000000004
    vertex 12.500000000000002 0.0 13.000000000000002
  endloop
endfacet
facet normal 1.0 0.0 0.0
  outer loop
    vertex 12.500000000000002 0.0 23.000000000000004
    vertex 12.500000000000002 3.0 13.000000000000002
    vertex 12.500000000000002 19.999999999999996 23.000000000000004
  endloop
endfacet
facet normal 1.0 0.0 0.0
  outer loop
    vertex 12.500000000000002 19.999999999999996 23.000000000000004
    vertex 12.500000000000002 3.0 13.000000000000002
    vertex 12.500000000000002 16.999999999999996 13.000000000000002
  endloop
endfacet
facet normal 1.0 0.0 0.0
  outer loop
    vertex 12.500000000000002 16.999999999999996 13.000000000000002
    vertex 12.500000000000002 3.0 13.000000000000002
    vertex 12.500000000000002 16.999999999999996 3.0
  endloop
endfacet
facet normal 1.0 0.0 0.0
  outer loop
    vertex 12.500000000000002 19.999999999999996 23.000000000000004
    vertex 12.500000000000002 16.999999999999996 13.000000000000002
    vertex 12.500000000000002 19.999999999999996 13.000000000000002
  endloop
endfacet
facet normal 0.0 1.0 0.0
  outer loop
    vertex 12.500000000000002 0.0 13.000000000000002
    vertex 12.500000000000002 0.0 3.0
    vertex 0.0 0.0 3.0
  endloop
endfacet
facet normal 0.0 -1.0 0.0
  outer loop
    vertex 12.500000000000002 19.999999999999996 13.000000000000002
    vertex 0.0 19.999999999999996 3.0
    vertex 12.500000000000002 19.999999999999996 3.0
  endloop
endfacet
facet normal 0.0 0.0 -1.0
  outer loop
    vertex 45.99999999999999 2.999999999999999 3.0
    vertex 33.5 0.0 3.0
    vertex 33.5 2.9999999999999996 3.0
  endloop
endfacet
facet normal 0.0 0.0 -1.0
  outer loop
    vertex 33.5 0.0 3.0
    vertex 45.99999999999999 2.999999999999999 3.0
    vertex 45.99999999999999 0.0 3.0
  endloop
endfacet
facet normal -1.0 0.0 0.0
  outer loop
    vertex 33.5 19.999999999999996 23.000000000000004
    vertex 33.5 0.0 13.000000000000002
    vertex 33.5 0.0 23.000000000000004
  endloop
endfacet
facet normal -1.0 0.0 0.0
  outer loop
    vertex 33.5 0.0 13.000000000000002
    vertex 33.5 19.999999999999996 23.000000000000004
    vertex 33.5 3.0000000000000027 13.000000000000002
  endloop
endfacet
facet normal -1.0 0.0 0.0
  outer loop
    vertex 33.5 3.0000000000000027 13.000000000000002
    vertex 33.5 19.999999999999996 23.000000000000004
    vertex 33.5 16.999999999999996 13.000000000000002
  endloop
endfacet
facet normal -1.0 0.0 0.0
  outer loop
    vertex 33.5 16.999999999999996 13.000000000000002
    vertex 33.5 19.999999999999996 23.000000000000004
    vertex 33.5 19.999999999999996 13.000000000000002
  endloop
endfacet
facet normal -1.0 0.0 0.0
  outer loop
    vertex 33.5 3.0000000000000027 13.000000000000002
    vertex 33.5 16.999999999999996 3.0
    vertex 33.5 2.9999999999999996 3.0
  endloop
endfacet
facet normal -1.0 0.0 0.0
  outer loop
    vertex 33.5 16.999999999999996 3.0
    vertex 33.5 3.0000000000000027 13.000000000000002
    vertex 33.5 16.999999999999996 13.000000000000002
  endloop
endfacet
facet normal 0.5806264631643084 -0.8141700745380575 -9.421073725236604e-32
  outer loop
    vertex 7.30288122725297 8.31539003639525 3.0
    vertex 7.188777207265873 8.234016603951755 0.0
    vertex 7.30288122725297 8.31539003639525 0.0
  endloop
endfacet
facet normal 0.5806264631643084 -0.8141700745380575 -9.421073725236604e-32
  outer loop
    vertex 7.188777207265873 8.234016603951755 0.0
    vertex 7.30288122725297 8.31539003639525 3.0
    vertex 7.188777207265873 8.234016603951755 3.0
  endloop
endfacet
facet normal 0.0 0.0 -1.0
  outer loop
    vertex 12.500000000000002 19.999999999999996 3.0
    vertex 0.0 16.999999999999996 3.0
    vertex 0.0 19.999999999999996 3.0
  endloop
endfacet
facet normal 0.0 0.0 -1.0
  outer loop
    vertex 0.0 16.999999999999996 3.0
    vertex 12.500000000000002 19.999999999999996 3.0
    vertex 12.500000000000002 16.999999999999996 3.0
  endloop
endfacet
facet normal 0.6246950475544244 0.0 -0.7808688094430305
  outer loop
    vertex 12.500000000000002 19.999999999999996 13.000000000000002
    vertex 0.0 16.999999999999996 3.0
    vertex 0.0 19.999999999999996 3.0
  endloop
endfacet
facet normal 0.6246950475544244 0.0 -0.7808688094430305
  outer loop
    vertex 0.0 16.999999999999996 3.0
    vertex 12.500000000000002 19.999999999999996 13.000000000000002
    vertex 12.500000000000002 16.999999999999996 13.000000000000002
  endloop
endfacet
facet normal -1.0 -0.0 -0.0
  outer loop
    vertex 15.500000000000002 19.999999999999996 23.000000000000004
    vertex 15.500000000000002 0.0 3.0
    vertex 15.500000000000002 0.0 23.000000000000004
  endloop
endfacet
facet normal -1.0 -0.0 -0.0
  outer loop
    vertex 15.500000000000002 0.0 3.0
    vertex 15.500000000000002 19.999999999999996 23.000000000000004
    vertex 15.500000000000002 19.999999999999996 3.0
  endloop
endfacet
facet normal 1.0 0.0 0.0
  outer loop
    vertex 12.500000000000002 3.0 3.0
    vertex 12.500000000000002 0.0 13.000000000000002
    vertex 12.500000000000002 0.0 3.0
  endloop
endfacet
facet normal 1.0 0.0 0.0
  outer loop
    vertex 12.500000000000002 0.0 13.000000000000002
    vertex 12.500000000000002 3.0 3.0
    vertex 12.500000000000002 3.0 13.000000000000002
  endloop
endfacet
facet normal 0.35011937495429485 -0.9367050887454462 -8.793375834557511e-32
  outer loop
    vertex 7.188777207265873 8.234016603951755 3.0
    vertex 6.699719013397519 8.051217608610761 0.0
    vertex 7.188777207265873 8.234016603951755 0.0
  endloop
endfacet
facet normal 0.35011937495429485 -0.9367050887454462 -8.793375834557511e-32
  outer loop
    vertex 6.699719013397519 8.051217608610761 0.0
    vertex 7.188777207265873 8.234016603951755 3.0
    vertex 6.699719013397519 8.051217608610761 3.0
  endloop
endfacet
facet normal 0.5806264631643101 -0.8141700745380563 -9.421073725236607e-32
  outer loop
    vertex 7.6138592858617455 8.537164449307888 3.0
    vertex 7.30288122725297 8.31539003639525 0.0
    vertex 7.6138592858617455 8.537164449307888 0.0
  endloop
endfacet
facet normal 0.5806264631643101 -0.8141700745380563 -9.421073725236607e-32
  outer loop
    vertex 7.30288122725297 8.31539003639525 0.0
    vertex 7.6138592858617455 8.537164449307888 3.0
    vertex 7.30288122725297 8.31539003639525 3.0
  endloop
endfacet
facet normal 0.0 0.0 -1.0
  outer loop
    vertex 15.500000000000002 19.999999999999996 23.000000000000004
    vertex 12.500000000000002 0.0 23.000000000000004
    vertex 12.500000000000002 19.999999999999996 23.000000000000004
  endloop
endfacet
facet normal 0.0 0.0 -1.0
  outer loop
    vertex 12.500000000000002 0.0 23.000000000000004
    vertex 15.500000000000002 19.999999999999996 23.000000000000004
    vertex 15.500000000000002 0.0 23.000000000000004
  endloop
endfacet
facet normal 0.0 0.0 1.0
  outer loop
    vertex 0.0 0.0 0.0
    vertex 4.484016603951756 9.06122279273413 0.0
    vertex 0.0 19.999999999999996 0.0
  endloop
endfacet
facet normal 0.0 0.0 1.0
  outer loop
    vertex 4.484016603951756 9.06122279273413 0.0
    vertex 0.0 0.0 0.0
    vertex 4.787164449307888 8.636140714138255 0.0
  endloop
endfacet
facet normal 0.0 0.0 1.0
  outer loop
    vertex 4.787164449307888 8.636140714138255 0.0
    vertex 0.0 0.0 0.0
    vertex 5.1900021199936415 8.304003391989824 0.0
  endloop
endfacet
facet normal 0.0 0.0 1.0
  outer loop
    vertex 5.1900021199936415 8.304003391989824 0.0
    vertex 0.0 0.0 0.0
    vertex 5.665076894472506 8.087445435910372 0.0
  endloop
endfacet
facet normal 0.0 0.0 1.0
  outer loop
    vertex 5.665076894472506 8.087445435910372 0.0
    vertex 0.0 0.0 0.0
    vertex 45.99999999999999 0.0 0.0
  endloop
endfacet
facet normal 0.0 0.0 1.0
  outer loop
    vertex 0.0 19.999999999999996 0.0
    vertex 4.484016603951756 9.06122279273413 0.0
    vertex 4.301217608610761 9.550280986602482 0.0
  endloop
endfacet
facet normal 0.0 0.0 1.0
  outer loop
    vertex 0.0 19.999999999999996 0.0
    vertex 4.301217608610761 9.550280986602482 0.0
    vertex 4.2512249127277695 10.06998678803807 0.0
  endloop
endfacet
facet normal 0.0 0.0 1.0
  outer loop
    vertex 5.665076894472506 8.087445435910372 0.0
    vertex 45.99999999999999 0.0 0.0
    vertex 6.180013211961932 8.00122491272777 0.0
  endloop
endfacet
facet normal 0.0 0.0 1.0
  outer loop
    vertex 6.180013211961932 8.00122491272777 0.0
    vertex 45.99999999999999 0.0 0.0
    vertex 6.699719013397519 8.051217608610761 0.0
  endloop
endfacet
facet normal 0.0 0.0 1.0
  outer loop
    vertex 6.699719013397519 8.051217608610761 0.0
    vertex 45.99999999999999 0.0 0.0
    vertex 7.188777207265873 8.234016603951755 0.0
  endloop
endfacet
facet normal 0.0 0.0 1.0
  outer loop
    vertex 7.188777207265873 8.234016603951755 0.0
    vertex 45.99999999999999 0.0 0.0
    vertex 7.30288122725297 8.31539003639525 0.0
  endloop
endfacet
facet normal 0.0 0.0 1.0
  outer loop
    vertex 7.30288122725297 8.31539003639525 0.0
    vertex 45.99999999999999 0.0 0.0
    vertex 7.6138592858617455 8.537164449307888 0.0
  endloop
endfacet
facet normal 0.0 0.0 1.0
  outer loop
    vertex 7.6138592858617455 8.537164449307888 0.0
    vertex 45.99999999999999 0.0 0.0
    vertex 7.945996608010177 8.94000211999364 0.0
  endloop
endfacet
facet normal 0.0 0.0 1.0
  outer loop
    vertex 7.945996608010177 8.94000211999364 0.0
    vertex 45.99999999999999 0.0 0.0
    vertex 8.16255456408963 9.415076894472504 0.0
  endloop
endfacet
facet normal 0.0 0.0 1.0
  outer loop
    vertex 8.16255456408963 9.415076894472504 0.0
    vertex 45.99999999999999 0.0 0.0
    vertex 8.248775087272232 9.930013211961931 0.0
  endloop
endfacet
facet normal 0.0 0.0 1.0
  outer loop
    vertex 8.248775087272232 9.930013211961931 0.0
    vertex 45.99999999999999 0.0 0.0
    vertex 38.38614071413825 8.537164449307886 0.0
  endloop
endfacet
facet normal 0.0 0.0 1.0
  outer loop
    vertex 8.248775087272232 9.930013211961931 0.0
    vertex 38.38614071413825 8.537164449307886 0.0
    vertex 38.054003391989816 8.940002119993636 0.0
  endloop
endfacet
facet normal 0.0 0.0 1.0
  outer loop
    vertex 8.248775087272232 9.930013211961931 0.0
    vertex 38.054003391989816 8.940002119993636 0.0
    vertex 37.83744543591037 9.415076894472502 0.0
  endloop
endfacet
facet normal 0.0 0.0 1.0
  outer loop
    vertex 8.248775087272232 9.930013211961931 0.0
    vertex 37.83744543591037 9.415076894472502 0.0
    vertex 37.751224912727764 9.930013211961928 0.0
  endloop
endfacet
facet normal 0.0 0.0 1.0
  outer loop
    vertex 38.38614071413825 8.537164449307886 0.0
    vertex 45.99999999999999 0.0 0.0
    vertex 38.697118772747025 8.315390036395248 0.0
  endloop
endfacet
facet normal 0.0 0.0 1.0
  outer loop
    vertex 38.697118772747025 8.315390036395248 0.0
    vertex 45.99999999999999 0.0 0.0
    vertex 38.81122279273412 8.234016603951753 0.0
  endloop
endfacet
facet normal 0.0 0.0 1.0
  outer loop
    vertex 38.81122279273412 8.234016603951753 0.0
    vertex 45.99999999999999 0.0 0.0
    vertex 39.30028098660248 8.051217608610758 0.0
  endloop
endfacet
facet normal 0.0 0.0 1.0
  outer loop
    vertex 39.30028098660248 8.051217608610758 0.0
    vertex 45.99999999999999 0.0 0.0
    vertex 39.819986788038065 8.001224912727766 0.0
  endloop
endfacet
facet normal 0.0 0.0 1.0
  outer loop
    vertex 39.819986788038065 8.001224912727766 0.0
    vertex 45.99999999999999 0.0 0.0
    vertex 40.33492310552749 8.08744543591037 0.0
  endloop
endfacet
facet normal 0.0 0.0 1.0
  outer loop
    vertex 40.33492310552749 8.08744543591037 0.0
    vertex 45.99999999999999 0.0 0.0
    vertex 40.80999788000636 8.304003391989824 0.0
  endloop
endfacet
facet normal 0.0 0.0 1.0
  outer loop
    vertex 40.80999788000636 8.304003391989824 0.0
    vertex 45.99999999999999 0.0 0.0
    vertex 41.212835550692105 8.636140714138255 0.0
  endloop
endfacet
facet normal 0.0 0.0 1.0
  outer loop
    vertex 41.212835550692105 8.636140714138255 0.0
    vertex 45.99999999999999 0.0 0.0
    vertex 41.51598339604824 9.061222792734128 0.0
  endloop
endfacet
facet normal 0.0 0.0 1.0
  outer loop
    vertex 41.51598339604824 9.061222792734128 0.0
    vertex 45.99999999999999 0.0 0.0
    vertex 41.69878239138923 9.550280986602484 0.0
  endloop
endfacet
facet normal 0.0 0.0 1.0
  outer loop
    vertex 41.69878239138923 9.550280986602484 0.0
    vertex 45.99999999999999 0.0 0.0
    vertex 41.74877508727222 10.069986788038069 0.0
  endloop
endfacet
facet normal 0.0 0.0 1.0
  outer loop
    vertex 0.0 19.999999999999996 0.0
    vertex 5.800280986602485 11.948782391389239 0.0
    vertex 45.99999999999999 19.999999999999996 0.0
  endloop
endfacet
facet normal 0.0 0.0 1.0
  outer loop
    vertex 5.800280986602485 11.948782391389239 0.0
    vertex 0.0 19.999999999999996 0.0
    vertex 5.311222792734131 11.765983396048245 0.0
  endloop
endfacet
facet normal 0.0 0.0 1.0
  outer loop
    vertex 5.311222792734131 11.765983396048245 0.0
    vertex 0.0 19.999999999999996 0.0
    vertex 5.197118772747032 11.68460996360475 0.0
  endloop
endfacet
facet normal 0.0 0.0 1.0
  outer loop
    vertex 5.197118772747032 11.68460996360475 0.0
    vertex 0.0 19.999999999999996 0.0
    vertex 4.886140714138257 11.462835550692112 0.0
  endloop
endfacet
facet normal 0.0 0.0 1.0
  outer loop
    vertex 4.886140714138257 11.462835550692112 0.0
    vertex 0.0 19.999999999999996 0.0
    vertex 4.554003391989824 11.05999788000636 0.0
  endloop
endfacet
facet normal 0.0 0.0 1.0
  outer loop
    vertex 4.554003391989824 11.05999788000636 0.0
    vertex 0.0 19.999999999999996 0.0
    vertex 4.3374454359103725 10.584923105527498 0.0
  endloop
endfacet
facet normal 0.0 0.0 1.0
  outer loop
    vertex 4.3374454359103725 10.584923105527498 0.0
    vertex 0.0 19.999999999999996 0.0
    vertex 4.2512249127277695 10.06998678803807 0.0
  endloop
endfacet
facet normal 0.0 0.0 1.0
  outer loop
    vertex 45.99999999999999 19.999999999999996 0.0
    vertex 5.800280986602485 11.948782391389239 0.0
    vertex 6.31998678803807 11.99877508727223 0.0
  endloop
endfacet
facet normal 0.0 0.0 1.0
  outer loop
    vertex 45.99999999999999 19.999999999999996 0.0
    vertex 6.31998678803807 11.99877508727223 0.0
    vertex 6.834923105527497 11.912554564089628 0.0
  endloop
endfacet
facet normal 0.0 0.0 1.0
  outer loop
    vertex 45.99999999999999 19.999999999999996 0.0
    vertex 6.834923105527497 11.912554564089628 0.0
    vertex 7.309997880006361 11.695996608010176 0.0
  endloop
endfacet
facet normal 0.0 0.0 1.0
  outer loop
    vertex 45.99999999999999 19.999999999999996 0.0
    vertex 7.309997880006361 11.695996608010176 0.0
    vertex 7.712835550692113 11.363859285861745 0.0
  endloop
endfacet
facet normal 0.0 0.0 1.0
  outer loop
    vertex 45.99999999999999 19.999999999999996 0.0
    vertex 7.712835550692113 11.363859285861745 0.0
    vertex 8.015983396048247 10.938777207265872 0.0
  endloop
endfacet
facet normal 0.0 0.0 1.0
  outer loop
    vertex 45.99999999999999 19.999999999999996 0.0
    vertex 8.015983396048247 10.938777207265872 0.0
    vertex 8.19878239138924 10.449719013397518 0.0
  endloop
endfacet
facet normal 0.0 0.0 1.0
  outer loop
    vertex 45.99999999999999 19.999999999999996 0.0
    vertex 8.19878239138924 10.449719013397518 0.0
    vertex 8.248775087272232 9.930013211961931 0.0
  endloop
endfacet
facet normal 0.0 0.0 1.0
  outer loop
    vertex 45.99999999999999 19.999999999999996 0.0
    vertex 8.248775087272232 9.930013211961931 0.0
    vertex 38.28716444930788 11.363859285861741 0.0
  endloop
endfacet
facet normal 0.0 0.0 1.0
  outer loop
    vertex 38.28716444930788 11.363859285861741 0.0
    vertex 8.248775087272232 9.930013211961931 0.0
    vertex 37.98401660395175 10.938777207265868 0.0
  endloop
endfacet
facet normal 0.0 0.0 1.0
  outer loop
    vertex 37.98401660395175 10.938777207265868 0.0
    vertex 8.248775087272232 9.930013211961931 0.0
    vertex 37.801217608610756 10.449719013397514 0.0
  endloop
endfacet
facet normal 0.0 0.0 1.0
  outer loop
    vertex 37.801217608610756 10.449719013397514 0.0
    vertex 8.248775087272232 9.930013211961931 0.0
    vertex 37.751224912727764 9.930013211961928 0.0
  endloop
endfacet
facet normal 0.0 0.0 1.0
  outer loop
    vertex 45.99999999999999 19.999999999999996 0.0
    vertex 38.28716444930788 11.363859285861741 0.0
    vertex 38.690002119993636 11.695996608010173 0.0
  endloop
endfacet
facet normal 0.0 0.0 1.0
  outer loop
    vertex 45.99999999999999 19.999999999999996 0.0
    vertex 38.690002119993636 11.695996608010173 0.0
    vertex 39.1650768944725 11.912554564089627 0.0
  endloop
endfacet
facet normal 0.0 0.0 1.0
  outer loop
    vertex 45.99999999999999 19.999999999999996 0.0
    vertex 39.1650768944725 11.912554564089627 0.0
    vertex 39.68001321196193 11.99877508727223 0.0
  endloop
endfacet
facet normal 0.0 0.0 1.0
  outer loop
    vertex 45.99999999999999 19.999999999999996 0.0
    vertex 39.68001321196193 11.99877508727223 0.0
    vertex 40.19971901339751 11.948782391389239 0.0
  endloop
endfacet
facet normal 0.0 0.0 1.0
  outer loop
    vertex 45.99999999999999 19.999999999999996 0.0
    vertex 40.19971901339751 11.948782391389239 0.0
    vertex 40.688777207265865 11.765983396048245 0.0
  endloop
endfacet
facet normal 0.0 0.0 1.0
  outer loop
    vertex 45.99999999999999 19.999999999999996 0.0
    vertex 40.688777207265865 11.765983396048245 0.0
    vertex 40.80288122725297 11.684609963604748 0.0
  endloop
endfacet
facet normal 0.0 0.0 1.0
  outer loop
    vertex 45.99999999999999 19.999999999999996 0.0
    vertex 40.80288122725297 11.684609963604748 0.0
    vertex 41.113859285861736 11.462835550692112 0.0
  endloop
endfacet
facet normal 0.0 0.0 1.0
  outer loop
    vertex 45.99999999999999 19.999999999999996 0.0
    vertex 41.113859285861736 11.462835550692112 0.0
    vertex 41.44599660801017 11.05999788000636 0.0
  endloop
endfacet
facet normal 0.0 0.0 1.0
  outer loop
    vertex 45.99999999999999 19.999999999999996 0.0
    vertex 41.44599660801017 11.05999788000636 0.0
    vertex 41.66255456408962 10.584923105527496 0.0
  endloop
endfacet
facet normal 0.0 0.0 1.0
  outer loop
    vertex 45.99999999999999 19.999999999999996 0.0
    vertex 41.66255456408962 10.584923105527496 0.0
    vertex 41.74877508727222 10.069986788038069 0.0
  endloop
endfacet
facet normal 0.0 0.0 1.0
  outer loop
    vertex 45.99999999999999 19.999999999999996 0.0
    vertex 41.74877508727222 10.069986788038069 0.0
    vertex 45.99999999999999 0.0 0.0
  endloop
endfacet
facet normal -0.6246950475544244 -7.76825087435706e-17 -0.7808688094430302
  outer loop
    vertex 45.99999999999999 19.999999999999996 3.0
    vertex 33.5 16.999999999999996 13.000000000000002
    vertex 33.5 19.999999999999996 13.000000000000002
  endloop
endfacet
facet normal -0.6246950475544244 -7.76825087435706e-17 -0.7808688094430302
  outer loop
    vertex 33.5 16.999999999999996 13.000000000000002
    vertex 45.99999999999999 19.999999999999996 3.0
    vertex 45.99999999999999 16.999999999999996 3.0
  endloop
endfacet
facet normal 0.0 -1.0 0.0
  outer loop
    vertex 33.5 19.999999999999996 13.000000000000002
    vertex 33.5 19.999999999999996 3.0
    vertex 45.99999999999999 19.999999999999996 3.0
  endloop
endfacet
facet normal -1.0 -0.0 -0.0
  outer loop
    vertex 45.99999999999999 2.999999999999999 3.0
    vertex 45.99999999999999 0.0 0.0
    vertex 45.99999999999999 0.0 3.0
  endloop
endfacet
facet normal -1.0 -0.0 -0.0
  outer loop
    vertex 45.99999999999999 0.0 0.0
    vertex 45.99999999999999 2.999999999999999 3.0
    vertex 45.99999999999999 19.999999999999996 0.0
  endloop
endfacet
facet normal -1.0 -0.0 -0.0
  outer loop
    vertex 45.99999999999999 19.999999999999996 0.0
    vertex 45.99999999999999 2.999999999999999 3.0
    vertex 45.99999999999999 16.999999999999996 3.0
  endloop
endfacet
facet normal -1.0 -0.0 -0.0
  outer loop
    vertex 45.99999999999999 19.999999999999996 0.0
    vertex 45.99999999999999 16.999999999999996 3.0
    vertex 45.99999999999999 19.999999999999996 3.0
  endloop
endfacet
facet normal 1.0 0.0 0.0
  outer loop
    vertex 0.0 19.999999999999996 0.0
    vertex 0.0 0.0 3.0
    vertex 0.0 0.0 0.0
  endloop
endfacet
facet normal 1.0 0.0 0.0
  outer loop
    vertex 0.0 0.0 3.0
    vertex 0.0 19.999999999999996 0.0
    vertex 0.0 3.0 3.0
  endloop
endfacet
facet normal 1.0 0.0 0.0
  outer loop
    vertex 0.0 3.0 3.0
    vertex 0.0 19.999999999999996 0.0
    vertex 0.0 16.999999999999996 3.0
  endloop
endfacet
facet normal 1.0 0.0 0.0
  outer loop
    vertex 0.0 16.999999999999996 3.0
    vertex 0.0 19.999999999999996 0.0
    vertex 0.0 19.999999999999996 3.0
  endloop
endfacet
facet normal 0.0 1.0 0.0
  outer loop
    vertex 12.500000000000002 16.999999999999996 13.000000000000002
    vertex 12.500000000000002 16.999999999999996 3.0
    vertex 0.0 16.999999999999996 3.0
  endloop
endfacet
facet normal 0.0 0.0 -1.0
  outer loop
    vertex 33.5 16.999999999999996 3.0
    vertex 37.98401660395175 10.938777207265868 3.0
    vertex 33.5 2.9999999999999996 3.0
  endloop
endfacet
facet normal 0.0 0.0 -1.0
  outer loop
    vertex 37.98401660395175 10.938777207265868 3.0
    vertex 33.5 16.999999999999996 3.0
    vertex 38.28716444930788 11.363859285861741 3.0
  endloop
endfacet
facet normal 0.0 0.0 -1.0
  outer loop
    vertex 38.28716444930788 11.363859285861741 3.0
    vertex 33.5 16.999999999999996 3.0
    vertex 38.690002119993636 11.695996608010173 3.0
  endloop
endfacet
facet normal 0.0 0.0 -1.0
  outer loop
    vertex 38.690002119993636 11.695996608010173 3.0
    vertex 33.5 16.999999999999996 3.0
    vertex 45.99999999999999 16.999999999999996 3.0
  endloop
endfacet
facet normal 0.0 0.0 -1.0
  outer loop
    vertex 33.5 2.9999999999999996 3.0
    vertex 37.98401660395175 10.938777207265868 3.0
    vertex 37.801217608610756 10.449719013397514 3.0
  endloop
endfacet
facet normal 0.0 0.0 -1.0
  outer loop
    vertex 33.5 2.9999999999999996 3.0
    vertex 37.801217608610756 10.449719013397514 3.0
    vertex 37.751224912727764 9.930013211961928 3.0
  endloop
endfacet
facet normal 0.0 0.0 -1.0
  outer loop
    vertex 38.690002119993636 11.695996608010173 3.0
    vertex 45.99999999999999 16.999999999999996 3.0
    vertex 39.1650768944725 11.912554564089627 3.0
  endloop
endfacet
facet normal 0.0 0.0 -1.0
  outer loop
    vertex 39.1650768944725 11.912554564089627 3.0
    vertex 45.99999999999999 16.999999999999996 3.0
    vertex 39.68001321196193 11.99877508727223 3.0
  endloop
endfacet
facet normal 0.0 0.0 -1.0
  outer loop
    vertex 39.68001321196193 11.99877508727223 3.0
    vertex 45.99999999999999 16.999999999999996 3.0
    vertex 40.19971901339751 11.948782391389239 3.0
  endloop
endfacet
facet normal 0.0 0.0 -1.0
  outer loop
    vertex 40.19971901339751 11.948782391389239 3.0
    vertex 45.99999999999999 16.999999999999996 3.0
    vertex 40.688777207265865 11.765983396048245 3.0
  endloop
endfacet
facet normal 0.0 0.0 -1.0
  outer loop
    vertex 40.688777207265865 11.765983396048245 3.0
    vertex 45.99999999999999 16.999999999999996 3.0
    vertex 40.80288122725297 11.684609963604748 3.0
  endloop
endfacet
facet normal 0.0 0.0 -1.0
  outer loop
    vertex 40.80288122725297 11.684609963604748 3.0
    vertex 45.99999999999999 16.999999999999996 3.0
    vertex 41.113859285861736 11.462835550692112 3.0
  endloop
endfacet
facet normal 0.0 0.0 -1.0
  outer loop
    vertex 41.113859285861736 11.462835550692112 3.0
    vertex 45.99999999999999 16.999999999999996 3.0
    vertex 41.44599660801017 11.05999788000636 3.0
  endloop
endfacet
facet normal 0.0 0.0 -1.0
  outer loop
    vertex 41.44599660801017 11.05999788000636 3.0
    vertex 45.99999999999999 16.999999999999996 3.0
    vertex 41.66255456408962 10.584923105527496 3.0
  endloop
endfacet
facet normal 0.0 0.0 -1.0
  outer loop
    vertex 41.66255456408962 10.584923105527496 3.0
    vertex 45.99999999999999 16.999999999999996 3.0
    vertex 41.74877508727222 10.069986788038069 3.0
  endloop
endfacet
facet normal 0.0 0.0 -1.0
  outer loop
    vertex 33.5 2.9999999999999996 3.0
    vertex 38.38614071413825 8.537164449307886 3.0
    vertex 45.99999999999999 2.999999999999999 3.0
  endloop
endfacet
facet normal 0.0 0.0 -1.0
  outer loop
    vertex 38.38614071413825 8.537164449307886 3.0
    vertex 33.5 2.9999999999999996 3.0
    vertex 38.054003391989816 8.940002119993636 3.0
  endloop
endfacet
facet normal 0.0 0.0 -1.0
  outer loop
    vertex 38.054003391989816 8.940002119993636 3.0
    vertex 33.5 2.9999999999999996 3.0
    vertex 37.83744543591037 9.415076894472502 3.0
  endloop
endfacet
facet normal 0.0 0.0 -1.0
  outer loop
    vertex 37.83744543591037 9.415076894472502 3.0
    vertex 33.5 2.9999999999999996 3.0
    vertex 37.751224912727764 9.930013211961928 3.0
  endloop
endfacet
facet normal 0.0 0.0 -1.0
  outer loop
    vertex 45.99999999999999 2.999999999999999 3.0
    vertex 38.38614071413825 8.537164449307886 3.0
    vertex 38.697118772747025 8.315390036395248 3.0
  endloop
endfacet
facet normal 0.0 0.0 -1.0
  outer loop
    vertex 45.99999999999999 2.999999999999999 3.0
    vertex 38.697118772747025 8.315390036395248 3.0
    vertex 38.81122279273412 8.234016603951753 3.0
  endloop
endfacet
facet normal 0.0 0.0 -1.0
  outer loop
    vertex 45.99999999999999 2.999999999999999 3.0
    vertex 38.81122279273412 8.234016603951753 3.0
    vertex 39.30028098660248 8.051217608610758 3.0
  endloop
endfacet
facet normal 0.0 0.0 -1.0
  outer loop
    vertex 45.99999999999999 2.999999999999999 3.0
    vertex 39.30028098660248 8.051217608610758 3.0
    vertex 39.819986788038065 8.001224912727766 3.0
  endloop
endfacet
facet normal 0.0 0.0 -1.0
  outer loop
    vertex 45.99999999999999 2.999999999999999 3.0
    vertex 39.819986788038065 8.001224912727766 3.0
    vertex 40.33492310552749 8.08744543591037 3.0
  endloop
endfacet
facet normal 0.0 0.0 -1.0
  outer loop
    vertex 45.99999999999999 2.999999999999999 3.0
    vertex 40.33492310552749 8.08744543591037 3.0
    vertex 40.80999788000636 8.304003391989824 3.0
  endloop
endfacet
facet normal 0.0 0.0 -1.0
  outer loop
    vertex 45.99999999999999 2.999999999999999 3.0
    vertex 40.80999788000636 8.304003391989824 3.0
    vertex 41.212835550692105 8.636140714138255 3.0
  endloop
endfacet
facet normal 0.0 0.0 -1.0
  outer loop
    vertex 45.99999999999999 2.999999999999999 3.0
    vertex 41.212835550692105 8.636140714138255 3.0
    vertex 41.51598339604824 9.061222792734128 3.0
  endloop
endfacet
facet normal 0.0 0.0 -1.0
  outer loop
    vertex 45.99999999999999 2.999999999999999 3.0
    vertex 41.51598339604824 9.061222792734128 3.0
    vertex 41.69878239138923 9.550280986602484 3.0
  endloop
endfacet
facet normal 0.0 0.0 -1.0
  outer loop
    vertex 45.99999999999999 2.999999999999999 3.0
    vertex 41.69878239138923 9.550280986602484 3.0
    vertex 41.74877508727222 10.069986788038069 3.0
  endloop
endfacet
facet normal 0.0 0.0 -1.0
  outer loop
    vertex 45.99999999999999 2.999999999999999 3.0
    vertex 41.74877508727222 10.069986788038069 3.0
    vertex 45.99999999999999 16.999999999999996 3.0
  endloop
endfacet
facet normal -0.995405199133182 -0.09575222994077265 5.736716802429548e-32
  outer loop
    vertex 4.2512249127277695 10.06998678803807 3.0
    vertex 4.301217608610761 9.550280986602482 0.0
    vertex 4.301217608610761 9.550280986602482 3.0
  endloop
endfacet
facet normal -0.995405199133182 -0.09575222994077265 5.736716802429548e-32
  outer loop
    vertex 4.301217608610761 9.550280986602482 0.0
    vertex 4.2512249127277695 10.06998678803807 3.0
    vertex 4.2512249127277695 10.06998678803807 0.0
  endloop
endfacet
facet normal 0.0 1.0 0.0
  outer loop
    vertex 12.500000000000002 0.0 13.000000000000002
    vertex 15.500000000000002 0.0 3.0
    vertex 12.500000000000002 0.0 3.0
  endloop
endfacet
facet normal 0.0 1.0 0.0
  outer loop
    vertex 15.500000000000002 0.0 3.0
    vertex 12.500000000000002 0.0 13.000000000000002
    vertex 15.500000000000002 0.0 23.000000000000004
  endloop
endfacet
facet normal 0.0 1.0 0.0
  outer loop
    vertex 15.500000000000002 0.0 23.000000000000004
    vertex 12.500000000000002 0.0 13.000000000000002
    vertex 12.500000000000002 0.0 23.000000000000004
  endloop
endfacet
facet normal 0.0 1.0 0.0
  outer loop
    vertex 30.5 0.0 23.000000000000004
    vertex 33.5 0.0 3.0
    vertex 30.5 0.0 3.0
  endloop
endfacet
facet normal 0.0 1.0 0.0
  outer loop
    vertex 33.5 0.0 3.0
    vertex 30.5 0.0 23.000000000000004
    vertex 33.5 0.0 13.000000000000002
  endloop
endfacet
facet normal 0.0 1.0 0.0
  outer loop
    vertex 33.5 0.0 13.000000000000002
    vertex 30.5 0.0 23.000000000000004
    vertex 33.5 0.0 23.000000000000004
  endloop
endfacet
facet normal 0.0 1.0 0.0
  outer loop
    vertex 0.0 0.0 3.0
    vertex 45.99999999999999 0.0 0.0
    vertex 0.0 0.0 0.0
  endloop
endfacet
facet normal 0.0 1.0 0.0
  outer loop
    vertex 45.99999999999999 0.0 0.0
    vertex 0.0 0.0 3.0
    vertex 45.99999999999999 0.0 3.0
  endloop
endfacet
facet normal 0.0 1.0 0.0
  outer loop
    vertex 45.99999999999999 0.0 3.0
    vertex 0.0 0.0 3.0
    vertex 12.500000000000002 0.0 3.0
  endloop
endfacet
facet normal 0.0 1.0 0.0
  outer loop
    vertex 45.99999999999999 0.0 3.0
    vertex 12.500000000000002 0.0 3.0
    vertex 15.500000000000002 0.0 3.0
  endloop
endfacet
facet normal 0.0 1.0 0.0
  outer loop
    vertex 45.99999999999999 0.0 3.0
    vertex 15.500000000000002 0.0 3.0
    vertex 22.999999999999996 0.0 3.0
  endloop
endfacet
facet normal 0.0 1.0 0.0
  outer loop
    vertex 45.99999999999999 0.0 3.0
    vertex 22.999999999999996 0.0 3.0
    vertex 30.5 0.0 3.0
  endloop
endfacet
facet normal 0.0 1.0 0.0
  outer loop
    vertex 45.99999999999999 0.0 3.0
    vertex 30.5 0.0 3.0
    vertex 33.5 0.0 3.0
  endloop
endfacet
facet normal 0.0 0.0 -1.0
  outer loop
    vertex 12.500000000000002 3.0 3.0
    vertex 0.0 0.0 3.0
    vertex 0.0 3.0 3.0
  endloop
endfacet
facet normal 0.0 0.0 -1.0
  outer loop
    vertex 0.0 0.0 3.0
    vertex 12.500000000000002 3.0 3.0
    vertex 12.500000000000002 0.0 3.0
  endloop
endfacet
facet normal -0.9862700901848608 0.16514027130517508 7.499577529445726e-32
  outer loop
    vertex 4.3374454359103725 10.584923105527498 3.0
    vertex 4.2512249127277695 10.06998678803807 0.0
    vertex 4.2512249127277695 10.06998678803807 3.0
  endloop
endfacet
facet normal -0.9862700901848608 0.16514027130517508 7.499577529445726e-32
  outer loop
    vertex 4.2512249127277695 10.06998678803807 0.0
    vertex 4.3374454359103725 10.584923105527498 3.0
    vertex 4.3374454359103725 10.584923105527498 0.0
  endloop
endfacet
facet normal -0.4147787359688725 -0.9099223044788299 -3.6843569228070624e-32
  outer loop
    vertex 5.665076894472506 8.087445435910372 3.0
    vertex 5.1900021199936415 8.304003391989824 0.0
    vertex 5.665076894472506 8.087445435910372 0.0
  endloop
endfacet
facet normal -0.4147787359688725 -0.9099223044788299 -3.6843569228070624e-32
  outer loop
    vertex 5.1900021199936415 8.304003391989824 0.0
    vertex 5.665076894472506 8.087445435910372 3.0
    vertex 5.1900021199936415 8.304003391989824 3.0
  endloop
endfacet
facet normal 0.09575222994077155 -0.995405199133182 -7.566423912493974e-32
  outer loop
    vertex 6.699719013397519 8.051217608610761 3.0
    vertex 6.180013211961932 8.00122491272777 0.0
    vertex 6.699719013397519 8.051217608610761 0.0
  endloop
endfacet
facet normal 0.09575222994077155 -0.995405199133182 -7.566423912493974e-32
  outer loop
    vertex 6.180013211961932 8.00122491272777 0.0
    vertex 6.699719013397519 8.051217608610761 3.0
    vertex 6.180013211961932 8.00122491272777 3.0
  endloop
endfacet
facet normal -0.16514027130517267 -0.9862700901848612 -5.823832704900714e-32
  outer loop
    vertex 6.180013211961932 8.00122491272777 3.0
    vertex 5.665076894472506 8.087445435910372 0.0
    vertex 6.180013211961932 8.00122491272777 0.0
  endloop
endfacet
facet normal -0.16514027130517267 -0.9862700901848612 -5.823832704900714e-32
  outer loop
    vertex 5.665076894472506 8.087445435910372 0.0
    vertex 6.180013211961932 8.00122491272777 3.0
    vertex 5.665076894472506 8.087445435910372 3.0
  endloop
endfacet
facet normal -0.9367050887454454 -0.3501193749542969 3.582908305700566e-32
  outer loop
    vertex 4.301217608610761 9.550280986602482 3.0
    vertex 4.484016603951756 9.06122279273413 0.0
    vertex 4.484016603951756 9.06122279273413 3.0
  endloop
endfacet
facet normal -0.9367050887454454 -0.3501193749542969 3.582908305700566e-32
  outer loop
    vertex 4.484016603951756 9.06122279273413 0.0
    vertex 4.301217608610761 9.550280986602482 3.0
    vertex 4.301217608610761 9.550280986602482 0.0
  endloop
endfacet
facet normal -0.9099223044788296 0.41477873596887355 8.751354441468016e-32
  outer loop
    vertex 4.554003391989824 11.05999788000636 3.0
    vertex 4.3374454359103725 10.584923105527498 0.0
    vertex 4.3374454359103725 10.584923105527498 3.0
  endloop
endfacet
facet normal -0.9099223044788296 0.41477873596887355 8.751354441468016e-32
  outer loop
    vertex 4.3374454359103725 10.584923105527498 0.0
    vertex 4.554003391989824 11.05999788000636 3.0
    vertex 4.554003391989824 11.05999788000636 0.0
  endloop
endfacet
facet normal -0.5806264631643111 -0.8141700745380556 -2.752300042666556e-32
  outer loop
    vertex 38.697118772747025 8.315390036395248 3.0
    vertex 38.38614071413825 8.537164449307886 0.0
    vertex 38.697118772747025 8.315390036395248 0.0
  endloop
endfacet
facet normal -0.5806264631643111 -0.8141700745380556 -2.752300042666556e-32
  outer loop
    vertex 38.38614071413825 8.537164449307886 0.0
    vertex 38.697118772747025 8.315390036395248 3.0
    vertex 38.38614071413825 8.537164449307886 3.0
  endloop
endfacet
facet normal -0.5806264631643084 -0.8141700745380575 -2.75230004266653e-32
  outer loop
    vertex 38.81122279273412 8.234016603951753 3.0
    vertex 38.697118772747025 8.315390036395248 0.0
    vertex 38.81122279273412 8.234016603951753 0.0
  endloop
endfacet
facet normal -0.5806264631643084 -0.8141700745380575 -2.75230004266653e-32
  outer loop
    vertex 38.697118772747025 8.315390036395248 0.0
    vertex 38.81122279273412 8.234016603951753 3.0
    vertex 38.697118772747025 8.315390036395248 3.0
  endloop
endfacet
facet normal -0.3501193749542945 -0.9367050887454462 -5.959180905251715e-33
  outer loop
    vertex 39.30028098660248 8.051217608610758 3.0
    vertex 38.81122279273412 8.234016603951753 0.0
    vertex 39.30028098660248 8.051217608610758 0.0
  endloop
endfacet
facet normal -0.3501193749542945 -0.9367050887454462 -5.959180905251715e-33
  outer loop
    vertex 38.81122279273412 8.234016603951753 0.0
    vertex 39.30028098660248 8.051217608610758 3.0
    vertex 38.81122279273412 8.234016603951753 3.0
  endloop
endfacet
facet normal -0.0957522299407718 -0.9954051991331819 1.6010746946842508e-32
  outer loop
    vertex 39.819986788038065 8.001224912727766 3.0
    vertex 39.30028098660248 8.051217608610758 0.0
    vertex 39.819986788038065 8.001224912727766 0.0
  endloop
endfacet
facet normal -0.0957522299407718 -0.9954051991331819 1.6010746946842508e-32
  outer loop
    vertex 39.30028098660248 8.051217608610758 0.0
    vertex 39.819986788038065 8.001224912727766 3.0
    vertex 39.30028098660248 8.051217608610758 3.0
  endloop
endfacet
facet normal 0.16514027130517553 -0.9862700901848607 3.688956885351999e-32
  outer loop
    vertex 40.33492310552749 8.08744543591037 3.0
    vertex 39.819986788038065 8.001224912727766 0.0
    vertex 40.33492310552749 8.08744543591037 0.0
  endloop
endfacet
facet normal 0.16514027130517553 -0.9862700901848607 3.688956885351999e-32
  outer loop
    vertex 39.819986788038065 8.001224912727766 0.0
    vertex 40.33492310552749 8.08744543591037 3.0
    vertex 39.819986788038065 8.001224912727766 3.0
  endloop
endfacet
facet normal 0.8141700745380566 0.5806264631643097 -1.1849305289740239e-32
  outer loop
    vertex 7.712835550692113 11.363859285861745 0.0
    vertex 8.015983396048247 10.938777207265872 3.0
    vertex 8.015983396048247 10.938777207265872 0.0
  endloop
endfacet
facet normal 0.8141700745380566 0.5806264631643097 -1.1849305289740239e-32
  outer loop
    vertex 8.015983396048247 10.938777207265872 3.0
    vertex 7.712835550692113 11.363859285861745 0.0
    vertex 7.712835550692113 11.363859285861745 3.0
  endloop
endfacet
facet normal 0.9954051991331818 0.09575222994077423 -5.736716802429535e-32
  outer loop
    vertex 8.19878239138924 10.449719013397518 0.0
    vertex 8.248775087272232 9.930013211961931 3.0
    vertex 8.248775087272232 9.930013211961931 0.0
  endloop
endfacet
facet normal 0.9954051991331818 0.09575222994077423 -5.736716802429535e-32
  outer loop
    vertex 8.248775087272232 9.930013211961931 3.0
    vertex 8.19878239138924 10.449719013397518 0.0
    vertex 8.19878239138924 10.449719013397518 3.0
  endloop
endfacet
facet normal 0.0 0.0 -1.0
  outer loop
    vertex 22.999999999999996 19.999999999999996 3.0
    vertex 15.500000000000002 0.0 3.0
    vertex 15.500000000000002 19.999999999999996 3.0
  endloop
endfacet
facet normal 0.0 0.0 -1.0
  outer loop
    vertex 15.500000000000002 0.0 3.0
    vertex 22.999999999999996 19.999999999999996 3.0
    vertex 22.999999999999996 0.0 3.0
  endloop
endfacet
facet normal 0.0 0.0 -1.0
  outer loop
    vertex 22.999999999999996 0.0 3.0
    vertex 22.999999999999996 19.999999999999996 3.0
    vertex 30.5 19.999999999999996 3.0
  endloop
endfacet
facet normal 0.0 0.0 -1.0
  outer loop
    vertex 22.999999999999996 0.0 3.0
    vertex 30.5 19.999999999999996 3.0
    vertex 30.5 0.0 3.0
  endloop
endfacet
facet normal 0.6361507152305673 -0.7715648174402704 6.985378842885871e-32
  outer loop
    vertex 41.212835550692105 8.636140714138255 3.0
    vertex 40.80999788000636 8.304003391989824 0.0
    vertex 41.212835550692105 8.636140714138255 0.0
  endloop
endfacet
facet normal 0.6361507152305673 -0.7715648174402704 6.985378842885871e-32
  outer loop
    vertex 40.80999788000636 8.304003391989824 0.0
    vertex 41.212835550692105 8.636140714138255 3.0
    vertex 40.80999788000636 8.304003391989824 3.0
  endloop
endfacet
facet normal 0.8141700745380555 -0.5806264631643114 7.96927290094091e-32
  outer loop
    vertex 41.51598339604824 9.061222792734128 0.0
    vertex 41.212835550692105 8.636140714138255 3.0
    vertex 41.212835550692105 8.636140714138255 0.0
  endloop
endfacet
facet normal 0.8141700745380555 -0.5806264631643114 7.96927290094091e-32
  outer loop
    vertex 41.212835550692105 8.636140714138255 3.0
    vertex 41.51598339604824 9.061222792734128 0.0
    vertex 41.51598339604824 9.061222792734128 3.0
  endloop
endfacet
facet normal 0.0 -1.0 0.0
  outer loop
    vertex 33.5 16.999999999999996 13.000000000000002
    vertex 33.5 16.999999999999996 3.0
    vertex 45.99999999999999 16.999999999999996 3.0
  endloop
endfacet
facet normal -1.0 0.0 0.0
  outer loop
    vertex 33.5 19.999999999999996 13.000000000000002
    vertex 33.5 16.999999999999996 3.0
    vertex 33.5 16.999999999999996 13.000000000000002
  endloop
endfacet
facet normal -1.0 0.0 0.0
  outer loop
    vertex 33.5 16.999999999999996 3.0
    vertex 33.5 19.999999999999996 13.000000000000002
    vertex 33.5 19.999999999999996 3.0
  endloop
endfacet
facet normal 0.0 0.0 -1.0
  outer loop
    vertex 0.0 16.999999999999996 3.0
    vertex 4.554003391989824 11.05999788000636 3.0
    vertex 0.0 3.0 3.0
  endloop
endfacet
facet normal 0.0 0.0 -1.0
  outer loop
    vertex 4.554003391989824 11.05999788000636 3.0
    vertex 0.0 16.999999999999996 3.0
    vertex 4.886140714138257 11.462835550692112 3.0
  endloop
endfacet
facet normal 0.0 0.0 -1.0
  outer loop
    vertex 4.886140714138257 11.462835550692112 3.0
    vertex 0.0 16.999999999999996 3.0
    vertex 12.500000000000002 16.999999999999996 3.0
  endloop
endfacet
facet normal 0.0 0.0 -1.0
  outer loop
    vertex 0.0 3.0 3.0
    vertex 4.554003391989824 11.05999788000636 3.0
    vertex 4.3374454359103725 10.584923105527498 3.0
  endloop
endfacet
facet normal 0.0 0.0 -1.0
  outer loop
    vertex 0.0 3.0 3.0
    vertex 4.3374454359103725 10.584923105527498 3.0
    vertex 4.2512249127277695 10.06998678803807 3.0
  endloop
endfacet
facet normal 0.0 0.0 -1.0
  outer loop
    vertex 4.886140714138257 11.462835550692112 3.0
    vertex 12.500000000000002 16.999999999999996 3.0
    vertex 5.197118772747032 11.68460996360475 3.0
  endloop
endfacet
facet normal 0.0 0.0 -1.0
  outer loop
    vertex 5.197118772747032 11.68460996360475 3.0
    vertex 12.500000000000002 16.999999999999996 3.0
    vertex 5.311222792734131 11.765983396048245 3.0
  endloop
endfacet
facet normal 0.0 0.0 -1.0
  outer loop
    vertex 5.311222792734131 11.765983396048245 3.0
    vertex 12.500000000000002 16.999999999999996 3.0
    vertex 5.800280986602485 11.948782391389239 3.0
  endloop
endfacet
facet normal 0.0 0.0 -1.0
  outer loop
    vertex 5.800280986602485 11.948782391389239 3.0
    vertex 12.500000000000002 16.999999999999996 3.0
    vertex 6.31998678803807 11.99877508727223 3.0
  endloop
endfacet
facet normal 0.0 0.0 -1.0
  outer loop
    vertex 6.31998678803807 11.99877508727223 3.0
    vertex 12.500000000000002 16.999999999999996 3.0
    vertex 6.834923105527497 11.912554564089628 3.0
  endloop
endfacet
facet normal 0.0 0.0 -1.0
  outer loop
    vertex 6.834923105527497 11.912554564089628 3.0
    vertex 12.500000000000002 16.999999999999996 3.0
    vertex 7.309997880006361 11.695996608010176 3.0
  endloop
endfacet
facet normal 0.0 0.0 -1.0
  outer loop
    vertex 7.309997880006361 11.695996608010176 3.0
    vertex 12.500000000000002 16.999999999999996 3.0
    vertex 7.712835550692113 11.363859285861745 3.0
  endloop
endfacet
facet normal 0.0 0.0 -1.0
  outer loop
    vertex 7.712835550692113 11.363859285861745 3.0
    vertex 12.500000000000002 16.999999999999996 3.0
    vertex 8.015983396048247 10.938777207265872 3.0
  endloop
endfacet
facet normal 0.0 0.0 -1.0
  outer loop
    vertex 8.015983396048247 10.938777207265872 3.0
    vertex 12.500000000000002 16.999999999999996 3.0
    vertex 8.19878239138924 10.449719013397518 3.0
  endloop
endfacet
facet normal 0.0 0.0 -1.0
  outer loop
    vertex 8.19878239138924 10.449719013397518 3.0
    vertex 12.500000000000002 16.999999999999996 3.0
    vertex 8.248775087272232 9.930013211961931 3.0
  endloop
endfacet
facet normal 0.0 0.0 -1.0
  outer loop
    vertex 0.0 3.0 3.0
    vertex 5.1900021199936415 8.304003391989824 3.0
    vertex 12.500000000000002 3.0 3.0
  endloop
endfacet
facet normal 0.0 0.0 -1.0
  outer loop
    vertex 5.1900021199936415 8.304003391989824 3.0
    vertex 0.0 3.0 3.0
    vertex 4.787164449307888 8.636140714138255 3.0
  endloop
endfacet
facet normal 0.0 0.0 -1.0
  outer loop
    vertex 4.787164449307888 8.636140714138255 3.0
    vertex 0.0 3.0 3.0
    vertex 4.484016603951756 9.06122279273413 3.0
  endloop
endfacet
facet normal 0.0 0.0 -1.0
  outer loop
    vertex 4.484016603951756 9.06122279273413 3.0
    vertex 0.0 3.0 3.0
    vertex 4.301217608610761 9.550280986602482 3.0
  endloop
endfacet
facet normal 0.0 0.0 -1.0
  outer loop
    vertex 4.301217608610761 9.550280986602482 3.0
    vertex 0.0 3.0 3.0
    vertex 4.2512249127277695 10.06998678803807 3.0
  endloop
endfacet
facet normal 0.0 0.0 -1.0
  outer loop
    vertex 12.500000000000002 3.0 3.0
    vertex 5.1900021199936415 8.304003391989824 3.0
    vertex 5.665076894472506 8.087445435910372 3.0
  endloop
endfacet
facet normal 0.0 0.0 -1.0
  outer loop
    vertex 12.500000000000002 3.0 3.0
    vertex 5.665076894472506 8.087445435910372 3.0
    vertex 6.180013211961932 8.00122491272777 3.0
  endloop
endfacet
facet normal 0.0 0.0 -1.0
  outer loop
    vertex 12.500000000000002 3.0 3.0
    vertex 6.180013211961932 8.00122491272777 3.0
    vertex 6.699719013397519 8.051217608610761 3.0
  endloop
endfacet
facet normal 0.0 0.0 -1.0
  outer loop
    vertex 12.500000000000002 3.0 3.0
    vertex 6.699719013397519 8.051217608610761 3.0
    vertex 7.188777207265873 8.234016603951755 3.0
  endloop
endfacet
facet normal 0.0 0.0 -1.0
  outer loop
    vertex 12.500000000000002 3.0 3.0
    vertex 7.188777207265873 8.234016603951755 3.0
    vertex 7.30288122725297 8.31539003639525 3.0
  endloop
endfacet
facet normal 0.0 0.0 -1.0
  outer loop
    vertex 12.500000000000002 3.0 3.0
    vertex 7.30288122725297 8.31539003639525 3.0
    vertex 7.6138592858617455 8.537164449307888 3.0
  endloop
endfacet
facet normal 0.0 0.0 -1.0
  outer loop
    vertex 12.500000000000002 3.0 3.0
    vertex 7.6138592858617455 8.537164449307888 3.0
    vertex 7.945996608010177 8.94000211999364 3.0
  endloop
endfacet
facet normal 0.0 0.0 -1.0
  outer loop
    vertex 12.500000000000002 3.0 3.0
    vertex 7.945996608010177 8.94000211999364 3.0
    vertex 8.16255456408963 9.415076894472504 3.0
  endloop
endfacet
facet normal 0.0 0.0 -1.0
  outer loop
    vertex 12.500000000000002 3.0 3.0
    vertex 8.16255456408963 9.415076894472504 3.0
    vertex 8.248775087272232 9.930013211961931 3.0
  endloop
endfacet
facet normal 0.0 0.0 -1.0
  outer loop
    vertex 12.500000000000002 3.0 3.0
    vertex 8.248775087272232 9.930013211961931 3.0
    vertex 12.500000000000002 16.999999999999996 3.0
  endloop
endfacet
facet normal 0.6246950475544243 3.88412543717842e-17 -0.7808688094430305
  outer loop
    vertex 12.500000000000002 3.0 13.000000000000002
    vertex 0.0 0.0 3.0
    vertex 0.0 3.0 3.0
  endloop
endfacet
facet normal 0.6246950475544243 3.88412543717842e-17 -0.7808688094430305
  outer loop
    vertex 0.0 0.0 3.0
    vertex 12.500000000000002 3.0 13.000000000000002
    vertex 12.500000000000002 0.0 13.000000000000002
  endloop
endfacet
facet normal 2.8199664825478946e-17 1.0 -3.172462292866384e-16
  outer loop
    vertex 33.5 3.0000000000000027 13.000000000000002
    vertex 45.99999999999999 2.999999999999999 3.0
    vertex 33.5 2.9999999999999996 3.0
  endloop
endfacet
facet normal 0.636150715230566 0.7715648174402715 1.2937983051117858e-32
  outer loop
    vertex 7.309997880006361 11.695996608010176 3.0
    vertex 7.712835550692113 11.363859285861745 0.0
    vertex 7.309997880006361 11.695996608010176 0.0
  endloop
endfacet
facet normal 0.636150715230566 0.7715648174402715 1.2937983051117858e-32
  outer loop
    vertex 7.712835550692113 11.363859285861745 0.0
    vertex 7.309997880006361 11.695996608010176 3.0
    vertex 7.712835550692113 11.363859285861745 3.0
  endloop
endfacet
facet normal 0.41477873596887366 -0.9099223044788293 5.525442760572478e-32
  outer loop
    vertex 40.80999788000636 8.304003391989824 3.0
    vertex 40.33492310552749 8.08744543591037 0.0
    vertex 40.80999788000636 8.304003391989824 0.0
  endloop
endfacet
facet normal 0.41477873596887366 -0.9099223044788293 5.525442760572478e-32
  outer loop
    vertex 40.33492310552749 8.08744543591037 0.0
    vertex 40.80999788000636 8.304003391989824 3.0
    vertex 40.33492310552749 8.08744543591037 3.0
  endloop
endfacet
facet normal 0.4147787359688725 0.9099223044788299 3.6843569228070624e-32
  outer loop
    vertex 6.834923105527497 11.912554564089628 3.0
    vertex 7.309997880006361 11.695996608010176 0.0
    vertex 6.834923105527497 11.912554564089628 0.0
  endloop
endfacet
facet normal 0.4147787359688725 0.9099223044788299 3.6843569228070624e-32
  outer loop
    vertex 7.309997880006361 11.695996608010176 0.0
    vertex 6.834923105527497 11.912554564089628 3.0
    vertex 7.309997880006361 11.695996608010176 3.0
  endloop
endfacet
facet normal 0.16514027130517248 0.9862700901848612 5.823832704900716e-32
  outer loop
    vertex 6.31998678803807 11.99877508727223 3.0
    vertex 6.834923105527497 11.912554564089628 0.0
    vertex 6.31998678803807 11.99877508727223 0.0
  endloop
endfacet
facet normal 0.16514027130517248 0.9862700901848612 5.823832704900716e-32
  outer loop
    vertex 6.834923105527497 11.912554564089628 0.0
    vertex 6.31998678803807 11.99877508727223 3.0
    vertex 6.834923105527497 11.912554564089628 3.0
  endloop
endfacet
facet normal -0.09575222994077168 0.995405199133182 7.566423912493975e-32
  outer loop
    vertex 5.800280986602485 11.948782391389239 3.0
    vertex 6.31998678803807 11.99877508727223 0.0
    vertex 5.800280986602485 11.948782391389239 0.0
  endloop
endfacet
facet normal -0.09575222994077168 0.995405199133182 7.566423912493975e-32
  outer loop
    vertex 6.31998678803807 11.99877508727223 0.0
    vertex 5.800280986602485 11.948782391389239 3.0
    vertex 6.31998678803807 11.99877508727223 3.0
  endloop
endfacet
facet normal -0.5806264631643061 0.8141700745380592 9.421073725236601e-32
  outer loop
    vertex 5.197118772747032 11.68460996360475 3.0
    vertex 5.311222792734131 11.765983396048245 0.0
    vertex 5.197118772747032 11.68460996360475 0.0
  endloop
endfacet
facet normal -0.5806264631643061 0.8141700745380592 9.421073725236601e-32
  outer loop
    vertex 5.311222792734131 11.765983396048245 0.0
    vertex 5.197118772747032 11.68460996360475 3.0
    vertex 5.311222792734131 11.765983396048245 3.0
  endloop
endfacet
facet normal -0.7715648174402724 0.6361507152305647 9.40674101060128e-32
  outer loop
    vertex 4.886140714138257 11.462835550692112 3.0
    vertex 4.554003391989824 11.05999788000636 0.0
    vertex 4.554003391989824 11.05999788000636 3.0
  endloop
endfacet
facet normal -0.7715648174402724 0.6361507152305647 9.40674101060128e-32
  outer loop
    vertex 4.554003391989824 11.05999788000636 0.0
    vertex 4.886140714138257 11.462835550692112 3.0
    vertex 4.886140714138257 11.462835550692112 0.0
  endloop
endfacet
facet normal 0.0 -1.0 0.0
  outer loop
    vertex 33.5 19.999999999999996 13.000000000000002
    vertex 30.5 19.999999999999996 3.0
    vertex 33.5 19.999999999999996 3.0
  endloop
endfacet
facet normal 0.0 -1.0 0.0
  outer loop
    vertex 30.5 19.999999999999996 3.0
    vertex 33.5 19.999999999999996 13.000000000000002
    vertex 30.5 19.999999999999996 23.000000000000004
  endloop
endfacet
facet normal 0.0 -1.0 0.0
  outer loop
    vertex 30.5 19.999999999999996 23.000000000000004
    vertex 33.5 19.999999999999996 13.000000000000002
    vertex 33.5 19.999999999999996 23.000000000000004
  endloop
endfacet
facet normal 0.0 -1.0 0.0
  outer loop
    vertex 15.500000000000002 19.999999999999996 23.000000000000004
    vertex 12.500000000000002 19.999999999999996 3.0
    vertex 15.500000000000002 19.999999999999996 3.0
  endloop
endfacet
facet normal 0.0 -1.0 0.0
  outer loop
    vertex 12.500000000000002 19.999999999999996 3.0
    vertex 15.500000000000002 19.999999999999996 23.000000000000004
    vertex 12.500000000000002 19.999999999999996 13.000000000000002
  endloop
endfacet
facet normal 0.0 -1.0 0.0
  outer loop
    vertex 12.500000000000002 19.999999999999996 13.000000000000002
    vertex 15.500000000000002 19.999999999999996 23.000000000000004
    vertex 12.500000000000002 19.999999999999996 23.000000000000004
  endloop
endfacet
facet normal 0.0 -1.0 0.0
  outer loop
    vertex 45.99999999999999 19.999999999999996 3.0
    vertex 0.0 19.999999999999996 0.0
    vertex 45.99999999999999 19.999999999999996 0.0
  endloop
endfacet
facet normal 0.0 -1.0 0.0
  outer loop
    vertex 0.0 19.999999999999996 0.0
    vertex 45.99999999999999 19.999999999999996 3.0
    vertex 0.0 19.999999999999996 3.0
  endloop
endfacet
facet normal 0.0 -1.0 0.0
  outer loop
    vertex 0.0 19.999999999999996 3.0
    vertex 45.99999999999999 19.999999999999996 3.0
    vertex 33.5 19.999999999999996 3.0
  endloop
endfacet
facet normal 0.0 -1.0 0.0
  outer loop
    vertex 0.0 19.999999999999996 3.0
    vertex 33.5 19.999999999999996 3.0
    vertex 30.5 19.999999999999996 3.0
  endloop
endfacet
facet normal 0.0 -1.0 0.0
  outer loop
    vertex 0.0 19.999999999999996 3.0
    vertex 30.5 19.999999999999996 3.0
    vertex 22.999999999999996 19.999999999999996 3.0
  endloop
endfacet
facet normal 0.0 -1.0 0.0
  outer loop
    vertex 0.0 19.999999999999996 3.0
    vertex 22.999999999999996 19.999999999999996 3.0
    vertex 15.500000000000002 19.999999999999996 3.0
  endloop
endfacet
facet normal 0.0 -1.0 0.0
  outer loop
    vertex 0.0 19.999999999999996 3.0
    vertex 15.500000000000002 19.999999999999996 3.0
    vertex 12.500000000000002 19.999999999999996 3.0
  endloop
endfacet
facet normal 0.9367050887454462 0.35011937495429485 -3.582908305700585e-32
  outer loop
    vertex 8.015983396048247 10.938777207265872 0.0
    vertex 8.19878239138924 10.449719013397518 3.0
    vertex 8.19878239138924 10.449719013397518 0.0
  endloop
endfacet
facet normal 0.9367050887454462 0.35011937495429485 -3.582908305700585e-32
  outer loop
    vertex 8.19878239138924 10.449719013397518 3.0
    vertex 8.015983396048247 10.938777207265872 0.0
    vertex 8.015983396048247 10.938777207265872 3.0
  endloop
endfacet
facet normal -0.35011937495429485 0.9367050887454462 8.793375834557511e-32
  outer loop
    vertex 5.311222792734131 11.765983396048245 3.0
    vertex 5.800280986602485 11.948782391389239 0.0
    vertex 5.311222792734131 11.765983396048245 0.0
  endloop
endfacet
facet normal -0.35011937495429485 0.9367050887454462 8.793375834557511e-32
  outer loop
    vertex 5.800280986602485 11.948782391389239 0.0
    vertex 5.311222792734131 11.765983396048245 3.0
    vertex 5.800280986602485 11.948782391389239 3.0
  endloop
endfacet
facet normal -0.9099223044788326 -0.41477873596886705 -6.368198206256709e-32
  outer loop
    vertex 37.83744543591037 9.415076894472502 3.0
    vertex 38.054003391989816 8.940002119993636 0.0
    vertex 38.054003391989816 8.940002119993636 3.0
  endloop
endfacet
facet normal -0.9099223044788326 -0.41477873596886705 -6.368198206256709e-32
  outer loop
    vertex 38.054003391989816 8.940002119993636 0.0
    vertex 37.83744543591037 9.415076894472502 3.0
    vertex 37.83744543591037 9.415076894472502 0.0
  endloop
endfacet
facet normal 0.7715648174402715 -0.636150715230566 -9.406741010601286e-32
  outer loop
    vertex 7.945996608010177 8.94000211999364 0.0
    vertex 7.6138592858617455 8.537164449307888 3.0
    vertex 7.6138592858617455 8.537164449307888 0.0
  endloop
endfacet
facet normal 0.7715648174402715 -0.636150715230566 -9.406741010601286e-32
  outer loop
    vertex 7.6138592858617455 8.537164449307888 3.0
    vertex 7.945996608010177 8.94000211999364 0.0
    vertex 7.945996608010177 8.94000211999364 3.0
  endloop
endfacet
facet normal 1.0 0.0 0.0
  outer loop
    vertex 12.500000000000002 19.999999999999996 3.0
    vertex 12.500000000000002 16.999999999999996 13.000000000000002
    vertex 12.500000000000002 16.999999999999996 3.0
  endloop
endfacet
facet normal 1.0 0.0 0.0
  outer loop
    vertex 12.500000000000002 16.999999999999996 13.000000000000002
    vertex 12.500000000000002 19.999999999999996 3.0
    vertex 12.500000000000002 19.999999999999996 13.000000000000002
  endloop
endfacet
facet normal 0.9099223044788299 -0.4147787359688725 -8.751354441468011e-32
  outer loop
    vertex 8.16255456408963 9.415076894472504 0.0
    vertex 7.945996608010177 8.94000211999364 3.0
    vertex 7.945996608010177 8.94000211999364 0.0
  endloop
endfacet
facet normal 0.9099223044788299 -0.4147787359688725 -8.751354441468011e-32
  outer loop
    vertex 7.945996608010177 8.94000211999364 3.0
    vertex 8.16255456408963 9.415076894472504 0.0
    vertex 8.16255456408963 9.415076894472504 3.0
  endloop
endfacet
facet normal 0.9862700901848608 -0.16514027130517508 -7.499577529445726e-32
  outer loop
    vertex 8.248775087272232 9.930013211961931 0.0
    vertex 8.16255456408963 9.415076894472504 3.0
    vertex 8.16255456408963 9.415076894472504 0.0
  endloop
endfacet
facet normal 0.9862700901848608 -0.16514027130517508 -7.499577529445726e-32
  outer loop
    vertex 8.16255456408963 9.415076894472504 3.0
    vertex 8.248775087272232 9.930013211961931 0.0
    vertex 8.248775087272232 9.930013211961931 3.0
  endloop
endfacet
facet normal 0.0 0.0 -1.0
  outer loop
    vertex 33.5 19.999999999999996 23.000000000000004
    vertex 30.5 0.0 23.000000000000004
    vertex 30.5 19.999999999999996 23.000000000000004
  endloop
endfacet
facet normal 0.0 0.0 -1.0
  outer loop
    vertex 30.5 0.0 23.000000000000004
    vertex 33.5 19.999999999999996 23.000000000000004
    vertex 33.5 0.0 23.000000000000004
  endloop
endfacet
facet normal -0.5806264631643077 0.814170074538058 9.421073725236603e-32
  outer loop
    vertex 4.886140714138257 11.462835550692112 3.0
    vertex 5.197118772747032 11.68460996360475 0.0
    vertex 4.886140714138257 11.462835550692112 0.0
  endloop
endfacet
facet normal -0.5806264631643077 0.814170074538058 9.421073725236603e-32
  outer loop
    vertex 5.197118772747032 11.68460996360475 0.0
    vertex 4.886140714138257 11.462835550692112 3.0
    vertex 5.197118772747032 11.68460996360475 3.0
  endloop
endfacet
facet normal -1.0 0.0 0.0
  outer loop
    vertex 33.5 3.0000000000000027 13.000000000000002
    vertex 33.5 0.0 3.0
    vertex 33.5 0.0 13.000000000000002
  endloop
endfacet
facet normal -1.0 0.0 0.0
  outer loop
    vertex 33.5 0.0 3.0
    vertex 33.5 3.0000000000000027 13.000000000000002
    vertex 33.5 2.9999999999999996 3.0
  endloop
endfacet
facet normal 0.0957522299407718 0.9954051991331819 -1.6010746946842508e-32
  outer loop
    vertex 39.68001321196193 11.99877508727223 3.0
    vertex 40.19971901339751 11.948782391389239 0.0
    vertex 39.68001321196193 11.99877508727223 0.0
  endloop
endfacet
facet normal 0.0957522299407718 0.9954051991331819 -1.6010746946842508e-32
  outer loop
    vertex 40.19971901339751 11.948782391389239 0.0
    vertex 39.68001321196193 11.99877508727223 3.0
    vertex 40.19971901339751 11.948782391389239 3.0
  endloop
endfacet
facet normal -0.7715648174402702 -0.6361507152305677 -4.7211172952910085e-32
  outer loop
    vertex 38.054003391989816 8.940002119993636 3.0
    vertex 38.38614071413825 8.537164449307886 0.0
    vertex 38.38614071413825 8.537164449307886 3.0
  endloop
endfacet
facet normal -0.7715648174402702 -0.6361507152305677 -4.7211172952910085e-32
  outer loop
    vertex 38.38614071413825 8.537164449307886 0.0
    vertex 38.054003391989816 8.940002119993636 3.0
    vertex 38.054003391989816 8.940002119993636 0.0
  endloop
endfacet
facet normal -0.995405199133182 0.09575222994077155 -8.277742803239007e-32
  outer loop
    vertex 37.801217608610756 10.449719013397514 3.0
    vertex 37.751224912727764 9.930013211961928 0.0
    vertex 37.751224912727764 9.930013211961928 3.0
  endloop
endfacet
facet normal -0.995405199133182 0.09575222994077155 -8.277742803239007e-32
  outer loop
    vertex 37.751224912727764 9.930013211961928 0.0
    vertex 37.801217608610756 10.449719013397514 3.0
    vertex 37.801217608610756 10.449719013397514 0.0
  endloop
endfacet
facet normal -0.6361507152305647 -0.7715648174402724 -1.293798305111802e-32
  outer loop
    vertex 5.1900021199936415 8.304003391989824 3.0
    vertex 4.787164449307888 8.636140714138255 0.0
    vertex 5.1900021199936415 8.304003391989824 0.0
  endloop
endfacet
facet normal -0.6361507152305647 -0.7715648174402724 -1.293798305111802e-32
  outer loop
    vertex 4.787164449307888 8.636140714138255 0.0
    vertex 5.1900021199936415 8.304003391989824 3.0
    vertex 4.787164449307888 8.636140714138255 3.0
  endloop
endfacet
facet normal 0.3501193749542956 0.9367050887454457 5.959180905251818e-33
  outer loop
    vertex 40.19971901339751 11.948782391389239 3.0
    vertex 40.688777207265865 11.765983396048245 0.0
    vertex 40.19971901339751 11.948782391389239 0.0
  endloop
endfacet
facet normal 0.3501193749542956 0.9367050887454457 5.959180905251818e-33
  outer loop
    vertex 40.688777207265865 11.765983396048245 0.0
    vertex 40.19971901339751 11.948782391389239 3.0
    vertex 40.688777207265865 11.765983396048245 3.0
  endloop
endfacet
facet normal 0.5806264631643028 0.8141700745380616 2.7523000426664745e-32
  outer loop
    vertex 40.688777207265865 11.765983396048245 3.0
    vertex 40.80288122725297 11.684609963604748 0.0
    vertex 40.688777207265865 11.765983396048245 0.0
  endloop
endfacet
facet normal 0.5806264631643028 0.8141700745380616 2.7523000426664745e-32
  outer loop
    vertex 40.80288122725297 11.684609963604748 0.0
    vertex 40.688777207265865 11.765983396048245 3.0
    vertex 40.80288122725297 11.684609963604748 3.0
  endloop
endfacet
facet normal -0.936705088745448 0.3501193749542901 -8.410074180643021e-32
  outer loop
    vertex 37.98401660395175 10.938777207265868 3.0
    vertex 37.801217608610756 10.449719013397514 0.0
    vertex 37.801217608610756 10.449719013397514 3.0
  endloop
endfacet
facet normal -0.936705088745448 0.3501193749542901 -8.410074180643021e-32
  outer loop
    vertex 37.801217608610756 10.449719013397514 0.0
    vertex 37.98401660395175 10.938777207265868 3.0
    vertex 37.98401660395175 10.938777207265868 0.0
  endloop
endfacet
facet normal -0.8141700745380555 0.5806264631643114 -7.96927290094091e-32
  outer loop
    vertex 38.28716444930788 11.363859285861741 3.0
    vertex 37.98401660395175 10.938777207265868 0.0
    vertex 37.98401660395175 10.938777207265868 3.0
  endloop
endfacet
facet normal -0.8141700745380555 0.5806264631643114 -7.96927290094091e-32
  outer loop
    vertex 37.98401660395175 10.938777207265868 0.0
    vertex 38.28716444930788 11.363859285861741 3.0
    vertex 38.28716444930788 11.363859285861741 0.0
  endloop
endfacet
facet normal -0.16514027130517553 0.9862700901848607 -3.688956885351999e-32
  outer loop
    vertex 39.1650768944725 11.912554564089627 3.0
    vertex 39.68001321196193 11.99877508727223 0.0
    vertex 39.1650768944725 11.912554564089627 0.0
  endloop
endfacet
facet normal -0.16514027130517553 0.9862700901848607 -3.688956885351999e-32
  outer loop
    vertex 39.68001321196193 11.99877508727223 0.0
    vertex 39.1650768944725 11.912554564089627 3.0
    vertex 39.68001321196193 11.99877508727223 3.0
  endloop
endfacet
facet normal -0.41477873596887366 0.9099223044788293 -5.525442760572478e-32
  outer loop
    vertex 38.690002119993636 11.695996608010173 3.0
    vertex 39.1650768944725 11.912554564089627 0.0
    vertex 38.690002119993636 11.695996608010173 0.0
  endloop
endfacet
facet normal -0.41477873596887366 0.9099223044788293 -5.525442760572478e-32
  outer loop
    vertex 39.1650768944725 11.912554564089627 0.0
    vertex 38.690002119993636 11.695996608010173 3.0
    vertex 39.1650768944725 11.912554564089627 3.0
  endloop
endfacet
facet normal 0.7715648174402702 0.6361507152305677 4.7211172952910085e-32
  outer loop
    vertex 41.113859285861736 11.462835550692112 0.0
    vertex 41.44599660801017 11.05999788000636 3.0
    vertex 41.44599660801017 11.05999788000636 0.0
  endloop
endfacet
facet normal 0.7715648174402702 0.6361507152305677 4.7211172952910085e-32
  outer loop
    vertex 41.44599660801017 11.05999788000636 3.0
    vertex 41.113859285861736 11.462835550692112 0.0
    vertex 41.113859285861736 11.462835550692112 3.0
  endloop
endfacet
facet normal -0.6361507152305673 0.7715648174402704 -6.985378842885871e-32
  outer loop
    vertex 38.28716444930788 11.363859285861741 3.0
    vertex 38.690002119993636 11.695996608010173 0.0
    vertex 38.28716444930788 11.363859285861741 0.0
  endloop
endfacet
facet normal -0.6361507152305673 0.7715648174402704 -6.985378842885871e-32
  outer loop
    vertex 38.690002119993636 11.695996608010173 0.0
    vertex 38.28716444930788 11.363859285861741 3.0
    vertex 38.690002119993636 11.695996608010173 3.0
  endloop
endfacet
facet normal 0.9862700901848608 0.16514027130517508 7.581296933411034e-32
  outer loop
    vertex 41.66255456408962 10.584923105527496 0.0
    vertex 41.74877508727222 10.069986788038069 3.0
    vertex 41.74877508727222 10.069986788038069 0.0
  endloop
endfacet
facet normal 0.9862700901848608 0.16514027130517508 7.581296933411034e-32
  outer loop
    vertex 41.74877508727222 10.069986788038069 3.0
    vertex 41.66255456408962 10.584923105527496 0.0
    vertex 41.66255456408962 10.584923105527496 3.0
  endloop
endfacet
facet normal -0.9862700901848607 -0.16514027130517553 -7.581296933411034e-32
  outer loop
    vertex 37.751224912727764 9.930013211961928 3.0
    vertex 37.83744543591037 9.415076894472502 0.0
    vertex 37.83744543591037 9.415076894472502 3.0
  endloop
endfacet
facet normal -0.9862700901848607 -0.16514027130517553 -7.581296933411034e-32
  outer loop
    vertex 37.83744543591037 9.415076894472502 0.0
    vertex 37.751224912727764 9.930013211961928 3.0
    vertex 37.751224912727764 9.930013211961928 0.0
  endloop
endfacet
facet normal 0.9367050887454481 -0.35011937495428913 8.410074180643017e-32
  outer loop
    vertex 41.69878239138923 9.550280986602484 0.0
    vertex 41.51598339604824 9.061222792734128 3.0
    vertex 41.51598339604824 9.061222792734128 0.0
  endloop
endfacet
facet normal 0.9367050887454481 -0.35011937495428913 8.410074180643017e-32
  outer loop
    vertex 41.51598339604824 9.061222792734128 3.0
    vertex 41.69878239138923 9.550280986602484 0.0
    vertex 41.69878239138923 9.550280986602484 3.0
  endloop
endfacet
facet normal 0.0 1.0 0.0
  outer loop
    vertex 33.5 0.0 13.000000000000002
    vertex 45.99999999999999 0.0 3.0
    vertex 33.5 0.0 3.0
  endloop
endfacet
facet normal 2.8199664825478964e-17 -1.0 0.0
  outer loop
    vertex 12.500000000000002 3.0 13.000000000000002
    vertex 0.0 3.0 3.0
    vertex 12.500000000000002 3.0 3.0
  endloop
endfacet
facet normal 0.9954051991331819 -0.0957522299407718 8.277742803239007e-32
  outer loop
    vertex 41.74877508727222 10.069986788038069 0.0
    vertex 41.69878239138923 9.550280986602484 3.0
    vertex 41.69878239138923 9.550280986602484 0.0
  endloop
endfacet
facet normal 0.9954051991331819 -0.0957522299407718 8.277742803239007e-32
  outer loop
    vertex 41.69878239138923 9.550280986602484 3.0
    vertex 41.74877508727222 10.069986788038069 0.0
    vertex 41.74877508727222 10.069986788038069 3.0
  endloop
endfacet
facet normal 0.9099223044788319 0.414778735968868 6.368198206256702e-32
  outer loop
    vertex 41.44599660801017 11.05999788000636 0.0
    vertex 41.66255456408962 10.584923105527496 3.0
    vertex 41.66255456408962 10.584923105527496 0.0
  endloop
endfacet
facet normal 0.9099223044788319 0.414778735968868 6.368198206256702e-32
  outer loop
    vertex 41.66255456408962 10.584923105527496 3.0
    vertex 41.44599660801017 11.05999788000636 0.0
    vertex 41.44599660801017 11.05999788000636 3.0
  endloop
endfacet
facet normal 0.5806264631643087 0.8141700745380572 2.7523000426665325e-32
  outer loop
    vertex 40.80288122725297 11.684609963604748 3.0
    vertex 41.113859285861736 11.462835550692112 0.0
    vertex 40.80288122725297 11.684609963604748 0.0
  endloop
endfacet
facet normal 0.5806264631643087 0.8141700745380572 2.7523000426665325e-32
  outer loop
    vertex 41.113859285861736 11.462835550692112 0.0
    vertex 40.80288122725297 11.684609963604748 3.0
    vertex 41.113859285861736 11.462835550692112 3.0
  endloop
endfacet
facet normal 1.0 0.0 0.0
  outer loop
    vertex 30.5 19.999999999999996 3.0
    vertex 30.5 0.0 23.000000000000004
    vertex 30.5 0.0 3.0
  endloop
endfacet
facet normal 1.0 0.0 0.0
  outer loop
    vertex 30.5 0.0 23.000000000000004
    vertex 30.5 19.999999999999996 3.0
    vertex 30.5 19.999999999999996 23.000000000000004
  endloop
endfacet
facet normal -0.8141700745380582 -0.5806264631643074 1.1849305289740489e-32
  outer loop
    vertex 4.484016603951756 9.06122279273413 3.0
    vertex 4.787164449307888 8.636140714138255 0.0
    vertex 4.787164449307888 8.636140714138255 3.0
  endloop
endfacet
facet normal -0.8141700745380582 -0.5806264631643074 1.1849305289740489e-32
  outer loop
    vertex 4.787164449307888 8.636140714138255 0.0
    vertex 4.484016603951756 9.06122279273413 3.0
    vertex 4.484016603951756 9.06122279273413 0.0
  endloop
endfacet
facet normal 0.0 0.0 -1.0
  outer loop
    vertex 45.99999999999999 19.999999999999996 3.0
    vertex 33.5 16.999999999999996 3.0
    vertex 33.5 19.999999999999996 3.0
  endloop
endfacet
facet normal 0.0 0.0 -1.0
  outer loop
    vertex 33.5 16.999999999999996 3.0
    vertex 45.99999999999999 19.999999999999996 3.0
    vertex 45.99999999999999 16.999999999999996 3.0
  endloop
endfacet
facet normal -0.6246950475544244 -7.122146050306892e-31 -0.7808688094430302
  outer loop
    vertex 45.99999999999999 2.999999999999999 3.0
    vertex 33.5 0.0 13.000000000000002
    vertex 33.5 3.0000000000000027 13.000000000000002
  endloop
endfacet
facet normal -0.6246950475544244 -7.122146050306892e-31 -0.7808688094430302
  outer loop
    vertex 33.5 0.0 13.000000000000002
    vertex 45.99999999999999 2.999999999999999 3.0
    vertex 45.99999999999999 0.0 3.0
  endloop
endfacet
endsolid support_cable_sup
