solid support_cable relais
facet normal 0.6992878706003284 -0.7148401737670166 0.0
  outer loop
    vertex 5.6 -8.799999999999997 7.749999999999998
    vertex 5.320083902216813 -9.073826149045386 -0.24999999999999953
    vertex 5.6 -8.799999999999997 -0.24999999999999953
  endloop
endfacet
facet normal 0.6992878706003284 -0.7148401737670166 0.0
  outer loop
    vertex 5.320083902216813 -9.073826149045386 -0.24999999999999953
    vertex 5.6 -8.799999999999997 7.749999999999998
    vertex 5.320083902216813 -9.073826149045386 7.749999999999998
  endloop
endfacet
facet normal -0.5094935665899702 -0.8604744653988472 -0.0
  outer loop
    vertex 7.426173850954612 -8.82008390221681 7.749999999999998
    vertex 7.397618123267582 -8.803175835643222 -0.24999999999999953
    vertex 7.426173850954612 -8.82008390221681 -0.24999999999999953
  endloop
endfacet
facet normal -0.5094935665899702 -0.8604744653988472 -0.0
  outer loop
    vertex 7.397618123267582 -8.803175835643222 -0.24999999999999953
    vertex 7.426173850954612 -8.82008390221681 7.749999999999998
    vertex 7.397618123267582 -8.803175835643222 7.749999999999998
  endloop
endfacet
facet normal 0.9687136854280833 0.24818097361470057 0.0
  outer loop
    vertex 5.010769515458674 -10.179422863405994 -0.24999999999999953
    vertex 5.10795186786085 -10.558750389537135 7.749999999999998
    vertex 5.10795186786085 -10.558750389537135 -0.24999999999999953
  endloop
endfacet
facet normal 0.9687136854280833 0.24818097361470057 0.0
  outer loop
    vertex 5.10795186786085 -10.558750389537135 7.749999999999998
    vertex 5.010769515458674 -10.179422863405994 -0.24999999999999953
    vertex 5.010769515458674 -10.179422863405994 7.749999999999998
  endloop
endfacet
facet normal 0.26942581482775513 0.9630211473817178 0.0
  outer loop
    vertex 5.910769515458675 -11.379422863405992 7.749999999999998
    vertex 6.287867965644038 -11.484924240491747 -0.24999999999999953
    vertex 5.910769515458675 -11.379422863405992 -0.24999999999999953
  endloop
endfacet
facet normal 0.26942581482775513 0.9630211473817178 0.0
  outer loop
    vertex 6.287867965644038 -11.484924240491747 -0.24999999999999953
    vertex 5.910769515458675 -11.379422863405992 7.749999999999998
    vertex 6.287867965644038 -11.484924240491747 7.749999999999998
  endloop
endfacet
facet normal 0.7148401737670149 0.6992878706003302 0.0
  outer loop
    vertex 5.3 -10.899999999999999 -0.24999999999999953
    vertex 5.573826149045388 -11.179916097783185 7.749999999999998
    vertex 5.573826149045388 -11.179916097783185 -0.24999999999999953
  endloop
endfacet
facet normal 0.7148401737670149 0.6992878706003302 0.0
  outer loop
    vertex 5.573826149045388 -11.179916097783185 7.749999999999998
    vertex 5.3 -10.899999999999999 -0.24999999999999953
    vertex 5.3 -10.899999999999999 7.749999999999998
  endloop
endfacet
facet normal 0.509493566589976 0.8604744653988436 0.0
  outer loop
    vertex 5.6023818767324185 -11.196824164356773 7.749999999999998
    vertex 5.910769515458675 -11.379422863405992 -0.24999999999999953
    vertex 5.6023818767324185 -11.196824164356773 -0.24999999999999953
  endloop
endfacet
facet normal 0.509493566589976 0.8604744653988436 0.0
  outer loop
    vertex 5.910769515458675 -11.379422863405992 -0.24999999999999953
    vertex 5.6023818767324185 -11.196824164356773 7.749999999999998
    vertex 5.910769515458675 -11.379422863405992 7.749999999999998
  endloop
endfacet
facet normal 0.5094935665899795 0.8604744653988416 0.0
  outer loop
    vertex 5.573826149045388 -11.179916097783185 7.749999999999998
    vertex 5.6023818767324185 -11.196824164356773 -0.24999999999999953
    vertex 5.573826149045388 -11.179916097783185 -0.24999999999999953
  endloop
endfacet
facet normal 0.5094935665899795 0.8604744653988416 0.0
  outer loop
    vertex 5.6023818767324185 -11.196824164356773 -0.24999999999999953
    vertex 5.573826149045388 -11.179916097783185 7.749999999999998
    vertex 5.6023818767324185 -11.196824164356773 7.749999999999998
  endloop
endfacet
facet normal 0.8714716044310794 0.49044596304824495 0.0
  outer loop
    vertex 5.10795186786085 -10.558750389537135 -0.24999999999999953
    vertex 5.3 -10.899999999999999 7.749999999999998
    vertex 5.3 -10.899999999999999 -0.24999999999999953
  endloop
endfacet
facet normal 0.8714716044310794 0.49044596304824495 0.0
  outer loop
    vertex 5.3 -10.899999999999999 7.749999999999998
    vertex 5.10795186786085 -10.558750389537135 -0.24999999999999953
    vertex 5.10795186786085 -10.558750389537135 7.749999999999998
  endloop
endfacet
facet normal 0.2481809736146997 -0.9687136854280836 0.0
  outer loop
    vertex 6.320577136594003 -8.510769515458671 7.749999999999998
    vertex 5.941249610462862 -8.607951867860848 -0.24999999999999953
    vertex 6.320577136594003 -8.510769515458671 -0.24999999999999953
  endloop
endfacet
facet normal 0.2481809736146997 -0.9687136854280836 0.0
  outer loop
    vertex 5.941249610462862 -8.607951867860848 -0.24999999999999953
    vertex 6.320577136594003 -8.510769515458671 7.749999999999998
    vertex 5.941249610462862 -8.607951867860848 7.749999999999998
  endloop
endfacet
facet normal 0.9999395296382205 -0.010997139032231894 0.0
  outer loop
    vertex 5.01507575950825 -9.787867965644034 -0.24999999999999953
    vertex 5.010769515458674 -10.179422863405994 7.749999999999998
    vertex 5.010769515458674 -10.179422863405994 -0.24999999999999953
  endloop
endfacet
facet normal 0.9999395296382205 -0.010997139032231894 0.0
  outer loop
    vertex 5.010769515458674 -10.179422863405994 7.749999999999998
    vertex 5.01507575950825 -9.787867965644034 -0.24999999999999953
    vertex 5.01507575950825 -9.787867965644034 7.749999999999998
  endloop
endfacet
facet normal 0.49044596304824567 -0.871471604431079 0.0
  outer loop
    vertex 5.941249610462862 -8.607951867860848 7.749999999999998
    vertex 5.6 -8.799999999999997 -0.24999999999999953
    vertex 5.941249610462862 -8.607951867860848 -0.24999999999999953
  endloop
endfacet
facet normal 0.49044596304824567 -0.871471604431079 0.0
  outer loop
    vertex 5.6 -8.799999999999997 -0.24999999999999953
    vertex 5.941249610462862 -8.607951867860848 7.749999999999998
    vertex 5.6 -8.799999999999997 7.749999999999998
  endloop
endfacet
facet normal 0.9630211473817175 -0.269425814827756 0.0
  outer loop
    vertex 5.1205771365940045 -9.410769515458673 -0.24999999999999953
    vertex 5.01507575950825 -9.787867965644034 7.749999999999998
    vertex 5.01507575950825 -9.787867965644034 -0.24999999999999953
  endloop
endfacet
facet normal 0.9630211473817175 -0.269425814827756 0.0
  outer loop
    vertex 5.01507575950825 -9.787867965644034 7.749999999999998
    vertex 5.1205771365940045 -9.410769515458673 -0.24999999999999953
    vertex 5.1205771365940045 -9.410769515458673 7.749999999999998
  endloop
endfacet
facet normal -0.010997139032231935 -0.9999395296382206 -0.0
  outer loop
    vertex 6.712132034355962 -8.515075759508248 7.749999999999998
    vertex 6.320577136594003 -8.510769515458671 -0.24999999999999953
    vertex 6.712132034355962 -8.515075759508248 -0.24999999999999953
  endloop
endfacet
facet normal -0.010997139032231935 -0.9999395296382206 -0.0
  outer loop
    vertex 6.320577136594003 -8.510769515458671 -0.24999999999999953
    vertex 6.712132034355962 -8.515075759508248 7.749999999999998
    vertex 6.320577136594003 -8.510769515458671 7.749999999999998
  endloop
endfacet
facet normal -0.26942581482775513 -0.9630211473817178 -0.0
  outer loop
    vertex 7.089230484541325 -8.620577136594003 7.749999999999998
    vertex 6.712132034355962 -8.515075759508248 -0.24999999999999953
    vertex 7.089230484541325 -8.620577136594003 -0.24999999999999953
  endloop
endfacet
facet normal -0.26942581482775513 -0.9630211473817178 -0.0
  outer loop
    vertex 6.712132034355962 -8.515075759508248 -0.24999999999999953
    vertex 7.089230484541325 -8.620577136594003 7.749999999999998
    vertex 6.712132034355962 -8.515075759508248 7.749999999999998
  endloop
endfacet
facet normal 0.010997139032231954 0.9999395296382205 0.0
  outer loop
    vertex 6.287867965644038 -11.484924240491747 7.749999999999998
    vertex 6.679422863405995 -11.489230484541322 -0.24999999999999953
    vertex 6.287867965644038 -11.484924240491747 -0.24999999999999953
  endloop
endfacet
facet normal 0.010997139032231954 0.9999395296382205 0.0
  outer loop
    vertex 6.679422863405995 -11.489230484541322 -0.24999999999999953
    vertex 6.287867965644038 -11.484924240491747 7.749999999999998
    vertex 6.679422863405995 -11.489230484541322 7.749999999999998
  endloop
endfacet
facet normal 0.8604744653988446 -0.5094935665899741 0.0
  outer loop
    vertex 5.320083902216813 -9.073826149045386 -0.24999999999999953
    vertex 5.1205771365940045 -9.410769515458673 7.749999999999998
    vertex 5.1205771365940045 -9.410769515458673 -0.24999999999999953
  endloop
endfacet
facet normal 0.8604744653988446 -0.5094935665899741 0.0
  outer loop
    vertex 5.1205771365940045 -9.410769515458673 7.749999999999998
    vertex 5.320083902216813 -9.073826149045386 -0.24999999999999953
    vertex 5.320083902216813 -9.073826149045386 7.749999999999998
  endloop
endfacet
facet normal -0.2481809736146997 0.9687136854280836 0.0
  outer loop
    vertex 6.679422863405995 -11.489230484541322 7.749999999999998
    vertex 7.058750389537137 -11.392048132139147 -0.24999999999999953
    vertex 6.679422863405995 -11.489230484541322 -0.24999999999999953
  endloop
endfacet
facet normal -0.2481809736146997 0.9687136854280836 0.0
  outer loop
    vertex 7.058750389537137 -11.392048132139147 -0.24999999999999953
    vertex 6.679422863405995 -11.489230484541322 7.749999999999998
    vertex 7.058750389537137 -11.392048132139147 7.749999999999998
  endloop
endfacet
facet normal -0.49044596304824495 0.8714716044310794 0.0
  outer loop
    vertex 7.058750389537137 -11.392048132139147 7.749999999999998
    vertex 7.4 -11.199999999999996 -0.24999999999999953
    vertex 7.058750389537137 -11.392048132139147 -0.24999999999999953
  endloop
endfacet
facet normal -0.49044596304824495 0.8714716044310794 0.0
  outer loop
    vertex 7.4 -11.199999999999996 -0.24999999999999953
    vertex 7.058750389537137 -11.392048132139147 7.749999999999998
    vertex 7.4 -11.199999999999996 7.749999999999998
  endloop
endfacet
facet normal -0.509493566589976 -0.8604744653988436 -0.0
  outer loop
    vertex 7.397618123267582 -8.803175835643222 7.749999999999998
    vertex 7.089230484541325 -8.620577136594003 -0.24999999999999953
    vertex 7.397618123267582 -8.803175835643222 -0.24999999999999953
  endloop
endfacet
facet normal -0.509493566589976 -0.8604744653988436 -0.0
  outer loop
    vertex 7.089230484541325 -8.620577136594003 -0.24999999999999953
    vertex 7.397618123267582 -8.803175835643222 7.749999999999998
    vertex 7.089230484541325 -8.620577136594003 7.749999999999998
  endloop
endfacet
facet normal -0.9999395296382206 0.010997139032235535 0.0
  outer loop
    vertex 7.989230484541326 -9.820577136594002 7.749999999999998
    vertex 7.9849242404917495 -10.21213203435596 -0.24999999999999953
    vertex 7.9849242404917495 -10.21213203435596 7.749999999999998
  endloop
endfacet
facet normal -0.9999395296382206 0.010997139032235535 0.0
  outer loop
    vertex 7.9849242404917495 -10.21213203435596 -0.24999999999999953
    vertex 7.989230484541326 -9.820577136594002 7.749999999999998
    vertex 7.989230484541326 -9.820577136594002 -0.24999999999999953
  endloop
endfacet
facet normal -0.7148401737670184 -0.6992878706003265 -0.0
  outer loop
    vertex 7.426173850954612 -8.82008390221681 7.749999999999998
    vertex 7.699999999999998 -9.099999999999998 -0.24999999999999953
    vertex 7.699999999999998 -9.099999999999998 7.749999999999998
  endloop
endfacet
facet normal -0.7148401737670184 -0.6992878706003265 -0.0
  outer loop
    vertex 7.699999999999998 -9.099999999999998 -0.24999999999999953
    vertex 7.426173850954612 -8.82008390221681 7.749999999999998
    vertex 7.426173850954612 -8.82008390221681 -0.24999999999999953
  endloop
endfacet
facet normal -0.8714716044310784 -0.49044596304824645 -0.0
  outer loop
    vertex 7.699999999999998 -9.099999999999998 7.749999999999998
    vertex 7.892048132139149 -9.44124961046286 -0.24999999999999953
    vertex 7.892048132139149 -9.44124961046286 7.749999999999998
  endloop
endfacet
facet normal -0.8714716044310784 -0.49044596304824645 -0.0
  outer loop
    vertex 7.892048132139149 -9.44124961046286 -0.24999999999999953
    vertex 7.699999999999998 -9.099999999999998 7.749999999999998
    vertex 7.699999999999998 -9.099999999999998 -0.24999999999999953
  endloop
endfacet
facet normal -0.9687136854280827 -0.24818097361470307 -0.0
  outer loop
    vertex 7.892048132139149 -9.44124961046286 7.749999999999998
    vertex 7.989230484541326 -9.820577136594002 -0.24999999999999953
    vertex 7.989230484541326 -9.820577136594002 7.749999999999998
  endloop
endfacet
facet normal -0.9687136854280827 -0.24818097361470307 -0.0
  outer loop
    vertex 7.989230484541326 -9.820577136594002 -0.24999999999999953
    vertex 7.892048132139149 -9.44124961046286 7.749999999999998
    vertex 7.892048132139149 -9.44124961046286 -0.24999999999999953
  endloop
endfacet
facet normal -0.8604744653988448 0.5094935665899739 0.0
  outer loop
    vertex 7.879422863405995 -10.589230484541321 7.749999999999998
    vertex 7.679916097783186 -10.92617385095461 -0.24999999999999953
    vertex 7.679916097783186 -10.92617385095461 7.749999999999998
  endloop
endfacet
facet normal -0.8604744653988448 0.5094935665899739 0.0
  outer loop
    vertex 7.679916097783186 -10.92617385095461 -0.24999999999999953
    vertex 7.879422863405995 -10.589230484541321 7.749999999999998
    vertex 7.879422863405995 -10.589230484541321 -0.24999999999999953
  endloop
endfacet
facet normal -0.9630211473817175 0.269425814827756 0.0
  outer loop
    vertex 7.9849242404917495 -10.21213203435596 7.749999999999998
    vertex 7.879422863405995 -10.589230484541321 -0.24999999999999953
    vertex 7.879422863405995 -10.589230484541321 7.749999999999998
  endloop
endfacet
facet normal -0.9630211473817175 0.269425814827756 0.0
  outer loop
    vertex 7.879422863405995 -10.589230484541321 -0.24999999999999953
    vertex 7.9849242404917495 -10.21213203435596 7.749999999999998
    vertex 7.9849242404917495 -10.21213203435596 -0.24999999999999953
  endloop
endfacet
facet normal -0.6992878706003283 0.7148401737670166 0.0
  outer loop
    vertex 7.4 -11.199999999999996 7.749999999999998
    vertex 7.679916097783186 -10.92617385095461 -0.24999999999999953
    vertex 7.4 -11.199999999999996 -0.24999999999999953
  endloop
endfacet
facet normal -0.6992878706003283 0.7148401737670166 0.0
  outer loop
    vertex 7.679916097783186 -10.92617385095461 -0.24999999999999953
    vertex 7.4 -11.199999999999996 7.749999999999998
    vertex 7.679916097783186 -10.92617385095461 7.749999999999998
  endloop
endfacet
facet normal 0.0 0.0 1.0
  outer loop
    vertex 12.999999999999998 -19.999999999999993 -1.9999999999999998
    vertex 11.0 0.0 -1.9999999999999998
    vertex 11.0 -19.999999999999993 -1.9999999999999998
  endloop
endfacet
facet normal 0.0 0.0 1.0
  outer loop
    vertex 11.0 0.0 -1.9999999999999998
    vertex 12.999999999999998 -19.999999999999993 -1.9999999999999998
    vertex 12.999999999999998 0.0 -1.9999999999999998
  endloop
endfacet
facet normal -1.0 -0.0 -0.0
  outer loop
    vertex -0.9999999999999999 0.0 7.749999999999998
    vertex -0.9999999999999999 -19.999999999999993 -3.0
    vertex -0.9999999999999999 -19.999999999999993 7.749999999999998
  endloop
endfacet
facet normal -1.0 -0.0 -0.0
  outer loop
    vertex -0.9999999999999999 -19.999999999999993 -3.0
    vertex -0.9999999999999999 0.0 7.749999999999998
    vertex -0.9999999999999999 0.0 -3.0
  endloop
endfacet
facet normal 0.0 0.0 -1.0
  outer loop
    vertex 1.9999999999999998 0.0 -3.0
    vertex -0.9999999999999999 -19.999999999999993 -3.0
    vertex -0.9999999999999999 0.0 -3.0
  endloop
endfacet
facet normal 0.0 0.0 -1.0
  outer loop
    vertex -0.9999999999999999 -19.999999999999993 -3.0
    vertex 1.9999999999999998 0.0 -3.0
    vertex 1.9999999999999998 -19.999999999999993 -3.0
  endloop
endfacet
facet normal 0.0 0.0 -1.0
  outer loop
    vertex 0.0 0.0 -0.2499999999999999
    vertex 5.1205771365940045 -9.410769515458673 -0.24999999999999953
    vertex 0.0 -19.999999999999993 -0.2499999999999999
  endloop
endfacet
facet normal 0.0 0.0 -1.0
  outer loop
    vertex 5.1205771365940045 -9.410769515458673 -0.24999999999999953
    vertex 0.0 0.0 -0.2499999999999999
    vertex 5.320083902216813 -9.073826149045386 -0.24999999999999953
  endloop
endfacet
facet normal 0.0 0.0 -1.0
  outer loop
    vertex 5.320083902216813 -9.073826149045386 -0.24999999999999953
    vertex 0.0 0.0 -0.2499999999999999
    vertex 12.999999999999998 0.0 -0.2499999999999999
  endloop
endfacet
facet normal 0.0 0.0 -1.0
  outer loop
    vertex 0.0 -19.999999999999993 -0.2499999999999999
    vertex 5.1205771365940045 -9.410769515458673 -0.24999999999999953
    vertex 5.01507575950825 -9.787867965644034 -0.24999999999999953
  endloop
endfacet
facet normal 0.0 0.0 -1.0
  outer loop
    vertex 0.0 -19.999999999999993 -0.2499999999999999
    vertex 5.01507575950825 -9.787867965644034 -0.24999999999999953
    vertex 5.010769515458674 -10.179422863405994 -0.24999999999999953
  endloop
endfacet
facet normal 0.0 0.0 -1.0
  outer loop
    vertex 5.320083902216813 -9.073826149045386 -0.24999999999999953
    vertex 12.999999999999998 0.0 -0.2499999999999999
    vertex 5.6 -8.799999999999997 -0.24999999999999953
  endloop
endfacet
facet normal 0.0 0.0 -1.0
  outer loop
    vertex 5.6 -8.799999999999997 -0.24999999999999953
    vertex 12.999999999999998 0.0 -0.2499999999999999
    vertex 5.941249610462862 -8.607951867860848 -0.24999999999999953
  endloop
endfacet
facet normal 0.0 0.0 -1.0
  outer loop
    vertex 5.941249610462862 -8.607951867860848 -0.24999999999999953
    vertex 12.999999999999998 0.0 -0.2499999999999999
    vertex 6.320577136594003 -8.510769515458671 -0.24999999999999953
  endloop
endfacet
facet normal 0.0 0.0 -1.0
  outer loop
    vertex 6.320577136594003 -8.510769515458671 -0.24999999999999953
    vertex 12.999999999999998 0.0 -0.2499999999999999
    vertex 6.712132034355962 -8.515075759508248 -0.24999999999999953
  endloop
endfacet
facet normal 0.0 0.0 -1.0
  outer loop
    vertex 6.712132034355962 -8.515075759508248 -0.24999999999999953
    vertex 12.999999999999998 0.0 -0.2499999999999999
    vertex 7.089230484541325 -8.620577136594003 -0.24999999999999953
  endloop
endfacet
facet normal 0.0 0.0 -1.0
  outer loop
    vertex 7.089230484541325 -8.620577136594003 -0.24999999999999953
    vertex 12.999999999999998 0.0 -0.2499999999999999
    vertex 7.397618123267582 -8.803175835643222 -0.24999999999999953
  endloop
endfacet
facet normal 0.0 0.0 -1.0
  outer loop
    vertex 7.397618123267582 -8.803175835643222 -0.24999999999999953
    vertex 12.999999999999998 0.0 -0.2499999999999999
    vertex 7.426173850954612 -8.82008390221681 -0.24999999999999953
  endloop
endfacet
facet normal 0.0 0.0 -1.0
  outer loop
    vertex 7.426173850954612 -8.82008390221681 -0.24999999999999953
    vertex 12.999999999999998 0.0 -0.2499999999999999
    vertex 7.699999999999998 -9.099999999999998 -0.24999999999999953
  endloop
endfacet
facet normal 0.0 0.0 -1.0
  outer loop
    vertex 7.699999999999998 -9.099999999999998 -0.24999999999999953
    vertex 12.999999999999998 0.0 -0.2499999999999999
    vertex 7.892048132139149 -9.44124961046286 -0.24999999999999953
  endloop
endfacet
facet normal 0.0 0.0 -1.0
  outer loop
    vertex 7.892048132139149 -9.44124961046286 -0.24999999999999953
    vertex 12.999999999999998 0.0 -0.2499999999999999
    vertex 7.989230484541326 -9.820577136594002 -0.24999999999999953
  endloop
endfacet
facet normal 0.0 0.0 -1.0
  outer loop
    vertex 0.0 -19.999999999999993 -0.2499999999999999
    vertex 5.3 -10.899999999999999 -0.24999999999999953
    vertex 12.999999999999998 -19.999999999999993 -0.2499999999999999
  endloop
endfacet
facet normal 0.0 0.0 -1.0
  outer loop
    vertex 5.3 -10.899999999999999 -0.24999999999999953
    vertex 0.0 -19.999999999999993 -0.2499999999999999
    vertex 5.10795186786085 -10.558750389537135 -0.24999999999999953
  endloop
endfacet
facet normal 0.0 0.0 -1.0
  outer loop
    vertex 5.10795186786085 -10.558750389537135 -0.24999999999999953
    vertex 0.0 -19.999999999999993 -0.2499999999999999
    vertex 5.010769515458674 -10.179422863405994 -0.24999999999999953
  endloop
endfacet
facet normal 0.0 0.0 -1.0
  outer loop
    vertex 12.999999999999998 -19.999999999999993 -0.2499999999999999
    vertex 5.3 -10.899999999999999 -0.24999999999999953
    vertex 5.573826149045388 -11.179916097783185 -0.24999999999999953
  endloop
endfacet
facet normal 0.0 0.0 -1.0
  outer loop
    vertex 12.999999999999998 -19.999999999999993 -0.2499999999999999
    vertex 5.573826149045388 -11.179916097783185 -0.24999999999999953
    vertex 5.6023818767324185 -11.196824164356773 -0.24999999999999953
  endloop
endfacet
facet normal 0.0 0.0 -1.0
  outer loop
    vertex 12.999999999999998 -19.999999999999993 -0.2499999999999999
    vertex 5.6023818767324185 -11.196824164356773 -0.24999999999999953
    vertex 5.910769515458675 -11.379422863405992 -0.24999999999999953
  endloop
endfacet
facet normal 0.0 0.0 -1.0
  outer loop
    vertex 12.999999999999998 -19.999999999999993 -0.2499999999999999
    vertex 5.910769515458675 -11.379422863405992 -0.24999999999999953
    vertex 6.287867965644038 -11.484924240491747 -0.24999999999999953
  endloop
endfacet
facet normal 0.0 0.0 -1.0
  outer loop
    vertex 12.999999999999998 -19.999999999999993 -0.2499999999999999
    vertex 6.287867965644038 -11.484924240491747 -0.24999999999999953
    vertex 6.679422863405995 -11.489230484541322 -0.24999999999999953
  endloop
endfacet
facet normal 0.0 0.0 -1.0
  outer loop
    vertex 12.999999999999998 -19.999999999999993 -0.2499999999999999
    vertex 6.679422863405995 -11.489230484541322 -0.24999999999999953
    vertex 7.058750389537137 -11.392048132139147 -0.24999999999999953
  endloop
endfacet
facet normal 0.0 0.0 -1.0
  outer loop
    vertex 12.999999999999998 -19.999999999999993 -0.2499999999999999
    vertex 7.058750389537137 -11.392048132139147 -0.24999999999999953
    vertex 7.4 -11.199999999999996 -0.24999999999999953
  endloop
endfacet
facet normal 0.0 0.0 -1.0
  outer loop
    vertex 12.999999999999998 -19.999999999999993 -0.2499999999999999
    vertex 7.4 -11.199999999999996 -0.24999999999999953
    vertex 7.679916097783186 -10.92617385095461 -0.24999999999999953
  endloop
endfacet
facet normal 0.0 0.0 -1.0
  outer loop
    vertex 12.999999999999998 -19.999999999999993 -0.2499999999999999
    vertex 7.679916097783186 -10.92617385095461 -0.24999999999999953
    vertex 7.879422863405995 -10.589230484541321 -0.24999999999999953
  endloop
endfacet
facet normal 0.0 0.0 -1.0
  outer loop
    vertex 12.999999999999998 -19.999999999999993 -0.2499999999999999
    vertex 7.879422863405995 -10.589230484541321 -0.24999999999999953
    vertex 7.9849242404917495 -10.21213203435596 -0.24999999999999953
  endloop
endfacet
facet normal 0.0 0.0 -1.0
  outer loop
    vertex 12.999999999999998 -19.999999999999993 -0.2499999999999999
    vertex 7.9849242404917495 -10.21213203435596 -0.24999999999999953
    vertex 7.989230484541326 -9.820577136594002 -0.24999999999999953
  endloop
endfacet
facet normal 0.0 0.0 -1.0
  outer loop
    vertex 12.999999999999998 -19.999999999999993 -0.2499999999999999
    vertex 7.989230484541326 -9.820577136594002 -0.24999999999999953
    vertex 12.999999999999998 0.0 -0.2499999999999999
  endloop
endfacet
facet normal 0.0 0.0 1.0
  outer loop
    vertex -0.9999999999999999 -19.999999999999993 7.749999999999998
    vertex 5.3 -10.899999999999999 7.749999999999998
    vertex -0.9999999999999999 0.0 7.749999999999998
  endloop
endfacet
facet normal 0.0 0.0 1.0
  outer loop
    vertex 5.3 -10.899999999999999 7.749999999999998
    vertex -0.9999999999999999 -19.999999999999993 7.749999999999998
    vertex 14.0 -19.999999999999993 7.749999999999998
  endloop
endfacet
facet normal 0.0 0.0 1.0
  outer loop
    vertex -0.9999999999999999 0.0 7.749999999999998
    vertex 5.3 -10.899999999999999 7.749999999999998
    vertex 5.10795186786085 -10.558750389537135 7.749999999999998
  endloop
endfacet
facet normal 0.0 0.0 1.0
  outer loop
    vertex -0.9999999999999999 0.0 7.749999999999998
    vertex 5.10795186786085 -10.558750389537135 7.749999999999998
    vertex 5.010769515458674 -10.179422863405994 7.749999999999998
  endloop
endfacet
facet normal 0.0 0.0 1.0
  outer loop
    vertex 5.3 -10.899999999999999 7.749999999999998
    vertex 14.0 -19.999999999999993 7.749999999999998
    vertex 5.573826149045388 -11.179916097783185 7.749999999999998
  endloop
endfacet
facet normal 0.0 0.0 1.0
  outer loop
    vertex 5.573826149045388 -11.179916097783185 7.749999999999998
    vertex 14.0 -19.999999999999993 7.749999999999998
    vertex 5.6023818767324185 -11.196824164356773 7.749999999999998
  endloop
endfacet
facet normal 0.0 0.0 1.0
  outer loop
    vertex 5.6023818767324185 -11.196824164356773 7.749999999999998
    vertex 14.0 -19.999999999999993 7.749999999999998
    vertex 5.910769515458675 -11.379422863405992 7.749999999999998
  endloop
endfacet
facet normal 0.0 0.0 1.0
  outer loop
    vertex 5.910769515458675 -11.379422863405992 7.749999999999998
    vertex 14.0 -19.999999999999993 7.749999999999998
    vertex 6.287867965644038 -11.484924240491747 7.749999999999998
  endloop
endfacet
facet normal 0.0 0.0 1.0
  outer loop
    vertex 6.287867965644038 -11.484924240491747 7.749999999999998
    vertex 14.0 -19.999999999999993 7.749999999999998
    vertex 6.679422863405995 -11.489230484541322 7.749999999999998
  endloop
endfacet
facet normal 0.0 0.0 1.0
  outer loop
    vertex 6.679422863405995 -11.489230484541322 7.749999999999998
    vertex 14.0 -19.999999999999993 7.749999999999998
    vertex 7.058750389537137 -11.392048132139147 7.749999999999998
  endloop
endfacet
facet normal 0.0 0.0 1.0
  outer loop
    vertex 7.058750389537137 -11.392048132139147 7.749999999999998
    vertex 14.0 -19.999999999999993 7.749999999999998
    vertex 7.4 -11.199999999999996 7.749999999999998
  endloop
endfacet
facet normal 0.0 0.0 1.0
  outer loop
    vertex 7.4 -11.199999999999996 7.749999999999998
    vertex 14.0 -19.999999999999993 7.749999999999998
    vertex 7.679916097783186 -10.92617385095461 7.749999999999998
  endloop
endfacet
facet normal 0.0 0.0 1.0
  outer loop
    vertex 7.679916097783186 -10.92617385095461 7.749999999999998
    vertex 14.0 -19.999999999999993 7.749999999999998
    vertex 7.879422863405995 -10.589230484541321 7.749999999999998
  endloop
endfacet
facet normal 0.0 0.0 1.0
  outer loop
    vertex 7.879422863405995 -10.589230484541321 7.749999999999998
    vertex 14.0 -19.999999999999993 7.749999999999998
    vertex 7.9849242404917495 -10.21213203435596 7.749999999999998
  endloop
endfacet
facet normal 0.0 0.0 1.0
  outer loop
    vertex 7.9849242404917495 -10.21213203435596 7.749999999999998
    vertex 14.0 -19.999999999999993 7.749999999999998
    vertex 7.989230484541326 -9.820577136594002 7.749999999999998
  endloop
endfacet
facet normal 0.0 0.0 1.0
  outer loop
    vertex -0.9999999999999999 0.0 7.749999999999998
    vertex 5.320083902216813 -9.073826149045386 7.749999999999998
    vertex 14.0 0.0 7.749999999999998
  endloop
endfacet
facet normal 0.0 0.0 1.0
  outer loop
    vertex 5.320083902216813 -9.073826149045386 7.749999999999998
    vertex -0.9999999999999999 0.0 7.749999999999998
    vertex 5.1205771365940045 -9.410769515458673 7.749999999999998
  endloop
endfacet
facet normal 0.0 0.0 1.0
  outer loop
    vertex 5.1205771365940045 -9.410769515458673 7.749999999999998
    vertex -0.9999999999999999 0.0 7.749999999999998
    vertex 5.01507575950825 -9.787867965644034 7.749999999999998
  endloop
endfacet
facet normal 0.0 0.0 1.0
  outer loop
    vertex 5.01507575950825 -9.787867965644034 7.749999999999998
    vertex -0.9999999999999999 0.0 7.749999999999998
    vertex 5.010769515458674 -10.179422863405994 7.749999999999998
  endloop
endfacet
facet normal 0.0 0.0 1.0
  outer loop
    vertex 14.0 0.0 7.749999999999998
    vertex 5.320083902216813 -9.073826149045386 7.749999999999998
    vertex 5.6 -8.799999999999997 7.749999999999998
  endloop
endfacet
facet normal 0.0 0.0 1.0
  outer loop
    vertex 14.0 0.0 7.749999999999998
    vertex 5.6 -8.799999999999997 7.749999999999998
    vertex 5.941249610462862 -8.607951867860848 7.749999999999998
  endloop
endfacet
facet normal 0.0 0.0 1.0
  outer loop
    vertex 14.0 0.0 7.749999999999998
    vertex 5.941249610462862 -8.607951867860848 7.749999999999998
    vertex 6.320577136594003 -8.510769515458671 7.749999999999998
  endloop
endfacet
facet normal 0.0 0.0 1.0
  outer loop
    vertex 14.0 0.0 7.749999999999998
    vertex 6.320577136594003 -8.510769515458671 7.749999999999998
    vertex 6.712132034355962 -8.515075759508248 7.749999999999998
  endloop
endfacet
facet normal 0.0 0.0 1.0
  outer loop
    vertex 14.0 0.0 7.749999999999998
    vertex 6.712132034355962 -8.515075759508248 7.749999999999998
    vertex 7.089230484541325 -8.620577136594003 7.749999999999998
  endloop
endfacet
facet normal 0.0 0.0 1.0
  outer loop
    vertex 14.0 0.0 7.749999999999998
    vertex 7.089230484541325 -8.620577136594003 7.749999999999998
    vertex 7.397618123267582 -8.803175835643222 7.749999999999998
  endloop
endfacet
facet normal 0.0 0.0 1.0
  outer loop
    vertex 14.0 0.0 7.749999999999998
    vertex 7.397618123267582 -8.803175835643222 7.749999999999998
    vertex 7.426173850954612 -8.82008390221681 7.749999999999998
  endloop
endfacet
facet normal 0.0 0.0 1.0
  outer loop
    vertex 14.0 0.0 7.749999999999998
    vertex 7.426173850954612 -8.82008390221681 7.749999999999998
    vertex 7.699999999999998 -9.099999999999998 7.749999999999998
  endloop
endfacet
facet normal 0.0 0.0 1.0
  outer loop
    vertex 14.0 0.0 7.749999999999998
    vertex 7.699999999999998 -9.099999999999998 7.749999999999998
    vertex 7.892048132139149 -9.44124961046286 7.749999999999998
  endloop
endfacet
facet normal 0.0 0.0 1.0
  outer loop
    vertex 14.0 0.0 7.749999999999998
    vertex 7.892048132139149 -9.44124961046286 7.749999999999998
    vertex 7.989230484541326 -9.820577136594002 7.749999999999998
  endloop
endfacet
facet normal 0.0 0.0 1.0
  outer loop
    vertex 14.0 0.0 7.749999999999998
    vertex 7.989230484541326 -9.820577136594002 7.749999999999998
    vertex 14.0 -19.999999999999993 7.749999999999998
  endloop
endfacet
facet normal 1.0 0.0 0.0
  outer loop
    vertex 1.9999999999999998 0.0 -3.0
    vertex 1.9999999999999998 -19.999999999999993 -1.9999999999999998
    vertex 1.9999999999999998 -19.999999999999993 -3.0
  endloop
endfacet
facet normal 1.0 0.0 0.0
  outer loop
    vertex 1.9999999999999998 -19.999999999999993 -1.9999999999999998
    vertex 1.9999999999999998 0.0 -3.0
    vertex 1.9999999999999998 0.0 -1.9999999999999998
  endloop
endfacet
facet normal 0.0 0.0 1.0
  outer loop
    vertex 1.9999999999999998 -19.999999999999993 -1.9999999999999998
    vertex 0.0 0.0 -1.9999999999999998
    vertex 0.0 -19.999999999999993 -1.9999999999999998
  endloop
endfacet
facet normal 0.0 0.0 1.0
  outer loop
    vertex 0.0 0.0 -1.9999999999999998
    vertex 1.9999999999999998 -19.999999999999993 -1.9999999999999998
    vertex 1.9999999999999998 0.0 -1.9999999999999998
  endloop
endfacet
facet normal -1.0 -0.0 -0.0
  outer loop
    vertex 11.0 0.0 -1.9999999999999998
    vertex 11.0 -19.999999999999993 -3.0
    vertex 11.0 -19.999999999999993 -1.9999999999999998
  endloop
endfacet
facet normal -1.0 -0.0 -0.0
  outer loop
    vertex 11.0 -19.999999999999993 -3.0
    vertex 11.0 0.0 -1.9999999999999998
    vertex 11.0 0.0 -3.0
  endloop
endfacet
facet normal -1.0 -0.0 -0.0
  outer loop
    vertex 12.999999999999998 0.0 -0.2499999999999999
    vertex 12.999999999999998 -19.999999999999993 -1.9999999999999998
    vertex 12.999999999999998 -19.999999999999993 -0.2499999999999999
  endloop
endfacet
facet normal -1.0 -0.0 -0.0
  outer loop
    vertex 12.999999999999998 -19.999999999999993 -1.9999999999999998
    vertex 12.999999999999998 0.0 -0.2499999999999999
    vertex 12.999999999999998 0.0 -1.9999999999999998
  endloop
endfacet
facet normal 1.0 0.0 0.0
  outer loop
    vertex 14.0 0.0 -3.0
    vertex 14.0 -19.999999999999993 7.749999999999998
    vertex 14.0 -19.999999999999993 -3.0
  endloop
endfacet
facet normal 1.0 0.0 0.0
  outer loop
    vertex 14.0 -19.999999999999993 7.749999999999998
    vertex 14.0 0.0 -3.0
    vertex 14.0 0.0 7.749999999999998
  endloop
endfacet
facet normal 0.0 0.0 -1.0
  outer loop
    vertex 14.0 0.0 -3.0
    vertex 11.0 -19.999999999999993 -3.0
    vertex 11.0 0.0 -3.0
  endloop
endfacet
facet normal 0.0 0.0 -1.0
  outer loop
    vertex 11.0 -19.999999999999993 -3.0
    vertex 14.0 0.0 -3.0
    vertex 14.0 -19.999999999999993 -3.0
  endloop
endfacet
facet normal -0.0 -1.0 -0.0
  outer loop
    vertex 14.0 -19.999999999999993 -3.0
    vertex 12.999999999999998 -19.999999999999993 -1.9999999999999998
    vertex 11.0 -19.999999999999993 -3.0
  endloop
endfacet
facet normal -0.0 -1.0 -0.0
  outer loop
    vertex 12.999999999999998 -19.999999999999993 -1.9999999999999998
    vertex 14.0 -19.999999999999993 -3.0
    vertex 14.0 -19.999999999999993 7.749999999999998
  endloop
endfacet
facet normal -0.0 -1.0 -0.0
  outer loop
    vertex 12.999999999999998 -19.999999999999993 -1.9999999999999998
    vertex 14.0 -19.999999999999993 7.749999999999998
    vertex 12.999999999999998 -19.999999999999993 -0.2499999999999999
  endloop
endfacet
facet normal -0.0 -1.0 -0.0
  outer loop
    vertex 12.999999999999998 -19.999999999999993 -0.2499999999999999
    vertex 14.0 -19.999999999999993 7.749999999999998
    vertex 0.0 -19.999999999999993 -0.2499999999999999
  endloop
endfacet
facet normal -0.0 -1.0 -0.0
  outer loop
    vertex 1.9999999999999998 -19.999999999999993 -1.9999999999999998
    vertex -0.9999999999999999 -19.999999999999993 -3.0
    vertex 1.9999999999999998 -19.999999999999993 -3.0
  endloop
endfacet
facet normal -0.0 -1.0 -0.0
  outer loop
    vertex -0.9999999999999999 -19.999999999999993 -3.0
    vertex 1.9999999999999998 -19.999999999999993 -1.9999999999999998
    vertex 0.0 -19.999999999999993 -1.9999999999999998
  endloop
endfacet
facet normal -0.0 -1.0 -0.0
  outer loop
    vertex -0.9999999999999999 -19.999999999999993 -3.0
    vertex 0.0 -19.999999999999993 -1.9999999999999998
    vertex -0.9999999999999999 -19.999999999999993 7.749999999999998
  endloop
endfacet
facet normal -0.0 -1.0 -0.0
  outer loop
    vertex -0.9999999999999999 -19.999999999999993 7.749999999999998
    vertex 0.0 -19.999999999999993 -1.9999999999999998
    vertex 0.0 -19.999999999999993 -0.2499999999999999
  endloop
endfacet
facet normal -0.0 -1.0 -0.0
  outer loop
    vertex -0.9999999999999999 -19.999999999999993 7.749999999999998
    vertex 0.0 -19.999999999999993 -0.2499999999999999
    vertex 14.0 -19.999999999999993 7.749999999999998
  endloop
endfacet
facet normal -0.0 -1.0 -0.0
  outer loop
    vertex 11.0 -19.999999999999993 -1.9999999999999998
    vertex 11.0 -19.999999999999993 -3.0
    vertex 12.999999999999998 -19.999999999999993 -1.9999999999999998
  endloop
endfacet
facet normal 0.0 1.0 0.0
  outer loop
    vertex -0.9999999999999999 0.0 -3.0
    vertex 0.0 0.0 -1.9999999999999998
    vertex 1.9999999999999998 0.0 -3.0
  endloop
endfacet
facet normal 0.0 1.0 0.0
  outer loop
    vertex 0.0 0.0 -1.9999999999999998
    vertex -0.9999999999999999 0.0 -3.0
    vertex -0.9999999999999999 0.0 7.749999999999998
  endloop
endfacet
facet normal 0.0 1.0 0.0
  outer loop
    vertex 0.0 0.0 -1.9999999999999998
    vertex -0.9999999999999999 0.0 7.749999999999998
    vertex 0.0 0.0 -0.2499999999999999
  endloop
endfacet
facet normal 0.0 1.0 0.0
  outer loop
    vertex 0.0 0.0 -0.2499999999999999
    vertex -0.9999999999999999 0.0 7.749999999999998
    vertex 12.999999999999998 0.0 -0.2499999999999999
  endloop
endfacet
facet normal 0.0 1.0 0.0
  outer loop
    vertex 11.0 0.0 -1.9999999999999998
    vertex 14.0 0.0 -3.0
    vertex 11.0 0.0 -3.0
  endloop
endfacet
facet normal 0.0 1.0 0.0
  outer loop
    vertex 14.0 0.0 -3.0
    vertex 11.0 0.0 -1.9999999999999998
    vertex 12.999999999999998 0.0 -1.9999999999999998
  endloop
endfacet
facet normal 0.0 1.0 0.0
  outer loop
    vertex 14.0 0.0 -3.0
    vertex 12.999999999999998 0.0 -1.9999999999999998
    vertex 14.0 0.0 7.749999999999998
  endloop
endfacet
facet normal 0.0 1.0 0.0
  outer loop
    vertex 14.0 0.0 7.749999999999998
    vertex 12.999999999999998 0.0 -1.9999999999999998
    vertex 12.999999999999998 0.0 -0.2499999999999999
  endloop
endfacet
facet normal 0.0 1.0 0.0
  outer loop
    vertex 14.0 0.0 7.749999999999998
    vertex 12.999999999999998 0.0 -0.2499999999999999
    vertex -0.9999999999999999 0.0 7.749999999999998
  endloop
endfacet
facet normal 0.0 1.0 0.0
  outer loop
    vertex 1.9999999999999998 0.0 -1.9999999999999998
    vertex 1.9999999999999998 0.0 -3.0
    vertex 0.0 0.0 -1.9999999999999998
  endloop
endfacet
facet normal 1.0 0.0 0.0
  outer loop
    vertex 0.0 0.0 -1.9999999999999998
    vertex 0.0 -19.999999999999993 -0.2499999999999999
    vertex 0.0 -19.999999999999993 -1.9999999999999998
  endloop
endfacet
facet normal 1.0 0.0 0.0
  outer loop
    vertex 0.0 -19.999999999999993 -0.2499999999999999
    vertex 0.0 0.0 -1.9999999999999998
    vertex 0.0 0.0 -0.2499999999999999
  endloop
endfacet
endsolid support_cable relais
