solid piedImprimante
facet normal 0.0 0.0 -1.0
  outer loop
    vertex 22.999999999999996 39.99999999999999 0.0
    vertex 0.0 0.0 0.0
    vertex 0.0 39.99999999999999 0.0
  endloop
endfacet
facet normal 0.0 0.0 -1.0
  outer loop
    vertex 0.0 0.0 0.0
    vertex 22.999999999999996 39.99999999999999 0.0
    vertex 22.999999999999996 22.999999999999996 0.0
  endloop
endfacet
facet normal 0.0 0.0 -1.0
  outer loop
    vertex 0.0 0.0 0.0
    vertex 22.999999999999996 22.999999999999996 0.0
    vertex 39.99999999999999 0.0 0.0
  endloop
endfacet
facet normal 0.0 0.0 -1.0
  outer loop
    vertex 39.99999999999999 0.0 0.0
    vertex 22.999999999999996 22.999999999999996 0.0
    vertex 39.99999999999999 22.999999999999996 0.0
  endloop
endfacet
facet normal 0.0 1.0 0.0
  outer loop
    vertex 22.999999999999996 22.999999999999996 4.999999999999999
    vertex 39.99999999999999 22.999999999999996 0.0
    vertex 22.999999999999996 22.999999999999996 0.0
  endloop
endfacet
facet normal 0.0 1.0 0.0
  outer loop
    vertex 39.99999999999999 22.999999999999996 0.0
    vertex 22.999999999999996 22.999999999999996 4.999999999999999
    vertex 39.99999999999999 22.999999999999996 4.999999999999999
  endloop
endfacet
facet normal 0.0 -1.0 0.0
  outer loop
    vertex 39.99999999999999 0.0 83.99999999999994
    vertex 0.0 0.0 0.0
    vertex 39.99999999999999 0.0 0.0
  endloop
endfacet
facet normal 0.0 -1.0 0.0
  outer loop
    vertex 0.0 0.0 0.0
    vertex 39.99999999999999 0.0 83.99999999999994
    vertex 0.0 0.0 59.99999999999998
  endloop
endfacet
facet normal 0.0 -1.0 0.0
  outer loop
    vertex 0.0 0.0 59.99999999999998
    vertex 39.99999999999999 0.0 83.99999999999994
    vertex 20.75 0.0 72.7009618943233
  endloop
endfacet
facet normal 0.0 -1.0 0.0
  outer loop
    vertex 0.0 0.0 59.99999999999998
    vertex 20.75 0.0 72.7009618943233
    vertex 20.38822856765378 0.0 72.55111126056636
  endloop
endfacet
facet normal 0.0 -1.0 0.0
  outer loop
    vertex 0.0 0.0 59.99999999999998
    vertex 20.38822856765378 0.0 72.55111126056636
    vertex 19.999999999999996 0.0 72.49999999999997
  endloop
endfacet
facet normal 0.0 -1.0 0.0
  outer loop
    vertex 20.75 0.0 72.7009618943233
    vertex 39.99999999999999 0.0 83.99999999999994
    vertex 21.06066017177982 0.0 72.93933982822014
  endloop
endfacet
facet normal 0.0 -1.0 0.0
  outer loop
    vertex 21.06066017177982 0.0 72.93933982822014
    vertex 39.99999999999999 0.0 83.99999999999994
    vertex 21.299038105676654 0.0 73.24999999999997
  endloop
endfacet
facet normal 0.0 -1.0 0.0
  outer loop
    vertex 21.299038105676654 0.0 73.24999999999997
    vertex 39.99999999999999 0.0 83.99999999999994
    vertex 21.333517715702165 0.0 73.33324114214889
  endloop
endfacet
facet normal 0.0 -1.0 0.0
  outer loop
    vertex 21.333517715702165 0.0 73.33324114214889
    vertex 39.99999999999999 0.0 83.99999999999994
    vertex 21.4488887394336 0.0 73.61177143234619
  endloop
endfacet
facet normal 0.0 -1.0 0.0
  outer loop
    vertex 21.4488887394336 0.0 73.61177143234619
    vertex 39.99999999999999 0.0 83.99999999999994
    vertex 21.499999999999996 0.0 73.99999999999997
  endloop
endfacet
facet normal 0.0 -1.0 0.0
  outer loop
    vertex 21.499999999999996 0.0 73.99999999999997
    vertex 39.99999999999999 0.0 83.99999999999994
    vertex 21.4488887394336 0.0 74.38822856765374
  endloop
endfacet
facet normal 0.0 -1.0 0.0
  outer loop
    vertex 21.4488887394336 0.0 74.38822856765374
    vertex 39.99999999999999 0.0 83.99999999999994
    vertex 21.333517715702165 0.0 74.66675885785105
  endloop
endfacet
facet normal 0.0 -1.0 0.0
  outer loop
    vertex 21.333517715702165 0.0 74.66675885785105
    vertex 39.99999999999999 0.0 83.99999999999994
    vertex 21.299038105676654 0.0 74.74999999999997
  endloop
endfacet
facet normal 0.0 -1.0 0.0
  outer loop
    vertex 21.299038105676654 0.0 74.74999999999997
    vertex 39.99999999999999 0.0 83.99999999999994
    vertex 21.06066017177982 0.0 75.06066017177979
  endloop
endfacet
facet normal 0.0 -1.0 0.0
  outer loop
    vertex 21.06066017177982 0.0 75.06066017177979
    vertex 39.99999999999999 0.0 83.99999999999994
    vertex 20.749999999999996 0.0 75.29903810567663
  endloop
endfacet
facet normal 0.0 -1.0 0.0
  outer loop
    vertex 20.749999999999996 0.0 75.29903810567663
    vertex 39.99999999999999 0.0 83.99999999999994
    vertex 20.38822856765378 0.0 75.44888873943357
  endloop
endfacet
facet normal 0.0 -1.0 0.0
  outer loop
    vertex 20.38822856765378 0.0 75.44888873943357
    vertex 39.99999999999999 0.0 83.99999999999994
    vertex 19.999999999999996 0.0 75.49999999999996
  endloop
endfacet
facet normal 0.0 -1.0 0.0
  outer loop
    vertex 0.0 0.0 59.99999999999998
    vertex 19.25 0.0 72.7009618943233
    vertex 0.0 0.0 83.99999999999994
  endloop
endfacet
facet normal 0.0 -1.0 0.0
  outer loop
    vertex 19.25 0.0 72.7009618943233
    vertex 0.0 0.0 59.99999999999998
    vertex 19.611771432346217 0.0 72.55111126056636
  endloop
endfacet
facet normal 0.0 -1.0 0.0
  outer loop
    vertex 19.611771432346217 0.0 72.55111126056636
    vertex 0.0 0.0 59.99999999999998
    vertex 19.999999999999996 0.0 72.49999999999997
  endloop
endfacet
facet normal 0.0 -1.0 0.0
  outer loop
    vertex 0.0 0.0 83.99999999999994
    vertex 19.25 0.0 72.7009618943233
    vertex 18.939339828220177 0.0 72.93933982822014
  endloop
endfacet
facet normal 0.0 -1.0 0.0
  outer loop
    vertex 0.0 0.0 83.99999999999994
    vertex 18.939339828220177 0.0 72.93933982822014
    vertex 18.70096189432334 0.0 73.24999999999997
  endloop
endfacet
facet normal 0.0 -1.0 0.0
  outer loop
    vertex 0.0 0.0 83.99999999999994
    vertex 18.70096189432334 0.0 73.24999999999997
    vertex 18.666482284297828 0.0 73.33324114214889
  endloop
endfacet
facet normal 0.0 -1.0 0.0
  outer loop
    vertex 0.0 0.0 83.99999999999994
    vertex 18.666482284297828 0.0 73.33324114214889
    vertex 18.551111260566394 0.0 73.61177143234619
  endloop
endfacet
facet normal 0.0 -1.0 0.0
  outer loop
    vertex 0.0 0.0 83.99999999999994
    vertex 18.551111260566394 0.0 73.61177143234619
    vertex 18.499999999999996 0.0 73.99999999999997
  endloop
endfacet
facet normal 0.0 -1.0 0.0
  outer loop
    vertex 0.0 0.0 83.99999999999994
    vertex 18.499999999999996 0.0 73.99999999999997
    vertex 18.551111260566394 0.0 74.38822856765374
  endloop
endfacet
facet normal 0.0 -1.0 0.0
  outer loop
    vertex 0.0 0.0 83.99999999999994
    vertex 18.551111260566394 0.0 74.38822856765374
    vertex 18.666482284297835 0.0 74.66675885785105
  endloop
endfacet
facet normal 0.0 -1.0 0.0
  outer loop
    vertex 0.0 0.0 83.99999999999994
    vertex 18.666482284297835 0.0 74.66675885785105
    vertex 18.70096189432334 0.0 74.74999999999997
  endloop
endfacet
facet normal 0.0 -1.0 0.0
  outer loop
    vertex 0.0 0.0 83.99999999999994
    vertex 18.70096189432334 0.0 74.74999999999997
    vertex 18.939339828220177 0.0 75.06066017177979
  endloop
endfacet
facet normal 0.0 -1.0 0.0
  outer loop
    vertex 0.0 0.0 83.99999999999994
    vertex 18.939339828220177 0.0 75.06066017177979
    vertex 19.249999999999996 0.0 75.29903810567663
  endloop
endfacet
facet normal 0.0 -1.0 0.0
  outer loop
    vertex 0.0 0.0 83.99999999999994
    vertex 19.249999999999996 0.0 75.29903810567663
    vertex 19.611771432346217 0.0 75.44888873943357
  endloop
endfacet
facet normal 0.0 -1.0 0.0
  outer loop
    vertex 0.0 0.0 83.99999999999994
    vertex 19.611771432346217 0.0 75.44888873943357
    vertex 19.999999999999996 0.0 75.49999999999996
  endloop
endfacet
facet normal 0.0 -1.0 0.0
  outer loop
    vertex 0.0 0.0 83.99999999999994
    vertex 19.999999999999996 0.0 75.49999999999996
    vertex 39.99999999999999 0.0 83.99999999999994
  endloop
endfacet
facet normal -1.0 0.0 0.0
  outer loop
    vertex 0.0 0.0 83.99999999999994
    vertex 0.0 19.173515192762743 75.251767895181
    vertex 0.0 0.0 59.99999999999998
  endloop
endfacet
facet normal -1.0 0.0 0.0
  outer loop
    vertex 0.0 19.173515192762743 75.251767895181
    vertex 0.0 0.0 83.99999999999994
    vertex 0.0 19.52565835097474 75.42302494707572
  endloop
endfacet
facet normal -1.0 0.0 0.0
  outer loop
    vertex 0.0 19.52565835097474 75.42302494707572
    vertex 0.0 0.0 83.99999999999994
    vertex 0.0 39.99999999999999 83.99999999999994
  endloop
endfacet
facet normal -1.0 0.0 0.0
  outer loop
    vertex 0.0 0.0 59.99999999999998
    vertex 0.0 19.173515192762743 75.251767895181
    vertex 0.0 18.87769560833324 74.99520492987395
  endloop
endfacet
facet normal -1.0 0.0 0.0
  outer loop
    vertex 0.0 0.0 59.99999999999998
    vertex 0.0 18.87769560833324 74.99520492987395
    vertex 0.0 18.658359213500123 74.6708203932499
  endloop
endfacet
facet normal -1.0 0.0 0.0
  outer loop
    vertex 0.0 0.0 59.99999999999998
    vertex 0.0 18.658359213500123 74.6708203932499
    vertex 0.0 18.530453421100745 74.30072055540897
  endloop
endfacet
facet normal -1.0 0.0 0.0
  outer loop
    vertex 0.0 0.0 59.99999999999998
    vertex 0.0 18.530453421100745 74.30072055540897
    vertex 0.0 0.0 0.0
  endloop
endfacet
facet normal -1.0 0.0 0.0
  outer loop
    vertex 0.0 0.0 0.0
    vertex 0.0 18.530453421100745 74.30072055540897
    vertex 0.0 18.502694799512803 73.91012710868114
  endloop
endfacet
facet normal -1.0 0.0 0.0
  outer loop
    vertex 0.0 19.52565835097474 75.42302494707572
    vertex 0.0 39.99999999999999 83.99999999999994
    vertex 0.0 19.910127108681177 75.49730520048715
  endloop
endfacet
facet normal -1.0 0.0 0.0
  outer loop
    vertex 0.0 19.910127108681177 75.49730520048715
    vertex 0.0 39.99999999999999 83.99999999999994
    vertex 0.0 20.30072055540901 75.46954657889921
  endloop
endfacet
facet normal -1.0 0.0 0.0
  outer loop
    vertex 0.0 20.30072055540901 75.46954657889921
    vertex 0.0 39.99999999999999 83.99999999999994
    vertex 0.0 20.670820393249937 75.34164078649982
  endloop
endfacet
facet normal -1.0 0.0 0.0
  outer loop
    vertex 0.0 20.670820393249937 75.34164078649982
    vertex 0.0 39.99999999999999 83.99999999999994
    vertex 0.0 20.995204929873996 75.12230439166672
  endloop
endfacet
facet normal -1.0 0.0 0.0
  outer loop
    vertex 0.0 20.995204929873996 75.12230439166672
    vertex 0.0 39.99999999999999 83.99999999999994
    vertex 0.0 21.251767895181047 74.82648480723721
  endloop
endfacet
facet normal -1.0 0.0 0.0
  outer loop
    vertex 0.0 21.251767895181047 74.82648480723721
    vertex 0.0 39.99999999999999 83.99999999999994
    vertex 0.0 21.330243303878657 74.66512165193927
  endloop
endfacet
facet normal -1.0 0.0 0.0
  outer loop
    vertex 0.0 21.330243303878657 74.66512165193927
    vertex 0.0 39.99999999999999 83.99999999999994
    vertex 0.0 21.423024947075767 74.4743416490252
  endloop
endfacet
facet normal -1.0 0.0 0.0
  outer loop
    vertex 0.0 21.423024947075767 74.4743416490252
    vertex 0.0 39.99999999999999 83.99999999999994
    vertex 0.0 21.49730520048719 74.08987289131878
  endloop
endfacet
facet normal -1.0 0.0 0.0
  outer loop
    vertex 0.0 0.0 0.0
    vertex 0.0 18.576975052924226 73.5256583509747
    vertex 0.0 39.99999999999999 0.0
  endloop
endfacet
facet normal -1.0 0.0 0.0
  outer loop
    vertex 0.0 18.576975052924226 73.5256583509747
    vertex 0.0 0.0 0.0
    vertex 0.0 18.502694799512803 73.91012710868114
  endloop
endfacet
facet normal -1.0 0.0 0.0
  outer loop
    vertex 0.0 39.99999999999999 0.0
    vertex 0.0 18.576975052924226 73.5256583509747
    vertex 0.0 18.66975669612134 73.33487834806063
  endloop
endfacet
facet normal -1.0 0.0 0.0
  outer loop
    vertex 0.0 39.99999999999999 0.0
    vertex 0.0 18.66975669612134 73.33487834806063
    vertex 0.0 18.748232104818946 73.1735151927627
  endloop
endfacet
facet normal -1.0 0.0 0.0
  outer loop
    vertex 0.0 39.99999999999999 0.0
    vertex 0.0 18.748232104818946 73.1735151927627
    vertex 0.0 19.004795070126 72.8776956083332
  endloop
endfacet
facet normal -1.0 0.0 0.0
  outer loop
    vertex 0.0 39.99999999999999 0.0
    vertex 0.0 19.004795070126 72.8776956083332
    vertex 0.0 19.32917960675006 72.65835921350009
  endloop
endfacet
facet normal -1.0 0.0 0.0
  outer loop
    vertex 0.0 39.99999999999999 0.0
    vertex 0.0 19.32917960675006 72.65835921350009
    vertex 0.0 19.699279444590985 72.5304534211007
  endloop
endfacet
facet normal -1.0 0.0 0.0
  outer loop
    vertex 0.0 39.99999999999999 0.0
    vertex 0.0 19.699279444590985 72.5304534211007
    vertex 0.0 20.08987289131882 72.50269479951275
  endloop
endfacet
facet normal -1.0 0.0 0.0
  outer loop
    vertex 0.0 39.99999999999999 0.0
    vertex 0.0 20.08987289131882 72.50269479951275
    vertex 0.0 20.474341649025252 72.57697505292418
  endloop
endfacet
facet normal -1.0 0.0 0.0
  outer loop
    vertex 0.0 39.99999999999999 0.0
    vertex 0.0 20.474341649025252 72.57697505292418
    vertex 0.0 20.826484807237254 72.7482321048189
  endloop
endfacet
facet normal -1.0 0.0 0.0
  outer loop
    vertex 0.0 39.99999999999999 0.0
    vertex 0.0 20.826484807237254 72.7482321048189
    vertex 0.0 21.122304391666756 73.00479507012595
  endloop
endfacet
facet normal -1.0 0.0 0.0
  outer loop
    vertex 0.0 39.99999999999999 0.0
    vertex 0.0 21.122304391666756 73.00479507012595
    vertex 0.0 21.34164078649987 73.32917960675002
  endloop
endfacet
facet normal -1.0 0.0 0.0
  outer loop
    vertex 0.0 39.99999999999999 0.0
    vertex 0.0 21.34164078649987 73.32917960675002
    vertex 0.0 21.469546578899248 73.69927944459094
  endloop
endfacet
facet normal -1.0 0.0 0.0
  outer loop
    vertex 0.0 39.99999999999999 0.0
    vertex 0.0 21.469546578899248 73.69927944459094
    vertex 0.0 21.49730520048719 74.08987289131878
  endloop
endfacet
facet normal -1.0 0.0 0.0
  outer loop
    vertex 0.0 39.99999999999999 0.0
    vertex 0.0 21.49730520048719 74.08987289131878
    vertex 0.0 39.99999999999999 83.99999999999994
  endloop
endfacet
facet normal -1.0 0.0 0.0
  outer loop
    vertex 0.0 39.99999999999999 0.0
    vertex 0.0 39.99999999999999 83.99999999999994
    vertex 0.0 39.99999999999999 4.999999999999999
  endloop
endfacet
facet normal 0.0 1.0 0.0
  outer loop
    vertex 0.0 39.99999999999999 4.999999999999999
    vertex 22.999999999999996 39.99999999999999 0.0
    vertex 0.0 39.99999999999999 0.0
  endloop
endfacet
facet normal 0.0 1.0 0.0
  outer loop
    vertex 22.999999999999996 39.99999999999999 0.0
    vertex 0.0 39.99999999999999 4.999999999999999
    vertex 22.999999999999996 39.99999999999999 4.999999999999999
  endloop
endfacet
facet normal 0.0 1.0 0.0
  outer loop
    vertex 22.999999999999996 39.99999999999999 4.999999999999999
    vertex 0.0 39.99999999999999 4.999999999999999
    vertex 3.0 39.99999999999999 5.000000000000001
  endloop
endfacet
facet normal 0.0 0.0 1.0
  outer loop
    vertex 3.0 3.0 59.99999999999999
    vertex 7.0 29.000000000000014 59.99999999999999
    vertex 3.0 29.000000000000014 59.99999999999999
  endloop
endfacet
facet normal 0.0 0.0 1.0
  outer loop
    vertex 7.0 29.000000000000014 59.99999999999999
    vertex 3.0 3.0 59.99999999999999
    vertex 29.000000000000014 3.0 59.99999999999999
  endloop
endfacet
facet normal 0.0 0.0 1.0
  outer loop
    vertex 7.0 29.000000000000014 59.99999999999999
    vertex 29.000000000000014 3.0 59.99999999999999
    vertex 7.0 39.99999999999999 59.99999999999999
  endloop
endfacet
facet normal 0.0 0.0 1.0
  outer loop
    vertex 7.0 39.99999999999999 59.99999999999999
    vertex 29.000000000000014 3.0 59.99999999999999
    vertex 22.999999999999996 22.999999999999996 59.99999999999999
  endloop
endfacet
facet normal 0.0 0.0 1.0
  outer loop
    vertex 22.999999999999996 22.999999999999996 59.99999999999999
    vertex 29.000000000000014 3.0 59.99999999999999
    vertex 29.000000000000014 6.999999999999998 59.99999999999999
  endloop
endfacet
facet normal 0.0 0.0 1.0
  outer loop
    vertex 22.999999999999996 22.999999999999996 59.99999999999999
    vertex 29.000000000000014 6.999999999999998 59.99999999999999
    vertex 39.99999999999999 22.999999999999996 59.99999999999999
  endloop
endfacet
facet normal 0.0 0.0 1.0
  outer loop
    vertex 39.99999999999999 22.999999999999996 59.99999999999999
    vertex 29.000000000000014 6.999999999999998 59.99999999999999
    vertex 39.99999999999999 6.999999999999998 59.99999999999999
  endloop
endfacet
facet normal 0.0 0.0 1.0
  outer loop
    vertex 22.999999999999996 39.99999999999999 59.99999999999999
    vertex 7.0 39.99999999999999 59.99999999999999
    vertex 22.999999999999996 22.999999999999996 59.99999999999999
  endloop
endfacet
facet normal 0.0 0.0 1.0
  outer loop
    vertex 0.0 0.0 83.99999999999994
    vertex 3.0 3.0 83.99999999999994
    vertex 0.0 39.99999999999999 83.99999999999994
  endloop
endfacet
facet normal 0.0 0.0 1.0
  outer loop
    vertex 3.0 3.0 83.99999999999994
    vertex 0.0 0.0 83.99999999999994
    vertex 39.99999999999999 0.0 83.99999999999994
  endloop
endfacet
facet normal 0.0 0.0 1.0
  outer loop
    vertex 0.0 39.99999999999999 83.99999999999994
    vertex 3.0 3.0 83.99999999999994
    vertex 3.0 39.99999999999999 83.99999999999994
  endloop
endfacet
facet normal 0.0 0.0 1.0
  outer loop
    vertex 3.0 3.0 83.99999999999994
    vertex 39.99999999999999 0.0 83.99999999999994
    vertex 39.99999999999999 3.0 83.99999999999994
  endloop
endfacet
facet normal 0.9238795325113067 0.0 -0.38268343236504154
  outer loop
    vertex 18.666482284297835 3.0 74.66675885785105
    vertex 18.70096189432334 0.0 74.74999999999997
    vertex 18.666482284297835 0.0 74.66675885785105
  endloop
endfacet
facet normal 0.9238795325113067 0.0 -0.38268343236504154
  outer loop
    vertex 18.70096189432334 0.0 74.74999999999997
    vertex 18.666482284297835 3.0 74.66675885785105
    vertex 18.70096189432334 3.0 74.74999999999997
  endloop
endfacet
facet normal 0.9238795325112823 0.0 -0.3826834323651005
  outer loop
    vertex 18.551111260566394 3.0 74.38822856765374
    vertex 18.666482284297835 0.0 74.66675885785105
    vertex 18.551111260566394 0.0 74.38822856765374
  endloop
endfacet
facet normal 0.9238795325112823 0.0 -0.3826834323651005
  outer loop
    vertex 18.666482284297835 0.0 74.66675885785105
    vertex 18.551111260566394 3.0 74.38822856765374
    vertex 18.666482284297835 3.0 74.66675885785105
  endloop
endfacet
facet normal 0.9914448613738104 0.0 -0.13052619222005263
  outer loop
    vertex 18.499999999999996 3.0 73.99999999999997
    vertex 18.551111260566394 0.0 74.38822856765374
    vertex 18.499999999999996 0.0 73.99999999999997
  endloop
endfacet
facet normal 0.9914448613738104 0.0 -0.13052619222005263
  outer loop
    vertex 18.551111260566394 0.0 74.38822856765374
    vertex 18.499999999999996 3.0 73.99999999999997
    vertex 18.551111260566394 3.0 74.38822856765374
  endloop
endfacet
facet normal 0.9914448613738104 0.0 0.13052619222005263
  outer loop
    vertex 18.551111260566394 3.0 73.61177143234619
    vertex 18.499999999999996 0.0 73.99999999999997
    vertex 18.551111260566394 0.0 73.61177143234619
  endloop
endfacet
facet normal 0.9914448613738104 0.0 0.13052619222005263
  outer loop
    vertex 18.499999999999996 0.0 73.99999999999997
    vertex 18.551111260566394 3.0 73.61177143234619
    vertex 18.499999999999996 3.0 73.99999999999997
  endloop
endfacet
facet normal 0.923879532511289 0.0 0.38268343236508456
  outer loop
    vertex 18.666482284297828 3.0 73.33324114214889
    vertex 18.551111260566394 0.0 73.61177143234619
    vertex 18.666482284297828 0.0 73.33324114214889
  endloop
endfacet
facet normal 0.923879532511289 0.0 0.38268343236508456
  outer loop
    vertex 18.551111260566394 0.0 73.61177143234619
    vertex 18.666482284297828 3.0 73.33324114214889
    vertex 18.551111260566394 3.0 73.61177143234619
  endloop
endfacet
facet normal 0.9238795325112846 0.0 0.38268343236509494
  outer loop
    vertex 18.70096189432334 3.0 73.24999999999997
    vertex 18.666482284297828 0.0 73.33324114214889
    vertex 18.70096189432334 0.0 73.24999999999997
  endloop
endfacet
facet normal 0.9238795325112846 0.0 0.38268343236509494
  outer loop
    vertex 18.666482284297828 0.0 73.33324114214889
    vertex 18.70096189432334 3.0 73.24999999999997
    vertex 18.666482284297828 3.0 73.33324114214889
  endloop
endfacet
facet normal 0.7933533402912378 0.0 0.6087614290087172
  outer loop
    vertex 18.939339828220177 3.0 72.93933982822014
    vertex 18.70096189432334 0.0 73.24999999999997
    vertex 18.939339828220177 0.0 72.93933982822014
  endloop
endfacet
facet normal 0.7933533402912378 0.0 0.6087614290087172
  outer loop
    vertex 18.70096189432334 0.0 73.24999999999997
    vertex 18.939339828220177 3.0 72.93933982822014
    vertex 18.70096189432334 3.0 73.24999999999997
  endloop
endfacet
facet normal 0.6087614290087208 0.0 0.7933533402912353
  outer loop
    vertex 19.25 0.0 72.7009618943233
    vertex 18.939339828220177 3.0 72.93933982822014
    vertex 18.939339828220177 0.0 72.93933982822014
  endloop
endfacet
facet normal 0.6087614290087208 0.0 0.7933533402912353
  outer loop
    vertex 18.939339828220177 3.0 72.93933982822014
    vertex 19.25 0.0 72.7009618943233
    vertex 19.25 3.0 72.7009618943233
  endloop
endfacet
facet normal 0.38268343236508334 0.0 0.9238795325112894
  outer loop
    vertex 19.611771432346217 0.0 72.55111126056636
    vertex 19.25 3.0 72.7009618943233
    vertex 19.25 0.0 72.7009618943233
  endloop
endfacet
facet normal 0.38268343236508334 0.0 0.9238795325112894
  outer loop
    vertex 19.25 3.0 72.7009618943233
    vertex 19.611771432346217 0.0 72.55111126056636
    vertex 19.611771432346217 3.0 72.55111126056636
  endloop
endfacet
facet normal 0.1305261922200446 0.0 0.9914448613738114
  outer loop
    vertex 19.999999999999996 0.0 72.49999999999997
    vertex 19.611771432346217 3.0 72.55111126056636
    vertex 19.611771432346217 0.0 72.55111126056636
  endloop
endfacet
facet normal 0.1305261922200446 0.0 0.9914448613738114
  outer loop
    vertex 19.611771432346217 3.0 72.55111126056636
    vertex 19.999999999999996 0.0 72.49999999999997
    vertex 19.999999999999996 3.0 72.49999999999997
  endloop
endfacet
facet normal -0.1305261922200446 0.0 0.9914448613738114
  outer loop
    vertex 20.38822856765378 0.0 72.55111126056636
    vertex 19.999999999999996 3.0 72.49999999999997
    vertex 19.999999999999996 0.0 72.49999999999997
  endloop
endfacet
facet normal -0.1305261922200446 0.0 0.9914448613738114
  outer loop
    vertex 19.999999999999996 3.0 72.49999999999997
    vertex 20.38822856765378 0.0 72.55111126056636
    vertex 20.38822856765378 3.0 72.55111126056636
  endloop
endfacet
facet normal -0.38268343236508073 0.0 0.9238795325112904
  outer loop
    vertex 20.75 0.0 72.7009618943233
    vertex 20.38822856765378 3.0 72.55111126056636
    vertex 20.38822856765378 0.0 72.55111126056636
  endloop
endfacet
facet normal -0.38268343236508073 0.0 0.9238795325112904
  outer loop
    vertex 20.38822856765378 3.0 72.55111126056636
    vertex 20.75 0.0 72.7009618943233
    vertex 20.75 3.0 72.7009618943233
  endloop
endfacet
facet normal -0.6087614290087243 0.0 0.7933533402912326
  outer loop
    vertex 21.06066017177982 0.0 72.93933982822014
    vertex 20.75 3.0 72.7009618943233
    vertex 20.75 0.0 72.7009618943233
  endloop
endfacet
facet normal -0.6087614290087243 0.0 0.7933533402912326
  outer loop
    vertex 20.75 3.0 72.7009618943233
    vertex 21.06066017177982 0.0 72.93933982822014
    vertex 21.06066017177982 3.0 72.93933982822014
  endloop
endfacet
facet normal -0.7933533402912378 0.0 0.6087614290087172
  outer loop
    vertex 21.299038105676654 3.0 73.24999999999997
    vertex 21.06066017177982 0.0 72.93933982822014
    vertex 21.299038105676654 0.0 73.24999999999997
  endloop
endfacet
facet normal -0.7933533402912378 0.0 0.6087614290087172
  outer loop
    vertex 21.06066017177982 0.0 72.93933982822014
    vertex 21.299038105676654 3.0 73.24999999999997
    vertex 21.06066017177982 3.0 72.93933982822014
  endloop
endfacet
facet normal -0.9238795325112958 0.0 0.38268343236506835
  outer loop
    vertex 21.333517715702165 3.0 73.33324114214889
    vertex 21.299038105676654 0.0 73.24999999999997
    vertex 21.333517715702165 0.0 73.33324114214889
  endloop
endfacet
facet normal -0.9238795325112958 0.0 0.38268343236506835
  outer loop
    vertex 21.299038105676654 0.0 73.24999999999997
    vertex 21.333517715702165 3.0 73.33324114214889
    vertex 21.299038105676654 3.0 73.24999999999997
  endloop
endfacet
facet normal -0.9238795325112857 0.0 0.3826834323650926
  outer loop
    vertex 21.4488887394336 3.0 73.61177143234619
    vertex 21.333517715702165 0.0 73.33324114214889
    vertex 21.4488887394336 0.0 73.61177143234619
  endloop
endfacet
facet normal -0.9238795325112857 0.0 0.3826834323650926
  outer loop
    vertex 21.333517715702165 0.0 73.33324114214889
    vertex 21.4488887394336 3.0 73.61177143234619
    vertex 21.333517715702165 3.0 73.33324114214889
  endloop
endfacet
facet normal -0.9914448613738104 0.0 0.13052619222005263
  outer loop
    vertex 21.499999999999996 3.0 73.99999999999997
    vertex 21.4488887394336 0.0 73.61177143234619
    vertex 21.499999999999996 0.0 73.99999999999997
  endloop
endfacet
facet normal -0.9914448613738104 0.0 0.13052619222005263
  outer loop
    vertex 21.4488887394336 0.0 73.61177143234619
    vertex 21.499999999999996 3.0 73.99999999999997
    vertex 21.4488887394336 3.0 73.61177143234619
  endloop
endfacet
facet normal -0.9914448613738104 -0.0 -0.13052619222005263
  outer loop
    vertex 21.4488887394336 3.0 74.38822856765374
    vertex 21.499999999999996 0.0 73.99999999999997
    vertex 21.4488887394336 0.0 74.38822856765374
  endloop
endfacet
facet normal -0.9914448613738104 -0.0 -0.13052619222005263
  outer loop
    vertex 21.499999999999996 0.0 73.99999999999997
    vertex 21.4488887394336 3.0 74.38822856765374
    vertex 21.499999999999996 3.0 73.99999999999997
  endloop
endfacet
facet normal -0.9238795325112857 -0.0 -0.3826834323650926
  outer loop
    vertex 21.333517715702165 3.0 74.66675885785105
    vertex 21.4488887394336 0.0 74.38822856765374
    vertex 21.333517715702165 0.0 74.66675885785105
  endloop
endfacet
facet normal -0.9238795325112857 -0.0 -0.3826834323650926
  outer loop
    vertex 21.4488887394336 0.0 74.38822856765374
    vertex 21.333517715702165 3.0 74.66675885785105
    vertex 21.4488887394336 3.0 74.38822856765374
  endloop
endfacet
facet normal -0.9238795325112958 -0.0 -0.38268343236506835
  outer loop
    vertex 21.299038105676654 3.0 74.74999999999997
    vertex 21.333517715702165 0.0 74.66675885785105
    vertex 21.299038105676654 0.0 74.74999999999997
  endloop
endfacet
facet normal -0.9238795325112958 -0.0 -0.38268343236506835
  outer loop
    vertex 21.333517715702165 0.0 74.66675885785105
    vertex 21.299038105676654 3.0 74.74999999999997
    vertex 21.333517715702165 3.0 74.66675885785105
  endloop
endfacet
facet normal -0.7933533402912378 -0.0 -0.6087614290087172
  outer loop
    vertex 21.06066017177982 3.0 75.06066017177979
    vertex 21.299038105676654 0.0 74.74999999999997
    vertex 21.06066017177982 0.0 75.06066017177979
  endloop
endfacet
facet normal -0.7933533402912378 -0.0 -0.6087614290087172
  outer loop
    vertex 21.299038105676654 0.0 74.74999999999997
    vertex 21.06066017177982 3.0 75.06066017177979
    vertex 21.299038105676654 3.0 74.74999999999997
  endloop
endfacet
facet normal -0.6087614290087208 -0.0 -0.7933533402912353
  outer loop
    vertex 21.06066017177982 3.0 75.06066017177979
    vertex 20.749999999999996 0.0 75.29903810567663
    vertex 20.749999999999996 3.0 75.29903810567663
  endloop
endfacet
facet normal -0.6087614290087208 -0.0 -0.7933533402912353
  outer loop
    vertex 20.749999999999996 0.0 75.29903810567663
    vertex 21.06066017177982 3.0 75.06066017177979
    vertex 21.06066017177982 0.0 75.06066017177979
  endloop
endfacet
facet normal -0.38268343236508334 -0.0 -0.9238795325112894
  outer loop
    vertex 20.749999999999996 3.0 75.29903810567663
    vertex 20.38822856765378 0.0 75.44888873943357
    vertex 20.38822856765378 3.0 75.44888873943357
  endloop
endfacet
facet normal -0.38268343236508334 -0.0 -0.9238795325112894
  outer loop
    vertex 20.38822856765378 0.0 75.44888873943357
    vertex 20.749999999999996 3.0 75.29903810567663
    vertex 20.749999999999996 0.0 75.29903810567663
  endloop
endfacet
facet normal -0.1305261922200446 -0.0 -0.9914448613738114
  outer loop
    vertex 20.38822856765378 3.0 75.44888873943357
    vertex 19.999999999999996 0.0 75.49999999999996
    vertex 19.999999999999996 3.0 75.49999999999996
  endloop
endfacet
facet normal -0.1305261922200446 -0.0 -0.9914448613738114
  outer loop
    vertex 19.999999999999996 0.0 75.49999999999996
    vertex 20.38822856765378 3.0 75.44888873943357
    vertex 20.38822856765378 0.0 75.44888873943357
  endloop
endfacet
facet normal 0.1305261922200446 0.0 -0.9914448613738114
  outer loop
    vertex 19.999999999999996 3.0 75.49999999999996
    vertex 19.611771432346217 0.0 75.44888873943357
    vertex 19.611771432346217 3.0 75.44888873943357
  endloop
endfacet
facet normal 0.1305261922200446 0.0 -0.9914448613738114
  outer loop
    vertex 19.611771432346217 0.0 75.44888873943357
    vertex 19.999999999999996 3.0 75.49999999999996
    vertex 19.999999999999996 0.0 75.49999999999996
  endloop
endfacet
facet normal 0.38268343236508073 0.0 -0.9238795325112904
  outer loop
    vertex 19.611771432346217 3.0 75.44888873943357
    vertex 19.249999999999996 0.0 75.29903810567663
    vertex 19.249999999999996 3.0 75.29903810567663
  endloop
endfacet
facet normal 0.38268343236508073 0.0 -0.9238795325112904
  outer loop
    vertex 19.249999999999996 0.0 75.29903810567663
    vertex 19.611771432346217 3.0 75.44888873943357
    vertex 19.611771432346217 0.0 75.44888873943357
  endloop
endfacet
facet normal 0.6087614290087243 0.0 -0.7933533402912326
  outer loop
    vertex 19.249999999999996 3.0 75.29903810567663
    vertex 18.939339828220177 0.0 75.06066017177979
    vertex 18.939339828220177 3.0 75.06066017177979
  endloop
endfacet
facet normal 0.6087614290087243 0.0 -0.7933533402912326
  outer loop
    vertex 18.939339828220177 0.0 75.06066017177979
    vertex 19.249999999999996 3.0 75.29903810567663
    vertex 19.249999999999996 0.0 75.29903810567663
  endloop
endfacet
facet normal 0.7933533402912378 0.0 -0.6087614290087172
  outer loop
    vertex 18.70096189432334 3.0 74.74999999999997
    vertex 18.939339828220177 0.0 75.06066017177979
    vertex 18.70096189432334 0.0 74.74999999999997
  endloop
endfacet
facet normal 0.7933533402912378 0.0 -0.6087614290087172
  outer loop
    vertex 18.939339828220177 0.0 75.06066017177979
    vertex 18.70096189432334 3.0 74.74999999999997
    vertex 18.939339828220177 3.0 75.06066017177979
  endloop
endfacet
facet normal -0.0 -0.8992911747509155 -0.43735041215839565
  outer loop
    vertex 3.0 21.251767895181047 74.82648480723721
    vertex 0.0 21.330243303878657 74.66512165193927
    vertex 3.0 21.330243303878657 74.66512165193927
  endloop
endfacet
facet normal -0.0 -0.8992911747509155 -0.43735041215839565
  outer loop
    vertex 0.0 21.330243303878657 74.66512165193927
    vertex 3.0 21.251767895181047 74.82648480723721
    vertex 0.0 21.251767895181047 74.82648480723721
  endloop
endfacet
facet normal -0.0 -0.8992911747509083 -0.4373504121584106
  outer loop
    vertex 3.0 21.330243303878657 74.66512165193927
    vertex 0.0 21.423024947075767 74.4743416490252
    vertex 3.0 21.423024947075767 74.4743416490252
  endloop
endfacet
facet normal -0.0 -0.8992911747509083 -0.4373504121584106
  outer loop
    vertex 0.0 21.423024947075767 74.4743416490252
    vertex 3.0 21.330243303878657 74.66512165193927
    vertex 0.0 21.330243303878657 74.66512165193927
  endloop
endfacet
facet normal -0.0 -0.9818431870957725 -0.18969437512381873
  outer loop
    vertex 3.0 21.423024947075767 74.4743416490252
    vertex 0.0 21.49730520048719 74.08987289131878
    vertex 3.0 21.49730520048719 74.08987289131878
  endloop
endfacet
facet normal -0.0 -0.9818431870957725 -0.18969437512381873
  outer loop
    vertex 0.0 21.49730520048719 74.08987289131878
    vertex 3.0 21.423024947075767 74.4743416490252
    vertex 0.0 21.423024947075767 74.4743416490252
  endloop
endfacet
facet normal 0.0 -0.9974842088126422 0.07088902009068472
  outer loop
    vertex 3.0 21.49730520048719 74.08987289131878
    vertex 0.0 21.469546578899248 73.69927944459094
    vertex 3.0 21.469546578899248 73.69927944459094
  endloop
endfacet
facet normal 0.0 -0.9974842088126422 0.07088902009068472
  outer loop
    vertex 0.0 21.469546578899248 73.69927944459094
    vertex 3.0 21.49730520048719 74.08987289131878
    vertex 0.0 21.49730520048719 74.08987289131878
  endloop
endfacet
facet normal 0.0 -0.9451483301195264 0.3266414457356429
  outer loop
    vertex 3.0 21.469546578899248 73.69927944459094
    vertex 0.0 21.34164078649987 73.32917960675002
    vertex 3.0 21.34164078649987 73.32917960675002
  endloop
endfacet
facet normal 0.0 -0.9451483301195264 0.3266414457356429
  outer loop
    vertex 0.0 21.34164078649987 73.32917960675002
    vertex 3.0 21.469546578899248 73.69927944459094
    vertex 0.0 21.469546578899248 73.69927944459094
  endloop
endfacet
facet normal 0.0 -0.8284021546602267 0.5601337966542402
  outer loop
    vertex 3.0 21.34164078649987 73.32917960675002
    vertex 0.0 21.122304391666756 73.00479507012595
    vertex 3.0 21.122304391666756 73.00479507012595
  endloop
endfacet
facet normal 0.0 -0.8284021546602267 0.5601337966542402
  outer loop
    vertex 0.0 21.122304391666756 73.00479507012595
    vertex 3.0 21.34164078649987 73.32917960675002
    vertex 0.0 21.34164078649987 73.32917960675002
  endloop
endfacet
facet normal 0.0 -0.6552017413601312 0.7554539549957044
  outer loop
    vertex 3.0 20.826484807237254 72.7482321048189
    vertex 0.0 21.122304391666756 73.00479507012595
    vertex 0.0 20.826484807237254 72.7482321048189
  endloop
endfacet
facet normal 0.0 -0.6552017413601312 0.7554539549957044
  outer loop
    vertex 0.0 21.122304391666756 73.00479507012595
    vertex 3.0 20.826484807237254 72.7482321048189
    vertex 3.0 21.122304391666756 73.00479507012595
  endloop
endfacet
facet normal 0.0 -0.43735041215839787 0.8992911747509144
  outer loop
    vertex 3.0 20.474341649025252 72.57697505292418
    vertex 0.0 20.826484807237254 72.7482321048189
    vertex 0.0 20.474341649025252 72.57697505292418
  endloop
endfacet
facet normal 0.0 -0.43735041215839787 0.8992911747509144
  outer loop
    vertex 0.0 20.826484807237254 72.7482321048189
    vertex 3.0 20.474341649025252 72.57697505292418
    vertex 3.0 20.826484807237254 72.7482321048189
  endloop
endfacet
facet normal 0.0 -0.18969437512383397 0.9818431870957695
  outer loop
    vertex 3.0 20.08987289131882 72.50269479951275
    vertex 0.0 20.474341649025252 72.57697505292418
    vertex 0.0 20.08987289131882 72.50269479951275
  endloop
endfacet
facet normal 0.0 -0.18969437512383397 0.9818431870957695
  outer loop
    vertex 0.0 20.474341649025252 72.57697505292418
    vertex 3.0 20.08987289131882 72.50269479951275
    vertex 3.0 20.474341649025252 72.57697505292418
  endloop
endfacet
facet normal 0.0 0.07088902009068472 0.9974842088126422
  outer loop
    vertex 3.0 19.699279444590985 72.5304534211007
    vertex 0.0 20.08987289131882 72.50269479951275
    vertex 0.0 19.699279444590985 72.5304534211007
  endloop
endfacet
facet normal 0.0 0.07088902009068472 0.9974842088126422
  outer loop
    vertex 0.0 20.08987289131882 72.50269479951275
    vertex 3.0 19.699279444590985 72.5304534211007
    vertex 3.0 20.08987289131882 72.50269479951275
  endloop
endfacet
facet normal 0.0 0.3266414457356558 0.9451483301195218
  outer loop
    vertex 3.0 19.32917960675006 72.65835921350009
    vertex 0.0 19.699279444590985 72.5304534211007
    vertex 0.0 19.32917960675006 72.65835921350009
  endloop
endfacet
facet normal 0.0 0.3266414457356558 0.9451483301195218
  outer loop
    vertex 0.0 19.699279444590985 72.5304534211007
    vertex 3.0 19.32917960675006 72.65835921350009
    vertex 3.0 19.699279444590985 72.5304534211007
  endloop
endfacet
facet normal 0.0 0.5601337966542221 0.8284021546602391
  outer loop
    vertex 3.0 19.004795070126 72.8776956083332
    vertex 0.0 19.32917960675006 72.65835921350009
    vertex 0.0 19.004795070126 72.8776956083332
  endloop
endfacet
facet normal 0.0 0.5601337966542221 0.8284021546602391
  outer loop
    vertex 0.0 19.32917960675006 72.65835921350009
    vertex 3.0 19.004795070126 72.8776956083332
    vertex 3.0 19.32917960675006 72.65835921350009
  endloop
endfacet
facet normal 0.0 0.7554539549957107 0.655201741360124
  outer loop
    vertex 0.0 18.748232104818946 73.1735151927627
    vertex 3.0 19.004795070126 72.8776956083332
    vertex 0.0 19.004795070126 72.8776956083332
  endloop
endfacet
facet normal 0.0 0.7554539549957107 0.655201741360124
  outer loop
    vertex 3.0 19.004795070126 72.8776956083332
    vertex 0.0 18.748232104818946 73.1735151927627
    vertex 3.0 18.748232104818946 73.1735151927627
  endloop
endfacet
facet normal 0.0 0.8992911747509155 0.43735041215839565
  outer loop
    vertex 0.0 18.66975669612134 73.33487834806063
    vertex 3.0 18.748232104818946 73.1735151927627
    vertex 0.0 18.748232104818946 73.1735151927627
  endloop
endfacet
facet normal 0.0 0.8992911747509155 0.43735041215839565
  outer loop
    vertex 3.0 18.748232104818946 73.1735151927627
    vertex 0.0 18.66975669612134 73.33487834806063
    vertex 3.0 18.66975669612134 73.33487834806063
  endloop
endfacet
facet normal 0.0 0.8992911747509083 0.4373504121584106
  outer loop
    vertex 0.0 18.576975052924226 73.5256583509747
    vertex 3.0 18.66975669612134 73.33487834806063
    vertex 0.0 18.66975669612134 73.33487834806063
  endloop
endfacet
facet normal 0.0 0.8992911747509083 0.4373504121584106
  outer loop
    vertex 3.0 18.66975669612134 73.33487834806063
    vertex 0.0 18.576975052924226 73.5256583509747
    vertex 3.0 18.576975052924226 73.5256583509747
  endloop
endfacet
facet normal 0.0 0.9818431870957725 0.18969437512381873
  outer loop
    vertex 0.0 18.502694799512803 73.91012710868114
    vertex 3.0 18.576975052924226 73.5256583509747
    vertex 0.0 18.576975052924226 73.5256583509747
  endloop
endfacet
facet normal 0.0 0.9818431870957725 0.18969437512381873
  outer loop
    vertex 3.0 18.576975052924226 73.5256583509747
    vertex 0.0 18.502694799512803 73.91012710868114
    vertex 3.0 18.502694799512803 73.91012710868114
  endloop
endfacet
facet normal 0.0 0.9974842088126427 -0.07088902009067756
  outer loop
    vertex 0.0 18.530453421100745 74.30072055540897
    vertex 3.0 18.502694799512803 73.91012710868114
    vertex 0.0 18.502694799512803 73.91012710868114
  endloop
endfacet
facet normal 0.0 0.9974842088126427 -0.07088902009067756
  outer loop
    vertex 3.0 18.502694799512803 73.91012710868114
    vertex 0.0 18.530453421100745 74.30072055540897
    vertex 3.0 18.530453421100745 74.30072055540897
  endloop
endfacet
facet normal 0.0 0.945148330119524 -0.32664144573564935
  outer loop
    vertex 0.0 18.658359213500123 74.6708203932499
    vertex 3.0 18.530453421100745 74.30072055540897
    vertex 0.0 18.530453421100745 74.30072055540897
  endloop
endfacet
facet normal 0.0 0.945148330119524 -0.32664144573564935
  outer loop
    vertex 3.0 18.530453421100745 74.30072055540897
    vertex 0.0 18.658359213500123 74.6708203932499
    vertex 3.0 18.658359213500123 74.6708203932499
  endloop
endfacet
facet normal 0.0 0.8284021546602267 -0.5601337966542402
  outer loop
    vertex 0.0 18.87769560833324 74.99520492987395
    vertex 3.0 18.658359213500123 74.6708203932499
    vertex 0.0 18.658359213500123 74.6708203932499
  endloop
endfacet
facet normal 0.0 0.8284021546602267 -0.5601337966542402
  outer loop
    vertex 3.0 18.658359213500123 74.6708203932499
    vertex 0.0 18.87769560833324 74.99520492987395
    vertex 3.0 18.87769560833324 74.99520492987395
  endloop
endfacet
facet normal 0.0 0.6552017413601277 -0.7554539549957076
  outer loop
    vertex 3.0 19.173515192762743 75.251767895181
    vertex 0.0 18.87769560833324 74.99520492987395
    vertex 0.0 19.173515192762743 75.251767895181
  endloop
endfacet
facet normal 0.0 0.6552017413601277 -0.7554539549957076
  outer loop
    vertex 0.0 18.87769560833324 74.99520492987395
    vertex 3.0 19.173515192762743 75.251767895181
    vertex 3.0 18.87769560833324 74.99520492987395
  endloop
endfacet
facet normal 0.0 0.43735041215840076 -0.899291174750913
  outer loop
    vertex 3.0 19.52565835097474 75.42302494707572
    vertex 0.0 19.173515192762743 75.251767895181
    vertex 0.0 19.52565835097474 75.42302494707572
  endloop
endfacet
facet normal 0.0 0.43735041215840076 -0.899291174750913
  outer loop
    vertex 0.0 19.173515192762743 75.251767895181
    vertex 3.0 19.52565835097474 75.42302494707572
    vertex 3.0 19.173515192762743 75.251767895181
  endloop
endfacet
facet normal 0.0 0.18969437512383397 -0.9818431870957695
  outer loop
    vertex 3.0 19.910127108681177 75.49730520048715
    vertex 0.0 19.52565835097474 75.42302494707572
    vertex 0.0 19.910127108681177 75.49730520048715
  endloop
endfacet
facet normal 0.0 0.18969437512383397 -0.9818431870957695
  outer loop
    vertex 0.0 19.52565835097474 75.42302494707572
    vertex 3.0 19.910127108681177 75.49730520048715
    vertex 3.0 19.52565835097474 75.42302494707572
  endloop
endfacet
facet normal -0.0 -0.07088902009068472 -0.9974842088126422
  outer loop
    vertex 3.0 20.30072055540901 75.46954657889921
    vertex 0.0 19.910127108681177 75.49730520048715
    vertex 0.0 20.30072055540901 75.46954657889921
  endloop
endfacet
facet normal -0.0 -0.07088902009068472 -0.9974842088126422
  outer loop
    vertex 0.0 19.910127108681177 75.49730520048715
    vertex 3.0 20.30072055540901 75.46954657889921
    vertex 3.0 19.910127108681177 75.49730520048715
  endloop
endfacet
facet normal -0.0 -0.3266414457356558 -0.9451483301195218
  outer loop
    vertex 3.0 20.670820393249937 75.34164078649982
    vertex 0.0 20.30072055540901 75.46954657889921
    vertex 0.0 20.670820393249937 75.34164078649982
  endloop
endfacet
facet normal -0.0 -0.3266414457356558 -0.9451483301195218
  outer loop
    vertex 0.0 20.30072055540901 75.46954657889921
    vertex 3.0 20.670820393249937 75.34164078649982
    vertex 3.0 20.30072055540901 75.46954657889921
  endloop
endfacet
facet normal -0.0 -0.5601337966542221 -0.8284021546602391
  outer loop
    vertex 3.0 20.995204929873996 75.12230439166672
    vertex 0.0 20.670820393249937 75.34164078649982
    vertex 0.0 20.995204929873996 75.12230439166672
  endloop
endfacet
facet normal -0.0 -0.5601337966542221 -0.8284021546602391
  outer loop
    vertex 0.0 20.670820393249937 75.34164078649982
    vertex 3.0 20.995204929873996 75.12230439166672
    vertex 3.0 20.670820393249937 75.34164078649982
  endloop
endfacet
facet normal -0.0 -0.7554539549957107 -0.655201741360124
  outer loop
    vertex 3.0 20.995204929873996 75.12230439166672
    vertex 0.0 21.251767895181047 74.82648480723721
    vertex 3.0 21.251767895181047 74.82648480723721
  endloop
endfacet
facet normal -0.0 -0.7554539549957107 -0.655201741360124
  outer loop
    vertex 0.0 21.251767895181047 74.82648480723721
    vertex 3.0 20.995204929873996 75.12230439166672
    vertex 0.0 20.995204929873996 75.12230439166672
  endloop
endfacet
facet normal 0.0 1.0 0.0
  outer loop
    vertex 0.0 39.99999999999999 83.99999999999994
    vertex 3.0 39.99999999999999 5.000000000000001
    vertex 0.0 39.99999999999999 4.999999999999999
  endloop
endfacet
facet normal 0.0 1.0 0.0
  outer loop
    vertex 3.0 39.99999999999999 5.000000000000001
    vertex 0.0 39.99999999999999 83.99999999999994
    vertex 3.0 39.99999999999999 83.99999999999994
  endloop
endfacet
facet normal 1.0 0.0 0.0
  outer loop
    vertex 22.999999999999996 39.99999999999999 0.0
    vertex 22.999999999999996 22.999999999999996 4.999999999999999
    vertex 22.999999999999996 22.999999999999996 0.0
  endloop
endfacet
facet normal 1.0 0.0 0.0
  outer loop
    vertex 22.999999999999996 22.999999999999996 4.999999999999999
    vertex 22.999999999999996 39.99999999999999 0.0
    vertex 22.999999999999996 39.99999999999999 4.999999999999999
  endloop
endfacet
facet normal 0.0 1.0 0.0
  outer loop
    vertex 22.999999999999996 22.999999999999996 59.99999999999999
    vertex 39.99999999999999 22.999999999999996 9.0
    vertex 22.999999999999996 22.999999999999996 9.0
  endloop
endfacet
facet normal 0.0 1.0 0.0
  outer loop
    vertex 39.99999999999999 22.999999999999996 9.0
    vertex 22.999999999999996 22.999999999999996 59.99999999999999
    vertex 39.99999999999999 22.999999999999996 59.99999999999999
  endloop
endfacet
facet normal 0.0 1.0 0.0
  outer loop
    vertex 7.0 39.99999999999999 59.99999999999999
    vertex 22.999999999999996 39.99999999999999 9.0
    vertex 7.0 39.99999999999999 9.0
  endloop
endfacet
facet normal 0.0 1.0 0.0
  outer loop
    vertex 22.999999999999996 39.99999999999999 9.0
    vertex 7.0 39.99999999999999 59.99999999999999
    vertex 22.999999999999996 39.99999999999999 59.99999999999999
  endloop
endfacet
facet normal 1.0 0.0 0.0
  outer loop
    vertex 22.999999999999996 35.0 9.0
    vertex 22.999999999999996 22.999999999999996 59.99999999999999
    vertex 22.999999999999996 22.999999999999996 9.0
  endloop
endfacet
facet normal 1.0 0.0 0.0
  outer loop
    vertex 22.999999999999996 22.999999999999996 59.99999999999999
    vertex 22.999999999999996 35.0 9.0
    vertex 22.999999999999996 39.99999999999999 59.99999999999999
  endloop
endfacet
facet normal 1.0 0.0 0.0
  outer loop
    vertex 22.999999999999996 39.99999999999999 59.99999999999999
    vertex 22.999999999999996 35.0 9.0
    vertex 22.999999999999996 39.99999999999999 9.0
  endloop
endfacet
facet normal -1.0 0.0 0.0
  outer loop
    vertex 7.0 39.99999999999999 59.99999999999999
    vertex 7.0 29.000000000000014 9.0
    vertex 7.0 29.000000000000014 59.99999999999999
  endloop
endfacet
facet normal -1.0 0.0 0.0
  outer loop
    vertex 7.0 29.000000000000014 9.0
    vertex 7.0 39.99999999999999 59.99999999999999
    vertex 7.0 39.99999999999999 9.0
  endloop
endfacet
facet normal 1.0 9.461138023662147e-18 -5.985305705665969e-19
  outer loop
    vertex 3.0 29.000000000000014 59.99999999999999
    vertex 3.0 3.0 83.99999999999994
    vertex 3.0 3.0 59.99999999999999
  endloop
endfacet
facet normal 1.0 9.461138023662147e-18 -5.985305705665969e-19
  outer loop
    vertex 3.0 3.0 83.99999999999994
    vertex 3.0 29.000000000000014 59.99999999999999
    vertex 3.0 18.748232104818946 73.1735151927627
  endloop
endfacet
facet normal 1.0 9.461138023662147e-18 -5.985305705665969e-19
  outer loop
    vertex 3.0 3.0 83.99999999999994
    vertex 3.0 18.748232104818946 73.1735151927627
    vertex 3.0 18.576975052924226 73.5256583509747
  endloop
endfacet
facet normal 1.0 9.461138023662147e-18 -5.985305705665969e-19
  outer loop
    vertex 3.0 3.0 83.99999999999994
    vertex 3.0 18.576975052924226 73.5256583509747
    vertex 3.0 18.502694799512803 73.91012710868114
  endloop
endfacet
facet normal 1.0 9.461138023662147e-18 -5.985305705665969e-19
  outer loop
    vertex 3.0 18.576975052924226 73.5256583509747
    vertex 3.0 18.748232104818946 73.1735151927627
    vertex 3.0 18.66975669612134 73.33487834806063
  endloop
endfacet
facet normal 1.0 9.461138023662147e-18 -5.985305705665969e-19
  outer loop
    vertex 3.0 18.748232104818946 73.1735151927627
    vertex 3.0 29.000000000000014 59.99999999999999
    vertex 3.0 19.004795070126 72.8776956083332
  endloop
endfacet
facet normal 1.0 9.461138023662147e-18 -5.985305705665969e-19
  outer loop
    vertex 3.0 19.004795070126 72.8776956083332
    vertex 3.0 29.000000000000014 59.99999999999999
    vertex 3.0 19.32917960675006 72.65835921350009
  endloop
endfacet
facet normal 1.0 9.461138023662147e-18 -5.985305705665969e-19
  outer loop
    vertex 3.0 19.32917960675006 72.65835921350009
    vertex 3.0 29.000000000000014 59.99999999999999
    vertex 3.0 19.699279444590985 72.5304534211007
  endloop
endfacet
facet normal 1.0 9.461138023662147e-18 -5.985305705665969e-19
  outer loop
    vertex 3.0 19.699279444590985 72.5304534211007
    vertex 3.0 29.000000000000014 59.99999999999999
    vertex 3.0 20.08987289131882 72.50269479951275
  endloop
endfacet
facet normal 1.0 9.461138023662147e-18 -5.985305705665969e-19
  outer loop
    vertex 3.0 20.08987289131882 72.50269479951275
    vertex 3.0 29.000000000000014 59.99999999999999
    vertex 3.0 20.474341649025252 72.57697505292418
  endloop
endfacet
facet normal 1.0 9.461138023662147e-18 -5.985305705665969e-19
  outer loop
    vertex 3.0 20.474341649025252 72.57697505292418
    vertex 3.0 29.000000000000014 59.99999999999999
    vertex 3.0 20.826484807237254 72.7482321048189
  endloop
endfacet
facet normal 1.0 9.461138023662147e-18 -5.985305705665969e-19
  outer loop
    vertex 3.0 20.826484807237254 72.7482321048189
    vertex 3.0 29.000000000000014 59.99999999999999
    vertex 3.0 21.122304391666756 73.00479507012595
  endloop
endfacet
facet normal 1.0 9.461138023662147e-18 -5.985305705665969e-19
  outer loop
    vertex 3.0 21.122304391666756 73.00479507012595
    vertex 3.0 29.000000000000014 59.99999999999999
    vertex 3.0 21.34164078649987 73.32917960675002
  endloop
endfacet
facet normal 1.0 9.461138023662147e-18 -5.985305705665969e-19
  outer loop
    vertex 3.0 21.34164078649987 73.32917960675002
    vertex 3.0 29.000000000000014 59.99999999999999
    vertex 3.0 21.469546578899248 73.69927944459094
  endloop
endfacet
facet normal 1.0 9.461138023662147e-18 -5.985305705665969e-19
  outer loop
    vertex 3.0 21.469546578899248 73.69927944459094
    vertex 3.0 29.000000000000014 59.99999999999999
    vertex 3.0 21.49730520048719 74.08987289131878
  endloop
endfacet
facet normal 1.0 9.461138023662147e-18 -5.985305705665969e-19
  outer loop
    vertex 3.0 39.99999999999999 5.000000000000001
    vertex 3.0 29.000000000000014 59.99999999999999
    vertex 3.0 29.000000000000014 5.000000000000001
  endloop
endfacet
facet normal 1.0 9.461138023662147e-18 -5.985305705665969e-19
  outer loop
    vertex 3.0 3.0 83.99999999999994
    vertex 3.0 19.52565835097474 75.42302494707572
    vertex 3.0 39.99999999999999 83.99999999999994
  endloop
endfacet
facet normal 1.0 9.461138023662147e-18 -5.985305705665969e-19
  outer loop
    vertex 3.0 19.52565835097474 75.42302494707572
    vertex 3.0 3.0 83.99999999999994
    vertex 3.0 19.173515192762743 75.251767895181
  endloop
endfacet
facet normal 1.0 9.461138023662147e-18 -5.985305705665969e-19
  outer loop
    vertex 3.0 19.173515192762743 75.251767895181
    vertex 3.0 3.0 83.99999999999994
    vertex 3.0 18.87769560833324 74.99520492987395
  endloop
endfacet
facet normal 1.0 9.461138023662147e-18 -5.985305705665969e-19
  outer loop
    vertex 3.0 18.87769560833324 74.99520492987395
    vertex 3.0 3.0 83.99999999999994
    vertex 3.0 18.658359213500123 74.6708203932499
  endloop
endfacet
facet normal 1.0 9.461138023662147e-18 -5.985305705665969e-19
  outer loop
    vertex 3.0 18.658359213500123 74.6708203932499
    vertex 3.0 3.0 83.99999999999994
    vertex 3.0 18.530453421100745 74.30072055540897
  endloop
endfacet
facet normal 1.0 9.461138023662147e-18 -5.985305705665969e-19
  outer loop
    vertex 3.0 18.530453421100745 74.30072055540897
    vertex 3.0 3.0 83.99999999999994
    vertex 3.0 18.502694799512803 73.91012710868114
  endloop
endfacet
facet normal 1.0 9.461138023662147e-18 -5.985305705665969e-19
  outer loop
    vertex 3.0 39.99999999999999 83.99999999999994
    vertex 3.0 19.52565835097474 75.42302494707572
    vertex 3.0 19.910127108681177 75.49730520048715
  endloop
endfacet
facet normal 1.0 9.461138023662147e-18 -5.985305705665969e-19
  outer loop
    vertex 3.0 39.99999999999999 83.99999999999994
    vertex 3.0 19.910127108681177 75.49730520048715
    vertex 3.0 20.30072055540901 75.46954657889921
  endloop
endfacet
facet normal 1.0 9.461138023662147e-18 -5.985305705665969e-19
  outer loop
    vertex 3.0 39.99999999999999 83.99999999999994
    vertex 3.0 20.30072055540901 75.46954657889921
    vertex 3.0 20.670820393249937 75.34164078649982
  endloop
endfacet
facet normal 1.0 9.461138023662147e-18 -5.985305705665969e-19
  outer loop
    vertex 3.0 39.99999999999999 83.99999999999994
    vertex 3.0 20.670820393249937 75.34164078649982
    vertex 3.0 20.995204929873996 75.12230439166672
  endloop
endfacet
facet normal 1.0 9.461138023662147e-18 -5.985305705665969e-19
  outer loop
    vertex 3.0 39.99999999999999 83.99999999999994
    vertex 3.0 20.995204929873996 75.12230439166672
    vertex 3.0 21.251767895181047 74.82648480723721
  endloop
endfacet
facet normal 1.0 9.461138023662147e-18 -5.985305705665969e-19
  outer loop
    vertex 3.0 39.99999999999999 83.99999999999994
    vertex 3.0 21.251767895181047 74.82648480723721
    vertex 3.0 21.330243303878657 74.66512165193927
  endloop
endfacet
facet normal 1.0 9.461138023662147e-18 -5.985305705665969e-19
  outer loop
    vertex 3.0 39.99999999999999 83.99999999999994
    vertex 3.0 21.330243303878657 74.66512165193927
    vertex 3.0 21.423024947075767 74.4743416490252
  endloop
endfacet
facet normal 1.0 9.461138023662147e-18 -5.985305705665969e-19
  outer loop
    vertex 3.0 39.99999999999999 83.99999999999994
    vertex 3.0 21.423024947075767 74.4743416490252
    vertex 3.0 21.49730520048719 74.08987289131878
  endloop
endfacet
facet normal 1.0 9.461138023662147e-18 -5.985305705665969e-19
  outer loop
    vertex 3.0 39.99999999999999 83.99999999999994
    vertex 3.0 21.49730520048719 74.08987289131878
    vertex 3.0 29.000000000000014 59.99999999999999
  endloop
endfacet
facet normal 1.0 9.461138023662147e-18 -5.985305705665969e-19
  outer loop
    vertex 3.0 39.99999999999999 83.99999999999994
    vertex 3.0 29.000000000000014 59.99999999999999
    vertex 3.0 39.99999999999999 5.000000000000001
  endloop
endfacet
facet normal 0.0 0.0 -1.0
  outer loop
    vertex 22.999999999999996 39.99999999999999 9.0
    vertex 7.0 29.000000000000014 9.0
    vertex 7.0 39.99999999999999 9.0
  endloop
endfacet
facet normal 0.0 0.0 -1.0
  outer loop
    vertex 7.0 29.000000000000014 9.0
    vertex 22.999999999999996 39.99999999999999 9.0
    vertex 15.999999999999993 33.00000000000001 9.0
  endloop
endfacet
facet normal 0.0 0.0 -1.0
  outer loop
    vertex 15.999999999999993 33.00000000000001 9.0
    vertex 22.999999999999996 39.99999999999999 9.0
    vertex 17.999999999999996 35.0 9.0
  endloop
endfacet
facet normal 0.0 0.0 -1.0
  outer loop
    vertex 17.999999999999996 35.0 9.0
    vertex 22.999999999999996 39.99999999999999 9.0
    vertex 22.999999999999996 35.0 9.0
  endloop
endfacet
facet normal 0.0 0.0 -1.0
  outer loop
    vertex 17.999999999999996 33.00000000000001 9.0
    vertex 15.999999999999993 33.00000000000001 9.0
    vertex 17.999999999999996 35.0 9.0
  endloop
endfacet
facet normal 0.0 0.0 -1.0
  outer loop
    vertex 15.999999999999993 29.000000000000014 9.0
    vertex 7.0 29.000000000000014 9.0
    vertex 15.999999999999993 33.00000000000001 9.0
  endloop
endfacet
facet normal -0.0 -0.0 -1.0
  outer loop
    vertex 22.999999999999996 35.0 9.0
    vertex 17.999999999999996 33.00000000000001 9.0
    vertex 17.999999999999996 35.0 9.0
  endloop
endfacet
facet normal -0.0 -0.0 -1.0
  outer loop
    vertex 17.999999999999996 33.00000000000001 9.0
    vertex 15.999999999999993 29.000000000000014 9.0
    vertex 15.999999999999993 33.00000000000001 9.0
  endloop
endfacet
facet normal -0.0 -0.0 -1.0
  outer loop
    vertex 15.999999999999993 29.000000000000014 9.0
    vertex 17.999999999999996 33.00000000000001 9.0
    vertex 15.999999999999993 15.999999999999993 9.0
  endloop
endfacet
facet normal -0.0 -0.0 -1.0
  outer loop
    vertex 15.999999999999993 15.999999999999993 9.0
    vertex 17.999999999999996 33.00000000000001 9.0
    vertex 22.999999999999996 15.999999999999993 9.0
  endloop
endfacet
facet normal -0.0 -0.0 -1.0
  outer loop
    vertex 22.999999999999996 15.999999999999993 9.0
    vertex 17.999999999999996 33.00000000000001 9.0
    vertex 22.999999999999996 35.0 9.0
  endloop
endfacet
facet normal -0.0 -0.0 -1.0
  outer loop
    vertex 22.999999999999996 15.999999999999993 9.0
    vertex 22.999999999999996 35.0 9.0
    vertex 22.999999999999996 22.999999999999996 9.0
  endloop
endfacet
facet normal 0.0 0.0 -1.0
  outer loop
    vertex 39.99999999999999 22.999999999999996 9.0
    vertex 22.999999999999996 15.999999999999993 9.0
    vertex 22.999999999999996 22.999999999999996 9.0
  endloop
endfacet
facet normal 0.0 0.0 -1.0
  outer loop
    vertex 22.999999999999996 15.999999999999993 9.0
    vertex 39.99999999999999 22.999999999999996 9.0
    vertex 29.000000000000014 15.999999999999993 9.0
  endloop
endfacet
facet normal 0.0 0.0 -1.0
  outer loop
    vertex 29.000000000000014 15.999999999999993 9.0
    vertex 39.99999999999999 22.999999999999996 9.0
    vertex 35.0 17.999999999999996 9.0
  endloop
endfacet
facet normal 0.0 0.0 -1.0
  outer loop
    vertex 35.0 17.999999999999996 9.0
    vertex 39.99999999999999 22.999999999999996 9.0
    vertex 39.99999999999999 17.999999999999996 9.0
  endloop
endfacet
facet normal 0.0 0.0 -1.0
  outer loop
    vertex 35.0 15.999999999999993 9.0
    vertex 29.000000000000014 15.999999999999993 9.0
    vertex 35.0 17.999999999999996 9.0
  endloop
endfacet
facet normal 1.0 0.0 0.0
  outer loop
    vertex 39.99999999999999 7.0 8.999999999999998
    vertex 39.99999999999999 22.999999999999996 59.99999999999999
    vertex 39.99999999999999 6.999999999999998 59.99999999999999
  endloop
endfacet
facet normal 1.0 0.0 0.0
  outer loop
    vertex 39.99999999999999 22.999999999999996 59.99999999999999
    vertex 39.99999999999999 7.0 8.999999999999998
    vertex 39.99999999999999 17.999999999999996 9.0
  endloop
endfacet
facet normal 1.0 0.0 0.0
  outer loop
    vertex 39.99999999999999 22.999999999999996 59.99999999999999
    vertex 39.99999999999999 17.999999999999996 9.0
    vertex 39.99999999999999 22.999999999999996 9.0
  endloop
endfacet
facet normal 0.0 -1.0 -2.764673022105783e-17
  outer loop
    vertex 39.99999999999999 6.999999999999998 59.99999999999999
    vertex 29.000000000000014 7.0 8.999999999999998
    vertex 39.99999999999999 7.0 8.999999999999998
  endloop
endfacet
facet normal 0.0 -1.0 -2.764673022105783e-17
  outer loop
    vertex 29.000000000000014 7.0 8.999999999999998
    vertex 39.99999999999999 6.999999999999998 59.99999999999999
    vertex 29.000000000000014 6.999999999999998 59.99999999999999
  endloop
endfacet
facet normal -1.697526799260694e-19 1.0 4.860761122093394e-18
  outer loop
    vertex 3.0 3.0 83.99999999999994
    vertex 29.000000000000014 3.0 59.99999999999999
    vertex 3.0 3.0 59.99999999999999
  endloop
endfacet
facet normal -1.697526799260694e-19 1.0 4.860761122093394e-18
  outer loop
    vertex 29.000000000000014 3.0 59.99999999999999
    vertex 3.0 3.0 83.99999999999994
    vertex 19.25 3.0 72.7009618943233
  endloop
endfacet
facet normal -1.697526799260694e-19 1.0 4.860761122093394e-18
  outer loop
    vertex 29.000000000000014 3.0 59.99999999999999
    vertex 19.25 3.0 72.7009618943233
    vertex 19.611771432346217 3.0 72.55111126056636
  endloop
endfacet
facet normal -1.697526799260694e-19 1.0 4.860761122093394e-18
  outer loop
    vertex 29.000000000000014 3.0 59.99999999999999
    vertex 19.611771432346217 3.0 72.55111126056636
    vertex 19.999999999999996 3.0 72.49999999999997
  endloop
endfacet
facet normal -1.697526799260694e-19 1.0 4.860761122093394e-18
  outer loop
    vertex 19.25 3.0 72.7009618943233
    vertex 3.0 3.0 83.99999999999994
    vertex 18.939339828220177 3.0 72.93933982822014
  endloop
endfacet
facet normal -1.697526799260694e-19 1.0 4.860761122093394e-18
  outer loop
    vertex 18.939339828220177 3.0 72.93933982822014
    vertex 3.0 3.0 83.99999999999994
    vertex 18.70096189432334 3.0 73.24999999999997
  endloop
endfacet
facet normal -1.697526799260694e-19 1.0 4.860761122093394e-18
  outer loop
    vertex 18.70096189432334 3.0 73.24999999999997
    vertex 3.0 3.0 83.99999999999994
    vertex 18.666482284297828 3.0 73.33324114214889
  endloop
endfacet
facet normal -1.697526799260694e-19 1.0 4.860761122093394e-18
  outer loop
    vertex 18.666482284297828 3.0 73.33324114214889
    vertex 3.0 3.0 83.99999999999994
    vertex 18.551111260566394 3.0 73.61177143234619
  endloop
endfacet
facet normal -1.697526799260694e-19 1.0 4.860761122093394e-18
  outer loop
    vertex 18.551111260566394 3.0 73.61177143234619
    vertex 3.0 3.0 83.99999999999994
    vertex 18.499999999999996 3.0 73.99999999999997
  endloop
endfacet
facet normal -1.697526799260694e-19 1.0 4.860761122093394e-18
  outer loop
    vertex 18.499999999999996 3.0 73.99999999999997
    vertex 3.0 3.0 83.99999999999994
    vertex 18.551111260566394 3.0 74.38822856765374
  endloop
endfacet
facet normal -1.697526799260694e-19 1.0 4.860761122093394e-18
  outer loop
    vertex 18.551111260566394 3.0 74.38822856765374
    vertex 3.0 3.0 83.99999999999994
    vertex 18.666482284297835 3.0 74.66675885785105
  endloop
endfacet
facet normal -1.697526799260694e-19 1.0 4.860761122093394e-18
  outer loop
    vertex 18.666482284297835 3.0 74.66675885785105
    vertex 3.0 3.0 83.99999999999994
    vertex 18.70096189432334 3.0 74.74999999999997
  endloop
endfacet
facet normal -1.697526799260694e-19 1.0 4.860761122093394e-18
  outer loop
    vertex 18.70096189432334 3.0 74.74999999999997
    vertex 3.0 3.0 83.99999999999994
    vertex 18.939339828220177 3.0 75.06066017177979
  endloop
endfacet
facet normal -1.697526799260694e-19 1.0 4.860761122093394e-18
  outer loop
    vertex 18.939339828220177 3.0 75.06066017177979
    vertex 3.0 3.0 83.99999999999994
    vertex 19.249999999999996 3.0 75.29903810567663
  endloop
endfacet
facet normal -1.697526799260694e-19 1.0 4.860761122093394e-18
  outer loop
    vertex 19.249999999999996 3.0 75.29903810567663
    vertex 3.0 3.0 83.99999999999994
    vertex 19.611771432346217 3.0 75.44888873943357
  endloop
endfacet
facet normal -1.697526799260694e-19 1.0 4.860761122093394e-18
  outer loop
    vertex 19.611771432346217 3.0 75.44888873943357
    vertex 3.0 3.0 83.99999999999994
    vertex 19.999999999999996 3.0 75.49999999999996
  endloop
endfacet
facet normal -1.697526799260694e-19 1.0 4.860761122093394e-18
  outer loop
    vertex 29.000000000000014 3.0 59.99999999999999
    vertex 39.99999999999999 3.0 4.999999999999999
    vertex 29.000000000000014 3.0 4.999999999999999
  endloop
endfacet
facet normal -1.697526799260694e-19 1.0 4.860761122093394e-18
  outer loop
    vertex 39.99999999999999 3.0 4.999999999999999
    vertex 29.000000000000014 3.0 59.99999999999999
    vertex 39.99999999999999 3.0 83.99999999999994
  endloop
endfacet
facet normal -1.697526799260694e-19 1.0 4.860761122093394e-18
  outer loop
    vertex 39.99999999999999 3.0 83.99999999999994
    vertex 29.000000000000014 3.0 59.99999999999999
    vertex 20.75 3.0 72.7009618943233
  endloop
endfacet
facet normal -1.697526799260694e-19 1.0 4.860761122093394e-18
  outer loop
    vertex 20.75 3.0 72.7009618943233
    vertex 29.000000000000014 3.0 59.99999999999999
    vertex 20.38822856765378 3.0 72.55111126056636
  endloop
endfacet
facet normal -1.697526799260694e-19 1.0 4.860761122093394e-18
  outer loop
    vertex 20.38822856765378 3.0 72.55111126056636
    vertex 29.000000000000014 3.0 59.99999999999999
    vertex 19.999999999999996 3.0 72.49999999999997
  endloop
endfacet
facet normal -1.697526799260694e-19 1.0 4.860761122093394e-18
  outer loop
    vertex 39.99999999999999 3.0 83.99999999999994
    vertex 20.75 3.0 72.7009618943233
    vertex 21.06066017177982 3.0 72.93933982822014
  endloop
endfacet
facet normal -1.697526799260694e-19 1.0 4.860761122093394e-18
  outer loop
    vertex 39.99999999999999 3.0 83.99999999999994
    vertex 21.06066017177982 3.0 72.93933982822014
    vertex 21.299038105676654 3.0 73.24999999999997
  endloop
endfacet
facet normal -1.697526799260694e-19 1.0 4.860761122093394e-18
  outer loop
    vertex 39.99999999999999 3.0 83.99999999999994
    vertex 21.299038105676654 3.0 73.24999999999997
    vertex 21.333517715702165 3.0 73.33324114214889
  endloop
endfacet
facet normal -1.697526799260694e-19 1.0 4.860761122093394e-18
  outer loop
    vertex 39.99999999999999 3.0 83.99999999999994
    vertex 21.333517715702165 3.0 73.33324114214889
    vertex 21.4488887394336 3.0 73.61177143234619
  endloop
endfacet
facet normal -1.697526799260694e-19 1.0 4.860761122093394e-18
  outer loop
    vertex 39.99999999999999 3.0 83.99999999999994
    vertex 21.4488887394336 3.0 73.61177143234619
    vertex 21.499999999999996 3.0 73.99999999999997
  endloop
endfacet
facet normal -1.697526799260694e-19 1.0 4.860761122093394e-18
  outer loop
    vertex 39.99999999999999 3.0 83.99999999999994
    vertex 21.499999999999996 3.0 73.99999999999997
    vertex 21.4488887394336 3.0 74.38822856765374
  endloop
endfacet
facet normal -1.697526799260694e-19 1.0 4.860761122093394e-18
  outer loop
    vertex 39.99999999999999 3.0 83.99999999999994
    vertex 21.4488887394336 3.0 74.38822856765374
    vertex 21.333517715702165 3.0 74.66675885785105
  endloop
endfacet
facet normal -1.697526799260694e-19 1.0 4.860761122093394e-18
  outer loop
    vertex 39.99999999999999 3.0 83.99999999999994
    vertex 21.333517715702165 3.0 74.66675885785105
    vertex 21.299038105676654 3.0 74.74999999999997
  endloop
endfacet
facet normal -1.697526799260694e-19 1.0 4.860761122093394e-18
  outer loop
    vertex 39.99999999999999 3.0 83.99999999999994
    vertex 21.299038105676654 3.0 74.74999999999997
    vertex 21.06066017177982 3.0 75.06066017177979
  endloop
endfacet
facet normal -1.697526799260694e-19 1.0 4.860761122093394e-18
  outer loop
    vertex 39.99999999999999 3.0 83.99999999999994
    vertex 21.06066017177982 3.0 75.06066017177979
    vertex 20.749999999999996 3.0 75.29903810567663
  endloop
endfacet
facet normal -1.697526799260694e-19 1.0 4.860761122093394e-18
  outer loop
    vertex 39.99999999999999 3.0 83.99999999999994
    vertex 20.749999999999996 3.0 75.29903810567663
    vertex 20.38822856765378 3.0 75.44888873943357
  endloop
endfacet
facet normal -1.697526799260694e-19 1.0 4.860761122093394e-18
  outer loop
    vertex 39.99999999999999 3.0 83.99999999999994
    vertex 20.38822856765378 3.0 75.44888873943357
    vertex 19.999999999999996 3.0 75.49999999999996
  endloop
endfacet
facet normal -1.697526799260694e-19 1.0 4.860761122093394e-18
  outer loop
    vertex 39.99999999999999 3.0 83.99999999999994
    vertex 19.999999999999996 3.0 75.49999999999996
    vertex 3.0 3.0 83.99999999999994
  endloop
endfacet
facet normal 1.0 0.0 0.0
  outer loop
    vertex 39.99999999999999 0.0 0.0
    vertex 39.99999999999999 3.0 4.999999999999999
    vertex 39.99999999999999 0.0 83.99999999999994
  endloop
endfacet
facet normal 1.0 0.0 0.0
  outer loop
    vertex 39.99999999999999 3.0 4.999999999999999
    vertex 39.99999999999999 0.0 0.0
    vertex 39.99999999999999 22.999999999999996 0.0
  endloop
endfacet
facet normal 1.0 0.0 0.0
  outer loop
    vertex 39.99999999999999 0.0 83.99999999999994
    vertex 39.99999999999999 3.0 4.999999999999999
    vertex 39.99999999999999 3.0 83.99999999999994
  endloop
endfacet
facet normal 1.0 0.0 0.0
  outer loop
    vertex 39.99999999999999 3.0 4.999999999999999
    vertex 39.99999999999999 22.999999999999996 0.0
    vertex 39.99999999999999 22.999999999999996 4.999999999999999
  endloop
endfacet
facet normal 3.5059325832892996e-17 4.078944608482071e-18 1.0
  outer loop
    vertex 39.99999999999999 3.0 4.999999999999999
    vertex 29.000000000000014 15.999999999999993 4.999999999999999
    vertex 29.000000000000014 3.0 4.999999999999999
  endloop
endfacet
facet normal 3.5059325832892996e-17 4.078944608482071e-18 1.0
  outer loop
    vertex 29.000000000000014 15.999999999999993 4.999999999999999
    vertex 15.999999999999993 29.000000000000014 4.999999999999999
    vertex 15.999999999999993 15.999999999999993 4.999999999999999
  endloop
endfacet
facet normal 3.5059325832892996e-17 4.078944608482071e-18 1.0
  outer loop
    vertex 15.999999999999993 29.000000000000014 4.999999999999999
    vertex 29.000000000000014 15.999999999999993 4.999999999999999
    vertex 22.999999999999996 22.999999999999996 4.999999999999999
  endloop
endfacet
facet normal 3.5059325832892996e-17 4.078944608482071e-18 1.0
  outer loop
    vertex 22.999999999999996 22.999999999999996 4.999999999999999
    vertex 29.000000000000014 15.999999999999993 4.999999999999999
    vertex 39.99999999999999 22.999999999999996 4.999999999999999
  endloop
endfacet
facet normal 3.5059325832892996e-17 4.078944608482071e-18 1.0
  outer loop
    vertex 39.99999999999999 22.999999999999996 4.999999999999999
    vertex 29.000000000000014 15.999999999999993 4.999999999999999
    vertex 39.99999999999999 3.0 4.999999999999999
  endloop
endfacet
facet normal 3.5059325832892996e-17 4.078944608482071e-18 1.0
  outer loop
    vertex 15.999999999999993 29.000000000000014 4.999999999999999
    vertex 3.0 39.99999999999999 5.000000000000001
    vertex 3.0 29.000000000000014 5.000000000000001
  endloop
endfacet
facet normal 3.5059325832892996e-17 4.078944608482071e-18 1.0
  outer loop
    vertex 3.0 39.99999999999999 5.000000000000001
    vertex 15.999999999999993 29.000000000000014 4.999999999999999
    vertex 22.999999999999996 39.99999999999999 4.999999999999999
  endloop
endfacet
facet normal 3.5059325832892996e-17 4.078944608482071e-18 1.0
  outer loop
    vertex 22.999999999999996 39.99999999999999 4.999999999999999
    vertex 15.999999999999993 29.000000000000014 4.999999999999999
    vertex 22.999999999999996 22.999999999999996 4.999999999999999
  endloop
endfacet
facet normal 0.0 1.2818029466126812e-16 -1.0
  outer loop
    vertex 39.99999999999999 17.999999999999996 9.0
    vertex 35.0 15.999999999999993 9.0
    vertex 35.0 17.999999999999996 9.0
  endloop
endfacet
facet normal 0.0 1.2818029466126812e-16 -1.0
  outer loop
    vertex 35.0 15.999999999999993 9.0
    vertex 29.000000000000014 7.0 8.999999999999998
    vertex 29.000000000000014 15.999999999999993 9.0
  endloop
endfacet
facet normal 0.0 1.2818029466126812e-16 -1.0
  outer loop
    vertex 29.000000000000014 7.0 8.999999999999998
    vertex 35.0 15.999999999999993 9.0
    vertex 39.99999999999999 7.0 8.999999999999998
  endloop
endfacet
facet normal 0.0 1.2818029466126812e-16 -1.0
  outer loop
    vertex 39.99999999999999 7.0 8.999999999999998
    vertex 35.0 15.999999999999993 9.0
    vertex 39.99999999999999 17.999999999999996 9.0
  endloop
endfacet
facet normal 1.0 0.0 0.0
  outer loop
    vertex 15.999999999999993 29.000000000000014 4.999999999999999
    vertex 15.999999999999993 15.999999999999993 9.0
    vertex 15.999999999999993 15.999999999999993 4.999999999999999
  endloop
endfacet
facet normal 1.0 0.0 0.0
  outer loop
    vertex 15.999999999999993 15.999999999999993 9.0
    vertex 15.999999999999993 29.000000000000014 4.999999999999999
    vertex 15.999999999999993 29.000000000000014 9.0
  endloop
endfacet
facet normal 0.0 1.0 0.0
  outer loop
    vertex 15.999999999999993 15.999999999999993 9.0
    vertex 29.000000000000014 15.999999999999993 4.999999999999999
    vertex 15.999999999999993 15.999999999999993 4.999999999999999
  endloop
endfacet
facet normal 0.0 1.0 0.0
  outer loop
    vertex 29.000000000000014 15.999999999999993 4.999999999999999
    vertex 15.999999999999993 15.999999999999993 9.0
    vertex 29.000000000000014 15.999999999999993 9.0
  endloop
endfacet
facet normal 0.0 1.0 0.0
  outer loop
    vertex 29.000000000000014 15.999999999999993 9.0
    vertex 15.999999999999993 15.999999999999993 9.0
    vertex 22.999999999999996 15.999999999999993 9.0
  endloop
endfacet
facet normal 1.0 0.0 0.0
  outer loop
    vertex 29.000000000000014 3.0 4.999999999999999
    vertex 29.000000000000014 6.999999999999998 59.99999999999999
    vertex 29.000000000000014 3.0 59.99999999999999
  endloop
endfacet
facet normal 1.0 0.0 0.0
  outer loop
    vertex 29.000000000000014 6.999999999999998 59.99999999999999
    vertex 29.000000000000014 3.0 4.999999999999999
    vertex 29.000000000000014 7.0 8.999999999999998
  endloop
endfacet
facet normal 1.0 0.0 0.0
  outer loop
    vertex 29.000000000000014 7.0 8.999999999999998
    vertex 29.000000000000014 3.0 4.999999999999999
    vertex 29.000000000000014 15.999999999999993 4.999999999999999
  endloop
endfacet
facet normal 1.0 0.0 0.0
  outer loop
    vertex 29.000000000000014 7.0 8.999999999999998
    vertex 29.000000000000014 15.999999999999993 4.999999999999999
    vertex 29.000000000000014 15.999999999999993 9.0
  endloop
endfacet
facet normal 0.0 1.0 0.0
  outer loop
    vertex 3.0 29.000000000000014 59.99999999999999
    vertex 7.0 29.000000000000014 9.0
    vertex 3.0 29.000000000000014 5.000000000000001
  endloop
endfacet
facet normal 0.0 1.0 0.0
  outer loop
    vertex 7.0 29.000000000000014 9.0
    vertex 3.0 29.000000000000014 59.99999999999999
    vertex 7.0 29.000000000000014 59.99999999999999
  endloop
endfacet
facet normal 0.0 1.0 0.0
  outer loop
    vertex 3.0 29.000000000000014 5.000000000000001
    vertex 15.999999999999993 29.000000000000014 9.0
    vertex 15.999999999999993 29.000000000000014 4.999999999999999
  endloop
endfacet
facet normal 0.0 1.0 0.0
  outer loop
    vertex 15.999999999999993 29.000000000000014 9.0
    vertex 3.0 29.000000000000014 5.000000000000001
    vertex 7.0 29.000000000000014 9.0
  endloop
endfacet
endsolid piedImprimante
